# Blender 4.5.9 LTS
# www.blender.org
mtllib island_sand.mtl
o island_sand
v -121.798439 27.323259 -93.261131
v -121.798439 27.323259 -108.015099
v -92.098442 27.323259 -93.261131
v -92.098442 27.323259 -108.015099
v -75.543953 27.200424 -93.261131
v -75.543953 27.200424 -108.679176
v -45.843956 27.200424 -93.261131
v -45.843956 27.200424 -108.679176
v -31.946693 27.319149 -93.261131
v -31.946693 27.319149 -112.782768
v -2.246692 27.319149 -93.261131
v -2.246692 27.319149 -112.782768
v 6.938957 27.308382 -93.261131
v 6.938957 27.308382 -110.253868
v 36.638958 27.308382 -93.261131
v 36.638958 27.308382 -110.253868
v 56.727493 27.332741 -93.261131
v 56.727493 27.332741 -110.144249
v 86.427490 27.332741 -93.261131
v 86.427490 27.332741 -110.144249
v 98.660881 27.281023 -93.261131
v 98.660881 27.281023 -109.188057
v 128.360886 27.281023 -93.261131
v 128.360886 27.281023 -109.188057
v -98.718483 27.249908 114.957573
v -98.718483 27.249908 98.738869
v -69.018486 27.249908 114.957573
v -69.018486 27.249908 98.738869
v -57.671150 27.309776 114.749016
v -57.671150 27.309776 98.738869
v -27.971148 27.309776 114.749016
v -27.971148 27.309776 98.738869
v -14.594730 27.299166 115.471809
v -14.594730 27.299166 98.738869
v 15.105270 27.299166 115.471809
v 15.105270 27.299166 98.738869
v 34.331253 27.329605 118.452461
v 34.331253 27.329605 98.738869
v 64.031250 27.329605 118.452461
v 64.031250 27.329605 98.738869
v 74.365456 27.149433 118.604195
v 74.365456 27.149433 98.738869
v 104.065453 27.149433 118.604195
v 104.065453 27.149433 98.738869
v 94.747040 27.340702 121.947739
v 94.747040 27.340702 92.247742
v 113.891891 27.340702 121.947739
v 113.891891 27.340702 92.247742
v 94.747040 27.301773 81.631317
v 94.747040 27.301773 51.931320
v 111.841431 27.301773 81.631317
v 111.841431 27.301773 51.931320
v 94.747040 27.189928 33.198326
v 94.747040 27.189928 3.498327
v 109.191315 27.189928 33.198326
v 109.191315 27.189928 3.498327
v 94.747040 27.160255 -11.374805
v 94.747040 27.160255 -41.074806
v 111.861359 27.160255 -11.374805
v 111.861359 27.160255 -41.074806
v 94.747040 27.169916 -52.636047
v 94.747040 27.169916 -82.336044
v 111.727737 27.169916 -52.636047
v 111.727737 27.169916 -82.336044
v 94.747040 27.326559 -99.038872
v 94.747040 27.326559 -128.738861
v 114.024048 27.326559 -99.038872
v 114.024048 27.326559 -128.738861
v -112.902863 27.256777 103.933846
v -112.902863 27.256777 74.233849
v -97.252960 27.256777 103.933846
v -97.252960 27.256777 74.233849
v -111.889816 27.287361 56.676163
v -111.889816 27.287361 26.976164
v -97.252960 27.287361 56.676163
v -97.252960 27.287361 26.976164
v -115.432571 27.192078 15.454700
v -115.432571 27.192078 -14.245300
v -97.252960 27.192078 15.454700
v -97.252960 27.192078 -14.245300
v -112.025558 27.187815 -32.310127
v -112.025558 27.187815 -62.010124
v -97.252960 27.187815 -32.310127
v -97.252960 27.187815 -62.010124
v -116.814392 27.309389 -72.541992
v -116.814392 27.309389 -102.241989
v -97.252960 27.309389 -72.541992
v -97.252960 27.309389 -102.241989
v -98.448761 26.654501 -101.261131
v -98.448761 26.654501 -111.281487
v -68.748764 26.654501 -101.261131
v -68.748764 26.654501 -111.281487
v -54.425293 26.707617 -101.261131
v -54.425293 26.707617 -116.687950
v -24.725290 26.707617 -101.261131
v -24.725290 26.707617 -116.687950
v -12.975184 26.602757 -101.261131
v -12.975184 26.602757 -113.492760
v 16.724815 26.602757 -101.261131
v 16.724815 26.602757 -113.492760
v 32.085541 26.594967 -101.261131
v 32.085541 26.594967 -115.759941
v 61.785538 26.594967 -101.261131
v 61.785538 26.594967 -115.759941
v 77.279655 26.725742 -101.261131
v 77.279655 26.725742 -114.886452
v 106.979652 26.725742 -101.261131
v 106.979652 26.725742 -114.886452
v -119.873489 26.556612 117.656242
v -119.873489 26.556612 106.738869
v -90.173492 26.556612 117.656242
v -90.173492 26.556612 106.738869
v -75.665108 26.714321 120.251427
v -75.665108 26.714321 106.738869
v -45.965111 26.714321 120.251427
v -45.965111 26.714321 106.738869
v -33.942348 26.737299 121.113655
v -33.942348 26.737299 106.738869
v -4.242348 26.737299 121.113655
v -4.242348 26.737299 106.738869
v 8.873304 26.532808 119.119347
v 8.873304 26.532808 106.738869
v 38.573303 26.532808 119.119347
v 38.573303 26.532808 106.738869
v 54.988899 26.683353 120.628746
v 54.988899 26.683353 106.738869
v 84.688896 26.683353 120.628746
v 84.688896 26.683353 106.738869
v 98.555832 26.608644 120.258644
v 98.555832 26.608644 106.738869
v 128.255829 26.608644 120.258644
v 128.255829 26.608644 106.738869
v 102.747040 26.553480 103.188225
v 102.747040 26.553480 73.488228
v 116.788773 26.553480 103.188225
v 116.788773 26.553480 73.488228
v 102.747040 26.558554 59.438843
v 102.747040 26.558554 29.738844
v 117.649612 26.558554 59.438843
v 117.649612 26.558554 29.738844
v 102.747040 26.678434 12.912344
v 102.747040 26.678434 -16.787657
v 118.230286 26.678434 12.912344
v 118.230286 26.678434 -16.787657
v 102.747040 26.599030 -28.628874
v 102.747040 26.599030 -58.328873
v 114.823532 26.599030 -28.628874
v 114.823532 26.599030 -58.328873
v 102.747040 26.608456 -77.096603
v 102.747040 26.608456 -106.796600
v 113.124878 26.608456 -77.096603
v 113.124878 26.608456 -106.796600
v -116.363342 26.557312 124.502235
v -116.363342 26.557312 94.802238
v -105.252960 26.557312 124.502235
v -105.252960 26.557312 94.802238
v -117.521942 26.736662 82.587341
v -117.521942 26.736662 52.887344
v -105.252960 26.736662 82.587341
v -105.252960 26.736662 52.887344
v -120.707306 26.550417 35.462875
v -120.707306 26.550417 5.762875
v -105.252960 26.550417 35.462875
v -105.252960 26.550417 5.762875
v -119.201508 26.733038 -6.371515
v -119.201508 26.733038 -36.071518
v -105.252960 26.733038 -6.371515
v -105.252960 26.733038 -36.071518
v -117.464005 26.638416 -54.990875
v -117.464005 26.638416 -84.690872
v -105.252960 26.638416 -54.990875
v -105.252960 26.638416 -84.690872
v -117.139114 26.668180 -95.362175
v -117.139114 26.668180 -125.062172
v -105.252960 26.668180 -95.362175
v -105.252960 26.668180 -125.062172
v 94.747040 26.000000 106.738869
v 94.747040 27.000000 106.738869
v 94.747040 26.000000 -101.261131
v 94.747040 27.000000 -101.261131
v 124.747040 26.000000 106.738869
v 124.747040 27.000000 106.738869
v 124.747040 26.000000 -101.261131
v 124.747040 27.000000 -101.261131
v -129.252960 26.000000 -93.261131
v -129.252960 27.000000 -93.261131
v -129.252960 26.000000 -123.261131
v -129.252960 27.000000 -123.261131
v 126.747040 26.000000 -93.261131
v 126.747040 27.000000 -93.261131
v 126.747040 26.000000 -123.261131
v 126.747040 27.000000 -123.261131
v -129.252960 26.000000 128.738861
v -129.252960 27.000000 128.738861
v -129.252960 26.000000 98.738869
v -129.252960 27.000000 98.738869
v 126.747040 26.000000 128.738861
v 126.747040 27.000000 128.738861
v 126.747040 26.000000 98.738869
v 126.747040 27.000000 98.738869
v -127.252960 26.000000 106.738869
v -127.252960 27.000000 106.738869
v -127.252960 26.000000 -101.261131
v -127.252960 27.000000 -101.261131
v -97.252960 26.000000 106.738869
v -97.252960 27.000000 106.738869
v -97.252960 26.000000 -101.261131
v -97.252960 27.000000 -101.261131
v -121.798439 26.123260 -93.261131
v -121.798439 27.323259 -93.261131
v -121.798439 26.123260 -108.015099
v -121.798439 27.323259 -108.015099
v -92.098442 26.123260 -93.261131
v -92.098442 27.323259 -93.261131
v -92.098442 26.123260 -108.015099
v -92.098442 27.323259 -108.015099
v -97.613884 26.112455 -93.261131
v -97.613884 27.312456 -93.261131
v -97.613884 26.112455 -111.212746
v -97.613884 27.312456 -111.212746
v -67.913887 26.112455 -93.261131
v -67.913887 27.312456 -93.261131
v -67.913887 26.112455 -111.212746
v -67.913887 27.312456 -111.212746
v -75.543953 26.000423 -93.261131
v -75.543953 27.200424 -93.261131
v -75.543953 26.000423 -108.679176
v -75.543953 27.200424 -108.679176
v -45.843956 26.000423 -93.261131
v -45.843956 27.200424 -93.261131
v -45.843956 26.000423 -108.679176
v -45.843956 27.200424 -108.679176
v -53.360069 26.015152 -93.261131
v -53.360069 27.215151 -93.261131
v -53.360069 26.015152 -107.982872
v -53.360069 27.215151 -107.982872
v -23.660070 26.015152 -93.261131
v -23.660070 27.215151 -93.261131
v -23.660070 26.015152 -107.982872
v -23.660070 27.215151 -107.982872
v -31.946693 26.119150 -93.261131
v -31.946693 27.319149 -93.261131
v -31.946693 26.119150 -112.782768
v -31.946693 27.319149 -112.782768
v -2.246692 26.119150 -93.261131
v -2.246692 27.319149 -93.261131
v -2.246692 26.119150 -112.782768
v -2.246692 27.319149 -112.782768
v -12.047433 26.106161 -93.261131
v -12.047433 27.306160 -93.261131
v -12.047433 26.106161 -109.943855
v -12.047433 27.306160 -109.943855
v 17.652569 26.106161 -93.261131
v 17.652569 27.306160 -93.261131
v 17.652569 26.106161 -109.943855
v 17.652569 27.306160 -109.943855
v 6.938957 26.108383 -93.261131
v 6.938957 27.308382 -93.261131
v 6.938957 26.108383 -110.253868
v 6.938957 27.308382 -110.253868
v 36.638958 26.108383 -93.261131
v 36.638958 27.308382 -93.261131
v 36.638958 26.108383 -110.253868
v 36.638958 27.308382 -110.253868
v 30.530996 26.070955 -93.261131
v 30.530996 27.270954 -93.261131
v 30.530996 26.070955 -109.549202
v 30.530996 27.270954 -109.549202
v 60.230995 26.070955 -93.261131
v 60.230995 27.270954 -93.261131
v 60.230995 26.070955 -109.549202
v 60.230995 27.270954 -109.549202
v 56.727493 26.132740 -93.261131
v 56.727493 27.332741 -93.261131
v 56.727493 26.132740 -110.144249
v 56.727493 27.332741 -110.144249
v 86.427490 26.132740 -93.261131
v 86.427490 27.332741 -93.261131
v 86.427490 26.132740 -110.144249
v 86.427490 27.332741 -110.144249
v 74.202515 26.009903 -93.261131
v 74.202515 27.209904 -93.261131
v 74.202515 26.009903 -112.774452
v 74.202515 27.209904 -112.774452
v 103.902512 26.009903 -93.261131
v 103.902512 27.209904 -93.261131
v 103.902512 26.009903 -112.774452
v 103.902512 27.209904 -112.774452
v 98.660881 26.081022 -93.261131
v 98.660881 27.281023 -93.261131
v 98.660881 26.081022 -109.188057
v 98.660881 27.281023 -109.188057
v 128.360886 26.081022 -93.261131
v 128.360886 27.281023 -93.261131
v 128.360886 26.081022 -109.188057
v 128.360886 27.281023 -109.188057
v -122.731956 25.960274 114.465721
v -122.731956 27.160273 114.465721
v -122.731956 25.960274 98.738869
v -122.731956 27.160273 98.738869
v -93.031960 25.960274 114.465721
v -93.031960 27.160273 114.465721
v -93.031960 25.960274 98.738869
v -93.031960 27.160273 98.738869
v -98.718483 26.049908 114.957573
v -98.718483 27.249908 114.957573
v -98.718483 26.049908 98.738869
v -98.718483 27.249908 98.738869
v -69.018486 26.049908 114.957573
v -69.018486 27.249908 114.957573
v -69.018486 26.049908 98.738869
v -69.018486 27.249908 98.738869
v -79.483948 26.079248 117.332115
v -79.483948 27.279249 117.332115
v -79.483948 26.079248 98.738869
v -79.483948 27.279249 98.738869
v -49.783943 26.079248 117.332115
v -49.783943 27.279249 117.332115
v -49.783943 26.079248 98.738869
v -49.783943 27.279249 98.738869
v -57.671150 26.109776 114.749016
v -57.671150 27.309776 114.749016
v -57.671150 26.109776 98.738869
v -57.671150 27.309776 98.738869
v -27.971148 26.109776 114.749016
v -27.971148 27.309776 114.749016
v -27.971148 26.109776 98.738869
v -27.971148 27.309776 98.738869
v -36.653137 25.980186 114.344017
v -36.653137 27.180187 114.344017
v -36.653137 25.980186 98.738869
v -36.653137 27.180187 98.738869
v -6.953136 25.980186 114.344017
v -6.953136 27.180187 114.344017
v -6.953136 25.980186 98.738869
v -6.953136 27.180187 98.738869
v -14.594730 26.099165 115.471809
v -14.594730 27.299166 115.471809
v -14.594730 26.099165 98.738869
v -14.594730 27.299166 98.738869
v 15.105270 26.099165 115.471809
v 15.105270 27.299166 115.471809
v 15.105270 26.099165 98.738869
v 15.105270 27.299166 98.738869
v 7.241116 26.147076 113.926491
v 7.241116 27.347076 113.926491
v 7.241116 26.147076 98.738869
v 7.241116 27.347076 98.738869
v 36.941116 26.147076 113.926491
v 36.941116 27.347076 113.926491
v 36.941116 26.147076 98.738869
v 36.941116 27.347076 98.738869
v 34.331253 26.129604 118.452461
v 34.331253 27.329605 118.452461
v 34.331253 26.129604 98.738869
v 34.331253 27.329605 98.738869
v 64.031250 26.129604 118.452461
v 64.031250 27.329605 118.452461
v 64.031250 26.129604 98.738869
v 64.031250 27.329605 98.738869
v 54.239944 26.074722 117.756523
v 54.239944 27.274723 117.756523
v 54.239944 26.074722 98.738869
v 54.239944 27.274723 98.738869
v 83.939941 26.074722 117.756523
v 83.939941 27.274723 117.756523
v 83.939941 26.074722 98.738869
v 83.939941 27.274723 98.738869
v 74.365456 25.949434 118.604195
v 74.365456 27.149433 118.604195
v 74.365456 25.949434 98.738869
v 74.365456 27.149433 98.738869
v 104.065453 25.949434 118.604195
v 104.065453 27.149433 118.604195
v 104.065453 25.949434 98.738869
v 104.065453 27.149433 98.738869
v 99.552956 26.032089 114.104698
v 99.552956 27.232088 114.104698
v 99.552956 26.032089 98.738869
v 99.552956 27.232088 98.738869
v 129.252960 26.032089 114.104698
v 129.252960 27.232088 114.104698
v 129.252960 26.032089 98.738869
v 129.252960 27.232088 98.738869
v 94.747040 26.140701 121.947739
v 94.747040 27.340702 121.947739
v 94.747040 26.140701 92.247742
v 94.747040 27.340702 92.247742
v 113.891891 26.140701 121.947739
v 113.891891 27.340702 121.947739
v 113.891891 26.140701 92.247742
v 113.891891 27.340702 92.247742
v 94.747040 26.066540 101.048157
v 94.747040 27.266539 101.048157
v 94.747040 26.066540 71.348160
v 94.747040 27.266539 71.348160
v 110.528748 26.066540 101.048157
v 110.528748 27.266539 101.048157
v 110.528748 26.066540 71.348160
v 110.528748 27.266539 71.348160
v 94.747040 26.101772 81.631317
v 94.747040 27.301773 81.631317
v 94.747040 26.101772 51.931320
v 94.747040 27.301773 51.931320
v 111.841431 26.101772 81.631317
v 111.841431 27.301773 81.631317
v 111.841431 26.101772 51.931320
v 111.841431 27.301773 51.931320
v 94.747040 26.099388 58.401474
v 94.747040 27.299387 58.401474
v 94.747040 26.099388 28.701475
v 94.747040 27.299387 28.701475
v 111.800980 26.099388 58.401474
v 111.800980 27.299387 58.401474
v 111.800980 26.099388 28.701475
v 111.800980 27.299387 28.701475
v 94.747040 25.989927 33.198326
v 94.747040 27.189928 33.198326
v 94.747040 25.989927 3.498327
v 94.747040 27.189928 3.498327
v 109.191315 25.989927 33.198326
v 109.191315 27.189928 33.198326
v 109.191315 25.989927 3.498327
v 109.191315 27.189928 3.498327
v 94.747040 26.019087 13.288340
v 94.747040 27.219086 13.288340
v 94.747040 26.019087 -16.411661
v 94.747040 27.219086 -16.411661
v 112.402481 26.019087 13.288340
v 112.402481 27.219086 13.288340
v 112.402481 26.019087 -16.411661
v 112.402481 27.219086 -16.411661
v 94.747040 25.960255 -11.374805
v 94.747040 27.160255 -11.374805
v 94.747040 25.960255 -41.074806
v 94.747040 27.160255 -41.074806
v 111.861359 25.960255 -11.374805
v 111.861359 27.160255 -11.374805
v 111.861359 25.960255 -41.074806
v 111.861359 27.160255 -41.074806
v 94.747040 26.030075 -32.182251
v 94.747040 27.230074 -32.182251
v 94.747040 26.030075 -61.882256
v 94.747040 27.230074 -61.882256
v 109.890884 26.030075 -32.182251
v 109.890884 27.230074 -32.182251
v 109.890884 26.030075 -61.882256
v 109.890884 27.230074 -61.882256
v 94.747040 25.969915 -52.636047
v 94.747040 27.169916 -52.636047
v 94.747040 25.969915 -82.336044
v 94.747040 27.169916 -82.336044
v 111.727737 25.969915 -52.636047
v 111.727737 27.169916 -52.636047
v 111.727737 25.969915 -82.336044
v 111.727737 27.169916 -82.336044
v 94.747040 26.133986 -74.874107
v 94.747040 27.333984 -74.874107
v 94.747040 26.133986 -104.574104
v 94.747040 27.333984 -104.574104
v 113.117371 26.133986 -74.874107
v 113.117371 27.333984 -74.874107
v 113.117371 26.133986 -104.574104
v 113.117371 27.333984 -104.574104
v 94.747040 26.126558 -99.038872
v 94.747040 27.326559 -99.038872
v 94.747040 26.126558 -128.738861
v 94.747040 27.326559 -128.738861
v 114.024048 26.126558 -99.038872
v 114.024048 27.326559 -99.038872
v 114.024048 26.126558 -128.738861
v 114.024048 27.326559 -128.738861
v -116.383774 26.061632 122.406693
v -116.383774 27.261631 122.406693
v -116.383774 26.061632 92.706696
v -116.383774 27.261631 92.706696
v -97.252960 26.061632 122.406693
v -97.252960 27.261631 122.406693
v -97.252960 26.061632 92.706696
v -97.252960 27.261631 92.706696
v -112.902863 26.056776 103.933846
v -112.902863 27.256777 103.933846
v -112.902863 26.056776 74.233849
v -112.902863 27.256777 74.233849
v -97.252960 26.056776 103.933846
v -97.252960 27.256777 103.933846
v -97.252960 26.056776 74.233849
v -97.252960 27.256777 74.233849
v -111.780609 26.027191 78.543892
v -111.780609 27.227192 78.543892
v -111.780609 26.027191 48.843887
v -111.780609 27.227192 48.843887
v -97.252960 26.027191 78.543892
v -97.252960 27.227192 78.543892
v -97.252960 26.027191 48.843887
v -97.252960 27.227192 48.843887
v -111.889816 26.087362 56.676163
v -111.889816 27.287361 56.676163
v -111.889816 26.087362 26.976164
v -111.889816 27.287361 26.976164
v -97.252960 26.087362 56.676163
v -97.252960 27.287361 56.676163
v -97.252960 26.087362 26.976164
v -97.252960 27.287361 26.976164
v -114.074051 26.046932 34.467987
v -114.074051 27.246933 34.467987
v -114.074051 26.046932 4.767988
v -114.074051 27.246933 4.767988
v -97.252960 26.046932 34.467987
v -97.252960 27.246933 34.467987
v -97.252960 26.046932 4.767988
v -97.252960 27.246933 4.767988
v -115.432571 25.992077 15.454700
v -115.432571 27.192078 15.454700
v -115.432571 25.992077 -14.245300
v -115.432571 27.192078 -14.245300
v -97.252960 25.992077 15.454700
v -97.252960 27.192078 15.454700
v -97.252960 25.992077 -14.245300
v -97.252960 27.192078 -14.245300
v -115.653503 26.147379 -7.243244
v -115.653503 27.347378 -7.243244
v -115.653503 26.147379 -36.943245
v -115.653503 27.347378 -36.943245
v -97.252960 26.147379 -7.243244
v -97.252960 27.347378 -7.243244
v -97.252960 26.147379 -36.943245
v -97.252960 27.347378 -36.943245
v -112.025558 25.987816 -32.310127
v -112.025558 27.187815 -32.310127
v -112.025558 25.987816 -62.010124
v -112.025558 27.187815 -62.010124
v -97.252960 25.987816 -32.310127
v -97.252960 27.187815 -32.310127
v -97.252960 25.987816 -62.010124
v -97.252960 27.187815 -62.010124
v -113.672546 26.097420 -53.802994
v -113.672546 27.297421 -53.802994
v -113.672546 26.097420 -83.502991
v -113.672546 27.297421 -83.502991
v -97.252960 26.097420 -53.802994
v -97.252960 27.297421 -53.802994
v -97.252960 26.097420 -83.502991
v -97.252960 27.297421 -83.502991
v -116.814392 26.109388 -72.541992
v -116.814392 27.309389 -72.541992
v -116.814392 26.109388 -102.241989
v -116.814392 27.309389 -102.241989
v -97.252960 26.109388 -72.541992
v -97.252960 27.309389 -72.541992
v -97.252960 26.109388 -102.241989
v -97.252960 27.309389 -102.241989
v -113.976013 26.101725 -94.053596
v -113.976013 27.301725 -94.053596
v -113.976013 26.101725 -123.753593
v -113.976013 27.301725 -123.753593
v -97.252960 26.101725 -94.053596
v -97.252960 27.301725 -94.053596
v -97.252960 26.101725 -123.753593
v -97.252960 27.301725 -123.753593
v -120.866753 25.427744 -101.261131
v -120.866753 26.627745 -101.261131
v -120.866753 25.427744 -115.542686
v -120.866753 26.627745 -115.542686
v -91.166756 25.427744 -101.261131
v -91.166756 26.627745 -101.261131
v -91.166756 25.427744 -115.542686
v -91.166756 26.627745 -115.542686
v -98.448761 25.454500 -101.261131
v -98.448761 26.654501 -101.261131
v -98.448761 25.454500 -111.281487
v -98.448761 26.654501 -111.281487
v -68.748764 25.454500 -101.261131
v -68.748764 26.654501 -101.261131
v -68.748764 25.454500 -111.281487
v -68.748764 26.654501 -111.281487
v -76.633377 25.534981 -101.261131
v -76.633377 26.734982 -101.261131
v -76.633377 25.534981 -114.576668
v -76.633377 26.734982 -114.576668
v -46.933380 25.534981 -101.261131
v -46.933380 26.734982 -101.261131
v -46.933380 25.534981 -114.576668
v -46.933380 26.734982 -114.576668
v -54.425293 25.507616 -101.261131
v -54.425293 26.707617 -101.261131
v -54.425293 25.507616 -116.687950
v -54.425293 26.707617 -116.687950
v -24.725290 25.507616 -101.261131
v -24.725290 26.707617 -101.261131
v -24.725290 25.507616 -116.687950
v -24.725290 26.707617 -116.687950
v -33.898964 25.475206 -101.261131
v -33.898964 26.675207 -101.261131
v -33.898964 25.475206 -114.964211
v -33.898964 26.675207 -114.964211
v -4.198961 25.475206 -101.261131
v -4.198961 26.675207 -101.261131
v -4.198961 25.475206 -114.964211
v -4.198961 26.675207 -114.964211
v -12.975184 25.402758 -101.261131
v -12.975184 26.602757 -101.261131
v -12.975184 25.402758 -113.492760
v -12.975184 26.602757 -113.492760
v 16.724815 25.402758 -101.261131
v 16.724815 26.602757 -101.261131
v 16.724815 25.402758 -113.492760
v 16.724815 26.602757 -113.492760
v 11.968119 25.368603 -101.261131
v 11.968119 26.568604 -101.261131
v 11.968119 25.368603 -111.887413
v 11.968119 26.568604 -111.887413
v 41.668121 25.368603 -101.261131
v 41.668121 26.568604 -101.261131
v 41.668121 25.368603 -111.887413
v 41.668121 26.568604 -111.887413
v 32.085541 25.394966 -101.261131
v 32.085541 26.594967 -101.261131
v 32.085541 25.394966 -115.759941
v 32.085541 26.594967 -115.759941
v 61.785538 25.394966 -101.261131
v 61.785538 26.594967 -101.261131
v 61.785538 25.394966 -115.759941
v 61.785538 26.594967 -115.759941
v 51.545998 25.370678 -101.261131
v 51.545998 26.570677 -101.261131
v 51.545998 25.370678 -111.802513
v 51.545998 26.570677 -111.802513
v 81.245995 25.370678 -101.261131
v 81.245995 26.570677 -101.261131
v 81.245995 25.370678 -111.802513
v 81.245995 26.570677 -111.802513
v 77.279655 25.525742 -101.261131
v 77.279655 26.725742 -101.261131
v 77.279655 25.525742 -114.886452
v 77.279655 26.725742 -114.886452
v 106.979652 25.525742 -101.261131
v 106.979652 26.725742 -101.261131
v 106.979652 25.525742 -114.886452
v 106.979652 26.725742 -114.886452
v 96.923019 25.499834 -101.261131
v 96.923019 26.699833 -101.261131
v 96.923019 25.499834 -113.561989
v 96.923019 26.699833 -113.561989
v 126.623016 25.499834 -101.261131
v 126.623016 26.699833 -101.261131
v 126.623016 25.499834 -113.561989
v 126.623016 26.699833 -113.561989
v -119.873489 25.356611 117.656242
v -119.873489 26.556612 117.656242
v -119.873489 25.356611 106.738869
v -119.873489 26.556612 106.738869
v -90.173492 25.356611 117.656242
v -90.173492 26.556612 117.656242
v -90.173492 25.356611 106.738869
v -90.173492 26.556612 106.738869
v -100.786331 25.402407 122.060524
v -100.786331 26.602407 122.060524
v -100.786331 25.402407 106.738869
v -100.786331 26.602407 106.738869
v -71.086334 25.402407 122.060524
v -71.086334 26.602407 122.060524
v -71.086334 25.402407 106.738869
v -71.086334 26.602407 106.738869
v -75.665108 25.514320 120.251427
v -75.665108 26.714321 120.251427
v -75.665108 25.514320 106.738869
v -75.665108 26.714321 106.738869
v -45.965111 25.514320 120.251427
v -45.965111 26.714321 120.251427
v -45.965111 25.514320 106.738869
v -45.965111 26.714321 106.738869
v -57.088280 25.450645 119.318153
v -57.088280 26.650646 119.318153
v -57.088280 25.450645 106.738869
v -57.088280 26.650646 106.738869
v -27.388281 25.450645 119.318153
v -27.388281 26.650646 119.318153
v -27.388281 25.450645 106.738869
v -27.388281 26.650646 106.738869
v -33.942348 25.537298 121.113655
v -33.942348 26.737299 121.113655
v -33.942348 25.537298 106.738869
v -33.942348 26.737299 106.738869
v -4.242348 25.537298 121.113655
v -4.242348 26.737299 121.113655
v -4.242348 25.537298 106.738869
v -4.242348 26.737299 106.738869
v -11.568123 25.542324 121.219078
v -11.568123 26.742323 121.219078
v -11.568123 25.542324 106.738869
v -11.568123 26.742323 106.738869
v 18.131878 25.542324 121.219078
v 18.131878 26.742323 121.219078
v 18.131878 25.542324 106.738869
v 18.131878 26.742323 106.738869
v 8.873304 25.332809 119.119347
v 8.873304 26.532808 119.119347
v 8.873304 25.332809 106.738869
v 8.873304 26.532808 106.738869
v 38.573303 25.332809 119.119347
v 38.573303 26.532808 119.119347
v 38.573303 25.332809 106.738869
v 38.573303 26.532808 106.738869
v 31.869499 25.406439 118.166100
v 31.869499 26.606440 118.166100
v 31.869499 25.406439 106.738869
v 31.869499 26.606440 106.738869
v 61.569496 25.406439 118.166100
v 61.569496 26.606440 118.166100
v 61.569496 25.406439 106.738869
v 61.569496 26.606440 106.738869
v 54.988899 25.483355 120.628746
v 54.988899 26.683353 120.628746
v 54.988899 25.483355 106.738869
v 54.988899 26.683353 106.738869
v 84.688896 25.483355 120.628746
v 84.688896 26.683353 120.628746
v 84.688896 25.483355 106.738869
v 84.688896 26.683353 106.738869
v 77.717552 25.510908 120.757530
v 77.717552 26.710907 120.757530
v 77.717552 25.510908 106.738869
v 77.717552 26.710907 106.738869
v 107.417549 25.510908 120.757530
v 107.417549 26.710907 120.757530
v 107.417549 25.510908 106.738869
v 107.417549 26.710907 106.738869
v 98.555832 25.408644 120.258644
v 98.555832 26.608644 120.258644
v 98.555832 25.408644 106.738869
v 98.555832 26.608644 106.738869
v 128.255829 25.408644 120.258644
v 128.255829 26.608644 120.258644
v 128.255829 25.408644 106.738869
v 128.255829 26.608644 106.738869
v 102.747040 25.522280 122.130203
v 102.747040 26.722281 122.130203
v 102.747040 25.522280 92.430206
v 102.747040 26.722281 92.430206
v 116.659836 25.522280 122.130203
v 116.659836 26.722281 122.130203
v 116.659836 25.522280 92.430206
v 116.659836 26.722281 92.430206
v 102.747040 25.353479 103.188225
v 102.747040 26.553480 103.188225
v 102.747040 25.353479 73.488228
v 102.747040 26.553480 73.488228
v 116.788773 25.353479 103.188225
v 116.788773 26.553480 103.188225
v 116.788773 25.353479 73.488228
v 116.788773 26.553480 73.488228
v 102.747040 25.395702 80.074478
v 102.747040 26.595701 80.074478
v 102.747040 25.395702 50.374474
v 102.747040 26.595701 50.374474
v 117.924011 25.395702 80.074478
v 117.924011 26.595701 80.074478
v 117.924011 25.395702 50.374474
v 117.924011 26.595701 50.374474
v 102.747040 25.358553 59.438843
v 102.747040 26.558554 59.438843
v 102.747040 25.358553 29.738844
v 102.747040 26.558554 29.738844
v 117.649612 25.358553 59.438843
v 117.649612 26.558554 59.438843
v 117.649612 25.358553 29.738844
v 117.649612 26.558554 29.738844
v 102.747040 25.357821 38.394062
v 102.747040 26.557819 38.394062
v 102.747040 25.357821 8.694061
v 102.747040 26.557819 8.694061
v 113.497528 25.357821 38.394062
v 113.497528 26.557819 38.394062
v 113.497528 25.357821 8.694061
v 113.497528 26.557819 8.694061
v 102.747040 25.478434 12.912344
v 102.747040 26.678434 12.912344
v 102.747040 25.478434 -16.787657
v 102.747040 26.678434 -16.787657
v 118.230286 25.478434 12.912344
v 118.230286 26.678434 12.912344
v 118.230286 25.478434 -16.787657
v 118.230286 26.678434 -16.787657
v 102.747040 25.507351 -7.140911
v 102.747040 26.707352 -7.140911
v 102.747040 25.507351 -36.840912
v 102.747040 26.707352 -36.840912
v 114.132584 25.507351 -7.140911
v 114.132584 26.707352 -7.140911
v 114.132584 25.507351 -36.840912
v 114.132584 26.707352 -36.840912
v 102.747040 25.399029 -28.628874
v 102.747040 26.599030 -28.628874
v 102.747040 25.399029 -58.328873
v 102.747040 26.599030 -58.328873
v 114.823532 25.399029 -28.628874
v 114.823532 26.599030 -28.628874
v 114.823532 25.399029 -58.328873
v 114.823532 26.599030 -58.328873
v 102.747040 25.402546 -51.833748
v 102.747040 26.602545 -51.833748
v 102.747040 25.402546 -81.533745
v 102.747040 26.602545 -81.533745
v 116.210602 25.402546 -51.833748
v 116.210602 26.602545 -51.833748
v 116.210602 25.402546 -81.533745
v 116.210602 26.602545 -81.533745
v 102.747040 25.408455 -77.096603
v 102.747040 26.608456 -77.096603
v 102.747040 25.408455 -106.796600
v 102.747040 26.608456 -106.796600
v 113.124878 25.408455 -77.096603
v 113.124878 26.608456 -77.096603
v 113.124878 25.408455 -106.796600
v 113.124878 26.608456 -106.796600
v 102.747040 25.339249 -97.601830
v 102.747040 26.539249 -97.601830
v 102.747040 25.339249 -127.301826
v 102.747040 26.539249 -127.301826
v 113.286270 25.339249 -97.601830
v 113.286270 26.539249 -97.601830
v 113.286270 25.339249 -127.301826
v 113.286270 26.539249 -127.301826
v -116.363342 25.357311 124.502235
v -116.363342 26.557312 124.502235
v -116.363342 25.357311 94.802238
v -116.363342 26.557312 94.802238
v -105.252960 25.357311 124.502235
v -105.252960 26.557312 124.502235
v -105.252960 25.357311 94.802238
v -105.252960 26.557312 94.802238
v -117.916733 25.465427 102.869835
v -117.916733 26.665426 102.869835
v -117.916733 25.465427 73.169838
v -117.916733 26.665426 73.169838
v -105.252960 25.465427 102.869835
v -105.252960 26.665426 102.869835
v -105.252960 25.465427 73.169838
v -105.252960 26.665426 73.169838
v -117.521942 25.536663 82.587341
v -117.521942 26.736662 82.587341
v -117.521942 25.536663 52.887344
v -117.521942 26.736662 52.887344
v -105.252960 25.536663 82.587341
v -105.252960 26.736662 82.587341
v -105.252960 25.536663 52.887344
v -105.252960 26.736662 52.887344
v -119.976212 25.419695 55.243546
v -119.976212 26.619696 55.243546
v -119.976212 25.419695 25.543543
v -119.976212 26.619696 25.543543
v -105.252960 25.419695 55.243546
v -105.252960 26.619696 55.243546
v -105.252960 25.419695 25.543543
v -105.252960 26.619696 25.543543
v -120.707306 25.350416 35.462875
v -120.707306 26.550417 35.462875
v -120.707306 25.350416 5.762875
v -120.707306 26.550417 5.762875
v -105.252960 25.350416 35.462875
v -105.252960 26.550417 35.462875
v -105.252960 25.350416 5.762875
v -105.252960 26.550417 5.762875
v -118.207138 25.472261 14.086676
v -118.207138 26.672262 14.086676
v -118.207138 25.472261 -15.613325
v -118.207138 26.672262 -15.613325
v -105.252960 25.472261 14.086676
v -105.252960 26.672262 14.086676
v -105.252960 25.472261 -15.613325
v -105.252960 26.672262 -15.613325
v -119.201508 25.533039 -6.371515
v -119.201508 26.733038 -6.371515
v -119.201508 25.533039 -36.071518
v -119.201508 26.733038 -36.071518
v -105.252960 25.533039 -6.371515
v -105.252960 26.733038 -6.371515
v -105.252960 25.533039 -36.071518
v -105.252960 26.733038 -36.071518
v -117.510437 25.509829 -31.383804
v -117.510437 26.709829 -31.383804
v -117.510437 25.509829 -61.083809
v -117.510437 26.709829 -61.083809
v -105.252960 25.509829 -31.383804
v -105.252960 26.709829 -31.383804
v -105.252960 25.509829 -61.083809
v -105.252960 26.709829 -61.083809
v -117.464005 25.438416 -54.990875
v -117.464005 26.638416 -54.990875
v -117.464005 25.438416 -84.690872
v -117.464005 26.638416 -84.690872
v -105.252960 25.438416 -54.990875
v -105.252960 26.638416 -54.990875
v -105.252960 25.438416 -84.690872
v -105.252960 26.638416 -84.690872
v -120.636673 25.495007 -74.280487
v -120.636673 26.695007 -74.280487
v -120.636673 25.495007 -103.980484
v -120.636673 26.695007 -103.980484
v -105.252960 25.495007 -74.280487
v -105.252960 26.695007 -74.280487
v -105.252960 25.495007 -103.980484
v -105.252960 26.695007 -103.980484
v -117.139114 25.468180 -95.362175
v -117.139114 26.668180 -95.362175
v -117.139114 25.468180 -125.062172
v -117.139114 26.668180 -125.062172
v -105.252960 25.468180 -95.362175
v -105.252960 26.668180 -95.362175
v -105.252960 25.468180 -125.062172
v -105.252960 26.668180 -125.062172
v -120.252960 19.000000 121.738869
v -120.252960 26.000000 121.738869
v -120.252960 19.000000 -116.261131
v -120.252960 26.000000 -116.261131
v 117.747040 19.000000 121.738869
v 117.747040 26.000000 121.738869
v 117.747040 19.000000 -116.261131
v 117.747040 26.000000 -116.261131
vn -0.0000 1.0000 -0.0000
vn -1.0000 -0.0000 -0.0000
vn -0.0000 -0.0000 -1.0000
vn 1.0000 -0.0000 -0.0000
vn -0.0000 -0.0000 1.0000
vn -0.0000 -1.0000 -0.0000
vt -22.711370 27.688492
vt -30.136370 27.688492
vt -30.136370 24.000000
vt -22.711370 24.000000
vt -11.147749 27.854511
vt -18.572748 27.854511
vt -18.572748 24.000000
vt -11.147749 24.000000
vt -0.248433 28.880409
vt -7.673433 28.880409
vt -7.673433 24.000000
vt -0.248433 24.000000
vt 9.472980 28.248184
vt 2.047979 28.248184
vt 2.047979 24.000000
vt 9.472980 24.000000
vt 21.920113 28.220779
vt 14.495113 28.220779
vt 14.495113 24.000000
vt 21.920113 24.000000
vt 32.403461 27.981731
vt 24.978460 27.981731
vt 24.978460 24.000000
vt 32.403461 24.000000
vt -16.941381 -24.000000
vt -24.366381 -24.000000
vt -24.366381 -28.054676
vt -16.941381 -28.054676
vt -6.679547 -24.000000
vt -14.104548 -24.000000
vt -14.104548 -28.002537
vt -6.679547 -28.002537
vt 4.089558 -24.000000
vt -3.335443 -24.000000
vt -3.335443 -28.183235
vt 4.089558 -28.183235
vt 16.321053 -24.000000
vt 8.896053 -24.000000
vt 8.896053 -28.928398
vt 16.321053 -28.928398
vt 26.329603 -24.000000
vt 18.904604 -24.000000
vt 18.904604 -28.966331
vt 26.329603 -28.966331
vt 28.786213 -22.377218
vt 24.000000 -22.377218
vt 24.000000 -29.802217
vt 28.786213 -29.802217
vt 28.273598 -12.298113
vt 24.000000 -12.298113
vt 24.000000 -19.723112
vt 28.273598 -19.723112
vt 27.611069 -0.189865
vt 24.000000 -0.189865
vt 24.000000 -7.614865
vt 27.611069 -7.614865
vt 28.278580 10.953419
vt 24.000000 10.953419
vt 24.000000 3.528419
vt 28.278580 3.528419
vt 28.245174 21.268728
vt 24.000000 21.268728
vt 24.000000 13.843729
vt 28.245174 13.843729
vt 28.819252 32.869434
vt 24.000000 32.869434
vt 24.000000 25.444435
vt 28.819252 25.444435
vt -24.000000 -17.873745
vt -27.912476 -17.873745
vt -27.912476 -25.298744
vt -24.000000 -25.298744
vt -24.000000 -6.059324
vt -27.659214 -6.059324
vt -27.659214 -13.484324
vt -24.000000 -13.484324
vt -24.000000 4.246042
vt -28.544903 4.246042
vt -28.544903 -3.178958
vt -24.000000 -3.178958
vt -24.000000 16.187248
vt -27.693150 16.187248
vt -27.693150 8.762249
vt -24.000000 8.762249
vt -24.000000 26.245214
vt -28.890358 26.245214
vt -28.890358 18.820215
vt -24.000000 18.820215
vt -16.873951 28.505089
vt -24.298950 28.505089
vt -24.298950 26.000000
vt -16.873951 26.000000
vt -5.868083 29.856705
vt -13.293083 29.856705
vt -13.293083 26.000000
vt -5.868083 26.000000
vt 4.494444 29.057907
vt -2.930556 29.057907
vt -2.930556 26.000000
vt 4.494444 26.000000
vt 15.759624 29.624702
vt 8.334625 29.624702
vt 8.334625 26.000000
vt 15.759624 26.000000
vt 27.058153 29.406330
vt 19.633154 29.406330
vt 19.633154 26.000000
vt 27.058153 26.000000
vt -22.230133 -26.000000
vt -29.655132 -26.000000
vt -29.655132 -28.729343
vt -22.230133 -28.729343
vt -11.178038 -26.000000
vt -18.603037 -26.000000
vt -18.603037 -29.378139
vt -11.178038 -29.378139
vt -0.747347 -26.000000
vt -8.172347 -26.000000
vt -8.172347 -29.593697
vt -0.747347 -29.593697
vt 9.956566 -26.000000
vt 2.531566 -26.000000
vt 2.531566 -29.095119
vt 9.956566 -29.095119
vt 21.485464 -26.000000
vt 14.060465 -26.000000
vt 14.060465 -29.472469
vt 21.485464 -29.472469
vt 32.377197 -26.000000
vt 24.952198 -26.000000
vt 24.952198 -29.379944
vt 32.377197 -29.379944
vt 29.510433 -17.687340
vt 26.000000 -17.687340
vt 26.000000 -25.112339
vt 29.510433 -25.112339
vt 29.725643 -6.749994
vt 26.000000 -6.749994
vt 26.000000 -14.174994
vt 29.725643 -14.174994
vt 29.870811 4.881631
vt 26.000000 4.881631
vt 26.000000 -2.543369
vt 29.870811 -2.543369
vt 29.019123 15.266935
vt 26.000000 15.266935
vt 26.000000 7.841936
vt 29.019123 7.841936
vt 28.594460 27.383867
vt 26.000000 27.383867
vt 26.000000 19.958868
vt 28.594460 19.958868
vt -26.000000 -23.015842
vt -28.777596 -23.015842
vt -28.777596 -30.440842
vt -26.000000 -30.440842
vt -26.000000 -12.537119
vt -29.067245 -12.537119
vt -29.067245 -19.962118
vt -26.000000 -19.962118
vt -26.000000 -0.756001
vt -29.863586 -0.756001
vt -29.863586 -8.181002
vt -26.000000 -8.181002
vt -26.000000 9.702597
vt -29.487137 9.702597
vt -29.487137 2.277596
vt -26.000000 2.277596
vt -26.000000 21.857435
vt -29.052761 21.857435
vt -29.052761 14.432436
vt -26.000000 14.432436
vt -26.000000 31.950260
vt -28.971539 31.950260
vt -28.971539 24.525261
vt -26.000000 24.525261
vt 0.500000 0.500000
s 0
usemtl P_island_sand
f 4/1/1 2/2/1 1/3/1 3/4/1
f 8/5/1 6/6/1 5/7/1 7/8/1
f 12/9/1 10/10/1 9/11/1 11/12/1
f 16/13/1 14/14/1 13/15/1 15/16/1
f 20/17/1 18/18/1 17/19/1 19/20/1
f 24/21/1 22/22/1 21/23/1 23/24/1
f 28/25/1 26/26/1 25/27/1 27/28/1
f 32/29/1 30/30/1 29/31/1 31/32/1
f 36/33/1 34/34/1 33/35/1 35/36/1
f 40/37/1 38/38/1 37/39/1 39/40/1
f 44/41/1 42/42/1 41/43/1 43/44/1
f 48/45/1 46/46/1 45/47/1 47/48/1
f 52/49/1 50/50/1 49/51/1 51/52/1
f 56/53/1 54/54/1 53/55/1 55/56/1
f 60/57/1 58/58/1 57/59/1 59/60/1
f 64/61/1 62/62/1 61/63/1 63/64/1
f 68/65/1 66/66/1 65/67/1 67/68/1
f 72/69/1 70/70/1 69/71/1 71/72/1
f 76/73/1 74/74/1 73/75/1 75/76/1
f 80/77/1 78/78/1 77/79/1 79/80/1
f 84/81/1 82/82/1 81/83/1 83/84/1
f 88/85/1 86/86/1 85/87/1 87/88/1
f 92/89/1 90/90/1 89/91/1 91/92/1
f 96/93/1 94/94/1 93/95/1 95/96/1
f 100/97/1 98/98/1 97/99/1 99/100/1
f 104/101/1 102/102/1 101/103/1 103/104/1
f 108/105/1 106/106/1 105/107/1 107/108/1
f 112/109/1 110/110/1 109/111/1 111/112/1
f 116/113/1 114/114/1 113/115/1 115/116/1
f 120/117/1 118/118/1 117/119/1 119/120/1
f 124/121/1 122/122/1 121/123/1 123/124/1
f 128/125/1 126/126/1 125/127/1 127/128/1
f 132/129/1 130/130/1 129/131/1 131/132/1
f 136/133/1 134/134/1 133/135/1 135/136/1
f 140/137/1 138/138/1 137/139/1 139/140/1
f 144/141/1 142/142/1 141/143/1 143/144/1
f 148/145/1 146/146/1 145/147/1 147/148/1
f 152/149/1 150/150/1 149/151/1 151/152/1
f 156/153/1 154/154/1 153/155/1 155/156/1
f 160/157/1 158/158/1 157/159/1 159/160/1
f 164/161/1 162/162/1 161/163/1 163/164/1
f 168/165/1 166/166/1 165/167/1 167/168/1
f 172/169/1 170/170/1 169/171/1 171/172/1
f 176/173/1 174/174/1 173/175/1 175/176/1
f 177/177/2 178/177/2 180/177/2 179/177/2
f 179/177/3 180/177/3 184/177/3 183/177/3
f 183/177/4 184/177/4 182/177/4 181/177/4
f 181/177/5 182/177/5 178/177/5 177/177/5
f 179/177/6 183/177/6 181/177/6 177/177/6
f 184/177/1 180/177/1 178/177/1 182/177/1
f 185/177/2 186/177/2 188/177/2 187/177/2
f 187/177/3 188/177/3 192/177/3 191/177/3
f 191/177/4 192/177/4 190/177/4 189/177/4
f 189/177/5 190/177/5 186/177/5 185/177/5
f 187/177/6 191/177/6 189/177/6 185/177/6
f 192/177/1 188/177/1 186/177/1 190/177/1
f 193/177/2 194/177/2 196/177/2 195/177/2
f 195/177/3 196/177/3 200/177/3 199/177/3
f 199/177/4 200/177/4 198/177/4 197/177/4
f 197/177/5 198/177/5 194/177/5 193/177/5
f 195/177/6 199/177/6 197/177/6 193/177/6
f 200/177/1 196/177/1 194/177/1 198/177/1
f 201/177/2 202/177/2 204/177/2 203/177/2
f 203/177/3 204/177/3 208/177/3 207/177/3
f 207/177/4 208/177/4 206/177/4 205/177/4
f 205/177/5 206/177/5 202/177/5 201/177/5
f 203/177/6 207/177/6 205/177/6 201/177/6
f 208/177/1 204/177/1 202/177/1 206/177/1
f 209/177/2 210/177/2 212/177/2 211/177/2
f 211/177/3 212/177/3 216/177/3 215/177/3
f 215/177/4 216/177/4 214/177/4 213/177/4
f 213/177/5 214/177/5 210/177/5 209/177/5
f 211/177/6 215/177/6 213/177/6 209/177/6
f 217/177/2 218/177/2 220/177/2 219/177/2
f 219/177/3 220/177/3 224/177/3 223/177/3
f 223/177/4 224/177/4 222/177/4 221/177/4
f 221/177/5 222/177/5 218/177/5 217/177/5
f 219/177/6 223/177/6 221/177/6 217/177/6
f 225/177/2 226/177/2 228/177/2 227/177/2
f 227/177/3 228/177/3 232/177/3 231/177/3
f 231/177/4 232/177/4 230/177/4 229/177/4
f 229/177/5 230/177/5 226/177/5 225/177/5
f 227/177/6 231/177/6 229/177/6 225/177/6
f 233/177/2 234/177/2 236/177/2 235/177/2
f 235/177/3 236/177/3 240/177/3 239/177/3
f 239/177/4 240/177/4 238/177/4 237/177/4
f 237/177/5 238/177/5 234/177/5 233/177/5
f 235/177/6 239/177/6 237/177/6 233/177/6
f 241/177/2 242/177/2 244/177/2 243/177/2
f 243/177/3 244/177/3 248/177/3 247/177/3
f 247/177/4 248/177/4 246/177/4 245/177/4
f 245/177/5 246/177/5 242/177/5 241/177/5
f 243/177/6 247/177/6 245/177/6 241/177/6
f 249/177/2 250/177/2 252/177/2 251/177/2
f 251/177/3 252/177/3 256/177/3 255/177/3
f 255/177/4 256/177/4 254/177/4 253/177/4
f 253/177/5 254/177/5 250/177/5 249/177/5
f 251/177/6 255/177/6 253/177/6 249/177/6
f 257/177/2 258/177/2 260/177/2 259/177/2
f 259/177/3 260/177/3 264/177/3 263/177/3
f 263/177/4 264/177/4 262/177/4 261/177/4
f 261/177/5 262/177/5 258/177/5 257/177/5
f 259/177/6 263/177/6 261/177/6 257/177/6
f 265/177/2 266/177/2 268/177/2 267/177/2
f 267/177/3 268/177/3 272/177/3 271/177/3
f 271/177/4 272/177/4 270/177/4 269/177/4
f 269/177/5 270/177/5 266/177/5 265/177/5
f 267/177/6 271/177/6 269/177/6 265/177/6
f 273/177/2 274/177/2 276/177/2 275/177/2
f 275/177/3 276/177/3 280/177/3 279/177/3
f 279/177/4 280/177/4 278/177/4 277/177/4
f 277/177/5 278/177/5 274/177/5 273/177/5
f 275/177/6 279/177/6 277/177/6 273/177/6
f 281/177/2 282/177/2 284/177/2 283/177/2
f 283/177/3 284/177/3 288/177/3 287/177/3
f 287/177/4 288/177/4 286/177/4 285/177/4
f 285/177/5 286/177/5 282/177/5 281/177/5
f 283/177/6 287/177/6 285/177/6 281/177/6
f 289/177/2 290/177/2 292/177/2 291/177/2
f 291/177/3 292/177/3 296/177/3 295/177/3
f 295/177/4 296/177/4 294/177/4 293/177/4
f 293/177/5 294/177/5 290/177/5 289/177/5
f 291/177/6 295/177/6 293/177/6 289/177/6
f 297/177/2 298/177/2 300/177/2 299/177/2
f 299/177/3 300/177/3 304/177/3 303/177/3
f 303/177/4 304/177/4 302/177/4 301/177/4
f 301/177/5 302/177/5 298/177/5 297/177/5
f 299/177/6 303/177/6 301/177/6 297/177/6
f 305/177/2 306/177/2 308/177/2 307/177/2
f 307/177/3 308/177/3 312/177/3 311/177/3
f 311/177/4 312/177/4 310/177/4 309/177/4
f 309/177/5 310/177/5 306/177/5 305/177/5
f 307/177/6 311/177/6 309/177/6 305/177/6
f 313/177/2 314/177/2 316/177/2 315/177/2
f 315/177/3 316/177/3 320/177/3 319/177/3
f 319/177/4 320/177/4 318/177/4 317/177/4
f 317/177/5 318/177/5 314/177/5 313/177/5
f 315/177/6 319/177/6 317/177/6 313/177/6
f 321/177/2 322/177/2 324/177/2 323/177/2
f 323/177/3 324/177/3 328/177/3 327/177/3
f 327/177/4 328/177/4 326/177/4 325/177/4
f 325/177/5 326/177/5 322/177/5 321/177/5
f 323/177/6 327/177/6 325/177/6 321/177/6
f 329/177/2 330/177/2 332/177/2 331/177/2
f 331/177/3 332/177/3 336/177/3 335/177/3
f 335/177/4 336/177/4 334/177/4 333/177/4
f 333/177/5 334/177/5 330/177/5 329/177/5
f 331/177/6 335/177/6 333/177/6 329/177/6
f 337/177/2 338/177/2 340/177/2 339/177/2
f 339/177/3 340/177/3 344/177/3 343/177/3
f 343/177/4 344/177/4 342/177/4 341/177/4
f 341/177/5 342/177/5 338/177/5 337/177/5
f 339/177/6 343/177/6 341/177/6 337/177/6
f 345/177/2 346/177/2 348/177/2 347/177/2
f 347/177/3 348/177/3 352/177/3 351/177/3
f 351/177/4 352/177/4 350/177/4 349/177/4
f 349/177/5 350/177/5 346/177/5 345/177/5
f 347/177/6 351/177/6 349/177/6 345/177/6
f 353/177/2 354/177/2 356/177/2 355/177/2
f 355/177/3 356/177/3 360/177/3 359/177/3
f 359/177/4 360/177/4 358/177/4 357/177/4
f 357/177/5 358/177/5 354/177/5 353/177/5
f 355/177/6 359/177/6 357/177/6 353/177/6
f 361/177/2 362/177/2 364/177/2 363/177/2
f 363/177/3 364/177/3 368/177/3 367/177/3
f 367/177/4 368/177/4 366/177/4 365/177/4
f 365/177/5 366/177/5 362/177/5 361/177/5
f 363/177/6 367/177/6 365/177/6 361/177/6
f 369/177/2 370/177/2 372/177/2 371/177/2
f 371/177/3 372/177/3 376/177/3 375/177/3
f 375/177/4 376/177/4 374/177/4 373/177/4
f 373/177/5 374/177/5 370/177/5 369/177/5
f 371/177/6 375/177/6 373/177/6 369/177/6
f 377/177/2 378/177/2 380/177/2 379/177/2
f 379/177/3 380/177/3 384/177/3 383/177/3
f 383/177/4 384/177/4 382/177/4 381/177/4
f 381/177/5 382/177/5 378/177/5 377/177/5
f 379/177/6 383/177/6 381/177/6 377/177/6
f 385/177/2 386/177/2 388/177/2 387/177/2
f 387/177/3 388/177/3 392/177/3 391/177/3
f 391/177/4 392/177/4 390/177/4 389/177/4
f 389/177/5 390/177/5 386/177/5 385/177/5
f 387/177/6 391/177/6 389/177/6 385/177/6
f 393/177/2 394/177/2 396/177/2 395/177/2
f 395/177/3 396/177/3 400/177/3 399/177/3
f 399/177/4 400/177/4 398/177/4 397/177/4
f 397/177/5 398/177/5 394/177/5 393/177/5
f 395/177/6 399/177/6 397/177/6 393/177/6
f 401/177/2 402/177/2 404/177/2 403/177/2
f 403/177/3 404/177/3 408/177/3 407/177/3
f 407/177/4 408/177/4 406/177/4 405/177/4
f 405/177/5 406/177/5 402/177/5 401/177/5
f 403/177/6 407/177/6 405/177/6 401/177/6
f 409/177/2 410/177/2 412/177/2 411/177/2
f 411/177/3 412/177/3 416/177/3 415/177/3
f 415/177/4 416/177/4 414/177/4 413/177/4
f 413/177/5 414/177/5 410/177/5 409/177/5
f 411/177/6 415/177/6 413/177/6 409/177/6
f 417/177/2 418/177/2 420/177/2 419/177/2
f 419/177/3 420/177/3 424/177/3 423/177/3
f 423/177/4 424/177/4 422/177/4 421/177/4
f 421/177/5 422/177/5 418/177/5 417/177/5
f 419/177/6 423/177/6 421/177/6 417/177/6
f 425/177/2 426/177/2 428/177/2 427/177/2
f 427/177/3 428/177/3 432/177/3 431/177/3
f 431/177/4 432/177/4 430/177/4 429/177/4
f 429/177/5 430/177/5 426/177/5 425/177/5
f 427/177/6 431/177/6 429/177/6 425/177/6
f 433/177/2 434/177/2 436/177/2 435/177/2
f 435/177/3 436/177/3 440/177/3 439/177/3
f 439/177/4 440/177/4 438/177/4 437/177/4
f 437/177/5 438/177/5 434/177/5 433/177/5
f 435/177/6 439/177/6 437/177/6 433/177/6
f 441/177/2 442/177/2 444/177/2 443/177/2
f 443/177/3 444/177/3 448/177/3 447/177/3
f 447/177/4 448/177/4 446/177/4 445/177/4
f 445/177/5 446/177/5 442/177/5 441/177/5
f 443/177/6 447/177/6 445/177/6 441/177/6
f 449/177/2 450/177/2 452/177/2 451/177/2
f 451/177/3 452/177/3 456/177/3 455/177/3
f 455/177/4 456/177/4 454/177/4 453/177/4
f 453/177/5 454/177/5 450/177/5 449/177/5
f 451/177/6 455/177/6 453/177/6 449/177/6
f 457/177/2 458/177/2 460/177/2 459/177/2
f 459/177/3 460/177/3 464/177/3 463/177/3
f 463/177/4 464/177/4 462/177/4 461/177/4
f 461/177/5 462/177/5 458/177/5 457/177/5
f 459/177/6 463/177/6 461/177/6 457/177/6
f 465/177/2 466/177/2 468/177/2 467/177/2
f 467/177/3 468/177/3 472/177/3 471/177/3
f 471/177/4 472/177/4 470/177/4 469/177/4
f 469/177/5 470/177/5 466/177/5 465/177/5
f 467/177/6 471/177/6 469/177/6 465/177/6
f 473/177/2 474/177/2 476/177/2 475/177/2
f 475/177/3 476/177/3 480/177/3 479/177/3
f 479/177/4 480/177/4 478/177/4 477/177/4
f 477/177/5 478/177/5 474/177/5 473/177/5
f 475/177/6 479/177/6 477/177/6 473/177/6
f 481/177/2 482/177/2 484/177/2 483/177/2
f 483/177/3 484/177/3 488/177/3 487/177/3
f 487/177/4 488/177/4 486/177/4 485/177/4
f 485/177/5 486/177/5 482/177/5 481/177/5
f 483/177/6 487/177/6 485/177/6 481/177/6
f 489/177/2 490/177/2 492/177/2 491/177/2
f 491/177/3 492/177/3 496/177/3 495/177/3
f 495/177/4 496/177/4 494/177/4 493/177/4
f 493/177/5 494/177/5 490/177/5 489/177/5
f 491/177/6 495/177/6 493/177/6 489/177/6
f 497/177/2 498/177/2 500/177/2 499/177/2
f 499/177/3 500/177/3 504/177/3 503/177/3
f 503/177/4 504/177/4 502/177/4 501/177/4
f 501/177/5 502/177/5 498/177/5 497/177/5
f 499/177/6 503/177/6 501/177/6 497/177/6
f 505/177/2 506/177/2 508/177/2 507/177/2
f 507/177/3 508/177/3 512/177/3 511/177/3
f 511/177/4 512/177/4 510/177/4 509/177/4
f 509/177/5 510/177/5 506/177/5 505/177/5
f 507/177/6 511/177/6 509/177/6 505/177/6
f 513/177/2 514/177/2 516/177/2 515/177/2
f 515/177/3 516/177/3 520/177/3 519/177/3
f 519/177/4 520/177/4 518/177/4 517/177/4
f 517/177/5 518/177/5 514/177/5 513/177/5
f 515/177/6 519/177/6 517/177/6 513/177/6
f 521/177/2 522/177/2 524/177/2 523/177/2
f 523/177/3 524/177/3 528/177/3 527/177/3
f 527/177/4 528/177/4 526/177/4 525/177/4
f 525/177/5 526/177/5 522/177/5 521/177/5
f 523/177/6 527/177/6 525/177/6 521/177/6
f 529/177/2 530/177/2 532/177/2 531/177/2
f 531/177/3 532/177/3 536/177/3 535/177/3
f 535/177/4 536/177/4 534/177/4 533/177/4
f 533/177/5 534/177/5 530/177/5 529/177/5
f 531/177/6 535/177/6 533/177/6 529/177/6
f 537/177/2 538/177/2 540/177/2 539/177/2
f 539/177/3 540/177/3 544/177/3 543/177/3
f 543/177/4 544/177/4 542/177/4 541/177/4
f 541/177/5 542/177/5 538/177/5 537/177/5
f 539/177/6 543/177/6 541/177/6 537/177/6
f 545/177/2 546/177/2 548/177/2 547/177/2
f 547/177/3 548/177/3 552/177/3 551/177/3
f 551/177/4 552/177/4 550/177/4 549/177/4
f 549/177/5 550/177/5 546/177/5 545/177/5
f 547/177/6 551/177/6 549/177/6 545/177/6
f 553/177/2 554/177/2 556/177/2 555/177/2
f 555/177/3 556/177/3 560/177/3 559/177/3
f 559/177/4 560/177/4 558/177/4 557/177/4
f 557/177/5 558/177/5 554/177/5 553/177/5
f 555/177/6 559/177/6 557/177/6 553/177/6
f 561/177/2 562/177/2 564/177/2 563/177/2
f 563/177/3 564/177/3 568/177/3 567/177/3
f 567/177/4 568/177/4 566/177/4 565/177/4
f 565/177/5 566/177/5 562/177/5 561/177/5
f 563/177/6 567/177/6 565/177/6 561/177/6
f 569/177/2 570/177/2 572/177/2 571/177/2
f 571/177/3 572/177/3 576/177/3 575/177/3
f 575/177/4 576/177/4 574/177/4 573/177/4
f 573/177/5 574/177/5 570/177/5 569/177/5
f 571/177/6 575/177/6 573/177/6 569/177/6
f 577/177/2 578/177/2 580/177/2 579/177/2
f 579/177/3 580/177/3 584/177/3 583/177/3
f 583/177/4 584/177/4 582/177/4 581/177/4
f 581/177/5 582/177/5 578/177/5 577/177/5
f 579/177/6 583/177/6 581/177/6 577/177/6
f 585/177/2 586/177/2 588/177/2 587/177/2
f 587/177/3 588/177/3 592/177/3 591/177/3
f 591/177/4 592/177/4 590/177/4 589/177/4
f 589/177/5 590/177/5 586/177/5 585/177/5
f 587/177/6 591/177/6 589/177/6 585/177/6
f 593/177/2 594/177/2 596/177/2 595/177/2
f 595/177/3 596/177/3 600/177/3 599/177/3
f 599/177/4 600/177/4 598/177/4 597/177/4
f 597/177/5 598/177/5 594/177/5 593/177/5
f 595/177/6 599/177/6 597/177/6 593/177/6
f 601/177/2 602/177/2 604/177/2 603/177/2
f 603/177/3 604/177/3 608/177/3 607/177/3
f 607/177/4 608/177/4 606/177/4 605/177/4
f 605/177/5 606/177/5 602/177/5 601/177/5
f 603/177/6 607/177/6 605/177/6 601/177/6
f 609/177/2 610/177/2 612/177/2 611/177/2
f 611/177/3 612/177/3 616/177/3 615/177/3
f 615/177/4 616/177/4 614/177/4 613/177/4
f 613/177/5 614/177/5 610/177/5 609/177/5
f 611/177/6 615/177/6 613/177/6 609/177/6
f 617/177/2 618/177/2 620/177/2 619/177/2
f 619/177/3 620/177/3 624/177/3 623/177/3
f 623/177/4 624/177/4 622/177/4 621/177/4
f 621/177/5 622/177/5 618/177/5 617/177/5
f 619/177/6 623/177/6 621/177/6 617/177/6
f 625/177/2 626/177/2 628/177/2 627/177/2
f 627/177/3 628/177/3 632/177/3 631/177/3
f 631/177/4 632/177/4 630/177/4 629/177/4
f 629/177/5 630/177/5 626/177/5 625/177/5
f 627/177/6 631/177/6 629/177/6 625/177/6
f 633/177/2 634/177/2 636/177/2 635/177/2
f 635/177/3 636/177/3 640/177/3 639/177/3
f 639/177/4 640/177/4 638/177/4 637/177/4
f 637/177/5 638/177/5 634/177/5 633/177/5
f 635/177/6 639/177/6 637/177/6 633/177/6
f 641/177/2 642/177/2 644/177/2 643/177/2
f 643/177/3 644/177/3 648/177/3 647/177/3
f 647/177/4 648/177/4 646/177/4 645/177/4
f 645/177/5 646/177/5 642/177/5 641/177/5
f 643/177/6 647/177/6 645/177/6 641/177/6
f 649/177/2 650/177/2 652/177/2 651/177/2
f 651/177/3 652/177/3 656/177/3 655/177/3
f 655/177/4 656/177/4 654/177/4 653/177/4
f 653/177/5 654/177/5 650/177/5 649/177/5
f 651/177/6 655/177/6 653/177/6 649/177/6
f 657/177/2 658/177/2 660/177/2 659/177/2
f 659/177/3 660/177/3 664/177/3 663/177/3
f 663/177/4 664/177/4 662/177/4 661/177/4
f 661/177/5 662/177/5 658/177/5 657/177/5
f 659/177/6 663/177/6 661/177/6 657/177/6
f 665/177/2 666/177/2 668/177/2 667/177/2
f 667/177/3 668/177/3 672/177/3 671/177/3
f 671/177/4 672/177/4 670/177/4 669/177/4
f 669/177/5 670/177/5 666/177/5 665/177/5
f 667/177/6 671/177/6 669/177/6 665/177/6
f 673/177/2 674/177/2 676/177/2 675/177/2
f 675/177/3 676/177/3 680/177/3 679/177/3
f 679/177/4 680/177/4 678/177/4 677/177/4
f 677/177/5 678/177/5 674/177/5 673/177/5
f 675/177/6 679/177/6 677/177/6 673/177/6
f 681/177/2 682/177/2 684/177/2 683/177/2
f 683/177/3 684/177/3 688/177/3 687/177/3
f 687/177/4 688/177/4 686/177/4 685/177/4
f 685/177/5 686/177/5 682/177/5 681/177/5
f 683/177/6 687/177/6 685/177/6 681/177/6
f 689/177/2 690/177/2 692/177/2 691/177/2
f 691/177/3 692/177/3 696/177/3 695/177/3
f 695/177/4 696/177/4 694/177/4 693/177/4
f 693/177/5 694/177/5 690/177/5 689/177/5
f 691/177/6 695/177/6 693/177/6 689/177/6
f 697/177/2 698/177/2 700/177/2 699/177/2
f 699/177/3 700/177/3 704/177/3 703/177/3
f 703/177/4 704/177/4 702/177/4 701/177/4
f 701/177/5 702/177/5 698/177/5 697/177/5
f 699/177/6 703/177/6 701/177/6 697/177/6
f 705/177/2 706/177/2 708/177/2 707/177/2
f 707/177/3 708/177/3 712/177/3 711/177/3
f 711/177/4 712/177/4 710/177/4 709/177/4
f 709/177/5 710/177/5 706/177/5 705/177/5
f 707/177/6 711/177/6 709/177/6 705/177/6
f 713/177/2 714/177/2 716/177/2 715/177/2
f 715/177/3 716/177/3 720/177/3 719/177/3
f 719/177/4 720/177/4 718/177/4 717/177/4
f 717/177/5 718/177/5 714/177/5 713/177/5
f 715/177/6 719/177/6 717/177/6 713/177/6
f 721/177/2 722/177/2 724/177/2 723/177/2
f 723/177/3 724/177/3 728/177/3 727/177/3
f 727/177/4 728/177/4 726/177/4 725/177/4
f 725/177/5 726/177/5 722/177/5 721/177/5
f 723/177/6 727/177/6 725/177/6 721/177/6
f 729/177/2 730/177/2 732/177/2 731/177/2
f 731/177/3 732/177/3 736/177/3 735/177/3
f 735/177/4 736/177/4 734/177/4 733/177/4
f 733/177/5 734/177/5 730/177/5 729/177/5
f 731/177/6 735/177/6 733/177/6 729/177/6
f 737/177/2 738/177/2 740/177/2 739/177/2
f 739/177/3 740/177/3 744/177/3 743/177/3
f 743/177/4 744/177/4 742/177/4 741/177/4
f 741/177/5 742/177/5 738/177/5 737/177/5
f 739/177/6 743/177/6 741/177/6 737/177/6
f 745/177/2 746/177/2 748/177/2 747/177/2
f 747/177/3 748/177/3 752/177/3 751/177/3
f 751/177/4 752/177/4 750/177/4 749/177/4
f 749/177/5 750/177/5 746/177/5 745/177/5
f 747/177/6 751/177/6 749/177/6 745/177/6
f 753/177/2 754/177/2 756/177/2 755/177/2
f 755/177/3 756/177/3 760/177/3 759/177/3
f 759/177/4 760/177/4 758/177/4 757/177/4
f 757/177/5 758/177/5 754/177/5 753/177/5
f 755/177/6 759/177/6 757/177/6 753/177/6
f 761/177/2 762/177/2 764/177/2 763/177/2
f 763/177/3 764/177/3 768/177/3 767/177/3
f 767/177/4 768/177/4 766/177/4 765/177/4
f 765/177/5 766/177/5 762/177/5 761/177/5
f 763/177/6 767/177/6 765/177/6 761/177/6
f 769/177/2 770/177/2 772/177/2 771/177/2
f 771/177/3 772/177/3 776/177/3 775/177/3
f 775/177/4 776/177/4 774/177/4 773/177/4
f 773/177/5 774/177/5 770/177/5 769/177/5
f 771/177/6 775/177/6 773/177/6 769/177/6
f 777/177/2 778/177/2 780/177/2 779/177/2
f 779/177/3 780/177/3 784/177/3 783/177/3
f 783/177/4 784/177/4 782/177/4 781/177/4
f 781/177/5 782/177/5 778/177/5 777/177/5
f 779/177/6 783/177/6 781/177/6 777/177/6
f 785/177/2 786/177/2 788/177/2 787/177/2
f 787/177/3 788/177/3 792/177/3 791/177/3
f 791/177/4 792/177/4 790/177/4 789/177/4
f 789/177/5 790/177/5 786/177/5 785/177/5
f 787/177/6 791/177/6 789/177/6 785/177/6
f 793/177/2 794/177/2 796/177/2 795/177/2
f 795/177/3 796/177/3 800/177/3 799/177/3
f 799/177/4 800/177/4 798/177/4 797/177/4
f 797/177/5 798/177/5 794/177/5 793/177/5
f 795/177/6 799/177/6 797/177/6 793/177/6
f 801/177/2 802/177/2 804/177/2 803/177/2
f 803/177/3 804/177/3 808/177/3 807/177/3
f 807/177/4 808/177/4 806/177/4 805/177/4
f 805/177/5 806/177/5 802/177/5 801/177/5
f 803/177/6 807/177/6 805/177/6 801/177/6
f 809/177/2 810/177/2 812/177/2 811/177/2
f 811/177/3 812/177/3 816/177/3 815/177/3
f 815/177/4 816/177/4 814/177/4 813/177/4
f 813/177/5 814/177/5 810/177/5 809/177/5
f 811/177/6 815/177/6 813/177/6 809/177/6
f 817/177/2 818/177/2 820/177/2 819/177/2
f 819/177/3 820/177/3 824/177/3 823/177/3
f 823/177/4 824/177/4 822/177/4 821/177/4
f 821/177/5 822/177/5 818/177/5 817/177/5
f 819/177/6 823/177/6 821/177/6 817/177/6
f 825/177/2 826/177/2 828/177/2 827/177/2
f 827/177/3 828/177/3 832/177/3 831/177/3
f 831/177/4 832/177/4 830/177/4 829/177/4
f 829/177/5 830/177/5 826/177/5 825/177/5
f 827/177/6 831/177/6 829/177/6 825/177/6
f 833/177/2 834/177/2 836/177/2 835/177/2
f 835/177/3 836/177/3 840/177/3 839/177/3
f 839/177/4 840/177/4 838/177/4 837/177/4
f 837/177/5 838/177/5 834/177/5 833/177/5
f 835/177/6 839/177/6 837/177/6 833/177/6
f 841/177/2 842/177/2 844/177/2 843/177/2
f 843/177/3 844/177/3 848/177/3 847/177/3
f 847/177/4 848/177/4 846/177/4 845/177/4
f 845/177/5 846/177/5 842/177/5 841/177/5
f 843/177/6 847/177/6 845/177/6 841/177/6
f 849/177/2 850/177/2 852/177/2 851/177/2
f 851/177/3 852/177/3 856/177/3 855/177/3
f 855/177/4 856/177/4 854/177/4 853/177/4
f 853/177/5 854/177/5 850/177/5 849/177/5
f 851/177/6 855/177/6 853/177/6 849/177/6
f 857/177/2 858/177/2 860/177/2 859/177/2
f 859/177/3 860/177/3 864/177/3 863/177/3
f 863/177/4 864/177/4 862/177/4 861/177/4
f 861/177/5 862/177/5 858/177/5 857/177/5
f 859/177/6 863/177/6 861/177/6 857/177/6
f 865/177/2 866/177/2 868/177/2 867/177/2
f 867/177/3 868/177/3 872/177/3 871/177/3
f 871/177/4 872/177/4 870/177/4 869/177/4
f 869/177/5 870/177/5 866/177/5 865/177/5
f 867/177/6 871/177/6 869/177/6 865/177/6
f 873/177/2 874/177/2 876/177/2 875/177/2
f 875/177/3 876/177/3 880/177/3 879/177/3
f 879/177/4 880/177/4 878/177/4 877/177/4
f 877/177/5 878/177/5 874/177/5 873/177/5
f 875/177/6 879/177/6 877/177/6 873/177/6
f 881/177/2 882/177/2 884/177/2 883/177/2
f 883/177/3 884/177/3 888/177/3 887/177/3
f 887/177/4 888/177/4 886/177/4 885/177/4
f 885/177/5 886/177/5 882/177/5 881/177/5
f 883/177/6 887/177/6 885/177/6 881/177/6
f 889/177/2 890/177/2 892/177/2 891/177/2
f 891/177/3 892/177/3 896/177/3 895/177/3
f 895/177/4 896/177/4 894/177/4 893/177/4
f 893/177/5 894/177/5 890/177/5 889/177/5
f 891/177/6 895/177/6 893/177/6 889/177/6
f 897/177/2 898/177/2 900/177/2 899/177/2
f 899/177/3 900/177/3 904/177/3 903/177/3
f 903/177/4 904/177/4 902/177/4 901/177/4
f 901/177/5 902/177/5 898/177/5 897/177/5
f 899/177/6 903/177/6 901/177/6 897/177/6
f 905/177/2 906/177/2 908/177/2 907/177/2
f 907/177/3 908/177/3 912/177/3 911/177/3
f 911/177/4 912/177/4 910/177/4 909/177/4
f 909/177/5 910/177/5 906/177/5 905/177/5
f 907/177/6 911/177/6 909/177/6 905/177/6
f 913/177/2 914/177/2 916/177/2 915/177/2
f 915/177/3 916/177/3 920/177/3 919/177/3
f 919/177/4 920/177/4 918/177/4 917/177/4
f 917/177/5 918/177/5 914/177/5 913/177/5
f 915/177/6 919/177/6 917/177/6 913/177/6
f 920/177/1 916/177/1 914/177/1 918/177/1
