# Blender 4.5.9 LTS
# www.blender.org
mtllib island_marking.mtl
o island_marking
v 20.747040 27.910000 -59.261131
v 20.747040 28.050001 -59.261131
v 20.747040 27.910000 -62.261131
v 20.747040 28.050001 -62.261131
v 24.747040 27.910000 -59.261131
v 24.747040 28.050001 -59.261131
v 24.747040 27.910000 -62.261131
v 24.747040 28.050001 -62.261131
v 20.747040 27.910000 67.738869
v 20.747040 28.050001 67.738869
v 20.747040 27.910000 64.738869
v 20.747040 28.050001 64.738869
v 24.747040 27.910000 67.738869
v 24.747040 28.050001 67.738869
v 24.747040 27.910000 64.738869
v 24.747040 28.050001 64.738869
v 28.747040 27.910000 -59.261131
v 28.747040 28.050001 -59.261131
v 28.747040 27.910000 -62.261131
v 28.747040 28.050001 -62.261131
v 32.747040 27.910000 -59.261131
v 32.747040 28.050001 -59.261131
v 32.747040 27.910000 -62.261131
v 32.747040 28.050001 -62.261131
v 28.747040 27.910000 67.738869
v 28.747040 28.050001 67.738869
v 28.747040 27.910000 64.738869
v 28.747040 28.050001 64.738869
v 32.747040 27.910000 67.738869
v 32.747040 28.050001 67.738869
v 32.747040 27.910000 64.738869
v 32.747040 28.050001 64.738869
v 36.747040 27.910000 -59.261131
v 36.747040 28.050001 -59.261131
v 36.747040 27.910000 -62.261131
v 36.747040 28.050001 -62.261131
v 40.747040 27.910000 -59.261131
v 40.747040 28.050001 -59.261131
v 40.747040 27.910000 -62.261131
v 40.747040 28.050001 -62.261131
v 36.747040 27.910000 67.738869
v 36.747040 28.050001 67.738869
v 36.747040 27.910000 64.738869
v 36.747040 28.050001 64.738869
v 40.747040 27.910000 67.738869
v 40.747040 28.050001 67.738869
v 40.747040 27.910000 64.738869
v 40.747040 28.050001 64.738869
v 44.747040 27.910000 -59.261131
v 44.747040 28.050001 -59.261131
v 44.747040 27.910000 -62.261131
v 44.747040 28.050001 -62.261131
v 48.747040 27.910000 -59.261131
v 48.747040 28.050001 -59.261131
v 48.747040 27.910000 -62.261131
v 48.747040 28.050001 -62.261131
v 44.747040 27.910000 67.738869
v 44.747040 28.050001 67.738869
v 44.747040 27.910000 64.738869
v 44.747040 28.050001 64.738869
v 48.747040 27.910000 67.738869
v 48.747040 28.050001 67.738869
v 48.747040 27.910000 64.738869
v 48.747040 28.050001 64.738869
v 52.747040 27.910000 -59.261131
v 52.747040 28.050001 -59.261131
v 52.747040 27.910000 -62.261131
v 52.747040 28.050001 -62.261131
v 56.747040 27.910000 -59.261131
v 56.747040 28.050001 -59.261131
v 56.747040 27.910000 -62.261131
v 56.747040 28.050001 -62.261131
v 52.747040 27.910000 67.738869
v 52.747040 28.050001 67.738869
v 52.747040 27.910000 64.738869
v 52.747040 28.050001 64.738869
v 56.747040 27.910000 67.738869
v 56.747040 28.050001 67.738869
v 56.747040 27.910000 64.738869
v 56.747040 28.050001 64.738869
v 16.747040 27.910000 63.738869
v 16.747040 28.050001 63.738869
v 16.747040 27.910000 59.738869
v 16.747040 28.050001 59.738869
v 19.747040 27.910000 63.738869
v 19.747040 28.050001 63.738869
v 19.747040 27.910000 59.738869
v 19.747040 28.050001 59.738869
v 60.747040 27.910000 63.738869
v 60.747040 28.050001 63.738869
v 60.747040 27.910000 59.738869
v 60.747040 28.050001 59.738869
v 63.747040 27.910000 63.738869
v 63.747040 28.050001 63.738869
v 63.747040 27.910000 59.738869
v 63.747040 28.050001 59.738869
v 16.747040 27.910000 55.738869
v 16.747040 28.050001 55.738869
v 16.747040 27.910000 51.738869
v 16.747040 28.050001 51.738869
v 19.747040 27.910000 55.738869
v 19.747040 28.050001 55.738869
v 19.747040 27.910000 51.738869
v 19.747040 28.050001 51.738869
v 60.747040 27.910000 55.738869
v 60.747040 28.050001 55.738869
v 60.747040 27.910000 51.738869
v 60.747040 28.050001 51.738869
v 63.747040 27.910000 55.738869
v 63.747040 28.050001 55.738869
v 63.747040 27.910000 51.738869
v 63.747040 28.050001 51.738869
v 16.747040 27.910000 47.738869
v 16.747040 28.050001 47.738869
v 16.747040 27.910000 43.738869
v 16.747040 28.050001 43.738869
v 19.747040 27.910000 47.738869
v 19.747040 28.050001 47.738869
v 19.747040 27.910000 43.738869
v 19.747040 28.050001 43.738869
v 60.747040 27.910000 47.738869
v 60.747040 28.050001 47.738869
v 60.747040 27.910000 43.738869
v 60.747040 28.050001 43.738869
v 63.747040 27.910000 47.738869
v 63.747040 28.050001 47.738869
v 63.747040 27.910000 43.738869
v 63.747040 28.050001 43.738869
v 16.747040 27.910000 39.738869
v 16.747040 28.050001 39.738869
v 16.747040 27.910000 35.738869
v 16.747040 28.050001 35.738869
v 19.747040 27.910000 39.738869
v 19.747040 28.050001 39.738869
v 19.747040 27.910000 35.738869
v 19.747040 28.050001 35.738869
v 60.747040 27.910000 39.738869
v 60.747040 28.050001 39.738869
v 60.747040 27.910000 35.738869
v 60.747040 28.050001 35.738869
v 63.747040 27.910000 39.738869
v 63.747040 28.050001 39.738869
v 63.747040 27.910000 35.738869
v 63.747040 28.050001 35.738869
v 16.747040 27.910000 31.738869
v 16.747040 28.050001 31.738869
v 16.747040 27.910000 27.738869
v 16.747040 28.050001 27.738869
v 19.747040 27.910000 31.738869
v 19.747040 28.050001 31.738869
v 19.747040 27.910000 27.738869
v 19.747040 28.050001 27.738869
v 60.747040 27.910000 31.738869
v 60.747040 28.050001 31.738869
v 60.747040 27.910000 27.738869
v 60.747040 28.050001 27.738869
v 63.747040 27.910000 31.738869
v 63.747040 28.050001 31.738869
v 63.747040 27.910000 27.738869
v 63.747040 28.050001 27.738869
v 16.747040 27.910000 23.738869
v 16.747040 28.050001 23.738869
v 16.747040 27.910000 19.738869
v 16.747040 28.050001 19.738869
v 19.747040 27.910000 23.738869
v 19.747040 28.050001 23.738869
v 19.747040 27.910000 19.738869
v 19.747040 28.050001 19.738869
v 60.747040 27.910000 23.738869
v 60.747040 28.050001 23.738869
v 60.747040 27.910000 19.738869
v 60.747040 28.050001 19.738869
v 63.747040 27.910000 23.738869
v 63.747040 28.050001 23.738869
v 63.747040 27.910000 19.738869
v 63.747040 28.050001 19.738869
v 16.747040 27.910000 15.738869
v 16.747040 28.050001 15.738869
v 16.747040 27.910000 11.738869
v 16.747040 28.050001 11.738869
v 19.747040 27.910000 15.738869
v 19.747040 28.050001 15.738869
v 19.747040 27.910000 11.738869
v 19.747040 28.050001 11.738869
v 60.747040 27.910000 15.738869
v 60.747040 28.050001 15.738869
v 60.747040 27.910000 11.738869
v 60.747040 28.050001 11.738869
v 63.747040 27.910000 15.738869
v 63.747040 28.050001 15.738869
v 63.747040 27.910000 11.738869
v 63.747040 28.050001 11.738869
v 16.747040 27.910000 7.738869
v 16.747040 28.050001 7.738869
v 16.747040 27.910000 3.738869
v 16.747040 28.050001 3.738869
v 19.747040 27.910000 7.738869
v 19.747040 28.050001 7.738869
v 19.747040 27.910000 3.738869
v 19.747040 28.050001 3.738869
v 60.747040 27.910000 7.738869
v 60.747040 28.050001 7.738869
v 60.747040 27.910000 3.738869
v 60.747040 28.050001 3.738869
v 63.747040 27.910000 7.738869
v 63.747040 28.050001 7.738869
v 63.747040 27.910000 3.738869
v 63.747040 28.050001 3.738869
v 16.747040 27.910000 -0.261131
v 16.747040 28.050001 -0.261131
v 16.747040 27.910000 -4.261131
v 16.747040 28.050001 -4.261131
v 19.747040 27.910000 -0.261131
v 19.747040 28.050001 -0.261131
v 19.747040 27.910000 -4.261131
v 19.747040 28.050001 -4.261131
v 60.747040 27.910000 -0.261131
v 60.747040 28.050001 -0.261131
v 60.747040 27.910000 -4.261131
v 60.747040 28.050001 -4.261131
v 63.747040 27.910000 -0.261131
v 63.747040 28.050001 -0.261131
v 63.747040 27.910000 -4.261131
v 63.747040 28.050001 -4.261131
v 16.747040 27.910000 -8.261131
v 16.747040 28.050001 -8.261131
v 16.747040 27.910000 -12.261131
v 16.747040 28.050001 -12.261131
v 19.747040 27.910000 -8.261131
v 19.747040 28.050001 -8.261131
v 19.747040 27.910000 -12.261131
v 19.747040 28.050001 -12.261131
v 60.747040 27.910000 -8.261131
v 60.747040 28.050001 -8.261131
v 60.747040 27.910000 -12.261131
v 60.747040 28.050001 -12.261131
v 63.747040 27.910000 -8.261131
v 63.747040 28.050001 -8.261131
v 63.747040 27.910000 -12.261131
v 63.747040 28.050001 -12.261131
v 16.747040 27.910000 -16.261131
v 16.747040 28.050001 -16.261131
v 16.747040 27.910000 -20.261131
v 16.747040 28.050001 -20.261131
v 19.747040 27.910000 -16.261131
v 19.747040 28.050001 -16.261131
v 19.747040 27.910000 -20.261131
v 19.747040 28.050001 -20.261131
v 60.747040 27.910000 -16.261131
v 60.747040 28.050001 -16.261131
v 60.747040 27.910000 -20.261131
v 60.747040 28.050001 -20.261131
v 63.747040 27.910000 -16.261131
v 63.747040 28.050001 -16.261131
v 63.747040 27.910000 -20.261131
v 63.747040 28.050001 -20.261131
v 16.747040 27.910000 -24.261131
v 16.747040 28.050001 -24.261131
v 16.747040 27.910000 -28.261131
v 16.747040 28.050001 -28.261131
v 19.747040 27.910000 -24.261131
v 19.747040 28.050001 -24.261131
v 19.747040 27.910000 -28.261131
v 19.747040 28.050001 -28.261131
v 60.747040 27.910000 -24.261131
v 60.747040 28.050001 -24.261131
v 60.747040 27.910000 -28.261131
v 60.747040 28.050001 -28.261131
v 63.747040 27.910000 -24.261131
v 63.747040 28.050001 -24.261131
v 63.747040 27.910000 -28.261131
v 63.747040 28.050001 -28.261131
v 16.747040 27.910000 -32.261131
v 16.747040 28.050001 -32.261131
v 16.747040 27.910000 -36.261131
v 16.747040 28.050001 -36.261131
v 19.747040 27.910000 -32.261131
v 19.747040 28.050001 -32.261131
v 19.747040 27.910000 -36.261131
v 19.747040 28.050001 -36.261131
v 60.747040 27.910000 -32.261131
v 60.747040 28.050001 -32.261131
v 60.747040 27.910000 -36.261131
v 60.747040 28.050001 -36.261131
v 63.747040 27.910000 -32.261131
v 63.747040 28.050001 -32.261131
v 63.747040 27.910000 -36.261131
v 63.747040 28.050001 -36.261131
v 16.747040 27.910000 -40.261131
v 16.747040 28.050001 -40.261131
v 16.747040 27.910000 -44.261131
v 16.747040 28.050001 -44.261131
v 19.747040 27.910000 -40.261131
v 19.747040 28.050001 -40.261131
v 19.747040 27.910000 -44.261131
v 19.747040 28.050001 -44.261131
v 60.747040 27.910000 -40.261131
v 60.747040 28.050001 -40.261131
v 60.747040 27.910000 -44.261131
v 60.747040 28.050001 -44.261131
v 63.747040 27.910000 -40.261131
v 63.747040 28.050001 -40.261131
v 63.747040 27.910000 -44.261131
v 63.747040 28.050001 -44.261131
v 16.747040 27.910000 -48.261131
v 16.747040 28.050001 -48.261131
v 16.747040 27.910000 -52.261131
v 16.747040 28.050001 -52.261131
v 19.747040 27.910000 -48.261131
v 19.747040 28.050001 -48.261131
v 19.747040 27.910000 -52.261131
v 19.747040 28.050001 -52.261131
v 60.747040 27.910000 -48.261131
v 60.747040 28.050001 -48.261131
v 60.747040 27.910000 -52.261131
v 60.747040 28.050001 -52.261131
v 63.747040 27.910000 -48.261131
v 63.747040 28.050001 -48.261131
v 63.747040 27.910000 -52.261131
v 63.747040 28.050001 -52.261131
v -74.752960 27.770000 -73.811134
v -74.752960 27.890001 -73.811134
v -74.752960 27.770000 -74.711128
v -74.752960 27.890001 -74.711128
v -71.752960 27.770000 -73.811134
v -71.752960 27.890001 -73.811134
v -71.752960 27.770000 -74.711128
v -71.752960 27.890001 -74.711128
v -74.752960 27.770000 80.188866
v -74.752960 27.890001 80.188866
v -74.752960 27.770000 79.288872
v -74.752960 27.890001 79.288872
v -71.752960 27.770000 80.188866
v -71.752960 27.890001 80.188866
v -71.752960 27.770000 79.288872
v -71.752960 27.890001 79.288872
v -66.752960 27.770000 -73.811134
v -66.752960 27.890001 -73.811134
v -66.752960 27.770000 -74.711128
v -66.752960 27.890001 -74.711128
v -63.752960 27.770000 -73.811134
v -63.752960 27.890001 -73.811134
v -63.752960 27.770000 -74.711128
v -63.752960 27.890001 -74.711128
v -66.752960 27.770000 80.188866
v -66.752960 27.890001 80.188866
v -66.752960 27.770000 79.288872
v -66.752960 27.890001 79.288872
v -63.752960 27.770000 80.188866
v -63.752960 27.890001 80.188866
v -63.752960 27.770000 79.288872
v -63.752960 27.890001 79.288872
v -58.752960 27.770000 -73.811134
v -58.752960 27.890001 -73.811134
v -58.752960 27.770000 -74.711128
v -58.752960 27.890001 -74.711128
v -55.752960 27.770000 -73.811134
v -55.752960 27.890001 -73.811134
v -55.752960 27.770000 -74.711128
v -55.752960 27.890001 -74.711128
v -58.752960 27.770000 80.188866
v -58.752960 27.890001 80.188866
v -58.752960 27.770000 79.288872
v -58.752960 27.890001 79.288872
v -55.752960 27.770000 80.188866
v -55.752960 27.890001 80.188866
v -55.752960 27.770000 79.288872
v -55.752960 27.890001 79.288872
v -50.752960 27.770000 -73.811134
v -50.752960 27.890001 -73.811134
v -50.752960 27.770000 -74.711128
v -50.752960 27.890001 -74.711128
v -47.752960 27.770000 -73.811134
v -47.752960 27.890001 -73.811134
v -47.752960 27.770000 -74.711128
v -47.752960 27.890001 -74.711128
v -50.752960 27.770000 80.188866
v -50.752960 27.890001 80.188866
v -50.752960 27.770000 79.288872
v -50.752960 27.890001 79.288872
v -47.752960 27.770000 80.188866
v -47.752960 27.890001 80.188866
v -47.752960 27.770000 79.288872
v -47.752960 27.890001 79.288872
v -42.752960 27.770000 -73.811134
v -42.752960 27.890001 -73.811134
v -42.752960 27.770000 -74.711128
v -42.752960 27.890001 -74.711128
v -39.752960 27.770000 -73.811134
v -39.752960 27.890001 -73.811134
v -39.752960 27.770000 -74.711128
v -39.752960 27.890001 -74.711128
v -42.752960 27.770000 80.188866
v -42.752960 27.890001 80.188866
v -42.752960 27.770000 79.288872
v -42.752960 27.890001 79.288872
v -39.752960 27.770000 80.188866
v -39.752960 27.890001 80.188866
v -39.752960 27.770000 79.288872
v -39.752960 27.890001 79.288872
v -34.752960 27.770000 -73.811134
v -34.752960 27.890001 -73.811134
v -34.752960 27.770000 -74.711128
v -34.752960 27.890001 -74.711128
v -31.752960 27.770000 -73.811134
v -31.752960 27.890001 -73.811134
v -31.752960 27.770000 -74.711128
v -31.752960 27.890001 -74.711128
v -34.752960 27.770000 80.188866
v -34.752960 27.890001 80.188866
v -34.752960 27.770000 79.288872
v -34.752960 27.890001 79.288872
v -31.752960 27.770000 80.188866
v -31.752960 27.890001 80.188866
v -31.752960 27.770000 79.288872
v -31.752960 27.890001 79.288872
v -26.752960 27.770000 -73.811134
v -26.752960 27.890001 -73.811134
v -26.752960 27.770000 -74.711128
v -26.752960 27.890001 -74.711128
v -23.752960 27.770000 -73.811134
v -23.752960 27.890001 -73.811134
v -23.752960 27.770000 -74.711128
v -23.752960 27.890001 -74.711128
v -26.752960 27.770000 80.188866
v -26.752960 27.890001 80.188866
v -26.752960 27.770000 79.288872
v -26.752960 27.890001 79.288872
v -23.752960 27.770000 80.188866
v -23.752960 27.890001 80.188866
v -23.752960 27.770000 79.288872
v -23.752960 27.890001 79.288872
v -18.752960 27.770000 -73.811134
v -18.752960 27.890001 -73.811134
v -18.752960 27.770000 -74.711128
v -18.752960 27.890001 -74.711128
v -15.752960 27.770000 -73.811134
v -15.752960 27.890001 -73.811134
v -15.752960 27.770000 -74.711128
v -15.752960 27.890001 -74.711128
v -18.752960 27.770000 80.188866
v -18.752960 27.890001 80.188866
v -18.752960 27.770000 79.288872
v -18.752960 27.890001 79.288872
v -15.752960 27.770000 80.188866
v -15.752960 27.890001 80.188866
v -15.752960 27.770000 79.288872
v -15.752960 27.890001 79.288872
v -10.752960 27.770000 -73.811134
v -10.752960 27.890001 -73.811134
v -10.752960 27.770000 -74.711128
v -10.752960 27.890001 -74.711128
v -7.752960 27.770000 -73.811134
v -7.752960 27.890001 -73.811134
v -7.752960 27.770000 -74.711128
v -7.752960 27.890001 -74.711128
v -10.752960 27.770000 80.188866
v -10.752960 27.890001 80.188866
v -10.752960 27.770000 79.288872
v -10.752960 27.890001 79.288872
v -7.752960 27.770000 80.188866
v -7.752960 27.890001 80.188866
v -7.752960 27.770000 79.288872
v -7.752960 27.890001 79.288872
v -2.752960 27.770000 -73.811134
v -2.752960 27.890001 -73.811134
v -2.752960 27.770000 -74.711128
v -2.752960 27.890001 -74.711128
v 0.247040 27.770000 -73.811134
v 0.247040 27.890001 -73.811134
v 0.247040 27.770000 -74.711128
v 0.247040 27.890001 -74.711128
v -2.752960 27.770000 80.188866
v -2.752960 27.890001 80.188866
v -2.752960 27.770000 79.288872
v -2.752960 27.890001 79.288872
v 0.247040 27.770000 80.188866
v 0.247040 27.890001 80.188866
v 0.247040 27.770000 79.288872
v 0.247040 27.890001 79.288872
v 5.247040 27.770000 -73.811134
v 5.247040 27.890001 -73.811134
v 5.247040 27.770000 -74.711128
v 5.247040 27.890001 -74.711128
v 8.247040 27.770000 -73.811134
v 8.247040 27.890001 -73.811134
v 8.247040 27.770000 -74.711128
v 8.247040 27.890001 -74.711128
v 5.247040 27.770000 80.188866
v 5.247040 27.890001 80.188866
v 5.247040 27.770000 79.288872
v 5.247040 27.890001 79.288872
v 8.247040 27.770000 80.188866
v 8.247040 27.890001 80.188866
v 8.247040 27.770000 79.288872
v 8.247040 27.890001 79.288872
v 13.247040 27.770000 -73.811134
v 13.247040 27.890001 -73.811134
v 13.247040 27.770000 -74.711128
v 13.247040 27.890001 -74.711128
v 16.247040 27.770000 -73.811134
v 16.247040 27.890001 -73.811134
v 16.247040 27.770000 -74.711128
v 16.247040 27.890001 -74.711128
v 13.247040 27.770000 80.188866
v 13.247040 27.890001 80.188866
v 13.247040 27.770000 79.288872
v 13.247040 27.890001 79.288872
v 16.247040 27.770000 80.188866
v 16.247040 27.890001 80.188866
v 16.247040 27.770000 79.288872
v 16.247040 27.890001 79.288872
v 21.247040 27.770000 -73.811134
v 21.247040 27.890001 -73.811134
v 21.247040 27.770000 -74.711128
v 21.247040 27.890001 -74.711128
v 24.247040 27.770000 -73.811134
v 24.247040 27.890001 -73.811134
v 24.247040 27.770000 -74.711128
v 24.247040 27.890001 -74.711128
v 21.247040 27.770000 80.188866
v 21.247040 27.890001 80.188866
v 21.247040 27.770000 79.288872
v 21.247040 27.890001 79.288872
v 24.247040 27.770000 80.188866
v 24.247040 27.890001 80.188866
v 24.247040 27.770000 79.288872
v 24.247040 27.890001 79.288872
v 29.247040 27.770000 -73.811134
v 29.247040 27.890001 -73.811134
v 29.247040 27.770000 -74.711128
v 29.247040 27.890001 -74.711128
v 32.247040 27.770000 -73.811134
v 32.247040 27.890001 -73.811134
v 32.247040 27.770000 -74.711128
v 32.247040 27.890001 -74.711128
v 29.247040 27.770000 80.188866
v 29.247040 27.890001 80.188866
v 29.247040 27.770000 79.288872
v 29.247040 27.890001 79.288872
v 32.247040 27.770000 80.188866
v 32.247040 27.890001 80.188866
v 32.247040 27.770000 79.288872
v 32.247040 27.890001 79.288872
v 37.247040 27.770000 -73.811134
v 37.247040 27.890001 -73.811134
v 37.247040 27.770000 -74.711128
v 37.247040 27.890001 -74.711128
v 40.247040 27.770000 -73.811134
v 40.247040 27.890001 -73.811134
v 40.247040 27.770000 -74.711128
v 40.247040 27.890001 -74.711128
v 37.247040 27.770000 80.188866
v 37.247040 27.890001 80.188866
v 37.247040 27.770000 79.288872
v 37.247040 27.890001 79.288872
v 40.247040 27.770000 80.188866
v 40.247040 27.890001 80.188866
v 40.247040 27.770000 79.288872
v 40.247040 27.890001 79.288872
v 45.247040 27.770000 -73.811134
v 45.247040 27.890001 -73.811134
v 45.247040 27.770000 -74.711128
v 45.247040 27.890001 -74.711128
v 48.247040 27.770000 -73.811134
v 48.247040 27.890001 -73.811134
v 48.247040 27.770000 -74.711128
v 48.247040 27.890001 -74.711128
v 45.247040 27.770000 80.188866
v 45.247040 27.890001 80.188866
v 45.247040 27.770000 79.288872
v 45.247040 27.890001 79.288872
v 48.247040 27.770000 80.188866
v 48.247040 27.890001 80.188866
v 48.247040 27.770000 79.288872
v 48.247040 27.890001 79.288872
v 53.247040 27.770000 -73.811134
v 53.247040 27.890001 -73.811134
v 53.247040 27.770000 -74.711128
v 53.247040 27.890001 -74.711128
v 56.247040 27.770000 -73.811134
v 56.247040 27.890001 -73.811134
v 56.247040 27.770000 -74.711128
v 56.247040 27.890001 -74.711128
v 53.247040 27.770000 80.188866
v 53.247040 27.890001 80.188866
v 53.247040 27.770000 79.288872
v 53.247040 27.890001 79.288872
v 56.247040 27.770000 80.188866
v 56.247040 27.890001 80.188866
v 56.247040 27.770000 79.288872
v 56.247040 27.890001 79.288872
v 61.247040 27.770000 -73.811134
v 61.247040 27.890001 -73.811134
v 61.247040 27.770000 -74.711128
v 61.247040 27.890001 -74.711128
v 64.247040 27.770000 -73.811134
v 64.247040 27.890001 -73.811134
v 64.247040 27.770000 -74.711128
v 64.247040 27.890001 -74.711128
v 61.247040 27.770000 80.188866
v 61.247040 27.890001 80.188866
v 61.247040 27.770000 79.288872
v 61.247040 27.890001 79.288872
v 64.247040 27.770000 80.188866
v 64.247040 27.890001 80.188866
v 64.247040 27.770000 79.288872
v 64.247040 27.890001 79.288872
v 69.247040 27.770000 -73.811134
v 69.247040 27.890001 -73.811134
v 69.247040 27.770000 -74.711128
v 69.247040 27.890001 -74.711128
v 72.247040 27.770000 -73.811134
v 72.247040 27.890001 -73.811134
v 72.247040 27.770000 -74.711128
v 72.247040 27.890001 -74.711128
v 69.247040 27.770000 80.188866
v 69.247040 27.890001 80.188866
v 69.247040 27.770000 79.288872
v 69.247040 27.890001 79.288872
v 72.247040 27.770000 80.188866
v 72.247040 27.890001 80.188866
v 72.247040 27.770000 79.288872
v 72.247040 27.890001 79.288872
v 75.297043 27.770000 68.238869
v 75.297043 27.890001 68.238869
v 75.297043 27.770000 65.238869
v 75.297043 27.890001 65.238869
v 76.197037 27.770000 68.238869
v 76.197037 27.890001 68.238869
v 76.197037 27.770000 65.238869
v 76.197037 27.890001 65.238869
v -78.702957 27.770000 68.238869
v -78.702957 27.890001 68.238869
v -78.702957 27.770000 65.238869
v -78.702957 27.890001 65.238869
v -77.802963 27.770000 68.238869
v -77.802963 27.890001 68.238869
v -77.802963 27.770000 65.238869
v -77.802963 27.890001 65.238869
v 75.297043 27.770000 60.238869
v 75.297043 27.890001 60.238869
v 75.297043 27.770000 57.238869
v 75.297043 27.890001 57.238869
v 76.197037 27.770000 60.238869
v 76.197037 27.890001 60.238869
v 76.197037 27.770000 57.238869
v 76.197037 27.890001 57.238869
v -78.702957 27.770000 60.238869
v -78.702957 27.890001 60.238869
v -78.702957 27.770000 57.238869
v -78.702957 27.890001 57.238869
v -77.802963 27.770000 60.238869
v -77.802963 27.890001 60.238869
v -77.802963 27.770000 57.238869
v -77.802963 27.890001 57.238869
v 75.297043 27.770000 52.238869
v 75.297043 27.890001 52.238869
v 75.297043 27.770000 49.238869
v 75.297043 27.890001 49.238869
v 76.197037 27.770000 52.238869
v 76.197037 27.890001 52.238869
v 76.197037 27.770000 49.238869
v 76.197037 27.890001 49.238869
v -78.702957 27.770000 52.238869
v -78.702957 27.890001 52.238869
v -78.702957 27.770000 49.238869
v -78.702957 27.890001 49.238869
v -77.802963 27.770000 52.238869
v -77.802963 27.890001 52.238869
v -77.802963 27.770000 49.238869
v -77.802963 27.890001 49.238869
v 75.297043 27.770000 44.238869
v 75.297043 27.890001 44.238869
v 75.297043 27.770000 41.238869
v 75.297043 27.890001 41.238869
v 76.197037 27.770000 44.238869
v 76.197037 27.890001 44.238869
v 76.197037 27.770000 41.238869
v 76.197037 27.890001 41.238869
v -78.702957 27.770000 44.238869
v -78.702957 27.890001 44.238869
v -78.702957 27.770000 41.238869
v -78.702957 27.890001 41.238869
v -77.802963 27.770000 44.238869
v -77.802963 27.890001 44.238869
v -77.802963 27.770000 41.238869
v -77.802963 27.890001 41.238869
v 75.297043 27.770000 36.238869
v 75.297043 27.890001 36.238869
v 75.297043 27.770000 33.238869
v 75.297043 27.890001 33.238869
v 76.197037 27.770000 36.238869
v 76.197037 27.890001 36.238869
v 76.197037 27.770000 33.238869
v 76.197037 27.890001 33.238869
v -78.702957 27.770000 36.238869
v -78.702957 27.890001 36.238869
v -78.702957 27.770000 33.238869
v -78.702957 27.890001 33.238869
v -77.802963 27.770000 36.238869
v -77.802963 27.890001 36.238869
v -77.802963 27.770000 33.238869
v -77.802963 27.890001 33.238869
v 75.297043 27.770000 28.238869
v 75.297043 27.890001 28.238869
v 75.297043 27.770000 25.238869
v 75.297043 27.890001 25.238869
v 76.197037 27.770000 28.238869
v 76.197037 27.890001 28.238869
v 76.197037 27.770000 25.238869
v 76.197037 27.890001 25.238869
v -78.702957 27.770000 28.238869
v -78.702957 27.890001 28.238869
v -78.702957 27.770000 25.238869
v -78.702957 27.890001 25.238869
v -77.802963 27.770000 28.238869
v -77.802963 27.890001 28.238869
v -77.802963 27.770000 25.238869
v -77.802963 27.890001 25.238869
v 75.297043 27.770000 20.238869
v 75.297043 27.890001 20.238869
v 75.297043 27.770000 17.238869
v 75.297043 27.890001 17.238869
v 76.197037 27.770000 20.238869
v 76.197037 27.890001 20.238869
v 76.197037 27.770000 17.238869
v 76.197037 27.890001 17.238869
v -78.702957 27.770000 20.238869
v -78.702957 27.890001 20.238869
v -78.702957 27.770000 17.238869
v -78.702957 27.890001 17.238869
v -77.802963 27.770000 20.238869
v -77.802963 27.890001 20.238869
v -77.802963 27.770000 17.238869
v -77.802963 27.890001 17.238869
v 75.297043 27.770000 12.238869
v 75.297043 27.890001 12.238869
v 75.297043 27.770000 9.238869
v 75.297043 27.890001 9.238869
v 76.197037 27.770000 12.238869
v 76.197037 27.890001 12.238869
v 76.197037 27.770000 9.238869
v 76.197037 27.890001 9.238869
v -78.702957 27.770000 12.238869
v -78.702957 27.890001 12.238869
v -78.702957 27.770000 9.238869
v -78.702957 27.890001 9.238869
v -77.802963 27.770000 12.238869
v -77.802963 27.890001 12.238869
v -77.802963 27.770000 9.238869
v -77.802963 27.890001 9.238869
v 75.297043 27.770000 4.238869
v 75.297043 27.890001 4.238869
v 75.297043 27.770000 1.238869
v 75.297043 27.890001 1.238869
v 76.197037 27.770000 4.238869
v 76.197037 27.890001 4.238869
v 76.197037 27.770000 1.238869
v 76.197037 27.890001 1.238869
v -78.702957 27.770000 4.238869
v -78.702957 27.890001 4.238869
v -78.702957 27.770000 1.238869
v -78.702957 27.890001 1.238869
v -77.802963 27.770000 4.238869
v -77.802963 27.890001 4.238869
v -77.802963 27.770000 1.238869
v -77.802963 27.890001 1.238869
v 75.297043 27.770000 -3.761131
v 75.297043 27.890001 -3.761131
v 75.297043 27.770000 -6.761131
v 75.297043 27.890001 -6.761131
v 76.197037 27.770000 -3.761131
v 76.197037 27.890001 -3.761131
v 76.197037 27.770000 -6.761131
v 76.197037 27.890001 -6.761131
v -78.702957 27.770000 -3.761131
v -78.702957 27.890001 -3.761131
v -78.702957 27.770000 -6.761131
v -78.702957 27.890001 -6.761131
v -77.802963 27.770000 -3.761131
v -77.802963 27.890001 -3.761131
v -77.802963 27.770000 -6.761131
v -77.802963 27.890001 -6.761131
v 75.297043 27.770000 -11.761131
v 75.297043 27.890001 -11.761131
v 75.297043 27.770000 -14.761131
v 75.297043 27.890001 -14.761131
v 76.197037 27.770000 -11.761131
v 76.197037 27.890001 -11.761131
v 76.197037 27.770000 -14.761131
v 76.197037 27.890001 -14.761131
v -78.702957 27.770000 -11.761131
v -78.702957 27.890001 -11.761131
v -78.702957 27.770000 -14.761131
v -78.702957 27.890001 -14.761131
v -77.802963 27.770000 -11.761131
v -77.802963 27.890001 -11.761131
v -77.802963 27.770000 -14.761131
v -77.802963 27.890001 -14.761131
v 75.297043 27.770000 -19.761131
v 75.297043 27.890001 -19.761131
v 75.297043 27.770000 -22.761131
v 75.297043 27.890001 -22.761131
v 76.197037 27.770000 -19.761131
v 76.197037 27.890001 -19.761131
v 76.197037 27.770000 -22.761131
v 76.197037 27.890001 -22.761131
v -78.702957 27.770000 -19.761131
v -78.702957 27.890001 -19.761131
v -78.702957 27.770000 -22.761131
v -78.702957 27.890001 -22.761131
v -77.802963 27.770000 -19.761131
v -77.802963 27.890001 -19.761131
v -77.802963 27.770000 -22.761131
v -77.802963 27.890001 -22.761131
v 75.297043 27.770000 -27.761131
v 75.297043 27.890001 -27.761131
v 75.297043 27.770000 -30.761131
v 75.297043 27.890001 -30.761131
v 76.197037 27.770000 -27.761131
v 76.197037 27.890001 -27.761131
v 76.197037 27.770000 -30.761131
v 76.197037 27.890001 -30.761131
v -78.702957 27.770000 -27.761131
v -78.702957 27.890001 -27.761131
v -78.702957 27.770000 -30.761131
v -78.702957 27.890001 -30.761131
v -77.802963 27.770000 -27.761131
v -77.802963 27.890001 -27.761131
v -77.802963 27.770000 -30.761131
v -77.802963 27.890001 -30.761131
v 75.297043 27.770000 -35.761131
v 75.297043 27.890001 -35.761131
v 75.297043 27.770000 -38.761131
v 75.297043 27.890001 -38.761131
v 76.197037 27.770000 -35.761131
v 76.197037 27.890001 -35.761131
v 76.197037 27.770000 -38.761131
v 76.197037 27.890001 -38.761131
v -78.702957 27.770000 -35.761131
v -78.702957 27.890001 -35.761131
v -78.702957 27.770000 -38.761131
v -78.702957 27.890001 -38.761131
v -77.802963 27.770000 -35.761131
v -77.802963 27.890001 -35.761131
v -77.802963 27.770000 -38.761131
v -77.802963 27.890001 -38.761131
v 75.297043 27.770000 -43.761131
v 75.297043 27.890001 -43.761131
v 75.297043 27.770000 -46.761131
v 75.297043 27.890001 -46.761131
v 76.197037 27.770000 -43.761131
v 76.197037 27.890001 -43.761131
v 76.197037 27.770000 -46.761131
v 76.197037 27.890001 -46.761131
v -78.702957 27.770000 -43.761131
v -78.702957 27.890001 -43.761131
v -78.702957 27.770000 -46.761131
v -78.702957 27.890001 -46.761131
v -77.802963 27.770000 -43.761131
v -77.802963 27.890001 -43.761131
v -77.802963 27.770000 -46.761131
v -77.802963 27.890001 -46.761131
v 75.297043 27.770000 -51.761131
v 75.297043 27.890001 -51.761131
v 75.297043 27.770000 -54.761131
v 75.297043 27.890001 -54.761131
v 76.197037 27.770000 -51.761131
v 76.197037 27.890001 -51.761131
v 76.197037 27.770000 -54.761131
v 76.197037 27.890001 -54.761131
v -78.702957 27.770000 -51.761131
v -78.702957 27.890001 -51.761131
v -78.702957 27.770000 -54.761131
v -78.702957 27.890001 -54.761131
v -77.802963 27.770000 -51.761131
v -77.802963 27.890001 -51.761131
v -77.802963 27.770000 -54.761131
v -77.802963 27.890001 -54.761131
v 75.297043 27.770000 -59.761131
v 75.297043 27.890001 -59.761131
v 75.297043 27.770000 -62.761131
v 75.297043 27.890001 -62.761131
v 76.197037 27.770000 -59.761131
v 76.197037 27.890001 -59.761131
v 76.197037 27.770000 -62.761131
v 76.197037 27.890001 -62.761131
v -78.702957 27.770000 -59.761131
v -78.702957 27.890001 -59.761131
v -78.702957 27.770000 -62.761131
v -78.702957 27.890001 -62.761131
v -77.802963 27.770000 -59.761131
v -77.802963 27.890001 -59.761131
v -77.802963 27.770000 -62.761131
v -77.802963 27.890001 -62.761131
v 4.297040 27.770000 60.238869
v 4.297040 27.890001 60.238869
v 4.297040 27.770000 57.238869
v 4.297040 27.890001 57.238869
v 5.197040 27.770000 60.238869
v 5.197040 27.890001 60.238869
v 5.197040 27.770000 57.238869
v 5.197040 27.890001 57.238869
v 4.297040 27.770000 52.238869
v 4.297040 27.890001 52.238869
v 4.297040 27.770000 49.238869
v 4.297040 27.890001 49.238869
v 5.197040 27.770000 52.238869
v 5.197040 27.890001 52.238869
v 5.197040 27.770000 49.238869
v 5.197040 27.890001 49.238869
v 4.297040 27.770000 44.238869
v 4.297040 27.890001 44.238869
v 4.297040 27.770000 41.238869
v 4.297040 27.890001 41.238869
v 5.197040 27.770000 44.238869
v 5.197040 27.890001 44.238869
v 5.197040 27.770000 41.238869
v 5.197040 27.890001 41.238869
v 4.297040 27.770000 36.238869
v 4.297040 27.890001 36.238869
v 4.297040 27.770000 33.238869
v 4.297040 27.890001 33.238869
v 5.197040 27.770000 36.238869
v 5.197040 27.890001 36.238869
v 5.197040 27.770000 33.238869
v 5.197040 27.890001 33.238869
v 4.297040 27.770000 28.238869
v 4.297040 27.890001 28.238869
v 4.297040 27.770000 25.238869
v 4.297040 27.890001 25.238869
v 5.197040 27.770000 28.238869
v 5.197040 27.890001 28.238869
v 5.197040 27.770000 25.238869
v 5.197040 27.890001 25.238869
v 4.297040 27.770000 20.238869
v 4.297040 27.890001 20.238869
v 4.297040 27.770000 17.238869
v 4.297040 27.890001 17.238869
v 5.197040 27.770000 20.238869
v 5.197040 27.890001 20.238869
v 5.197040 27.770000 17.238869
v 5.197040 27.890001 17.238869
v 4.297040 27.770000 12.238869
v 4.297040 27.890001 12.238869
v 4.297040 27.770000 9.238869
v 4.297040 27.890001 9.238869
v 5.197040 27.770000 12.238869
v 5.197040 27.890001 12.238869
v 5.197040 27.770000 9.238869
v 5.197040 27.890001 9.238869
v 4.297040 27.770000 4.238869
v 4.297040 27.890001 4.238869
v 4.297040 27.770000 1.238869
v 4.297040 27.890001 1.238869
v 5.197040 27.770000 4.238869
v 5.197040 27.890001 4.238869
v 5.197040 27.770000 1.238869
v 5.197040 27.890001 1.238869
v 4.297040 27.770000 -3.761131
v 4.297040 27.890001 -3.761131
v 4.297040 27.770000 -6.761131
v 4.297040 27.890001 -6.761131
v 5.197040 27.770000 -3.761131
v 5.197040 27.890001 -3.761131
v 5.197040 27.770000 -6.761131
v 5.197040 27.890001 -6.761131
v 4.297040 27.770000 -11.761131
v 4.297040 27.890001 -11.761131
v 4.297040 27.770000 -14.761131
v 4.297040 27.890001 -14.761131
v 5.197040 27.770000 -11.761131
v 5.197040 27.890001 -11.761131
v 5.197040 27.770000 -14.761131
v 5.197040 27.890001 -14.761131
v 4.297040 27.770000 -19.761131
v 4.297040 27.890001 -19.761131
v 4.297040 27.770000 -22.761131
v 4.297040 27.890001 -22.761131
v 5.197040 27.770000 -19.761131
v 5.197040 27.890001 -19.761131
v 5.197040 27.770000 -22.761131
v 5.197040 27.890001 -22.761131
v 4.297040 27.770000 -27.761131
v 4.297040 27.890001 -27.761131
v 4.297040 27.770000 -30.761131
v 4.297040 27.890001 -30.761131
v 5.197040 27.770000 -27.761131
v 5.197040 27.890001 -27.761131
v 5.197040 27.770000 -30.761131
v 5.197040 27.890001 -30.761131
v 4.297040 27.770000 -35.761131
v 4.297040 27.890001 -35.761131
v 4.297040 27.770000 -38.761131
v 4.297040 27.890001 -38.761131
v 5.197040 27.770000 -35.761131
v 5.197040 27.890001 -35.761131
v 5.197040 27.770000 -38.761131
v 5.197040 27.890001 -38.761131
v 4.297040 27.770000 -43.761131
v 4.297040 27.890001 -43.761131
v 4.297040 27.770000 -46.761131
v 4.297040 27.890001 -46.761131
v 5.197040 27.770000 -43.761131
v 5.197040 27.890001 -43.761131
v 5.197040 27.770000 -46.761131
v 5.197040 27.890001 -46.761131
v 4.297040 27.770000 -51.761131
v 4.297040 27.890001 -51.761131
v 4.297040 27.770000 -54.761131
v 4.297040 27.890001 -54.761131
v 5.197040 27.770000 -51.761131
v 5.197040 27.890001 -51.761131
v 5.197040 27.770000 -54.761131
v 5.197040 27.890001 -54.761131
vn -1.0000 -0.0000 -0.0000
vn -0.0000 -0.0000 -1.0000
vn 1.0000 -0.0000 -0.0000
vn -0.0000 -0.0000 1.0000
vn -0.0000 -1.0000 -0.0000
vn -0.0000 1.0000 -0.0000
vt 0.500000 0.500000
s 0
usemtl P_island_marking
f 1/1/1 2/1/1 4/1/1 3/1/1
f 3/1/2 4/1/2 8/1/2 7/1/2
f 7/1/3 8/1/3 6/1/3 5/1/3
f 5/1/4 6/1/4 2/1/4 1/1/4
f 3/1/5 7/1/5 5/1/5 1/1/5
f 8/1/6 4/1/6 2/1/6 6/1/6
f 9/1/1 10/1/1 12/1/1 11/1/1
f 11/1/2 12/1/2 16/1/2 15/1/2
f 15/1/3 16/1/3 14/1/3 13/1/3
f 13/1/4 14/1/4 10/1/4 9/1/4
f 11/1/5 15/1/5 13/1/5 9/1/5
f 16/1/6 12/1/6 10/1/6 14/1/6
f 17/1/1 18/1/1 20/1/1 19/1/1
f 19/1/2 20/1/2 24/1/2 23/1/2
f 23/1/3 24/1/3 22/1/3 21/1/3
f 21/1/4 22/1/4 18/1/4 17/1/4
f 19/1/5 23/1/5 21/1/5 17/1/5
f 24/1/6 20/1/6 18/1/6 22/1/6
f 25/1/1 26/1/1 28/1/1 27/1/1
f 27/1/2 28/1/2 32/1/2 31/1/2
f 31/1/3 32/1/3 30/1/3 29/1/3
f 29/1/4 30/1/4 26/1/4 25/1/4
f 27/1/5 31/1/5 29/1/5 25/1/5
f 32/1/6 28/1/6 26/1/6 30/1/6
f 33/1/1 34/1/1 36/1/1 35/1/1
f 35/1/2 36/1/2 40/1/2 39/1/2
f 39/1/3 40/1/3 38/1/3 37/1/3
f 37/1/4 38/1/4 34/1/4 33/1/4
f 35/1/5 39/1/5 37/1/5 33/1/5
f 40/1/6 36/1/6 34/1/6 38/1/6
f 41/1/1 42/1/1 44/1/1 43/1/1
f 43/1/2 44/1/2 48/1/2 47/1/2
f 47/1/3 48/1/3 46/1/3 45/1/3
f 45/1/4 46/1/4 42/1/4 41/1/4
f 43/1/5 47/1/5 45/1/5 41/1/5
f 48/1/6 44/1/6 42/1/6 46/1/6
f 49/1/1 50/1/1 52/1/1 51/1/1
f 51/1/2 52/1/2 56/1/2 55/1/2
f 55/1/3 56/1/3 54/1/3 53/1/3
f 53/1/4 54/1/4 50/1/4 49/1/4
f 51/1/5 55/1/5 53/1/5 49/1/5
f 56/1/6 52/1/6 50/1/6 54/1/6
f 57/1/1 58/1/1 60/1/1 59/1/1
f 59/1/2 60/1/2 64/1/2 63/1/2
f 63/1/3 64/1/3 62/1/3 61/1/3
f 61/1/4 62/1/4 58/1/4 57/1/4
f 59/1/5 63/1/5 61/1/5 57/1/5
f 64/1/6 60/1/6 58/1/6 62/1/6
f 65/1/1 66/1/1 68/1/1 67/1/1
f 67/1/2 68/1/2 72/1/2 71/1/2
f 71/1/3 72/1/3 70/1/3 69/1/3
f 69/1/4 70/1/4 66/1/4 65/1/4
f 67/1/5 71/1/5 69/1/5 65/1/5
f 72/1/6 68/1/6 66/1/6 70/1/6
f 73/1/1 74/1/1 76/1/1 75/1/1
f 75/1/2 76/1/2 80/1/2 79/1/2
f 79/1/3 80/1/3 78/1/3 77/1/3
f 77/1/4 78/1/4 74/1/4 73/1/4
f 75/1/5 79/1/5 77/1/5 73/1/5
f 80/1/6 76/1/6 74/1/6 78/1/6
f 81/1/1 82/1/1 84/1/1 83/1/1
f 83/1/2 84/1/2 88/1/2 87/1/2
f 87/1/3 88/1/3 86/1/3 85/1/3
f 85/1/4 86/1/4 82/1/4 81/1/4
f 83/1/5 87/1/5 85/1/5 81/1/5
f 88/1/6 84/1/6 82/1/6 86/1/6
f 89/1/1 90/1/1 92/1/1 91/1/1
f 91/1/2 92/1/2 96/1/2 95/1/2
f 95/1/3 96/1/3 94/1/3 93/1/3
f 93/1/4 94/1/4 90/1/4 89/1/4
f 91/1/5 95/1/5 93/1/5 89/1/5
f 96/1/6 92/1/6 90/1/6 94/1/6
f 97/1/1 98/1/1 100/1/1 99/1/1
f 99/1/2 100/1/2 104/1/2 103/1/2
f 103/1/3 104/1/3 102/1/3 101/1/3
f 101/1/4 102/1/4 98/1/4 97/1/4
f 99/1/5 103/1/5 101/1/5 97/1/5
f 104/1/6 100/1/6 98/1/6 102/1/6
f 105/1/1 106/1/1 108/1/1 107/1/1
f 107/1/2 108/1/2 112/1/2 111/1/2
f 111/1/3 112/1/3 110/1/3 109/1/3
f 109/1/4 110/1/4 106/1/4 105/1/4
f 107/1/5 111/1/5 109/1/5 105/1/5
f 112/1/6 108/1/6 106/1/6 110/1/6
f 113/1/1 114/1/1 116/1/1 115/1/1
f 115/1/2 116/1/2 120/1/2 119/1/2
f 119/1/3 120/1/3 118/1/3 117/1/3
f 117/1/4 118/1/4 114/1/4 113/1/4
f 115/1/5 119/1/5 117/1/5 113/1/5
f 120/1/6 116/1/6 114/1/6 118/1/6
f 121/1/1 122/1/1 124/1/1 123/1/1
f 123/1/2 124/1/2 128/1/2 127/1/2
f 127/1/3 128/1/3 126/1/3 125/1/3
f 125/1/4 126/1/4 122/1/4 121/1/4
f 123/1/5 127/1/5 125/1/5 121/1/5
f 128/1/6 124/1/6 122/1/6 126/1/6
f 129/1/1 130/1/1 132/1/1 131/1/1
f 131/1/2 132/1/2 136/1/2 135/1/2
f 135/1/3 136/1/3 134/1/3 133/1/3
f 133/1/4 134/1/4 130/1/4 129/1/4
f 131/1/5 135/1/5 133/1/5 129/1/5
f 136/1/6 132/1/6 130/1/6 134/1/6
f 137/1/1 138/1/1 140/1/1 139/1/1
f 139/1/2 140/1/2 144/1/2 143/1/2
f 143/1/3 144/1/3 142/1/3 141/1/3
f 141/1/4 142/1/4 138/1/4 137/1/4
f 139/1/5 143/1/5 141/1/5 137/1/5
f 144/1/6 140/1/6 138/1/6 142/1/6
f 145/1/1 146/1/1 148/1/1 147/1/1
f 147/1/2 148/1/2 152/1/2 151/1/2
f 151/1/3 152/1/3 150/1/3 149/1/3
f 149/1/4 150/1/4 146/1/4 145/1/4
f 147/1/5 151/1/5 149/1/5 145/1/5
f 152/1/6 148/1/6 146/1/6 150/1/6
f 153/1/1 154/1/1 156/1/1 155/1/1
f 155/1/2 156/1/2 160/1/2 159/1/2
f 159/1/3 160/1/3 158/1/3 157/1/3
f 157/1/4 158/1/4 154/1/4 153/1/4
f 155/1/5 159/1/5 157/1/5 153/1/5
f 160/1/6 156/1/6 154/1/6 158/1/6
f 161/1/1 162/1/1 164/1/1 163/1/1
f 163/1/2 164/1/2 168/1/2 167/1/2
f 167/1/3 168/1/3 166/1/3 165/1/3
f 165/1/4 166/1/4 162/1/4 161/1/4
f 163/1/5 167/1/5 165/1/5 161/1/5
f 168/1/6 164/1/6 162/1/6 166/1/6
f 169/1/1 170/1/1 172/1/1 171/1/1
f 171/1/2 172/1/2 176/1/2 175/1/2
f 175/1/3 176/1/3 174/1/3 173/1/3
f 173/1/4 174/1/4 170/1/4 169/1/4
f 171/1/5 175/1/5 173/1/5 169/1/5
f 176/1/6 172/1/6 170/1/6 174/1/6
f 177/1/1 178/1/1 180/1/1 179/1/1
f 179/1/2 180/1/2 184/1/2 183/1/2
f 183/1/3 184/1/3 182/1/3 181/1/3
f 181/1/4 182/1/4 178/1/4 177/1/4
f 179/1/5 183/1/5 181/1/5 177/1/5
f 184/1/6 180/1/6 178/1/6 182/1/6
f 185/1/1 186/1/1 188/1/1 187/1/1
f 187/1/2 188/1/2 192/1/2 191/1/2
f 191/1/3 192/1/3 190/1/3 189/1/3
f 189/1/4 190/1/4 186/1/4 185/1/4
f 187/1/5 191/1/5 189/1/5 185/1/5
f 192/1/6 188/1/6 186/1/6 190/1/6
f 193/1/1 194/1/1 196/1/1 195/1/1
f 195/1/2 196/1/2 200/1/2 199/1/2
f 199/1/3 200/1/3 198/1/3 197/1/3
f 197/1/4 198/1/4 194/1/4 193/1/4
f 195/1/5 199/1/5 197/1/5 193/1/5
f 200/1/6 196/1/6 194/1/6 198/1/6
f 201/1/1 202/1/1 204/1/1 203/1/1
f 203/1/2 204/1/2 208/1/2 207/1/2
f 207/1/3 208/1/3 206/1/3 205/1/3
f 205/1/4 206/1/4 202/1/4 201/1/4
f 203/1/5 207/1/5 205/1/5 201/1/5
f 208/1/6 204/1/6 202/1/6 206/1/6
f 209/1/1 210/1/1 212/1/1 211/1/1
f 211/1/2 212/1/2 216/1/2 215/1/2
f 215/1/3 216/1/3 214/1/3 213/1/3
f 213/1/4 214/1/4 210/1/4 209/1/4
f 211/1/5 215/1/5 213/1/5 209/1/5
f 216/1/6 212/1/6 210/1/6 214/1/6
f 217/1/1 218/1/1 220/1/1 219/1/1
f 219/1/2 220/1/2 224/1/2 223/1/2
f 223/1/3 224/1/3 222/1/3 221/1/3
f 221/1/4 222/1/4 218/1/4 217/1/4
f 219/1/5 223/1/5 221/1/5 217/1/5
f 224/1/6 220/1/6 218/1/6 222/1/6
f 225/1/1 226/1/1 228/1/1 227/1/1
f 227/1/2 228/1/2 232/1/2 231/1/2
f 231/1/3 232/1/3 230/1/3 229/1/3
f 229/1/4 230/1/4 226/1/4 225/1/4
f 227/1/5 231/1/5 229/1/5 225/1/5
f 232/1/6 228/1/6 226/1/6 230/1/6
f 233/1/1 234/1/1 236/1/1 235/1/1
f 235/1/2 236/1/2 240/1/2 239/1/2
f 239/1/3 240/1/3 238/1/3 237/1/3
f 237/1/4 238/1/4 234/1/4 233/1/4
f 235/1/5 239/1/5 237/1/5 233/1/5
f 240/1/6 236/1/6 234/1/6 238/1/6
f 241/1/1 242/1/1 244/1/1 243/1/1
f 243/1/2 244/1/2 248/1/2 247/1/2
f 247/1/3 248/1/3 246/1/3 245/1/3
f 245/1/4 246/1/4 242/1/4 241/1/4
f 243/1/5 247/1/5 245/1/5 241/1/5
f 248/1/6 244/1/6 242/1/6 246/1/6
f 249/1/1 250/1/1 252/1/1 251/1/1
f 251/1/2 252/1/2 256/1/2 255/1/2
f 255/1/3 256/1/3 254/1/3 253/1/3
f 253/1/4 254/1/4 250/1/4 249/1/4
f 251/1/5 255/1/5 253/1/5 249/1/5
f 256/1/6 252/1/6 250/1/6 254/1/6
f 257/1/1 258/1/1 260/1/1 259/1/1
f 259/1/2 260/1/2 264/1/2 263/1/2
f 263/1/3 264/1/3 262/1/3 261/1/3
f 261/1/4 262/1/4 258/1/4 257/1/4
f 259/1/5 263/1/5 261/1/5 257/1/5
f 264/1/6 260/1/6 258/1/6 262/1/6
f 265/1/1 266/1/1 268/1/1 267/1/1
f 267/1/2 268/1/2 272/1/2 271/1/2
f 271/1/3 272/1/3 270/1/3 269/1/3
f 269/1/4 270/1/4 266/1/4 265/1/4
f 267/1/5 271/1/5 269/1/5 265/1/5
f 272/1/6 268/1/6 266/1/6 270/1/6
f 273/1/1 274/1/1 276/1/1 275/1/1
f 275/1/2 276/1/2 280/1/2 279/1/2
f 279/1/3 280/1/3 278/1/3 277/1/3
f 277/1/4 278/1/4 274/1/4 273/1/4
f 275/1/5 279/1/5 277/1/5 273/1/5
f 280/1/6 276/1/6 274/1/6 278/1/6
f 281/1/1 282/1/1 284/1/1 283/1/1
f 283/1/2 284/1/2 288/1/2 287/1/2
f 287/1/3 288/1/3 286/1/3 285/1/3
f 285/1/4 286/1/4 282/1/4 281/1/4
f 283/1/5 287/1/5 285/1/5 281/1/5
f 288/1/6 284/1/6 282/1/6 286/1/6
f 289/1/1 290/1/1 292/1/1 291/1/1
f 291/1/2 292/1/2 296/1/2 295/1/2
f 295/1/3 296/1/3 294/1/3 293/1/3
f 293/1/4 294/1/4 290/1/4 289/1/4
f 291/1/5 295/1/5 293/1/5 289/1/5
f 296/1/6 292/1/6 290/1/6 294/1/6
f 297/1/1 298/1/1 300/1/1 299/1/1
f 299/1/2 300/1/2 304/1/2 303/1/2
f 303/1/3 304/1/3 302/1/3 301/1/3
f 301/1/4 302/1/4 298/1/4 297/1/4
f 299/1/5 303/1/5 301/1/5 297/1/5
f 304/1/6 300/1/6 298/1/6 302/1/6
f 305/1/1 306/1/1 308/1/1 307/1/1
f 307/1/2 308/1/2 312/1/2 311/1/2
f 311/1/3 312/1/3 310/1/3 309/1/3
f 309/1/4 310/1/4 306/1/4 305/1/4
f 307/1/5 311/1/5 309/1/5 305/1/5
f 312/1/6 308/1/6 306/1/6 310/1/6
f 313/1/1 314/1/1 316/1/1 315/1/1
f 315/1/2 316/1/2 320/1/2 319/1/2
f 319/1/3 320/1/3 318/1/3 317/1/3
f 317/1/4 318/1/4 314/1/4 313/1/4
f 315/1/5 319/1/5 317/1/5 313/1/5
f 320/1/6 316/1/6 314/1/6 318/1/6
f 321/1/1 322/1/1 324/1/1 323/1/1
f 323/1/2 324/1/2 328/1/2 327/1/2
f 327/1/3 328/1/3 326/1/3 325/1/3
f 325/1/4 326/1/4 322/1/4 321/1/4
f 323/1/5 327/1/5 325/1/5 321/1/5
f 328/1/6 324/1/6 322/1/6 326/1/6
f 329/1/1 330/1/1 332/1/1 331/1/1
f 331/1/2 332/1/2 336/1/2 335/1/2
f 335/1/3 336/1/3 334/1/3 333/1/3
f 333/1/4 334/1/4 330/1/4 329/1/4
f 331/1/5 335/1/5 333/1/5 329/1/5
f 336/1/6 332/1/6 330/1/6 334/1/6
f 337/1/1 338/1/1 340/1/1 339/1/1
f 339/1/2 340/1/2 344/1/2 343/1/2
f 343/1/3 344/1/3 342/1/3 341/1/3
f 341/1/4 342/1/4 338/1/4 337/1/4
f 339/1/5 343/1/5 341/1/5 337/1/5
f 344/1/6 340/1/6 338/1/6 342/1/6
f 345/1/1 346/1/1 348/1/1 347/1/1
f 347/1/2 348/1/2 352/1/2 351/1/2
f 351/1/3 352/1/3 350/1/3 349/1/3
f 349/1/4 350/1/4 346/1/4 345/1/4
f 347/1/5 351/1/5 349/1/5 345/1/5
f 352/1/6 348/1/6 346/1/6 350/1/6
f 353/1/1 354/1/1 356/1/1 355/1/1
f 355/1/2 356/1/2 360/1/2 359/1/2
f 359/1/3 360/1/3 358/1/3 357/1/3
f 357/1/4 358/1/4 354/1/4 353/1/4
f 355/1/5 359/1/5 357/1/5 353/1/5
f 360/1/6 356/1/6 354/1/6 358/1/6
f 361/1/1 362/1/1 364/1/1 363/1/1
f 363/1/2 364/1/2 368/1/2 367/1/2
f 367/1/3 368/1/3 366/1/3 365/1/3
f 365/1/4 366/1/4 362/1/4 361/1/4
f 363/1/5 367/1/5 365/1/5 361/1/5
f 368/1/6 364/1/6 362/1/6 366/1/6
f 369/1/1 370/1/1 372/1/1 371/1/1
f 371/1/2 372/1/2 376/1/2 375/1/2
f 375/1/3 376/1/3 374/1/3 373/1/3
f 373/1/4 374/1/4 370/1/4 369/1/4
f 371/1/5 375/1/5 373/1/5 369/1/5
f 376/1/6 372/1/6 370/1/6 374/1/6
f 377/1/1 378/1/1 380/1/1 379/1/1
f 379/1/2 380/1/2 384/1/2 383/1/2
f 383/1/3 384/1/3 382/1/3 381/1/3
f 381/1/4 382/1/4 378/1/4 377/1/4
f 379/1/5 383/1/5 381/1/5 377/1/5
f 384/1/6 380/1/6 378/1/6 382/1/6
f 385/1/1 386/1/1 388/1/1 387/1/1
f 387/1/2 388/1/2 392/1/2 391/1/2
f 391/1/3 392/1/3 390/1/3 389/1/3
f 389/1/4 390/1/4 386/1/4 385/1/4
f 387/1/5 391/1/5 389/1/5 385/1/5
f 392/1/6 388/1/6 386/1/6 390/1/6
f 393/1/1 394/1/1 396/1/1 395/1/1
f 395/1/2 396/1/2 400/1/2 399/1/2
f 399/1/3 400/1/3 398/1/3 397/1/3
f 397/1/4 398/1/4 394/1/4 393/1/4
f 395/1/5 399/1/5 397/1/5 393/1/5
f 400/1/6 396/1/6 394/1/6 398/1/6
f 401/1/1 402/1/1 404/1/1 403/1/1
f 403/1/2 404/1/2 408/1/2 407/1/2
f 407/1/3 408/1/3 406/1/3 405/1/3
f 405/1/4 406/1/4 402/1/4 401/1/4
f 403/1/5 407/1/5 405/1/5 401/1/5
f 408/1/6 404/1/6 402/1/6 406/1/6
f 409/1/1 410/1/1 412/1/1 411/1/1
f 411/1/2 412/1/2 416/1/2 415/1/2
f 415/1/3 416/1/3 414/1/3 413/1/3
f 413/1/4 414/1/4 410/1/4 409/1/4
f 411/1/5 415/1/5 413/1/5 409/1/5
f 416/1/6 412/1/6 410/1/6 414/1/6
f 417/1/1 418/1/1 420/1/1 419/1/1
f 419/1/2 420/1/2 424/1/2 423/1/2
f 423/1/3 424/1/3 422/1/3 421/1/3
f 421/1/4 422/1/4 418/1/4 417/1/4
f 419/1/5 423/1/5 421/1/5 417/1/5
f 424/1/6 420/1/6 418/1/6 422/1/6
f 425/1/1 426/1/1 428/1/1 427/1/1
f 427/1/2 428/1/2 432/1/2 431/1/2
f 431/1/3 432/1/3 430/1/3 429/1/3
f 429/1/4 430/1/4 426/1/4 425/1/4
f 427/1/5 431/1/5 429/1/5 425/1/5
f 432/1/6 428/1/6 426/1/6 430/1/6
f 433/1/1 434/1/1 436/1/1 435/1/1
f 435/1/2 436/1/2 440/1/2 439/1/2
f 439/1/3 440/1/3 438/1/3 437/1/3
f 437/1/4 438/1/4 434/1/4 433/1/4
f 435/1/5 439/1/5 437/1/5 433/1/5
f 440/1/6 436/1/6 434/1/6 438/1/6
f 441/1/1 442/1/1 444/1/1 443/1/1
f 443/1/2 444/1/2 448/1/2 447/1/2
f 447/1/3 448/1/3 446/1/3 445/1/3
f 445/1/4 446/1/4 442/1/4 441/1/4
f 443/1/5 447/1/5 445/1/5 441/1/5
f 448/1/6 444/1/6 442/1/6 446/1/6
f 449/1/1 450/1/1 452/1/1 451/1/1
f 451/1/2 452/1/2 456/1/2 455/1/2
f 455/1/3 456/1/3 454/1/3 453/1/3
f 453/1/4 454/1/4 450/1/4 449/1/4
f 451/1/5 455/1/5 453/1/5 449/1/5
f 456/1/6 452/1/6 450/1/6 454/1/6
f 457/1/1 458/1/1 460/1/1 459/1/1
f 459/1/2 460/1/2 464/1/2 463/1/2
f 463/1/3 464/1/3 462/1/3 461/1/3
f 461/1/4 462/1/4 458/1/4 457/1/4
f 459/1/5 463/1/5 461/1/5 457/1/5
f 464/1/6 460/1/6 458/1/6 462/1/6
f 465/1/1 466/1/1 468/1/1 467/1/1
f 467/1/2 468/1/2 472/1/2 471/1/2
f 471/1/3 472/1/3 470/1/3 469/1/3
f 469/1/4 470/1/4 466/1/4 465/1/4
f 467/1/5 471/1/5 469/1/5 465/1/5
f 472/1/6 468/1/6 466/1/6 470/1/6
f 473/1/1 474/1/1 476/1/1 475/1/1
f 475/1/2 476/1/2 480/1/2 479/1/2
f 479/1/3 480/1/3 478/1/3 477/1/3
f 477/1/4 478/1/4 474/1/4 473/1/4
f 475/1/5 479/1/5 477/1/5 473/1/5
f 480/1/6 476/1/6 474/1/6 478/1/6
f 481/1/1 482/1/1 484/1/1 483/1/1
f 483/1/2 484/1/2 488/1/2 487/1/2
f 487/1/3 488/1/3 486/1/3 485/1/3
f 485/1/4 486/1/4 482/1/4 481/1/4
f 483/1/5 487/1/5 485/1/5 481/1/5
f 488/1/6 484/1/6 482/1/6 486/1/6
f 489/1/1 490/1/1 492/1/1 491/1/1
f 491/1/2 492/1/2 496/1/2 495/1/2
f 495/1/3 496/1/3 494/1/3 493/1/3
f 493/1/4 494/1/4 490/1/4 489/1/4
f 491/1/5 495/1/5 493/1/5 489/1/5
f 496/1/6 492/1/6 490/1/6 494/1/6
f 497/1/1 498/1/1 500/1/1 499/1/1
f 499/1/2 500/1/2 504/1/2 503/1/2
f 503/1/3 504/1/3 502/1/3 501/1/3
f 501/1/4 502/1/4 498/1/4 497/1/4
f 499/1/5 503/1/5 501/1/5 497/1/5
f 504/1/6 500/1/6 498/1/6 502/1/6
f 505/1/1 506/1/1 508/1/1 507/1/1
f 507/1/2 508/1/2 512/1/2 511/1/2
f 511/1/3 512/1/3 510/1/3 509/1/3
f 509/1/4 510/1/4 506/1/4 505/1/4
f 507/1/5 511/1/5 509/1/5 505/1/5
f 512/1/6 508/1/6 506/1/6 510/1/6
f 513/1/1 514/1/1 516/1/1 515/1/1
f 515/1/2 516/1/2 520/1/2 519/1/2
f 519/1/3 520/1/3 518/1/3 517/1/3
f 517/1/4 518/1/4 514/1/4 513/1/4
f 515/1/5 519/1/5 517/1/5 513/1/5
f 520/1/6 516/1/6 514/1/6 518/1/6
f 521/1/1 522/1/1 524/1/1 523/1/1
f 523/1/2 524/1/2 528/1/2 527/1/2
f 527/1/3 528/1/3 526/1/3 525/1/3
f 525/1/4 526/1/4 522/1/4 521/1/4
f 523/1/5 527/1/5 525/1/5 521/1/5
f 528/1/6 524/1/6 522/1/6 526/1/6
f 529/1/1 530/1/1 532/1/1 531/1/1
f 531/1/2 532/1/2 536/1/2 535/1/2
f 535/1/3 536/1/3 534/1/3 533/1/3
f 533/1/4 534/1/4 530/1/4 529/1/4
f 531/1/5 535/1/5 533/1/5 529/1/5
f 536/1/6 532/1/6 530/1/6 534/1/6
f 537/1/1 538/1/1 540/1/1 539/1/1
f 539/1/2 540/1/2 544/1/2 543/1/2
f 543/1/3 544/1/3 542/1/3 541/1/3
f 541/1/4 542/1/4 538/1/4 537/1/4
f 539/1/5 543/1/5 541/1/5 537/1/5
f 544/1/6 540/1/6 538/1/6 542/1/6
f 545/1/1 546/1/1 548/1/1 547/1/1
f 547/1/2 548/1/2 552/1/2 551/1/2
f 551/1/3 552/1/3 550/1/3 549/1/3
f 549/1/4 550/1/4 546/1/4 545/1/4
f 547/1/5 551/1/5 549/1/5 545/1/5
f 552/1/6 548/1/6 546/1/6 550/1/6
f 553/1/1 554/1/1 556/1/1 555/1/1
f 555/1/2 556/1/2 560/1/2 559/1/2
f 559/1/3 560/1/3 558/1/3 557/1/3
f 557/1/4 558/1/4 554/1/4 553/1/4
f 555/1/5 559/1/5 557/1/5 553/1/5
f 560/1/6 556/1/6 554/1/6 558/1/6
f 561/1/1 562/1/1 564/1/1 563/1/1
f 563/1/2 564/1/2 568/1/2 567/1/2
f 567/1/3 568/1/3 566/1/3 565/1/3
f 565/1/4 566/1/4 562/1/4 561/1/4
f 563/1/5 567/1/5 565/1/5 561/1/5
f 568/1/6 564/1/6 562/1/6 566/1/6
f 569/1/1 570/1/1 572/1/1 571/1/1
f 571/1/2 572/1/2 576/1/2 575/1/2
f 575/1/3 576/1/3 574/1/3 573/1/3
f 573/1/4 574/1/4 570/1/4 569/1/4
f 571/1/5 575/1/5 573/1/5 569/1/5
f 576/1/6 572/1/6 570/1/6 574/1/6
f 577/1/1 578/1/1 580/1/1 579/1/1
f 579/1/2 580/1/2 584/1/2 583/1/2
f 583/1/3 584/1/3 582/1/3 581/1/3
f 581/1/4 582/1/4 578/1/4 577/1/4
f 579/1/5 583/1/5 581/1/5 577/1/5
f 584/1/6 580/1/6 578/1/6 582/1/6
f 585/1/1 586/1/1 588/1/1 587/1/1
f 587/1/2 588/1/2 592/1/2 591/1/2
f 591/1/3 592/1/3 590/1/3 589/1/3
f 589/1/4 590/1/4 586/1/4 585/1/4
f 587/1/5 591/1/5 589/1/5 585/1/5
f 592/1/6 588/1/6 586/1/6 590/1/6
f 593/1/1 594/1/1 596/1/1 595/1/1
f 595/1/2 596/1/2 600/1/2 599/1/2
f 599/1/3 600/1/3 598/1/3 597/1/3
f 597/1/4 598/1/4 594/1/4 593/1/4
f 595/1/5 599/1/5 597/1/5 593/1/5
f 600/1/6 596/1/6 594/1/6 598/1/6
f 601/1/1 602/1/1 604/1/1 603/1/1
f 603/1/2 604/1/2 608/1/2 607/1/2
f 607/1/3 608/1/3 606/1/3 605/1/3
f 605/1/4 606/1/4 602/1/4 601/1/4
f 603/1/5 607/1/5 605/1/5 601/1/5
f 608/1/6 604/1/6 602/1/6 606/1/6
f 609/1/1 610/1/1 612/1/1 611/1/1
f 611/1/2 612/1/2 616/1/2 615/1/2
f 615/1/3 616/1/3 614/1/3 613/1/3
f 613/1/4 614/1/4 610/1/4 609/1/4
f 611/1/5 615/1/5 613/1/5 609/1/5
f 616/1/6 612/1/6 610/1/6 614/1/6
f 617/1/1 618/1/1 620/1/1 619/1/1
f 619/1/2 620/1/2 624/1/2 623/1/2
f 623/1/3 624/1/3 622/1/3 621/1/3
f 621/1/4 622/1/4 618/1/4 617/1/4
f 619/1/5 623/1/5 621/1/5 617/1/5
f 624/1/6 620/1/6 618/1/6 622/1/6
f 625/1/1 626/1/1 628/1/1 627/1/1
f 627/1/2 628/1/2 632/1/2 631/1/2
f 631/1/3 632/1/3 630/1/3 629/1/3
f 629/1/4 630/1/4 626/1/4 625/1/4
f 627/1/5 631/1/5 629/1/5 625/1/5
f 632/1/6 628/1/6 626/1/6 630/1/6
f 633/1/1 634/1/1 636/1/1 635/1/1
f 635/1/2 636/1/2 640/1/2 639/1/2
f 639/1/3 640/1/3 638/1/3 637/1/3
f 637/1/4 638/1/4 634/1/4 633/1/4
f 635/1/5 639/1/5 637/1/5 633/1/5
f 640/1/6 636/1/6 634/1/6 638/1/6
f 641/1/1 642/1/1 644/1/1 643/1/1
f 643/1/2 644/1/2 648/1/2 647/1/2
f 647/1/3 648/1/3 646/1/3 645/1/3
f 645/1/4 646/1/4 642/1/4 641/1/4
f 643/1/5 647/1/5 645/1/5 641/1/5
f 648/1/6 644/1/6 642/1/6 646/1/6
f 649/1/1 650/1/1 652/1/1 651/1/1
f 651/1/2 652/1/2 656/1/2 655/1/2
f 655/1/3 656/1/3 654/1/3 653/1/3
f 653/1/4 654/1/4 650/1/4 649/1/4
f 651/1/5 655/1/5 653/1/5 649/1/5
f 656/1/6 652/1/6 650/1/6 654/1/6
f 657/1/1 658/1/1 660/1/1 659/1/1
f 659/1/2 660/1/2 664/1/2 663/1/2
f 663/1/3 664/1/3 662/1/3 661/1/3
f 661/1/4 662/1/4 658/1/4 657/1/4
f 659/1/5 663/1/5 661/1/5 657/1/5
f 664/1/6 660/1/6 658/1/6 662/1/6
f 665/1/1 666/1/1 668/1/1 667/1/1
f 667/1/2 668/1/2 672/1/2 671/1/2
f 671/1/3 672/1/3 670/1/3 669/1/3
f 669/1/4 670/1/4 666/1/4 665/1/4
f 667/1/5 671/1/5 669/1/5 665/1/5
f 672/1/6 668/1/6 666/1/6 670/1/6
f 673/1/1 674/1/1 676/1/1 675/1/1
f 675/1/2 676/1/2 680/1/2 679/1/2
f 679/1/3 680/1/3 678/1/3 677/1/3
f 677/1/4 678/1/4 674/1/4 673/1/4
f 675/1/5 679/1/5 677/1/5 673/1/5
f 680/1/6 676/1/6 674/1/6 678/1/6
f 681/1/1 682/1/1 684/1/1 683/1/1
f 683/1/2 684/1/2 688/1/2 687/1/2
f 687/1/3 688/1/3 686/1/3 685/1/3
f 685/1/4 686/1/4 682/1/4 681/1/4
f 683/1/5 687/1/5 685/1/5 681/1/5
f 688/1/6 684/1/6 682/1/6 686/1/6
f 689/1/1 690/1/1 692/1/1 691/1/1
f 691/1/2 692/1/2 696/1/2 695/1/2
f 695/1/3 696/1/3 694/1/3 693/1/3
f 693/1/4 694/1/4 690/1/4 689/1/4
f 691/1/5 695/1/5 693/1/5 689/1/5
f 696/1/6 692/1/6 690/1/6 694/1/6
f 697/1/1 698/1/1 700/1/1 699/1/1
f 699/1/2 700/1/2 704/1/2 703/1/2
f 703/1/3 704/1/3 702/1/3 701/1/3
f 701/1/4 702/1/4 698/1/4 697/1/4
f 699/1/5 703/1/5 701/1/5 697/1/5
f 704/1/6 700/1/6 698/1/6 702/1/6
f 705/1/1 706/1/1 708/1/1 707/1/1
f 707/1/2 708/1/2 712/1/2 711/1/2
f 711/1/3 712/1/3 710/1/3 709/1/3
f 709/1/4 710/1/4 706/1/4 705/1/4
f 707/1/5 711/1/5 709/1/5 705/1/5
f 712/1/6 708/1/6 706/1/6 710/1/6
f 713/1/1 714/1/1 716/1/1 715/1/1
f 715/1/2 716/1/2 720/1/2 719/1/2
f 719/1/3 720/1/3 718/1/3 717/1/3
f 717/1/4 718/1/4 714/1/4 713/1/4
f 715/1/5 719/1/5 717/1/5 713/1/5
f 720/1/6 716/1/6 714/1/6 718/1/6
f 721/1/1 722/1/1 724/1/1 723/1/1
f 723/1/2 724/1/2 728/1/2 727/1/2
f 727/1/3 728/1/3 726/1/3 725/1/3
f 725/1/4 726/1/4 722/1/4 721/1/4
f 723/1/5 727/1/5 725/1/5 721/1/5
f 728/1/6 724/1/6 722/1/6 726/1/6
f 729/1/1 730/1/1 732/1/1 731/1/1
f 731/1/2 732/1/2 736/1/2 735/1/2
f 735/1/3 736/1/3 734/1/3 733/1/3
f 733/1/4 734/1/4 730/1/4 729/1/4
f 731/1/5 735/1/5 733/1/5 729/1/5
f 736/1/6 732/1/6 730/1/6 734/1/6
f 737/1/1 738/1/1 740/1/1 739/1/1
f 739/1/2 740/1/2 744/1/2 743/1/2
f 743/1/3 744/1/3 742/1/3 741/1/3
f 741/1/4 742/1/4 738/1/4 737/1/4
f 739/1/5 743/1/5 741/1/5 737/1/5
f 744/1/6 740/1/6 738/1/6 742/1/6
f 745/1/1 746/1/1 748/1/1 747/1/1
f 747/1/2 748/1/2 752/1/2 751/1/2
f 751/1/3 752/1/3 750/1/3 749/1/3
f 749/1/4 750/1/4 746/1/4 745/1/4
f 747/1/5 751/1/5 749/1/5 745/1/5
f 752/1/6 748/1/6 746/1/6 750/1/6
f 753/1/1 754/1/1 756/1/1 755/1/1
f 755/1/2 756/1/2 760/1/2 759/1/2
f 759/1/3 760/1/3 758/1/3 757/1/3
f 757/1/4 758/1/4 754/1/4 753/1/4
f 755/1/5 759/1/5 757/1/5 753/1/5
f 760/1/6 756/1/6 754/1/6 758/1/6
f 761/1/1 762/1/1 764/1/1 763/1/1
f 763/1/2 764/1/2 768/1/2 767/1/2
f 767/1/3 768/1/3 766/1/3 765/1/3
f 765/1/4 766/1/4 762/1/4 761/1/4
f 763/1/5 767/1/5 765/1/5 761/1/5
f 768/1/6 764/1/6 762/1/6 766/1/6
f 769/1/1 770/1/1 772/1/1 771/1/1
f 771/1/2 772/1/2 776/1/2 775/1/2
f 775/1/3 776/1/3 774/1/3 773/1/3
f 773/1/4 774/1/4 770/1/4 769/1/4
f 771/1/5 775/1/5 773/1/5 769/1/5
f 776/1/6 772/1/6 770/1/6 774/1/6
f 777/1/1 778/1/1 780/1/1 779/1/1
f 779/1/2 780/1/2 784/1/2 783/1/2
f 783/1/3 784/1/3 782/1/3 781/1/3
f 781/1/4 782/1/4 778/1/4 777/1/4
f 779/1/5 783/1/5 781/1/5 777/1/5
f 784/1/6 780/1/6 778/1/6 782/1/6
f 785/1/1 786/1/1 788/1/1 787/1/1
f 787/1/2 788/1/2 792/1/2 791/1/2
f 791/1/3 792/1/3 790/1/3 789/1/3
f 789/1/4 790/1/4 786/1/4 785/1/4
f 787/1/5 791/1/5 789/1/5 785/1/5
f 792/1/6 788/1/6 786/1/6 790/1/6
f 793/1/1 794/1/1 796/1/1 795/1/1
f 795/1/2 796/1/2 800/1/2 799/1/2
f 799/1/3 800/1/3 798/1/3 797/1/3
f 797/1/4 798/1/4 794/1/4 793/1/4
f 795/1/5 799/1/5 797/1/5 793/1/5
f 800/1/6 796/1/6 794/1/6 798/1/6
f 801/1/1 802/1/1 804/1/1 803/1/1
f 803/1/2 804/1/2 808/1/2 807/1/2
f 807/1/3 808/1/3 806/1/3 805/1/3
f 805/1/4 806/1/4 802/1/4 801/1/4
f 803/1/5 807/1/5 805/1/5 801/1/5
f 808/1/6 804/1/6 802/1/6 806/1/6
f 809/1/1 810/1/1 812/1/1 811/1/1
f 811/1/2 812/1/2 816/1/2 815/1/2
f 815/1/3 816/1/3 814/1/3 813/1/3
f 813/1/4 814/1/4 810/1/4 809/1/4
f 811/1/5 815/1/5 813/1/5 809/1/5
f 816/1/6 812/1/6 810/1/6 814/1/6
f 817/1/1 818/1/1 820/1/1 819/1/1
f 819/1/2 820/1/2 824/1/2 823/1/2
f 823/1/3 824/1/3 822/1/3 821/1/3
f 821/1/4 822/1/4 818/1/4 817/1/4
f 819/1/5 823/1/5 821/1/5 817/1/5
f 824/1/6 820/1/6 818/1/6 822/1/6
f 825/1/1 826/1/1 828/1/1 827/1/1
f 827/1/2 828/1/2 832/1/2 831/1/2
f 831/1/3 832/1/3 830/1/3 829/1/3
f 829/1/4 830/1/4 826/1/4 825/1/4
f 827/1/5 831/1/5 829/1/5 825/1/5
f 832/1/6 828/1/6 826/1/6 830/1/6
f 833/1/1 834/1/1 836/1/1 835/1/1
f 835/1/2 836/1/2 840/1/2 839/1/2
f 839/1/3 840/1/3 838/1/3 837/1/3
f 837/1/4 838/1/4 834/1/4 833/1/4
f 835/1/5 839/1/5 837/1/5 833/1/5
f 840/1/6 836/1/6 834/1/6 838/1/6
f 841/1/1 842/1/1 844/1/1 843/1/1
f 843/1/2 844/1/2 848/1/2 847/1/2
f 847/1/3 848/1/3 846/1/3 845/1/3
f 845/1/4 846/1/4 842/1/4 841/1/4
f 843/1/5 847/1/5 845/1/5 841/1/5
f 848/1/6 844/1/6 842/1/6 846/1/6
f 849/1/1 850/1/1 852/1/1 851/1/1
f 851/1/2 852/1/2 856/1/2 855/1/2
f 855/1/3 856/1/3 854/1/3 853/1/3
f 853/1/4 854/1/4 850/1/4 849/1/4
f 851/1/5 855/1/5 853/1/5 849/1/5
f 856/1/6 852/1/6 850/1/6 854/1/6
f 857/1/1 858/1/1 860/1/1 859/1/1
f 859/1/2 860/1/2 864/1/2 863/1/2
f 863/1/3 864/1/3 862/1/3 861/1/3
f 861/1/4 862/1/4 858/1/4 857/1/4
f 859/1/5 863/1/5 861/1/5 857/1/5
f 864/1/6 860/1/6 858/1/6 862/1/6
f 865/1/1 866/1/1 868/1/1 867/1/1
f 867/1/2 868/1/2 872/1/2 871/1/2
f 871/1/3 872/1/3 870/1/3 869/1/3
f 869/1/4 870/1/4 866/1/4 865/1/4
f 867/1/5 871/1/5 869/1/5 865/1/5
f 872/1/6 868/1/6 866/1/6 870/1/6
f 873/1/1 874/1/1 876/1/1 875/1/1
f 875/1/2 876/1/2 880/1/2 879/1/2
f 879/1/3 880/1/3 878/1/3 877/1/3
f 877/1/4 878/1/4 874/1/4 873/1/4
f 875/1/5 879/1/5 877/1/5 873/1/5
f 880/1/6 876/1/6 874/1/6 878/1/6
f 881/1/1 882/1/1 884/1/1 883/1/1
f 883/1/2 884/1/2 888/1/2 887/1/2
f 887/1/3 888/1/3 886/1/3 885/1/3
f 885/1/4 886/1/4 882/1/4 881/1/4
f 883/1/5 887/1/5 885/1/5 881/1/5
f 888/1/6 884/1/6 882/1/6 886/1/6
f 889/1/1 890/1/1 892/1/1 891/1/1
f 891/1/2 892/1/2 896/1/2 895/1/2
f 895/1/3 896/1/3 894/1/3 893/1/3
f 893/1/4 894/1/4 890/1/4 889/1/4
f 891/1/5 895/1/5 893/1/5 889/1/5
f 896/1/6 892/1/6 890/1/6 894/1/6
f 897/1/1 898/1/1 900/1/1 899/1/1
f 899/1/2 900/1/2 904/1/2 903/1/2
f 903/1/3 904/1/3 902/1/3 901/1/3
f 901/1/4 902/1/4 898/1/4 897/1/4
f 899/1/5 903/1/5 901/1/5 897/1/5
f 904/1/6 900/1/6 898/1/6 902/1/6
f 905/1/1 906/1/1 908/1/1 907/1/1
f 907/1/2 908/1/2 912/1/2 911/1/2
f 911/1/3 912/1/3 910/1/3 909/1/3
f 909/1/4 910/1/4 906/1/4 905/1/4
f 907/1/5 911/1/5 909/1/5 905/1/5
f 912/1/6 908/1/6 906/1/6 910/1/6
f 913/1/1 914/1/1 916/1/1 915/1/1
f 915/1/2 916/1/2 920/1/2 919/1/2
f 919/1/3 920/1/3 918/1/3 917/1/3
f 917/1/4 918/1/4 914/1/4 913/1/4
f 915/1/5 919/1/5 917/1/5 913/1/5
f 920/1/6 916/1/6 914/1/6 918/1/6
f 921/1/1 922/1/1 924/1/1 923/1/1
f 923/1/2 924/1/2 928/1/2 927/1/2
f 927/1/3 928/1/3 926/1/3 925/1/3
f 925/1/4 926/1/4 922/1/4 921/1/4
f 923/1/5 927/1/5 925/1/5 921/1/5
f 928/1/6 924/1/6 922/1/6 926/1/6
f 929/1/1 930/1/1 932/1/1 931/1/1
f 931/1/2 932/1/2 936/1/2 935/1/2
f 935/1/3 936/1/3 934/1/3 933/1/3
f 933/1/4 934/1/4 930/1/4 929/1/4
f 931/1/5 935/1/5 933/1/5 929/1/5
f 936/1/6 932/1/6 930/1/6 934/1/6
f 937/1/1 938/1/1 940/1/1 939/1/1
f 939/1/2 940/1/2 944/1/2 943/1/2
f 943/1/3 944/1/3 942/1/3 941/1/3
f 941/1/4 942/1/4 938/1/4 937/1/4
f 939/1/5 943/1/5 941/1/5 937/1/5
f 944/1/6 940/1/6 938/1/6 942/1/6
f 945/1/1 946/1/1 948/1/1 947/1/1
f 947/1/2 948/1/2 952/1/2 951/1/2
f 951/1/3 952/1/3 950/1/3 949/1/3
f 949/1/4 950/1/4 946/1/4 945/1/4
f 947/1/5 951/1/5 949/1/5 945/1/5
f 952/1/6 948/1/6 946/1/6 950/1/6
f 953/1/1 954/1/1 956/1/1 955/1/1
f 955/1/2 956/1/2 960/1/2 959/1/2
f 959/1/3 960/1/3 958/1/3 957/1/3
f 957/1/4 958/1/4 954/1/4 953/1/4
f 955/1/5 959/1/5 957/1/5 953/1/5
f 960/1/6 956/1/6 954/1/6 958/1/6
f 961/1/1 962/1/1 964/1/1 963/1/1
f 963/1/2 964/1/2 968/1/2 967/1/2
f 967/1/3 968/1/3 966/1/3 965/1/3
f 965/1/4 966/1/4 962/1/4 961/1/4
f 963/1/5 967/1/5 965/1/5 961/1/5
f 968/1/6 964/1/6 962/1/6 966/1/6
f 969/1/1 970/1/1 972/1/1 971/1/1
f 971/1/2 972/1/2 976/1/2 975/1/2
f 975/1/3 976/1/3 974/1/3 973/1/3
f 973/1/4 974/1/4 970/1/4 969/1/4
f 971/1/5 975/1/5 973/1/5 969/1/5
f 976/1/6 972/1/6 970/1/6 974/1/6
f 977/1/1 978/1/1 980/1/1 979/1/1
f 979/1/2 980/1/2 984/1/2 983/1/2
f 983/1/3 984/1/3 982/1/3 981/1/3
f 981/1/4 982/1/4 978/1/4 977/1/4
f 979/1/5 983/1/5 981/1/5 977/1/5
f 984/1/6 980/1/6 978/1/6 982/1/6
f 985/1/1 986/1/1 988/1/1 987/1/1
f 987/1/2 988/1/2 992/1/2 991/1/2
f 991/1/3 992/1/3 990/1/3 989/1/3
f 989/1/4 990/1/4 986/1/4 985/1/4
f 987/1/5 991/1/5 989/1/5 985/1/5
f 992/1/6 988/1/6 986/1/6 990/1/6
f 993/1/1 994/1/1 996/1/1 995/1/1
f 995/1/2 996/1/2 1000/1/2 999/1/2
f 999/1/3 1000/1/3 998/1/3 997/1/3
f 997/1/4 998/1/4 994/1/4 993/1/4
f 995/1/5 999/1/5 997/1/5 993/1/5
f 1000/1/6 996/1/6 994/1/6 998/1/6
f 1001/1/1 1002/1/1 1004/1/1 1003/1/1
f 1003/1/2 1004/1/2 1008/1/2 1007/1/2
f 1007/1/3 1008/1/3 1006/1/3 1005/1/3
f 1005/1/4 1006/1/4 1002/1/4 1001/1/4
f 1003/1/5 1007/1/5 1005/1/5 1001/1/5
f 1008/1/6 1004/1/6 1002/1/6 1006/1/6
f 1009/1/1 1010/1/1 1012/1/1 1011/1/1
f 1011/1/2 1012/1/2 1016/1/2 1015/1/2
f 1015/1/3 1016/1/3 1014/1/3 1013/1/3
f 1013/1/4 1014/1/4 1010/1/4 1009/1/4
f 1011/1/5 1015/1/5 1013/1/5 1009/1/5
f 1016/1/6 1012/1/6 1010/1/6 1014/1/6
