# Blender 4.5.9 LTS
# www.blender.org
mtllib island_road.mtl
o island_road
v -84.252960 27.810001 -68.261131
v -84.252960 27.810001 -80.261131
v 81.747040 27.810001 -68.261131
v 81.747040 27.810001 -80.261131
v -84.252960 27.810001 85.738869
v -84.252960 27.810001 73.738869
v 81.747040 27.810001 85.738869
v 81.747040 27.810001 73.738869
v 69.747040 27.810001 73.738869
v 69.747040 27.810001 -68.261131
v 81.747040 27.810001 73.738869
v 81.747040 27.810001 -68.261131
v -84.252960 27.810001 73.738869
v -84.252960 27.810001 -68.261131
v -72.252960 27.810001 73.738869
v -72.252960 27.810001 -68.261131
v -1.252960 27.810001 69.738869
v -1.252960 27.810001 -64.261131
v 10.747040 27.810001 69.738869
v 10.747040 27.810001 -64.261131
v -84.252960 27.450001 -68.261131
v -84.252960 27.810001 -68.261131
v -84.252960 27.450001 -80.261131
v -84.252960 27.810001 -80.261131
v 81.747040 27.450001 -68.261131
v 81.747040 27.810001 -68.261131
v 81.747040 27.450001 -80.261131
v 81.747040 27.810001 -80.261131
v -84.252960 27.450001 85.738869
v -84.252960 27.810001 85.738869
v -84.252960 27.450001 73.738869
v -84.252960 27.810001 73.738869
v 81.747040 27.450001 85.738869
v 81.747040 27.810001 85.738869
v 81.747040 27.450001 73.738869
v 81.747040 27.810001 73.738869
v 69.747040 27.450001 73.738869
v 69.747040 27.810001 73.738869
v 69.747040 27.450001 -68.261131
v 69.747040 27.810001 -68.261131
v 81.747040 27.450001 73.738869
v 81.747040 27.810001 73.738869
v 81.747040 27.450001 -68.261131
v 81.747040 27.810001 -68.261131
v -84.252960 27.450001 73.738869
v -84.252960 27.810001 73.738869
v -84.252960 27.450001 -68.261131
v -84.252960 27.810001 -68.261131
v -72.252960 27.450001 73.738869
v -72.252960 27.810001 73.738869
v -72.252960 27.450001 -68.261131
v -72.252960 27.810001 -68.261131
v -1.252960 27.450001 69.738869
v -1.252960 27.810001 69.738869
v -1.252960 27.450001 -64.261131
v -1.252960 27.810001 -64.261131
v 10.747040 27.450001 69.738869
v 10.747040 27.810001 69.738869
v 10.747040 27.450001 -64.261131
v 10.747040 27.810001 -64.261131
vn -0.0000 1.0000 -0.0000
vn -1.0000 -0.0000 -0.0000
vn -0.0000 -0.0000 -1.0000
vn 1.0000 -0.0000 -0.0000
vn -0.0000 -0.0000 1.0000
vn -0.0000 -1.0000 -0.0000
vt 20.750000 20.750000
vt -20.750000 20.750000
vt -20.750000 17.750000
vt 20.750000 17.750000
vt 20.750000 -17.750000
vt -20.750000 -17.750000
vt -20.750000 -20.750000
vt 20.750000 -20.750000
vt 17.750000 17.750000
vt 17.750000 -17.750000
vt -17.750000 17.750000
vt -17.750000 -17.750000
vt 3.000000 16.750000
vt 0.000000 16.750000
vt 0.000000 -16.750000
vt 3.000000 -16.750000
vt 0.500000 0.500000
s 0
usemtl P_island_road
f 4/1/1 2/2/1 1/3/1 3/4/1
f 8/5/1 6/6/1 5/7/1 7/8/1
f 12/4/1 10/9/1 9/10/1 11/5/1
f 16/11/1 14/3/1 13/6/1 15/12/1
f 20/13/1 18/14/1 17/15/1 19/16/1
f 21/17/2 22/17/2 24/17/2 23/17/2
f 23/17/3 24/17/3 28/17/3 27/17/3
f 27/17/4 28/17/4 26/17/4 25/17/4
f 25/17/5 26/17/5 22/17/5 21/17/5
f 23/17/6 27/17/6 25/17/6 21/17/6
f 29/17/2 30/17/2 32/17/2 31/17/2
f 31/17/3 32/17/3 36/17/3 35/17/3
f 35/17/4 36/17/4 34/17/4 33/17/4
f 33/17/5 34/17/5 30/17/5 29/17/5
f 31/17/6 35/17/6 33/17/6 29/17/6
f 37/17/2 38/17/2 40/17/2 39/17/2
f 39/17/3 40/17/3 44/17/3 43/17/3
f 43/17/4 44/17/4 42/17/4 41/17/4
f 41/17/5 42/17/5 38/17/5 37/17/5
f 39/17/6 43/17/6 41/17/6 37/17/6
f 45/17/2 46/17/2 48/17/2 47/17/2
f 47/17/3 48/17/3 52/17/3 51/17/3
f 51/17/4 52/17/4 50/17/4 49/17/4
f 49/17/5 50/17/5 46/17/5 45/17/5
f 47/17/6 51/17/6 49/17/6 45/17/6
f 53/17/2 54/17/2 56/17/2 55/17/2
f 55/17/3 56/17/3 60/17/3 59/17/3
f 59/17/4 60/17/4 58/17/4 57/17/4
f 57/17/5 58/17/5 54/17/5 53/17/5
f 55/17/6 59/17/6 57/17/6 53/17/6
