# Blender 4.5.9 LTS
# www.blender.org
mtllib island_sidewalk.mtl
o island_sidewalk
v -88.252960 27.950001 -80.261131
v -88.252960 27.950001 -84.261131
v 85.747040 27.950001 -80.261131
v 85.747040 27.950001 -84.261131
v -88.252960 27.950001 89.738869
v -88.252960 27.950001 85.738869
v 85.747040 27.950001 89.738869
v 85.747040 27.950001 85.738869
v 81.747040 27.950001 85.738869
v 81.747040 27.950001 -80.261131
v 85.747040 27.950001 85.738869
v 85.747040 27.950001 -80.261131
v -88.252960 27.950001 85.738869
v -88.252960 27.950001 -80.261131
v -84.252960 27.950001 85.738869
v -84.252960 27.950001 -80.261131
v -72.252960 27.950001 -64.261131
v -72.252960 27.950001 -68.261131
v 69.747040 27.950001 -64.261131
v 69.747040 27.950001 -68.261131
v -72.252960 27.950001 73.738869
v -72.252960 27.950001 69.738869
v 69.747040 27.950001 73.738869
v 69.747040 27.950001 69.738869
v 65.747040 27.950001 69.738869
v 65.747040 27.950001 -64.261131
v 69.747040 27.950001 69.738869
v 69.747040 27.950001 -64.261131
v -72.252960 27.950001 69.738869
v -72.252960 27.950001 -64.261131
v -68.252960 27.950001 69.738869
v -68.252960 27.950001 -64.261131
v -5.252960 27.950001 69.738869
v -5.252960 27.950001 -64.261131
v -1.252960 27.950001 69.738869
v -1.252960 27.950001 -64.261131
v 10.747040 27.950001 69.738869
v 10.747040 27.950001 -64.261131
v 14.747040 27.950001 69.738869
v 14.747040 27.950001 -64.261131
v -88.252960 27.450001 -80.261131
v -88.252960 27.950001 -80.261131
v -88.252960 27.450001 -84.261131
v -88.252960 27.950001 -84.261131
v 85.747040 27.450001 -80.261131
v 85.747040 27.950001 -80.261131
v 85.747040 27.450001 -84.261131
v 85.747040 27.950001 -84.261131
v -88.252960 27.450001 89.738869
v -88.252960 27.950001 89.738869
v -88.252960 27.450001 85.738869
v -88.252960 27.950001 85.738869
v 85.747040 27.450001 89.738869
v 85.747040 27.950001 89.738869
v 85.747040 27.450001 85.738869
v 85.747040 27.950001 85.738869
v 81.747040 27.450001 85.738869
v 81.747040 27.950001 85.738869
v 81.747040 27.450001 -80.261131
v 81.747040 27.950001 -80.261131
v 85.747040 27.450001 85.738869
v 85.747040 27.950001 85.738869
v 85.747040 27.450001 -80.261131
v 85.747040 27.950001 -80.261131
v -88.252960 27.450001 85.738869
v -88.252960 27.950001 85.738869
v -88.252960 27.450001 -80.261131
v -88.252960 27.950001 -80.261131
v -84.252960 27.450001 85.738869
v -84.252960 27.950001 85.738869
v -84.252960 27.450001 -80.261131
v -84.252960 27.950001 -80.261131
v -72.252960 27.450001 -64.261131
v -72.252960 27.950001 -64.261131
v -72.252960 27.450001 -68.261131
v -72.252960 27.950001 -68.261131
v 69.747040 27.450001 -64.261131
v 69.747040 27.950001 -64.261131
v 69.747040 27.450001 -68.261131
v 69.747040 27.950001 -68.261131
v -72.252960 27.450001 73.738869
v -72.252960 27.950001 73.738869
v -72.252960 27.450001 69.738869
v -72.252960 27.950001 69.738869
v 69.747040 27.450001 73.738869
v 69.747040 27.950001 73.738869
v 69.747040 27.450001 69.738869
v 69.747040 27.950001 69.738869
v 65.747040 27.450001 69.738869
v 65.747040 27.950001 69.738869
v 65.747040 27.450001 -64.261131
v 65.747040 27.950001 -64.261131
v 69.747040 27.450001 69.738869
v 69.747040 27.950001 69.738869
v 69.747040 27.450001 -64.261131
v 69.747040 27.950001 -64.261131
v -72.252960 27.450001 69.738869
v -72.252960 27.950001 69.738869
v -72.252960 27.450001 -64.261131
v -72.252960 27.950001 -64.261131
v -68.252960 27.450001 69.738869
v -68.252960 27.950001 69.738869
v -68.252960 27.450001 -64.261131
v -68.252960 27.950001 -64.261131
v -5.252960 27.450001 69.738869
v -5.252960 27.950001 69.738869
v -5.252960 27.450001 -64.261131
v -5.252960 27.950001 -64.261131
v -1.252960 27.450001 69.738869
v -1.252960 27.950001 69.738869
v -1.252960 27.450001 -64.261131
v -1.252960 27.950001 -64.261131
v 10.747040 27.450001 69.738869
v 10.747040 27.950001 69.738869
v 10.747040 27.450001 -64.261131
v 10.747040 27.950001 -64.261131
v 14.747040 27.450001 69.738869
v 14.747040 27.950001 69.738869
v 14.747040 27.450001 -64.261131
v 14.747040 27.950001 -64.261131
v 14.747040 27.450001 69.738869
v 14.747040 27.950001 69.738869
v 14.747040 27.450001 -64.261131
v 14.747040 27.950001 -64.261131
v 65.747040 27.450001 69.738869
v 65.747040 27.950001 69.738869
v 65.747040 27.450001 -64.261131
v 65.747040 27.950001 -64.261131
vn -0.0000 1.0000 -0.0000
vn -1.0000 -0.0000 -0.0000
vn -0.0000 -0.0000 -1.0000
vn 1.0000 -0.0000 -0.0000
vn -0.0000 -0.0000 1.0000
vn -0.0000 -1.0000 -0.0000
vt 21.750000 21.750000
vt -21.750000 21.750000
vt -21.750000 20.750000
vt 21.750000 20.750000
vt 21.750000 -20.750000
vt -21.750000 -20.750000
vt -21.750000 -21.750000
vt 21.750000 -21.750000
vt 20.750000 20.750000
vt 20.750000 -20.750000
vt -20.750000 20.750000
vt -20.750000 -20.750000
vt 17.750000 17.750000
vt -17.750000 17.750000
vt -17.750000 16.750000
vt 17.750000 16.750000
vt 17.750000 -16.750000
vt -17.750000 -16.750000
vt -17.750000 -17.750000
vt 17.750000 -17.750000
vt 16.750000 16.750000
vt 16.750000 -16.750000
vt -16.750000 16.750000
vt -16.750000 -16.750000
vt 0.000000 16.750000
vt -1.000000 16.750000
vt -1.000000 -16.750000
vt 0.000000 -16.750000
vt 4.000000 16.750000
vt 3.000000 16.750000
vt 3.000000 -16.750000
vt 4.000000 -16.750000
vt 0.500000 0.500000
s 0
usemtl P_island_sidewalk
f 4/1/1 2/2/1 1/3/1 3/4/1
f 8/5/1 6/6/1 5/7/1 7/8/1
f 12/4/1 10/9/1 9/10/1 11/5/1
f 16/11/1 14/3/1 13/6/1 15/12/1
f 20/13/1 18/14/1 17/15/1 19/16/1
f 24/17/1 22/18/1 21/19/1 23/20/1
f 28/16/1 26/21/1 25/22/1 27/17/1
f 32/23/1 30/15/1 29/18/1 31/24/1
f 36/25/1 34/26/1 33/27/1 35/28/1
f 40/29/1 38/30/1 37/31/1 39/32/1
f 41/33/2 42/33/2 44/33/2 43/33/2
f 43/33/3 44/33/3 48/33/3 47/33/3
f 47/33/4 48/33/4 46/33/4 45/33/4
f 45/33/5 46/33/5 42/33/5 41/33/5
f 43/33/6 47/33/6 45/33/6 41/33/6
f 49/33/2 50/33/2 52/33/2 51/33/2
f 51/33/3 52/33/3 56/33/3 55/33/3
f 55/33/4 56/33/4 54/33/4 53/33/4
f 53/33/5 54/33/5 50/33/5 49/33/5
f 51/33/6 55/33/6 53/33/6 49/33/6
f 57/33/2 58/33/2 60/33/2 59/33/2
f 59/33/3 60/33/3 64/33/3 63/33/3
f 63/33/4 64/33/4 62/33/4 61/33/4
f 61/33/5 62/33/5 58/33/5 57/33/5
f 59/33/6 63/33/6 61/33/6 57/33/6
f 65/33/2 66/33/2 68/33/2 67/33/2
f 67/33/3 68/33/3 72/33/3 71/33/3
f 71/33/4 72/33/4 70/33/4 69/33/4
f 69/33/5 70/33/5 66/33/5 65/33/5
f 67/33/6 71/33/6 69/33/6 65/33/6
f 73/33/2 74/33/2 76/33/2 75/33/2
f 75/33/3 76/33/3 80/33/3 79/33/3
f 79/33/4 80/33/4 78/33/4 77/33/4
f 77/33/5 78/33/5 74/33/5 73/33/5
f 75/33/6 79/33/6 77/33/6 73/33/6
f 81/33/2 82/33/2 84/33/2 83/33/2
f 83/33/3 84/33/3 88/33/3 87/33/3
f 87/33/4 88/33/4 86/33/4 85/33/4
f 85/33/5 86/33/5 82/33/5 81/33/5
f 83/33/6 87/33/6 85/33/6 81/33/6
f 89/33/2 90/33/2 92/33/2 91/33/2
f 91/33/3 92/33/3 96/33/3 95/33/3
f 95/33/4 96/33/4 94/33/4 93/33/4
f 93/33/5 94/33/5 90/33/5 89/33/5
f 91/33/6 95/33/6 93/33/6 89/33/6
f 97/33/2 98/33/2 100/33/2 99/33/2
f 99/33/3 100/33/3 104/33/3 103/33/3
f 103/33/4 104/33/4 102/33/4 101/33/4
f 101/33/5 102/33/5 98/33/5 97/33/5
f 99/33/6 103/33/6 101/33/6 97/33/6
f 105/33/2 106/33/2 108/33/2 107/33/2
f 107/33/3 108/33/3 112/33/3 111/33/3
f 111/33/4 112/33/4 110/33/4 109/33/4
f 109/33/5 110/33/5 106/33/5 105/33/5
f 107/33/6 111/33/6 109/33/6 105/33/6
f 113/33/2 114/33/2 116/33/2 115/33/2
f 115/33/3 116/33/3 120/33/3 119/33/3
f 119/33/4 120/33/4 118/33/4 117/33/4
f 117/33/5 118/33/5 114/33/5 113/33/5
f 115/33/6 119/33/6 117/33/6 113/33/6
f 121/33/2 122/33/2 124/33/2 123/33/2
f 123/33/3 124/33/3 128/33/3 127/33/3
f 127/33/4 128/33/4 126/33/4 125/33/4
f 125/33/5 126/33/5 122/33/5 121/33/5
f 123/33/6 127/33/6 125/33/6 121/33/6
