# Blender 4.5.9 LTS
# www.blender.org
mtllib island_sand_dark.mtl
o island_sand_dark
v -97.613884 27.312456 -93.261131
v -97.613884 27.312456 -111.212746
v -67.913887 27.312456 -93.261131
v -67.913887 27.312456 -111.212746
v -53.360069 27.215151 -93.261131
v -53.360069 27.215151 -107.982872
v -23.660070 27.215151 -93.261131
v -23.660070 27.215151 -107.982872
v -12.047433 27.306160 -93.261131
v -12.047433 27.306160 -109.943855
v 17.652569 27.306160 -93.261131
v 17.652569 27.306160 -109.943855
v 30.530996 27.270954 -93.261131
v 30.530996 27.270954 -109.549202
v 60.230995 27.270954 -93.261131
v 60.230995 27.270954 -109.549202
v 74.202515 27.209904 -93.261131
v 74.202515 27.209904 -112.774452
v 103.902512 27.209904 -93.261131
v 103.902512 27.209904 -112.774452
v -122.731956 27.160273 114.465721
v -122.731956 27.160273 98.738869
v -93.031960 27.160273 114.465721
v -93.031960 27.160273 98.738869
v -79.483948 27.279249 117.332115
v -79.483948 27.279249 98.738869
v -49.783943 27.279249 117.332115
v -49.783943 27.279249 98.738869
v -36.653137 27.180187 114.344017
v -36.653137 27.180187 98.738869
v -6.953136 27.180187 114.344017
v -6.953136 27.180187 98.738869
v 7.241116 27.347076 113.926491
v 7.241116 27.347076 98.738869
v 36.941116 27.347076 113.926491
v 36.941116 27.347076 98.738869
v 54.239944 27.274723 117.756523
v 54.239944 27.274723 98.738869
v 83.939941 27.274723 117.756523
v 83.939941 27.274723 98.738869
v 99.552956 27.232088 114.104698
v 99.552956 27.232088 98.738869
v 129.252960 27.232088 114.104698
v 129.252960 27.232088 98.738869
v 94.747040 27.266539 101.048157
v 94.747040 27.266539 71.348160
v 110.528748 27.266539 101.048157
v 110.528748 27.266539 71.348160
v 94.747040 27.299387 58.401474
v 94.747040 27.299387 28.701475
v 111.800980 27.299387 58.401474
v 111.800980 27.299387 28.701475
v 94.747040 27.219086 13.288340
v 94.747040 27.219086 -16.411661
v 112.402481 27.219086 13.288340
v 112.402481 27.219086 -16.411661
v 94.747040 27.230074 -32.182251
v 94.747040 27.230074 -61.882256
v 109.890884 27.230074 -32.182251
v 109.890884 27.230074 -61.882256
v 94.747040 27.333984 -74.874107
v 94.747040 27.333984 -104.574104
v 113.117371 27.333984 -74.874107
v 113.117371 27.333984 -104.574104
v -116.383774 27.261631 122.406693
v -116.383774 27.261631 92.706696
v -97.252960 27.261631 122.406693
v -97.252960 27.261631 92.706696
v -111.780609 27.227192 78.543892
v -111.780609 27.227192 48.843887
v -97.252960 27.227192 78.543892
v -97.252960 27.227192 48.843887
v -114.074051 27.246933 34.467987
v -114.074051 27.246933 4.767988
v -97.252960 27.246933 34.467987
v -97.252960 27.246933 4.767988
v -115.653503 27.347378 -7.243244
v -115.653503 27.347378 -36.943245
v -97.252960 27.347378 -7.243244
v -97.252960 27.347378 -36.943245
v -113.672546 27.297421 -53.802994
v -113.672546 27.297421 -83.502991
v -97.252960 27.297421 -53.802994
v -97.252960 27.297421 -83.502991
v -113.976013 27.301725 -94.053596
v -113.976013 27.301725 -123.753593
v -97.252960 27.301725 -94.053596
v -97.252960 27.301725 -123.753593
v -120.866753 26.627745 -101.261131
v -120.866753 26.627745 -115.542686
v -91.166756 26.627745 -101.261131
v -91.166756 26.627745 -115.542686
v -76.633377 26.734982 -101.261131
v -76.633377 26.734982 -114.576668
v -46.933380 26.734982 -101.261131
v -46.933380 26.734982 -114.576668
v -33.898964 26.675207 -101.261131
v -33.898964 26.675207 -114.964211
v -4.198961 26.675207 -101.261131
v -4.198961 26.675207 -114.964211
v 11.968119 26.568604 -101.261131
v 11.968119 26.568604 -111.887413
v 41.668121 26.568604 -101.261131
v 41.668121 26.568604 -111.887413
v 51.545998 26.570677 -101.261131
v 51.545998 26.570677 -111.802513
v 81.245995 26.570677 -101.261131
v 81.245995 26.570677 -111.802513
v 96.923019 26.699833 -101.261131
v 96.923019 26.699833 -113.561989
v 126.623016 26.699833 -101.261131
v 126.623016 26.699833 -113.561989
v -100.786331 26.602407 122.060524
v -100.786331 26.602407 106.738869
v -71.086334 26.602407 122.060524
v -71.086334 26.602407 106.738869
v -57.088280 26.650646 119.318153
v -57.088280 26.650646 106.738869
v -27.388281 26.650646 119.318153
v -27.388281 26.650646 106.738869
v -11.568123 26.742323 121.219078
v -11.568123 26.742323 106.738869
v 18.131878 26.742323 121.219078
v 18.131878 26.742323 106.738869
v 31.869499 26.606440 118.166100
v 31.869499 26.606440 106.738869
v 61.569496 26.606440 118.166100
v 61.569496 26.606440 106.738869
v 77.717552 26.710907 120.757530
v 77.717552 26.710907 106.738869
v 107.417549 26.710907 120.757530
v 107.417549 26.710907 106.738869
v 102.747040 26.722281 122.130203
v 102.747040 26.722281 92.430206
v 116.659836 26.722281 122.130203
v 116.659836 26.722281 92.430206
v 102.747040 26.595701 80.074478
v 102.747040 26.595701 50.374474
v 117.924011 26.595701 80.074478
v 117.924011 26.595701 50.374474
v 102.747040 26.557819 38.394062
v 102.747040 26.557819 8.694061
v 113.497528 26.557819 38.394062
v 113.497528 26.557819 8.694061
v 102.747040 26.707352 -7.140911
v 102.747040 26.707352 -36.840912
v 114.132584 26.707352 -7.140911
v 114.132584 26.707352 -36.840912
v 102.747040 26.602545 -51.833748
v 102.747040 26.602545 -81.533745
v 116.210602 26.602545 -51.833748
v 116.210602 26.602545 -81.533745
v 102.747040 26.539249 -97.601830
v 102.747040 26.539249 -127.301826
v 113.286270 26.539249 -97.601830
v 113.286270 26.539249 -127.301826
v -117.916733 26.665426 102.869835
v -117.916733 26.665426 73.169838
v -105.252960 26.665426 102.869835
v -105.252960 26.665426 73.169838
v -119.976212 26.619696 55.243546
v -119.976212 26.619696 25.543543
v -105.252960 26.619696 55.243546
v -105.252960 26.619696 25.543543
v -118.207138 26.672262 14.086676
v -118.207138 26.672262 -15.613325
v -105.252960 26.672262 14.086676
v -105.252960 26.672262 -15.613325
v -117.510437 26.709829 -31.383804
v -117.510437 26.709829 -61.083809
v -105.252960 26.709829 -31.383804
v -105.252960 26.709829 -61.083809
v -120.636673 26.695007 -74.280487
v -120.636673 26.695007 -103.980484
v -105.252960 26.695007 -74.280487
v -105.252960 26.695007 -103.980484
v -107.252960 12.000001 108.738869
v -107.252960 19.000000 108.738869
v -107.252960 12.000001 -103.261131
v -107.252960 19.000000 -103.261131
v 104.747040 12.000001 108.738869
v 104.747040 19.000000 108.738869
v 104.747040 12.000001 -103.261131
v 104.747040 19.000000 -103.261131
v -97.252960 5.000000 98.738869
v -97.252960 12.000000 98.738869
v -97.252960 5.000000 -93.261131
v -97.252960 12.000000 -93.261131
v 94.747040 5.000000 98.738869
v 94.747040 12.000000 98.738869
v 94.747040 5.000000 -93.261131
v 94.747040 12.000000 -93.261131
vn -0.0000 1.0000 -0.0000
vn -1.0000 -0.0000 -0.0000
vn -0.0000 -0.0000 -1.0000
vn 1.0000 -0.0000 -0.0000
vn -0.0000 -0.0000 1.0000
vn -0.0000 -1.0000 -0.0000
vt -16.665232 28.487904
vt -24.090231 28.487904
vt -24.090231 24.000000
vt -16.665232 24.000000
vt -5.601778 27.680435
vt -13.026777 27.680435
vt -13.026777 24.000000
vt -5.601778 24.000000
vt 4.726382 28.170681
vt -2.698618 28.170681
vt -2.698618 24.000000
vt 4.726382 24.000000
vt 15.370989 28.072018
vt 7.945989 28.072018
vt 7.945989 24.000000
vt 15.370989 24.000000
vt 26.288868 28.878330
vt 18.863869 28.878330
vt 18.863869 24.000000
vt 26.288868 24.000000
vt -22.944750 -24.000000
vt -30.369749 -24.000000
vt -30.369749 -27.931713
vt -22.944750 -27.931713
vt -12.132746 -24.000000
vt -19.557747 -24.000000
vt -19.557747 -28.648312
vt -12.132746 -28.648312
vt -1.425044 -24.000000
vt -8.850044 -24.000000
vt -8.850044 -27.901287
vt -1.425044 -27.901287
vt 9.548519 -24.000000
vt 2.123519 -24.000000
vt 2.123519 -27.796906
vt 9.548519 -27.796906
vt 21.298225 -24.000000
vt 13.873226 -24.000000
vt 13.873226 -28.754414
vt 21.298225 -28.754414
vt 32.626480 -24.000000
vt 25.201479 -24.000000
vt 25.201479 -27.841457
vt 32.626480 -27.841457
vt 27.945427 -17.152323
vt 24.000000 -17.152323
vt 24.000000 -24.577322
vt 27.945427 -24.577322
vt 28.263485 -6.490652
vt 24.000000 -6.490652
vt 24.000000 -13.915651
vt 28.263485 -13.915651
vt 28.413860 4.787632
vt 24.000000 4.787632
vt 24.000000 -2.637368
vt 28.413860 -2.637368
vt 27.785961 16.155281
vt 24.000000 16.155281
vt 24.000000 8.730280
vt 27.785961 8.730280
vt 28.592583 26.828243
vt 24.000000 26.828243
vt 24.000000 19.403244
vt 28.592583 19.403244
vt -24.000000 -22.491957
vt -28.782703 -22.491957
vt -28.782703 -29.916956
vt -24.000000 -29.916956
vt -24.000000 -11.526255
vt -27.631912 -11.526255
vt -27.631912 -18.951256
vt -24.000000 -18.951256
vt -24.000000 -0.507280
vt -28.205273 -0.507280
vt -28.205273 -7.932280
vt -24.000000 -7.932280
vt -24.000000 9.920528
vt -28.600136 9.920528
vt -28.600136 2.495528
vt -24.000000 2.495528
vt -24.000000 21.560465
vt -28.104897 21.560465
vt -28.104897 14.135466
vt -24.000000 14.135466
vt -24.000000 31.623116
vt -28.180763 31.623116
vt -28.180763 24.198116
vt -24.000000 24.198116
vt -22.478449 29.570389
vt -29.903448 29.570389
vt -29.903448 26.000000
vt -22.478449 26.000000
vt -11.420105 29.328884
vt -18.845104 29.328884
vt -18.845104 26.000000
vt -11.420105 26.000000
vt -0.736500 29.425770
vt -8.161501 29.425770
vt -8.161501 26.000000
vt -0.736500 26.000000
vt 10.730270 28.656570
vt 3.305270 28.656570
vt 3.305270 26.000000
vt 10.730270 26.000000
vt 20.624739 28.635345
vt 13.199739 28.635345
vt 13.199739 26.000000
vt 20.624739 26.000000
vt 31.968994 29.075214
vt 24.543995 29.075214
vt 24.543995 26.000000
vt 31.968994 26.000000
vt -17.458344 -26.000000
vt -24.883343 -26.000000
vt -24.883343 -29.830414
vt -17.458344 -29.830414
vt -6.533830 -26.000000
vt -13.958830 -26.000000
vt -13.958830 -29.144821
vt -6.533830 -29.144821
vt 4.846210 -26.000000
vt -2.578791 -26.000000
vt -2.578791 -29.620052
vt 4.846210 -29.620052
vt 15.705614 -26.000000
vt 8.280615 -26.000000
vt 8.280615 -28.856808
vt 15.705614 -28.856808
vt 27.167627 -26.000000
vt 19.742628 -26.000000
vt 19.742628 -29.504665
vt 27.167627 -29.504665
vt 29.478199 -22.422834
vt 26.000000 -22.422834
vt 26.000000 -29.847834
vt 29.478199 -29.847834
vt 29.794243 -11.908901
vt 26.000000 -11.908901
vt 26.000000 -19.333902
vt 29.794243 -19.333902
vt 28.687622 -1.488798
vt 26.000000 -1.488798
vt 26.000000 -8.913798
vt 28.687622 -8.913798
vt 28.846386 9.894945
vt 26.000000 9.894945
vt 26.000000 2.469945
vt 28.846386 2.469945
vt 29.365891 21.068153
vt 26.000000 21.068153
vt 26.000000 13.643154
vt 29.365891 13.643154
vt 28.634808 32.510174
vt 26.000000 32.510174
vt 26.000000 25.085175
vt 28.634808 25.085175
vt -26.000000 -17.607742
vt -29.165943 -17.607742
vt -29.165943 -25.032742
vt -26.000000 -25.032742
vt -26.000000 -5.701169
vt -29.680813 -5.701169
vt -29.680813 -13.126169
vt -26.000000 -13.126169
vt -26.000000 4.588048
vt -29.238544 4.588048
vt -29.238544 -2.836952
vt -26.000000 -2.836952
vt -26.000000 15.955669
vt -29.064369 15.955669
vt -29.064369 8.530668
vt -26.000000 8.530668
vt -26.000000 26.679838
vt -29.845928 26.679838
vt -29.845928 19.254839
vt -26.000000 19.254839
vt 0.500000 0.500000
s 0
usemtl P_island_sand_dark
f 4/1/1 2/2/1 1/3/1 3/4/1
f 8/5/1 6/6/1 5/7/1 7/8/1
f 12/9/1 10/10/1 9/11/1 11/12/1
f 16/13/1 14/14/1 13/15/1 15/16/1
f 20/17/1 18/18/1 17/19/1 19/20/1
f 24/21/1 22/22/1 21/23/1 23/24/1
f 28/25/1 26/26/1 25/27/1 27/28/1
f 32/29/1 30/30/1 29/31/1 31/32/1
f 36/33/1 34/34/1 33/35/1 35/36/1
f 40/37/1 38/38/1 37/39/1 39/40/1
f 44/41/1 42/42/1 41/43/1 43/44/1
f 48/45/1 46/46/1 45/47/1 47/48/1
f 52/49/1 50/50/1 49/51/1 51/52/1
f 56/53/1 54/54/1 53/55/1 55/56/1
f 60/57/1 58/58/1 57/59/1 59/60/1
f 64/61/1 62/62/1 61/63/1 63/64/1
f 68/65/1 66/66/1 65/67/1 67/68/1
f 72/69/1 70/70/1 69/71/1 71/72/1
f 76/73/1 74/74/1 73/75/1 75/76/1
f 80/77/1 78/78/1 77/79/1 79/80/1
f 84/81/1 82/82/1 81/83/1 83/84/1
f 88/85/1 86/86/1 85/87/1 87/88/1
f 92/89/1 90/90/1 89/91/1 91/92/1
f 96/93/1 94/94/1 93/95/1 95/96/1
f 100/97/1 98/98/1 97/99/1 99/100/1
f 104/101/1 102/102/1 101/103/1 103/104/1
f 108/105/1 106/106/1 105/107/1 107/108/1
f 112/109/1 110/110/1 109/111/1 111/112/1
f 116/113/1 114/114/1 113/115/1 115/116/1
f 120/117/1 118/118/1 117/119/1 119/120/1
f 124/121/1 122/122/1 121/123/1 123/124/1
f 128/125/1 126/126/1 125/127/1 127/128/1
f 132/129/1 130/130/1 129/131/1 131/132/1
f 136/133/1 134/134/1 133/135/1 135/136/1
f 140/137/1 138/138/1 137/139/1 139/140/1
f 144/141/1 142/142/1 141/143/1 143/144/1
f 148/145/1 146/146/1 145/147/1 147/148/1
f 152/149/1 150/150/1 149/151/1 151/152/1
f 156/153/1 154/154/1 153/155/1 155/156/1
f 160/157/1 158/158/1 157/159/1 159/160/1
f 164/161/1 162/162/1 161/163/1 163/164/1
f 168/165/1 166/166/1 165/167/1 167/168/1
f 172/169/1 170/170/1 169/171/1 171/172/1
f 176/173/1 174/174/1 173/175/1 175/176/1
f 177/177/2 178/177/2 180/177/2 179/177/2
f 179/177/3 180/177/3 184/177/3 183/177/3
f 183/177/4 184/177/4 182/177/4 181/177/4
f 181/177/5 182/177/5 178/177/5 177/177/5
f 179/177/6 183/177/6 181/177/6 177/177/6
f 184/177/1 180/177/1 178/177/1 182/177/1
f 185/177/2 186/177/2 188/177/2 187/177/2
f 187/177/3 188/177/3 192/177/3 191/177/3
f 191/177/4 192/177/4 190/177/4 189/177/4
f 189/177/5 190/177/5 186/177/5 185/177/5
f 187/177/6 191/177/6 189/177/6 185/177/6
f 192/177/1 188/177/1 186/177/1 190/177/1
