# Blender 4.5.9 LTS
# www.blender.org
mtllib island_grass.mtl
o island_grass
v -103.252960 27.700001 104.738869
v -103.252960 27.700001 -99.261131
v 100.747040 27.700001 104.738869
v 100.747040 27.700001 -99.261131
v -68.252960 27.950001 69.738869
v -68.252960 27.950001 -64.261131
v -5.252960 27.950001 69.738869
v -5.252960 27.950001 -64.261131
v -103.252960 26.500000 104.738869
v -103.252960 27.700001 104.738869
v -103.252960 26.500000 -99.261131
v -103.252960 27.700001 -99.261131
v 100.747040 26.500000 104.738869
v 100.747040 27.700001 104.738869
v 100.747040 26.500000 -99.261131
v 100.747040 27.700001 -99.261131
v -68.252960 27.510000 69.738869
v -68.252960 27.950001 69.738869
v -68.252960 27.510000 -64.261131
v -68.252960 27.950001 -64.261131
v -5.252960 27.510000 69.738869
v -5.252960 27.950001 69.738869
v -5.252960 27.510000 -64.261131
v -5.252960 27.950001 -64.261131
vn -0.0000 1.0000 -0.0000
vn -1.0000 -0.0000 -0.0000
vn -0.0000 -0.0000 -1.0000
vn 1.0000 -0.0000 -0.0000
vn -0.0000 -0.0000 1.0000
vn -0.0000 -1.0000 -0.0000
vt 25.500000 25.500000
vt -25.500000 25.500000
vt -25.500000 -25.500000
vt 25.500000 -25.500000
vt -1.000000 16.750000
vt -16.750000 16.750000
vt -16.750000 -16.750000
vt -1.000000 -16.750000
vt 0.500000 0.500000
s 0
usemtl P_island_grass
f 4/1/1 2/2/1 1/3/1 3/4/1
f 8/5/1 6/6/1 5/7/1 7/8/1
f 9/9/2 10/9/2 12/9/2 11/9/2
f 11/9/3 12/9/3 16/9/3 15/9/3
f 15/9/4 16/9/4 14/9/4 13/9/4
f 13/9/5 14/9/5 10/9/5 9/9/5
f 11/9/6 15/9/6 13/9/6 9/9/6
f 17/9/2 18/9/2 20/9/2 19/9/2
f 19/9/3 20/9/3 24/9/3 23/9/3
f 23/9/4 24/9/4 22/9/4 21/9/4
f 21/9/5 22/9/5 18/9/5 17/9/5
f 19/9/6 23/9/6 21/9/6 17/9/6
