# Blender 4.5.9 LTS
# www.blender.org
mtllib island_rock.mtl
o island_rock
v -87.252960 0.000000 88.738869
v -87.252960 5.000000 88.738869
v -87.252960 0.000000 -83.261131
v -87.252960 5.000000 -83.261131
v 84.747040 0.000000 88.738869
v 84.747040 5.000000 88.738869
v 84.747040 0.000000 -83.261131
v 84.747040 5.000000 -83.261131
vn -1.0000 -0.0000 -0.0000
vn -0.0000 -0.0000 -1.0000
vn 1.0000 -0.0000 -0.0000
vn -0.0000 -0.0000 1.0000
vn -0.0000 -1.0000 -0.0000
vn -0.0000 1.0000 -0.0000
vt 0.500000 0.500000
s 0
usemtl P_island_rock
f 1/1/1 2/1/1 4/1/1 3/1/1
f 3/1/2 4/1/2 8/1/2 7/1/2
f 7/1/3 8/1/3 6/1/3 5/1/3
f 5/1/4 6/1/4 2/1/4 1/1/4
f 3/1/5 7/1/5 5/1/5 1/1/5
f 8/1/6 4/1/6 2/1/6 6/1/6
