# Blender 4.5.9 LTS
# www.blender.org
mtllib sub_sand_dark.mtl
o sub_sand_dark
v -18.809776 15.095228 -18.897404
v -18.809776 15.095228 -27.357655
v -2.609776 15.095228 -18.897404
v -2.609776 15.095228 -27.357655
v 4.422602 15.012754 -18.897404
v 4.422602 15.012754 -28.899883
v 20.622602 15.012754 -18.897404
v 20.622602 15.012754 -28.899883
v -30.846579 15.016148 28.131855
v -30.846579 15.016148 18.102596
v -14.646578 15.016148 28.131855
v -14.646578 15.016148 18.102596
v -6.985124 15.154905 28.238468
v -6.985124 15.154905 18.102596
v 9.214877 15.154905 28.238468
v 9.214877 15.154905 18.102596
v 16.140417 15.045063 27.853161
v 16.140417 15.045063 18.102596
v 32.340416 15.045063 27.853161
v 32.340416 15.045063 18.102596
v 18.500000 15.013057 18.743801
v 18.500000 15.013057 2.543801
v 29.472534 15.013057 18.743801
v 29.472534 15.013057 2.543801
v 18.500000 15.176576 -5.423676
v 18.500000 15.176576 -21.623676
v 28.651894 15.176576 -5.423676
v 28.651894 15.176576 -21.623676
v -30.247410 15.187593 33.216679
v -30.247410 15.187593 17.016676
v -18.500000 15.187593 33.216679
v -18.500000 15.187593 17.016676
v -28.623875 15.151785 5.919129
v -28.623875 15.151785 -10.280871
v -18.500000 15.151785 5.919129
v -18.500000 15.151785 -10.280871
v -30.288967 15.192279 -15.834715
v -30.288967 15.192279 -32.034714
v -18.500000 15.192279 -15.834715
v -18.500000 15.192279 -32.034714
v -23.000000 4.000000 22.602596
v -23.000000 9.000000 22.602596
v -23.000000 4.000000 -23.397404
v -23.000000 9.000000 -23.397404
v 23.000000 4.000000 22.602596
v 23.000000 9.000000 22.602596
v 23.000000 4.000000 -23.397404
v 23.000000 9.000000 -23.397404
vn -0.0000 1.0000 -0.0000
vn -1.0000 -0.0000 -0.0000
vn -0.0000 -0.0000 -1.0000
vn 1.0000 -0.0000 -0.0000
vn -0.0000 -0.0000 1.0000
vn -0.0000 -1.0000 -0.0000
vt -0.652444 6.740063
vt -4.702444 6.740063
vt -4.702444 4.625000
vt -0.652444 4.625000
vt 5.155651 7.125620
vt 1.105650 7.125620
vt 1.105650 4.625000
vt 5.155651 4.625000
vt -3.661644 -4.625000
vt -7.711645 -4.625000
vt -7.711645 -7.132315
vt -3.661644 -7.132315
vt 2.303719 -4.625000
vt -1.746281 -4.625000
vt -1.746281 -7.158968
vt 2.303719 -7.158968
vt 8.085104 -4.625000
vt 4.035104 -4.625000
vt 4.035104 -7.062641
vt 8.085104 -7.062641
vt 7.368134 -0.735301
vt 4.625000 -0.735301
vt 4.625000 -4.785301
vt 7.368134 -4.785301
vt 7.162973 5.306568
vt 4.625000 5.306568
vt 4.625000 1.256568
vt 7.162973 1.256568
vt -4.625000 -4.353520
vt -7.561852 -4.353520
vt -7.561852 -8.403521
vt -4.625000 -8.403521
vt -4.625000 2.470867
vt -7.155969 2.470867
vt -7.155969 -1.579133
vt -4.625000 -1.579133
vt -4.625000 7.909328
vt -7.572242 7.909328
vt -7.572242 3.859328
vt -4.625000 3.859328
vt 0.500000 0.500000
s 0
usemtl P_sub_sand_dark
f 4/1/1 2/2/1 1/3/1 3/4/1
f 8/5/1 6/6/1 5/7/1 7/8/1
f 12/9/1 10/10/1 9/11/1 11/12/1
f 16/13/1 14/14/1 13/15/1 15/16/1
f 20/17/1 18/18/1 17/19/1 19/20/1
f 24/21/1 22/22/1 21/23/1 23/24/1
f 28/25/1 26/26/1 25/27/1 27/28/1
f 32/29/1 30/30/1 29/31/1 31/32/1
f 36/33/1 34/34/1 33/35/1 35/36/1
f 40/37/1 38/38/1 37/39/1 39/40/1
f 41/41/2 42/41/2 44/41/2 43/41/2
f 43/41/3 44/41/3 48/41/3 47/41/3
f 47/41/4 48/41/4 46/41/4 45/41/4
f 45/41/5 46/41/5 42/41/5 41/41/5
f 43/41/6 47/41/6 45/41/6 41/41/6
f 48/41/1 44/41/1 42/41/1 46/41/1
