# Blender 4.5.9 LTS
# www.blender.org
mtllib sub_island.mtl
o SubIsland
v 18.000000 13.850000 22.602596
v 18.000000 14.850000 22.602596
v 18.000000 13.850000 -23.397404
v 18.000000 14.850000 -23.397404
v 32.000000 13.850000 22.602596
v 32.000000 14.850000 22.602596
v 32.000000 13.850000 -23.397404
v 32.000000 14.850000 -23.397404
v -22.000000 14.350000 21.602596
v -22.000000 15.550000 21.602596
v -22.000000 14.350000 -22.397404
v -22.000000 15.550000 -22.397404
v 22.000000 14.350000 21.602596
v 22.000000 15.550000 21.602596
v 22.000000 14.350000 -22.397404
v 22.000000 15.550000 -22.397404
v -33.000000 13.850000 -18.397404
v -33.000000 14.850000 -18.397404
v -33.000000 13.850000 -32.397404
v -33.000000 14.850000 -32.397404
v 33.000000 13.850000 -18.397404
v 33.000000 14.850000 -18.397404
v 33.000000 13.850000 -32.397404
v 33.000000 14.850000 -32.397404
v -33.000000 13.850000 31.602596
v -33.000000 14.850000 31.602596
v -33.000000 13.850000 17.602596
v -33.000000 14.850000 17.602596
v 33.000000 13.850000 31.602596
v 33.000000 14.850000 31.602596
v 33.000000 13.850000 17.602596
v 33.000000 14.850000 17.602596
v -32.000000 13.850000 22.602596
v -32.000000 14.850000 22.602596
v -32.000000 13.850000 -23.397404
v -32.000000 14.850000 -23.397404
v -18.000000 13.850000 22.602596
v -18.000000 14.850000 22.602596
v -18.000000 13.850000 -23.397404
v -18.000000 14.850000 -23.397404
v -30.903540 13.947092 -18.897404
v -30.903540 15.147092 -18.897404
v -30.903540 13.947092 -28.201027
v -30.903540 15.147092 -28.201027
v -14.703539 13.947092 -18.897404
v -14.703539 15.147092 -18.897404
v -14.703539 13.947092 -28.201027
v -14.703539 15.147092 -28.201027
v -18.809776 13.895228 -18.897404
v -18.809776 15.095228 -18.897404
v -18.809776 13.895228 -27.357655
v -18.809776 15.095228 -27.357655
v -2.609776 13.895228 -18.897404
v -2.609776 15.095228 -18.897404
v -2.609776 13.895228 -27.357655
v -2.609776 15.095228 -27.357655
v -7.868422 13.967997 -18.897404
v -7.868422 15.167996 -18.897404
v -7.868422 13.967997 -29.342735
v -7.868422 15.167996 -29.342735
v 8.331579 13.967997 -18.897404
v 8.331579 15.167996 -18.897404
v 8.331579 13.967997 -29.342735
v 8.331579 15.167996 -29.342735
v 4.422602 13.812754 -18.897404
v 4.422602 15.012754 -18.897404
v 4.422602 13.812754 -28.899883
v 4.422602 15.012754 -28.899883
v 20.622602 13.812754 -18.897404
v 20.622602 15.012754 -18.897404
v 20.622602 13.812754 -28.899883
v 20.622602 15.012754 -28.899883
v 14.013405 13.962010 -18.897404
v 14.013405 15.162010 -18.897404
v 14.013405 13.962010 -30.726109
v 14.013405 15.162010 -30.726109
v 30.213406 13.962010 -18.897404
v 30.213406 15.162010 -18.897404
v 30.213406 13.962010 -30.726109
v 30.213406 15.162010 -30.726109
v -30.846579 13.816148 28.131855
v -30.846579 15.016148 28.131855
v -30.846579 13.816148 18.102596
v -30.846579 15.016148 18.102596
v -14.646578 13.816148 28.131855
v -14.646578 15.016148 28.131855
v -14.646578 13.816148 18.102596
v -14.646578 15.016148 18.102596
v -21.368504 13.980820 27.388527
v -21.368504 15.180820 27.388527
v -21.368504 13.980820 18.102596
v -21.368504 15.180820 18.102596
v -5.168504 13.980820 27.388527
v -5.168504 15.180820 27.388527
v -5.168504 13.980820 18.102596
v -5.168504 15.180820 18.102596
v -6.985124 13.954906 28.238468
v -6.985124 15.154905 28.238468
v -6.985124 13.954906 18.102596
v -6.985124 15.154905 18.102596
v 9.214877 13.954906 28.238468
v 9.214877 15.154905 28.238468
v 9.214877 13.954906 18.102596
v 9.214877 15.154905 18.102596
v 2.666751 13.955971 26.426392
v 2.666751 15.155972 26.426392
v 2.666751 13.955971 18.102596
v 2.666751 15.155972 18.102596
v 18.866753 13.955971 26.426392
v 18.866753 15.155972 26.426392
v 18.866753 13.955971 18.102596
v 18.866753 15.155972 18.102596
v 16.140417 13.845062 27.853161
v 16.140417 15.045063 27.853161
v 16.140417 13.845062 18.102596
v 16.140417 15.045063 18.102596
v 32.340416 13.845062 27.853161
v 32.340416 15.045063 27.853161
v 32.340416 13.845062 18.102596
v 32.340416 15.045063 18.102596
v 18.500000 13.783941 33.397404
v 18.500000 14.983942 33.397404
v 18.500000 13.783941 17.197401
v 18.500000 14.983942 17.197401
v 29.857948 13.783941 33.397404
v 29.857948 14.983942 33.397404
v 29.857948 13.783941 17.197401
v 29.857948 14.983942 17.197401
v 18.500000 13.813057 18.743801
v 18.500000 15.013057 18.743801
v 18.500000 13.813057 2.543801
v 18.500000 15.013057 2.543801
v 29.472534 13.813057 18.743801
v 29.472534 15.013057 18.743801
v 29.472534 13.813057 2.543801
v 29.472534 15.013057 2.543801
v 18.500000 13.982548 9.322900
v 18.500000 15.182548 9.322900
v 18.500000 13.982548 -6.877100
v 18.500000 15.182548 -6.877100
v 28.344955 13.982548 9.322900
v 28.344955 15.182548 9.322900
v 28.344955 13.982548 -6.877100
v 28.344955 15.182548 -6.877100
v 18.500000 13.976576 -5.423676
v 18.500000 15.176576 -5.423676
v 18.500000 13.976576 -21.623676
v 18.500000 15.176576 -21.623676
v 28.651894 13.976576 -5.423676
v 28.651894 15.176576 -5.423676
v 28.651894 13.976576 -21.623676
v 28.651894 15.176576 -21.623676
v 18.500000 13.878549 -16.076437
v 18.500000 15.078548 -16.076437
v 18.500000 13.878549 -32.276436
v 18.500000 15.078548 -32.276436
v 29.607368 13.878549 -16.076437
v 29.607368 15.078548 -16.076437
v 29.607368 13.878549 -32.276436
v 29.607368 15.078548 -32.276436
v -30.247410 13.987594 33.216679
v -30.247410 15.187593 33.216679
v -30.247410 13.987594 17.016676
v -30.247410 15.187593 17.016676
v -18.500000 13.987594 33.216679
v -18.500000 15.187593 33.216679
v -18.500000 13.987594 17.016676
v -18.500000 15.187593 17.016676
v -30.396076 13.834767 18.330173
v -30.396076 15.034767 18.330173
v -30.396076 13.834767 2.130174
v -30.396076 15.034767 2.130174
v -18.500000 13.834767 18.330173
v -18.500000 15.034767 18.330173
v -18.500000 13.834767 2.130174
v -18.500000 15.034767 2.130174
v -28.623875 13.951785 5.919129
v -28.623875 15.151785 5.919129
v -28.623875 13.951785 -10.280871
v -28.623875 15.151785 -10.280871
v -18.500000 13.951785 5.919129
v -18.500000 15.151785 5.919129
v -18.500000 13.951785 -10.280871
v -18.500000 15.151785 -10.280871
v -29.452599 13.830928 -4.186559
v -29.452599 15.030928 -4.186559
v -29.452599 13.830928 -20.386559
v -29.452599 15.030928 -20.386559
v -18.500000 13.830928 -4.186559
v -18.500000 15.030928 -4.186559
v -18.500000 13.830928 -20.386559
v -18.500000 15.030928 -20.386559
v -30.288967 13.992279 -15.834715
v -30.288967 15.192279 -15.834715
v -30.288967 13.992279 -32.034714
v -30.288967 15.192279 -32.034714
v -18.500000 13.992279 -15.834715
v -18.500000 15.192279 -15.834715
v -18.500000 13.992279 -32.034714
v -18.500000 15.192279 -32.034714
v -33.000000 9.000000 32.602596
v -33.000000 14.000000 32.602596
v -33.000000 9.000000 -33.397404
v -33.000000 14.000000 -33.397404
v 33.000000 9.000000 32.602596
v 33.000000 14.000000 32.602596
v 33.000000 9.000000 -33.397404
v 33.000000 14.000000 -33.397404
v -23.000000 4.000000 22.602596
v -23.000000 9.000000 22.602596
v -23.000000 4.000000 -23.397404
v -23.000000 9.000000 -23.397404
v 23.000000 4.000000 22.602596
v 23.000000 9.000000 22.602596
v 23.000000 4.000000 -23.397404
v 23.000000 9.000000 -23.397404
v -16.000000 0.000000 15.602596
v -16.000000 4.000000 15.602596
v -16.000000 0.000000 -16.397404
v -16.000000 4.000000 -16.397404
v 16.000000 0.000000 15.602596
v 16.000000 4.000000 15.602596
v 16.000000 0.000000 -16.397404
v 16.000000 4.000000 -16.397404
vn -1.0000 -0.0000 -0.0000
vn -0.0000 -0.0000 -1.0000
vn 1.0000 -0.0000 -0.0000
vn -0.0000 -0.0000 1.0000
vn -0.0000 -1.0000 -0.0000
vn -0.0000 1.0000 -0.0000
vt 0.500000 0.500000
vt 5.500000 5.500000
vt -5.500000 5.500000
vt -5.500000 -5.500000
vt 5.500000 -5.500000
vt -3.675885 6.950906
vt -7.725885 6.950906
vt -7.725885 4.625000
vt -3.675885 4.625000
vt -0.652444 6.740063
vt -4.702444 6.740063
vt -4.702444 4.625000
vt -0.652444 4.625000
vt 2.082895 7.236333
vt -1.967105 7.236333
vt -1.967105 4.625000
vt 2.082895 4.625000
vt 5.155651 7.125620
vt 1.105650 7.125620
vt 1.105650 4.625000
vt 5.155651 4.625000
vt 7.553351 7.582176
vt 3.503351 7.582176
vt 3.503351 4.625000
vt 7.553351 4.625000
vt -3.661644 -4.625000
vt -7.711645 -4.625000
vt -7.711645 -7.132315
vt -3.661644 -7.132315
vt -1.292126 -4.625000
vt -5.342126 -4.625000
vt -5.342126 -6.946483
vt -1.292126 -6.946483
vt 2.303719 -4.625000
vt -1.746281 -4.625000
vt -1.746281 -7.158968
vt 2.303719 -7.158968
vt 4.716688 -4.625000
vt 0.666688 -4.625000
vt 0.666688 -6.705949
vt 4.716688 -6.705949
vt 8.085104 -4.625000
vt 4.035104 -4.625000
vt 4.035104 -7.062641
vt 8.085104 -7.062641
vt 7.464487 -4.398701
vt 4.625000 -4.398701
vt 4.625000 -8.448702
vt 7.464487 -8.448702
vt 7.368134 -0.735301
vt 4.625000 -0.735301
vt 4.625000 -4.785301
vt 7.368134 -4.785301
vt 7.086239 1.619924
vt 4.625000 1.619924
vt 4.625000 -2.430076
vt 7.086239 -2.430076
vt 7.162973 5.306568
vt 4.625000 5.306568
vt 4.625000 1.256568
vt 7.162973 1.256568
vt 7.401842 7.969759
vt 4.625000 7.969759
vt 4.625000 3.919758
vt 7.401842 3.919758
vt -4.625000 -4.353520
vt -7.561852 -4.353520
vt -7.561852 -8.403521
vt -4.625000 -8.403521
vt -4.625000 -0.631894
vt -7.599019 -0.631894
vt -7.599019 -4.681894
vt -4.625000 -4.681894
vt -4.625000 2.470867
vt -7.155969 2.470867
vt -7.155969 -1.579133
vt -4.625000 -1.579133
vt -4.625000 4.997289
vt -7.363150 4.997289
vt -7.363150 0.947289
vt -4.625000 0.947289
vt -4.625000 7.909328
vt -7.572242 7.909328
vt -7.572242 3.859328
vt -4.625000 3.859328
s 0
usemtl M_f_sand
f 1/1/1 2/1/1 4/1/1 3/1/1
f 3/1/2 4/1/2 8/1/2 7/1/2
f 7/1/3 8/1/3 6/1/3 5/1/3
f 5/1/4 6/1/4 2/1/4 1/1/4
f 3/1/5 7/1/5 5/1/5 1/1/5
f 8/1/6 4/1/6 2/1/6 6/1/6
f 17/1/1 18/1/1 20/1/1 19/1/1
f 19/1/2 20/1/2 24/1/2 23/1/2
f 23/1/3 24/1/3 22/1/3 21/1/3
f 21/1/4 22/1/4 18/1/4 17/1/4
f 19/1/5 23/1/5 21/1/5 17/1/5
f 24/1/6 20/1/6 18/1/6 22/1/6
f 25/1/1 26/1/1 28/1/1 27/1/1
f 27/1/2 28/1/2 32/1/2 31/1/2
f 31/1/3 32/1/3 30/1/3 29/1/3
f 29/1/4 30/1/4 26/1/4 25/1/4
f 27/1/5 31/1/5 29/1/5 25/1/5
f 32/1/6 28/1/6 26/1/6 30/1/6
f 33/1/1 34/1/1 36/1/1 35/1/1
f 35/1/2 36/1/2 40/1/2 39/1/2
f 39/1/3 40/1/3 38/1/3 37/1/3
f 37/1/4 38/1/4 34/1/4 33/1/4
f 35/1/5 39/1/5 37/1/5 33/1/5
f 40/1/6 36/1/6 34/1/6 38/1/6
f 41/1/1 42/1/1 44/1/1 43/1/1
f 43/1/2 44/1/2 48/1/2 47/1/2
f 47/1/3 48/1/3 46/1/3 45/1/3
f 45/1/4 46/1/4 42/1/4 41/1/4
f 43/1/5 47/1/5 45/1/5 41/1/5
f 49/1/1 50/1/1 52/1/1 51/1/1
f 51/1/2 52/1/2 56/1/2 55/1/2
f 55/1/3 56/1/3 54/1/3 53/1/3
f 53/1/4 54/1/4 50/1/4 49/1/4
f 51/1/5 55/1/5 53/1/5 49/1/5
f 57/1/1 58/1/1 60/1/1 59/1/1
f 59/1/2 60/1/2 64/1/2 63/1/2
f 63/1/3 64/1/3 62/1/3 61/1/3
f 61/1/4 62/1/4 58/1/4 57/1/4
f 59/1/5 63/1/5 61/1/5 57/1/5
f 65/1/1 66/1/1 68/1/1 67/1/1
f 67/1/2 68/1/2 72/1/2 71/1/2
f 71/1/3 72/1/3 70/1/3 69/1/3
f 69/1/4 70/1/4 66/1/4 65/1/4
f 67/1/5 71/1/5 69/1/5 65/1/5
f 73/1/1 74/1/1 76/1/1 75/1/1
f 75/1/2 76/1/2 80/1/2 79/1/2
f 79/1/3 80/1/3 78/1/3 77/1/3
f 77/1/4 78/1/4 74/1/4 73/1/4
f 75/1/5 79/1/5 77/1/5 73/1/5
f 81/1/1 82/1/1 84/1/1 83/1/1
f 83/1/2 84/1/2 88/1/2 87/1/2
f 87/1/3 88/1/3 86/1/3 85/1/3
f 85/1/4 86/1/4 82/1/4 81/1/4
f 83/1/5 87/1/5 85/1/5 81/1/5
f 89/1/1 90/1/1 92/1/1 91/1/1
f 91/1/2 92/1/2 96/1/2 95/1/2
f 95/1/3 96/1/3 94/1/3 93/1/3
f 93/1/4 94/1/4 90/1/4 89/1/4
f 91/1/5 95/1/5 93/1/5 89/1/5
f 97/1/1 98/1/1 100/1/1 99/1/1
f 99/1/2 100/1/2 104/1/2 103/1/2
f 103/1/3 104/1/3 102/1/3 101/1/3
f 101/1/4 102/1/4 98/1/4 97/1/4
f 99/1/5 103/1/5 101/1/5 97/1/5
f 105/1/1 106/1/1 108/1/1 107/1/1
f 107/1/2 108/1/2 112/1/2 111/1/2
f 111/1/3 112/1/3 110/1/3 109/1/3
f 109/1/4 110/1/4 106/1/4 105/1/4
f 107/1/5 111/1/5 109/1/5 105/1/5
f 113/1/1 114/1/1 116/1/1 115/1/1
f 115/1/2 116/1/2 120/1/2 119/1/2
f 119/1/3 120/1/3 118/1/3 117/1/3
f 117/1/4 118/1/4 114/1/4 113/1/4
f 115/1/5 119/1/5 117/1/5 113/1/5
f 121/1/1 122/1/1 124/1/1 123/1/1
f 123/1/2 124/1/2 128/1/2 127/1/2
f 127/1/3 128/1/3 126/1/3 125/1/3
f 125/1/4 126/1/4 122/1/4 121/1/4
f 123/1/5 127/1/5 125/1/5 121/1/5
f 129/1/1 130/1/1 132/1/1 131/1/1
f 131/1/2 132/1/2 136/1/2 135/1/2
f 135/1/3 136/1/3 134/1/3 133/1/3
f 133/1/4 134/1/4 130/1/4 129/1/4
f 131/1/5 135/1/5 133/1/5 129/1/5
f 137/1/1 138/1/1 140/1/1 139/1/1
f 139/1/2 140/1/2 144/1/2 143/1/2
f 143/1/3 144/1/3 142/1/3 141/1/3
f 141/1/4 142/1/4 138/1/4 137/1/4
f 139/1/5 143/1/5 141/1/5 137/1/5
f 145/1/1 146/1/1 148/1/1 147/1/1
f 147/1/2 148/1/2 152/1/2 151/1/2
f 151/1/3 152/1/3 150/1/3 149/1/3
f 149/1/4 150/1/4 146/1/4 145/1/4
f 147/1/5 151/1/5 149/1/5 145/1/5
f 153/1/1 154/1/1 156/1/1 155/1/1
f 155/1/2 156/1/2 160/1/2 159/1/2
f 159/1/3 160/1/3 158/1/3 157/1/3
f 157/1/4 158/1/4 154/1/4 153/1/4
f 155/1/5 159/1/5 157/1/5 153/1/5
f 161/1/1 162/1/1 164/1/1 163/1/1
f 163/1/2 164/1/2 168/1/2 167/1/2
f 167/1/3 168/1/3 166/1/3 165/1/3
f 165/1/4 166/1/4 162/1/4 161/1/4
f 163/1/5 167/1/5 165/1/5 161/1/5
f 169/1/1 170/1/1 172/1/1 171/1/1
f 171/1/2 172/1/2 176/1/2 175/1/2
f 175/1/3 176/1/3 174/1/3 173/1/3
f 173/1/4 174/1/4 170/1/4 169/1/4
f 171/1/5 175/1/5 173/1/5 169/1/5
f 177/1/1 178/1/1 180/1/1 179/1/1
f 179/1/2 180/1/2 184/1/2 183/1/2
f 183/1/3 184/1/3 182/1/3 181/1/3
f 181/1/4 182/1/4 178/1/4 177/1/4
f 179/1/5 183/1/5 181/1/5 177/1/5
f 185/1/1 186/1/1 188/1/1 187/1/1
f 187/1/2 188/1/2 192/1/2 191/1/2
f 191/1/3 192/1/3 190/1/3 189/1/3
f 189/1/4 190/1/4 186/1/4 185/1/4
f 187/1/5 191/1/5 189/1/5 185/1/5
f 193/1/1 194/1/1 196/1/1 195/1/1
f 195/1/2 196/1/2 200/1/2 199/1/2
f 199/1/3 200/1/3 198/1/3 197/1/3
f 197/1/4 198/1/4 194/1/4 193/1/4
f 195/1/5 199/1/5 197/1/5 193/1/5
f 201/1/1 202/1/1 204/1/1 203/1/1
f 203/1/2 204/1/2 208/1/2 207/1/2
f 207/1/3 208/1/3 206/1/3 205/1/3
f 205/1/4 206/1/4 202/1/4 201/1/4
f 203/1/5 207/1/5 205/1/5 201/1/5
f 208/1/6 204/1/6 202/1/6 206/1/6
usemtl M_grass
f 16/2/6 12/3/6 10/4/6 14/5/6
usemtl M_f_green
f 9/1/1 10/1/1 12/1/1 11/1/1
f 11/1/2 12/1/2 16/1/2 15/1/2
f 15/1/3 16/1/3 14/1/3 13/1/3
f 13/1/4 14/1/4 10/1/4 9/1/4
f 11/1/5 15/1/5 13/1/5 9/1/5
usemtl M_sand
f 48/6/6 44/7/6 42/8/6 46/9/6
f 64/14/6 60/15/6 58/16/6 62/17/6
f 80/22/6 76/23/6 74/24/6 78/25/6
f 96/30/6 92/31/6 90/32/6 94/33/6
f 112/38/6 108/39/6 106/40/6 110/41/6
f 128/46/6 124/47/6 122/48/6 126/49/6
f 144/54/6 140/55/6 138/56/6 142/57/6
f 160/62/6 156/63/6 154/64/6 158/65/6
f 176/70/6 172/71/6 170/72/6 174/73/6
f 192/78/6 188/79/6 186/80/6 190/81/6
usemtl M_sand2
f 56/10/6 52/11/6 50/12/6 54/13/6
f 72/18/6 68/19/6 66/20/6 70/21/6
f 88/26/6 84/27/6 82/28/6 86/29/6
f 104/34/6 100/35/6 98/36/6 102/37/6
f 120/42/6 116/43/6 114/44/6 118/45/6
f 136/50/6 132/51/6 130/52/6 134/53/6
f 152/58/6 148/59/6 146/60/6 150/61/6
f 168/66/6 164/67/6 162/68/6 166/69/6
f 184/74/6 180/75/6 178/76/6 182/77/6
f 200/82/6 196/83/6 194/84/6 198/85/6
usemtl M_f_cliff
f 209/1/1 210/1/1 212/1/1 211/1/1
f 211/1/2 212/1/2 216/1/2 215/1/2
f 215/1/3 216/1/3 214/1/3 213/1/3
f 213/1/4 214/1/4 210/1/4 209/1/4
f 211/1/5 215/1/5 213/1/5 209/1/5
f 216/1/6 212/1/6 210/1/6 214/1/6
usemtl M_f_rock
f 217/1/1 218/1/1 220/1/1 219/1/1
f 219/1/2 220/1/2 224/1/2 223/1/2
f 223/1/3 224/1/3 222/1/3 221/1/3
f 221/1/4 222/1/4 218/1/4 217/1/4
f 219/1/5 223/1/5 221/1/5 217/1/5
f 224/1/6 220/1/6 218/1/6 222/1/6
