# Blender 4.5.9 LTS
# www.blender.org
mtllib sub_grass.mtl
o sub_grass
v -22.000000 15.550000 21.602596
v -22.000000 15.550000 -22.397404
v 22.000000 15.550000 21.602596
v 22.000000 15.550000 -22.397404
v -22.000000 14.350000 21.602596
v -22.000000 15.550000 21.602596
v -22.000000 14.350000 -22.397404
v -22.000000 15.550000 -22.397404
v 22.000000 14.350000 21.602596
v 22.000000 15.550000 21.602596
v 22.000000 14.350000 -22.397404
v 22.000000 15.550000 -22.397404
vn -0.0000 1.0000 -0.0000
vn -1.0000 -0.0000 -0.0000
vn -0.0000 -0.0000 -1.0000
vn 1.0000 -0.0000 -0.0000
vn -0.0000 -0.0000 1.0000
vn -0.0000 -1.0000 -0.0000
vt 5.500000 5.500000
vt -5.500000 5.500000
vt -5.500000 -5.500000
vt 5.500000 -5.500000
vt 0.500000 0.500000
s 0
usemtl P_sub_grass
f 4/1/1 2/2/1 1/3/1 3/4/1
f 5/5/2 6/5/2 8/5/2 7/5/2
f 7/5/3 8/5/3 12/5/3 11/5/3
f 11/5/4 12/5/4 10/5/4 9/5/4
f 9/5/5 10/5/5 6/5/5 5/5/5
f 7/5/6 11/5/6 9/5/6 5/5/6
