# Blender 4.5.9 LTS
# www.blender.org
mtllib sub_rock.mtl
o sub_rock
v -16.000000 0.000000 15.602596
v -16.000000 4.000000 15.602596
v -16.000000 0.000000 -16.397404
v -16.000000 4.000000 -16.397404
v 16.000000 0.000000 15.602596
v 16.000000 4.000000 15.602596
v 16.000000 0.000000 -16.397404
v 16.000000 4.000000 -16.397404
vn -1.0000 -0.0000 -0.0000
vn -0.0000 -0.0000 -1.0000
vn 1.0000 -0.0000 -0.0000
vn -0.0000 -0.0000 1.0000
vn -0.0000 -1.0000 -0.0000
vn -0.0000 1.0000 -0.0000
vt 0.500000 0.500000
s 0
usemtl P_sub_rock
f 1/1/1 2/1/1 4/1/1 3/1/1
f 3/1/2 4/1/2 8/1/2 7/1/2
f 7/1/3 8/1/3 6/1/3 5/1/3
f 5/1/4 6/1/4 2/1/4 1/1/4
f 3/1/5 7/1/5 5/1/5 1/1/5
f 8/1/6 4/1/6 2/1/6 6/1/6
