# Blender 4.5.9 LTS
# www.blender.org
mtllib sub_sand.mtl
o sub_sand
v -30.903540 15.147092 -18.897404
v -30.903540 15.147092 -28.201027
v -14.703539 15.147092 -18.897404
v -14.703539 15.147092 -28.201027
v -7.868422 15.167996 -18.897404
v -7.868422 15.167996 -29.342735
v 8.331579 15.167996 -18.897404
v 8.331579 15.167996 -29.342735
v 14.013405 15.162010 -18.897404
v 14.013405 15.162010 -30.726109
v 30.213406 15.162010 -18.897404
v 30.213406 15.162010 -30.726109
v -21.368504 15.180820 27.388527
v -21.368504 15.180820 18.102596
v -5.168504 15.180820 27.388527
v -5.168504 15.180820 18.102596
v 2.666751 15.155972 26.426392
v 2.666751 15.155972 18.102596
v 18.866753 15.155972 26.426392
v 18.866753 15.155972 18.102596
v 18.500000 14.983942 33.397404
v 18.500000 14.983942 17.197401
v 29.857948 14.983942 33.397404
v 29.857948 14.983942 17.197401
v 18.500000 15.182548 9.322900
v 18.500000 15.182548 -6.877100
v 28.344955 15.182548 9.322900
v 28.344955 15.182548 -6.877100
v 18.500000 15.078548 -16.076437
v 18.500000 15.078548 -32.276436
v 29.607368 15.078548 -16.076437
v 29.607368 15.078548 -32.276436
v -30.396076 15.034767 18.330173
v -30.396076 15.034767 2.130174
v -18.500000 15.034767 18.330173
v -18.500000 15.034767 2.130174
v -29.452599 15.030928 -4.186559
v -29.452599 15.030928 -20.386559
v -18.500000 15.030928 -4.186559
v -18.500000 15.030928 -20.386559
v 18.000000 13.850000 22.602596
v 18.000000 14.850000 22.602596
v 18.000000 13.850000 -23.397404
v 18.000000 14.850000 -23.397404
v 32.000000 13.850000 22.602596
v 32.000000 14.850000 22.602596
v 32.000000 13.850000 -23.397404
v 32.000000 14.850000 -23.397404
v -33.000000 13.850000 -18.397404
v -33.000000 14.850000 -18.397404
v -33.000000 13.850000 -32.397404
v -33.000000 14.850000 -32.397404
v 33.000000 13.850000 -18.397404
v 33.000000 14.850000 -18.397404
v 33.000000 13.850000 -32.397404
v 33.000000 14.850000 -32.397404
v -33.000000 13.850000 31.602596
v -33.000000 14.850000 31.602596
v -33.000000 13.850000 17.602596
v -33.000000 14.850000 17.602596
v 33.000000 13.850000 31.602596
v 33.000000 14.850000 31.602596
v 33.000000 13.850000 17.602596
v 33.000000 14.850000 17.602596
v -32.000000 13.850000 22.602596
v -32.000000 14.850000 22.602596
v -32.000000 13.850000 -23.397404
v -32.000000 14.850000 -23.397404
v -18.000000 13.850000 22.602596
v -18.000000 14.850000 22.602596
v -18.000000 13.850000 -23.397404
v -18.000000 14.850000 -23.397404
v -30.903540 13.947092 -18.897404
v -30.903540 15.147092 -18.897404
v -30.903540 13.947092 -28.201027
v -30.903540 15.147092 -28.201027
v -14.703539 13.947092 -18.897404
v -14.703539 15.147092 -18.897404
v -14.703539 13.947092 -28.201027
v -14.703539 15.147092 -28.201027
v -18.809776 13.895228 -18.897404
v -18.809776 15.095228 -18.897404
v -18.809776 13.895228 -27.357655
v -18.809776 15.095228 -27.357655
v -2.609776 13.895228 -18.897404
v -2.609776 15.095228 -18.897404
v -2.609776 13.895228 -27.357655
v -2.609776 15.095228 -27.357655
v -7.868422 13.967997 -18.897404
v -7.868422 15.167996 -18.897404
v -7.868422 13.967997 -29.342735
v -7.868422 15.167996 -29.342735
v 8.331579 13.967997 -18.897404
v 8.331579 15.167996 -18.897404
v 8.331579 13.967997 -29.342735
v 8.331579 15.167996 -29.342735
v 4.422602 13.812754 -18.897404
v 4.422602 15.012754 -18.897404
v 4.422602 13.812754 -28.899883
v 4.422602 15.012754 -28.899883
v 20.622602 13.812754 -18.897404
v 20.622602 15.012754 -18.897404
v 20.622602 13.812754 -28.899883
v 20.622602 15.012754 -28.899883
v 14.013405 13.962010 -18.897404
v 14.013405 15.162010 -18.897404
v 14.013405 13.962010 -30.726109
v 14.013405 15.162010 -30.726109
v 30.213406 13.962010 -18.897404
v 30.213406 15.162010 -18.897404
v 30.213406 13.962010 -30.726109
v 30.213406 15.162010 -30.726109
v -30.846579 13.816148 28.131855
v -30.846579 15.016148 28.131855
v -30.846579 13.816148 18.102596
v -30.846579 15.016148 18.102596
v -14.646578 13.816148 28.131855
v -14.646578 15.016148 28.131855
v -14.646578 13.816148 18.102596
v -14.646578 15.016148 18.102596
v -21.368504 13.980820 27.388527
v -21.368504 15.180820 27.388527
v -21.368504 13.980820 18.102596
v -21.368504 15.180820 18.102596
v -5.168504 13.980820 27.388527
v -5.168504 15.180820 27.388527
v -5.168504 13.980820 18.102596
v -5.168504 15.180820 18.102596
v -6.985124 13.954906 28.238468
v -6.985124 15.154905 28.238468
v -6.985124 13.954906 18.102596
v -6.985124 15.154905 18.102596
v 9.214877 13.954906 28.238468
v 9.214877 15.154905 28.238468
v 9.214877 13.954906 18.102596
v 9.214877 15.154905 18.102596
v 2.666751 13.955971 26.426392
v 2.666751 15.155972 26.426392
v 2.666751 13.955971 18.102596
v 2.666751 15.155972 18.102596
v 18.866753 13.955971 26.426392
v 18.866753 15.155972 26.426392
v 18.866753 13.955971 18.102596
v 18.866753 15.155972 18.102596
v 16.140417 13.845062 27.853161
v 16.140417 15.045063 27.853161
v 16.140417 13.845062 18.102596
v 16.140417 15.045063 18.102596
v 32.340416 13.845062 27.853161
v 32.340416 15.045063 27.853161
v 32.340416 13.845062 18.102596
v 32.340416 15.045063 18.102596
v 18.500000 13.783941 33.397404
v 18.500000 14.983942 33.397404
v 18.500000 13.783941 17.197401
v 18.500000 14.983942 17.197401
v 29.857948 13.783941 33.397404
v 29.857948 14.983942 33.397404
v 29.857948 13.783941 17.197401
v 29.857948 14.983942 17.197401
v 18.500000 13.813057 18.743801
v 18.500000 15.013057 18.743801
v 18.500000 13.813057 2.543801
v 18.500000 15.013057 2.543801
v 29.472534 13.813057 18.743801
v 29.472534 15.013057 18.743801
v 29.472534 13.813057 2.543801
v 29.472534 15.013057 2.543801
v 18.500000 13.982548 9.322900
v 18.500000 15.182548 9.322900
v 18.500000 13.982548 -6.877100
v 18.500000 15.182548 -6.877100
v 28.344955 13.982548 9.322900
v 28.344955 15.182548 9.322900
v 28.344955 13.982548 -6.877100
v 28.344955 15.182548 -6.877100
v 18.500000 13.976576 -5.423676
v 18.500000 15.176576 -5.423676
v 18.500000 13.976576 -21.623676
v 18.500000 15.176576 -21.623676
v 28.651894 13.976576 -5.423676
v 28.651894 15.176576 -5.423676
v 28.651894 13.976576 -21.623676
v 28.651894 15.176576 -21.623676
v 18.500000 13.878549 -16.076437
v 18.500000 15.078548 -16.076437
v 18.500000 13.878549 -32.276436
v 18.500000 15.078548 -32.276436
v 29.607368 13.878549 -16.076437
v 29.607368 15.078548 -16.076437
v 29.607368 13.878549 -32.276436
v 29.607368 15.078548 -32.276436
v -30.247410 13.987594 33.216679
v -30.247410 15.187593 33.216679
v -30.247410 13.987594 17.016676
v -30.247410 15.187593 17.016676
v -18.500000 13.987594 33.216679
v -18.500000 15.187593 33.216679
v -18.500000 13.987594 17.016676
v -18.500000 15.187593 17.016676
v -30.396076 13.834767 18.330173
v -30.396076 15.034767 18.330173
v -30.396076 13.834767 2.130174
v -30.396076 15.034767 2.130174
v -18.500000 13.834767 18.330173
v -18.500000 15.034767 18.330173
v -18.500000 13.834767 2.130174
v -18.500000 15.034767 2.130174
v -28.623875 13.951785 5.919129
v -28.623875 15.151785 5.919129
v -28.623875 13.951785 -10.280871
v -28.623875 15.151785 -10.280871
v -18.500000 13.951785 5.919129
v -18.500000 15.151785 5.919129
v -18.500000 13.951785 -10.280871
v -18.500000 15.151785 -10.280871
v -29.452599 13.830928 -4.186559
v -29.452599 15.030928 -4.186559
v -29.452599 13.830928 -20.386559
v -29.452599 15.030928 -20.386559
v -18.500000 13.830928 -4.186559
v -18.500000 15.030928 -4.186559
v -18.500000 13.830928 -20.386559
v -18.500000 15.030928 -20.386559
v -30.288967 13.992279 -15.834715
v -30.288967 15.192279 -15.834715
v -30.288967 13.992279 -32.034714
v -30.288967 15.192279 -32.034714
v -18.500000 13.992279 -15.834715
v -18.500000 15.192279 -15.834715
v -18.500000 13.992279 -32.034714
v -18.500000 15.192279 -32.034714
v -33.000000 9.000000 32.602596
v -33.000000 14.000000 32.602596
v -33.000000 9.000000 -33.397404
v -33.000000 14.000000 -33.397404
v 33.000000 9.000000 32.602596
v 33.000000 14.000000 32.602596
v 33.000000 9.000000 -33.397404
v 33.000000 14.000000 -33.397404
vn -0.0000 1.0000 -0.0000
vn -1.0000 -0.0000 -0.0000
vn -0.0000 -0.0000 -1.0000
vn 1.0000 -0.0000 -0.0000
vn -0.0000 -0.0000 1.0000
vn -0.0000 -1.0000 -0.0000
vt -3.675885 6.950906
vt -7.725885 6.950906
vt -7.725885 4.625000
vt -3.675885 4.625000
vt 2.082895 7.236333
vt -1.967105 7.236333
vt -1.967105 4.625000
vt 2.082895 4.625000
vt 7.553351 7.582176
vt 3.503351 7.582176
vt 3.503351 4.625000
vt 7.553351 4.625000
vt -1.292126 -4.625000
vt -5.342126 -4.625000
vt -5.342126 -6.946483
vt -1.292126 -6.946483
vt 4.716688 -4.625000
vt 0.666688 -4.625000
vt 0.666688 -6.705949
vt 4.716688 -6.705949
vt 7.464487 -4.398701
vt 4.625000 -4.398701
vt 4.625000 -8.448702
vt 7.464487 -8.448702
vt 7.086239 1.619924
vt 4.625000 1.619924
vt 4.625000 -2.430076
vt 7.086239 -2.430076
vt 7.401842 7.969759
vt 4.625000 7.969759
vt 4.625000 3.919758
vt 7.401842 3.919758
vt -4.625000 -0.631894
vt -7.599019 -0.631894
vt -7.599019 -4.681894
vt -4.625000 -4.681894
vt -4.625000 4.997289
vt -7.363150 4.997289
vt -7.363150 0.947289
vt -4.625000 0.947289
vt 0.500000 0.500000
s 0
usemtl P_sub_sand
f 4/1/1 2/2/1 1/3/1 3/4/1
f 8/5/1 6/6/1 5/7/1 7/8/1
f 12/9/1 10/10/1 9/11/1 11/12/1
f 16/13/1 14/14/1 13/15/1 15/16/1
f 20/17/1 18/18/1 17/19/1 19/20/1
f 24/21/1 22/22/1 21/23/1 23/24/1
f 28/25/1 26/26/1 25/27/1 27/28/1
f 32/29/1 30/30/1 29/31/1 31/32/1
f 36/33/1 34/34/1 33/35/1 35/36/1
f 40/37/1 38/38/1 37/39/1 39/40/1
f 41/41/2 42/41/2 44/41/2 43/41/2
f 43/41/3 44/41/3 48/41/3 47/41/3
f 47/41/4 48/41/4 46/41/4 45/41/4
f 45/41/5 46/41/5 42/41/5 41/41/5
f 43/41/6 47/41/6 45/41/6 41/41/6
f 48/41/1 44/41/1 42/41/1 46/41/1
f 49/41/2 50/41/2 52/41/2 51/41/2
f 51/41/3 52/41/3 56/41/3 55/41/3
f 55/41/4 56/41/4 54/41/4 53/41/4
f 53/41/5 54/41/5 50/41/5 49/41/5
f 51/41/6 55/41/6 53/41/6 49/41/6
f 56/41/1 52/41/1 50/41/1 54/41/1
f 57/41/2 58/41/2 60/41/2 59/41/2
f 59/41/3 60/41/3 64/41/3 63/41/3
f 63/41/4 64/41/4 62/41/4 61/41/4
f 61/41/5 62/41/5 58/41/5 57/41/5
f 59/41/6 63/41/6 61/41/6 57/41/6
f 64/41/1 60/41/1 58/41/1 62/41/1
f 65/41/2 66/41/2 68/41/2 67/41/2
f 67/41/3 68/41/3 72/41/3 71/41/3
f 71/41/4 72/41/4 70/41/4 69/41/4
f 69/41/5 70/41/5 66/41/5 65/41/5
f 67/41/6 71/41/6 69/41/6 65/41/6
f 72/41/1 68/41/1 66/41/1 70/41/1
f 73/41/2 74/41/2 76/41/2 75/41/2
f 75/41/3 76/41/3 80/41/3 79/41/3
f 79/41/4 80/41/4 78/41/4 77/41/4
f 77/41/5 78/41/5 74/41/5 73/41/5
f 75/41/6 79/41/6 77/41/6 73/41/6
f 81/41/2 82/41/2 84/41/2 83/41/2
f 83/41/3 84/41/3 88/41/3 87/41/3
f 87/41/4 88/41/4 86/41/4 85/41/4
f 85/41/5 86/41/5 82/41/5 81/41/5
f 83/41/6 87/41/6 85/41/6 81/41/6
f 89/41/2 90/41/2 92/41/2 91/41/2
f 91/41/3 92/41/3 96/41/3 95/41/3
f 95/41/4 96/41/4 94/41/4 93/41/4
f 93/41/5 94/41/5 90/41/5 89/41/5
f 91/41/6 95/41/6 93/41/6 89/41/6
f 97/41/2 98/41/2 100/41/2 99/41/2
f 99/41/3 100/41/3 104/41/3 103/41/3
f 103/41/4 104/41/4 102/41/4 101/41/4
f 101/41/5 102/41/5 98/41/5 97/41/5
f 99/41/6 103/41/6 101/41/6 97/41/6
f 105/41/2 106/41/2 108/41/2 107/41/2
f 107/41/3 108/41/3 112/41/3 111/41/3
f 111/41/4 112/41/4 110/41/4 109/41/4
f 109/41/5 110/41/5 106/41/5 105/41/5
f 107/41/6 111/41/6 109/41/6 105/41/6
f 113/41/2 114/41/2 116/41/2 115/41/2
f 115/41/3 116/41/3 120/41/3 119/41/3
f 119/41/4 120/41/4 118/41/4 117/41/4
f 117/41/5 118/41/5 114/41/5 113/41/5
f 115/41/6 119/41/6 117/41/6 113/41/6
f 121/41/2 122/41/2 124/41/2 123/41/2
f 123/41/3 124/41/3 128/41/3 127/41/3
f 127/41/4 128/41/4 126/41/4 125/41/4
f 125/41/5 126/41/5 122/41/5 121/41/5
f 123/41/6 127/41/6 125/41/6 121/41/6
f 129/41/2 130/41/2 132/41/2 131/41/2
f 131/41/3 132/41/3 136/41/3 135/41/3
f 135/41/4 136/41/4 134/41/4 133/41/4
f 133/41/5 134/41/5 130/41/5 129/41/5
f 131/41/6 135/41/6 133/41/6 129/41/6
f 137/41/2 138/41/2 140/41/2 139/41/2
f 139/41/3 140/41/3 144/41/3 143/41/3
f 143/41/4 144/41/4 142/41/4 141/41/4
f 141/41/5 142/41/5 138/41/5 137/41/5
f 139/41/6 143/41/6 141/41/6 137/41/6
f 145/41/2 146/41/2 148/41/2 147/41/2
f 147/41/3 148/41/3 152/41/3 151/41/3
f 151/41/4 152/41/4 150/41/4 149/41/4
f 149/41/5 150/41/5 146/41/5 145/41/5
f 147/41/6 151/41/6 149/41/6 145/41/6
f 153/41/2 154/41/2 156/41/2 155/41/2
f 155/41/3 156/41/3 160/41/3 159/41/3
f 159/41/4 160/41/4 158/41/4 157/41/4
f 157/41/5 158/41/5 154/41/5 153/41/5
f 155/41/6 159/41/6 157/41/6 153/41/6
f 161/41/2 162/41/2 164/41/2 163/41/2
f 163/41/3 164/41/3 168/41/3 167/41/3
f 167/41/4 168/41/4 166/41/4 165/41/4
f 165/41/5 166/41/5 162/41/5 161/41/5
f 163/41/6 167/41/6 165/41/6 161/41/6
f 169/41/2 170/41/2 172/41/2 171/41/2
f 171/41/3 172/41/3 176/41/3 175/41/3
f 175/41/4 176/41/4 174/41/4 173/41/4
f 173/41/5 174/41/5 170/41/5 169/41/5
f 171/41/6 175/41/6 173/41/6 169/41/6
f 177/41/2 178/41/2 180/41/2 179/41/2
f 179/41/3 180/41/3 184/41/3 183/41/3
f 183/41/4 184/41/4 182/41/4 181/41/4
f 181/41/5 182/41/5 178/41/5 177/41/5
f 179/41/6 183/41/6 181/41/6 177/41/6
f 185/41/2 186/41/2 188/41/2 187/41/2
f 187/41/3 188/41/3 192/41/3 191/41/3
f 191/41/4 192/41/4 190/41/4 189/41/4
f 189/41/5 190/41/5 186/41/5 185/41/5
f 187/41/6 191/41/6 189/41/6 185/41/6
f 193/41/2 194/41/2 196/41/2 195/41/2
f 195/41/3 196/41/3 200/41/3 199/41/3
f 199/41/4 200/41/4 198/41/4 197/41/4
f 197/41/5 198/41/5 194/41/5 193/41/5
f 195/41/6 199/41/6 197/41/6 193/41/6
f 201/41/2 202/41/2 204/41/2 203/41/2
f 203/41/3 204/41/3 208/41/3 207/41/3
f 207/41/4 208/41/4 206/41/4 205/41/4
f 205/41/5 206/41/5 202/41/5 201/41/5
f 203/41/6 207/41/6 205/41/6 201/41/6
f 209/41/2 210/41/2 212/41/2 211/41/2
f 211/41/3 212/41/3 216/41/3 215/41/3
f 215/41/4 216/41/4 214/41/4 213/41/4
f 213/41/5 214/41/5 210/41/5 209/41/5
f 211/41/6 215/41/6 213/41/6 209/41/6
f 217/41/2 218/41/2 220/41/2 219/41/2
f 219/41/3 220/41/3 224/41/3 223/41/3
f 223/41/4 224/41/4 222/41/4 221/41/4
f 221/41/5 222/41/5 218/41/5 217/41/5
f 219/41/6 223/41/6 221/41/6 217/41/6
f 225/41/2 226/41/2 228/41/2 227/41/2
f 227/41/3 228/41/3 232/41/3 231/41/3
f 231/41/4 232/41/4 230/41/4 229/41/4
f 229/41/5 230/41/5 226/41/5 225/41/5
f 227/41/6 231/41/6 229/41/6 225/41/6
f 233/41/2 234/41/2 236/41/2 235/41/2
f 235/41/3 236/41/3 240/41/3 239/41/3
f 239/41/4 240/41/4 238/41/4 237/41/4
f 237/41/5 238/41/5 234/41/5 233/41/5
f 235/41/6 239/41/6 237/41/6 233/41/6
f 240/41/1 236/41/1 234/41/1 238/41/1
