# Blender 4.5.9 LTS
# www.blender.org
mtllib rocket_mk2.mtl
o RocketMk2
v 0.000000 6.209000 -1.220500
v 0.000000 7.259000 -1.220500
v 0.569100 6.209000 -1.138676
v 0.569100 7.259000 -1.138676
v 1.092094 6.209000 -0.899832
v 1.092094 7.259000 -0.899832
v 1.526614 6.209000 -0.523319
v 1.526614 7.259000 -0.523319
v 1.837457 6.209000 -0.039638
v 1.837457 7.259000 -0.039638
v 1.999439 6.209000 0.512024
v 1.999439 7.259000 0.512024
v 1.999439 6.209000 1.086976
v 1.999439 7.259000 1.086976
v 1.837457 6.209000 1.638638
v 1.837457 7.259000 1.638638
v 1.526614 6.209000 2.122319
v 1.526614 7.259000 2.122319
v 1.092094 6.209000 2.498832
v 1.092094 7.259000 2.498832
v 0.569100 6.209000 2.737676
v 0.569100 7.259000 2.737676
v 0.000000 6.209000 2.819500
v 0.000000 7.259000 2.819500
v -0.569100 6.209000 2.737676
v -0.569100 7.259000 2.737676
v -1.092094 6.209000 2.498832
v -1.092094 7.259000 2.498832
v -1.526614 6.209000 2.122319
v -1.526614 7.259000 2.122319
v -1.837457 6.209000 1.638638
v -1.837457 7.259000 1.638638
v -1.999439 6.209000 1.086976
v -1.999439 7.259000 1.086976
v -1.999439 6.209000 0.512024
v -1.999439 7.259000 0.512024
v -1.837457 6.209000 -0.039638
v -1.837457 7.259000 -0.039638
v -1.526614 6.209000 -0.523319
v -1.526614 7.259000 -0.523319
v -1.092094 6.209000 -0.899832
v -1.092094 7.259000 -0.899832
v -0.569100 6.209000 -1.138676
v -0.569100 7.259000 -1.138676
v 0.000000 0.000000 -0.273000
v 0.000000 1.764000 -0.273000
v 0.410428 0.000000 -0.191361
v 0.410428 1.764000 -0.191361
v 0.758372 0.000000 0.041128
v 0.758372 1.764000 0.041128
v 0.990861 0.000000 0.389072
v 0.990861 1.764000 0.389072
v 1.072500 0.000000 0.799500
v 1.072500 1.764000 0.799500
v 0.990861 0.000000 1.209928
v 0.990861 1.764000 1.209928
v 0.758372 0.000000 1.557872
v 0.758372 1.764000 1.557872
v 0.410428 0.000000 1.790361
v 0.410428 1.764000 1.790361
v 0.000000 0.000000 1.872000
v 0.000000 1.764000 1.872000
v -0.410428 0.000000 1.790361
v -0.410428 1.764000 1.790361
v -0.758372 0.000000 1.557872
v -0.758372 1.764000 1.557872
v -0.990861 0.000000 1.209928
v -0.990861 1.764000 1.209928
v -1.072500 0.000000 0.799500
v -1.072500 1.764000 0.799500
v -0.990861 0.000000 0.389072
v -0.990861 1.764000 0.389072
v -0.758372 0.000000 0.041128
v -0.758372 1.764000 0.041128
v -0.410428 0.000000 -0.191361
v -0.410428 1.764000 -0.191361
v 0.000000 0.594000 -1.306500
v 0.000000 2.554000 -0.916500
v 0.593329 0.594000 -1.221192
v 0.483453 2.554000 -0.846990
v 1.138590 0.594000 -0.972180
v 0.927740 2.554000 -0.644091
v 1.591609 0.594000 -0.579637
v 1.296866 2.554000 -0.324241
v 1.915685 0.594000 -0.075364
v 1.560928 2.554000 0.086648
v 2.084564 0.594000 0.499785
v 1.698534 2.554000 0.555288
v 2.084564 0.594000 1.099215
v 1.698534 2.554000 1.043712
v 1.915685 0.594000 1.674364
v 1.560928 2.554000 1.512352
v 1.591609 0.594000 2.178637
v 1.296866 2.554000 1.923241
v 1.138590 0.594000 2.571180
v 0.927740 2.554000 2.243091
v 0.593329 0.594000 2.820192
v 0.483453 2.554000 2.445990
v 0.000000 0.594000 2.905500
v 0.000000 2.554000 2.515500
v -0.593329 0.594000 2.820192
v -0.483453 2.554000 2.445990
v -1.138590 0.594000 2.571180
v -0.927740 2.554000 2.243091
v -1.591609 0.594000 2.178637
v -1.296866 2.554000 1.923241
v -1.915685 0.594000 1.674364
v -1.560928 2.554000 1.512352
v -2.084564 0.594000 1.099215
v -1.698534 2.554000 1.043712
v -2.084564 0.594000 0.499785
v -1.698534 2.554000 0.555288
v -1.915685 0.594000 -0.075364
v -1.560928 2.554000 0.086648
v -1.591609 0.594000 -0.579637
v -1.296866 2.554000 -0.324241
v -1.138590 0.594000 -0.972180
v -0.927740 2.554000 -0.644091
v -0.593329 0.594000 -1.221192
v -0.483453 2.554000 -0.846990
v 0.000000 2.254001 -1.150500
v 0.000000 8.974001 -1.150500
v 0.549379 2.254001 -1.071511
v 0.549379 8.974001 -1.071511
v 1.054250 2.254001 -0.840944
v 1.054250 8.974001 -0.840944
v 1.473711 2.254001 -0.477479
v 1.473711 8.974001 -0.477479
v 1.773782 2.254001 -0.010559
v 1.773782 8.974001 -0.010559
v 1.930152 2.254001 0.521986
v 1.930152 8.974001 0.521986
v 1.930152 2.254001 1.077014
v 1.930152 8.974001 1.077014
v 1.773782 2.254001 1.609559
v 1.773782 8.974001 1.609559
v 1.473711 2.254001 2.076478
v 1.473711 8.974001 2.076478
v 1.054250 2.254001 2.439944
v 1.054250 8.974001 2.439944
v 0.549379 2.254001 2.670511
v 0.549379 8.974001 2.670511
v 0.000000 2.254001 2.749500
v 0.000000 8.974001 2.749500
v -0.549378 2.254001 2.670511
v -0.549378 8.974001 2.670511
v -1.054250 2.254001 2.439944
v -1.054250 8.974001 2.439944
v -1.473711 2.254001 2.076478
v -1.473711 8.974001 2.076478
v -1.773782 2.254001 1.609559
v -1.773782 8.974001 1.609559
v -1.930152 2.254001 1.077014
v -1.930152 8.974001 1.077014
v -1.930152 2.254001 0.521986
v -1.930152 8.974001 0.521986
v -1.773782 2.254001 -0.010559
v -1.773782 8.974001 -0.010559
v -1.473711 2.254001 -0.477479
v -1.473711 8.974001 -0.477479
v -1.054250 2.254001 -0.840944
v -1.054250 8.974001 -0.840944
v -0.549378 2.254001 -1.071511
v -0.549378 8.974001 -1.071511
v 0.000000 4.060000 -1.200500
v 0.000000 4.368001 -1.200500
v 0.563465 4.060000 -1.119486
v 0.563465 4.368001 -1.119486
v 1.081282 4.060000 -0.883007
v 1.081282 4.368001 -0.883007
v 1.511499 4.060000 -0.510222
v 1.511499 4.368001 -0.510222
v 1.819264 4.060000 -0.031330
v 1.819264 4.368001 -0.031330
v 1.979643 4.060000 0.514870
v 1.979643 4.368001 0.514870
v 1.979643 4.060000 1.084130
v 1.979643 4.368001 1.084130
v 1.819264 4.060000 1.630330
v 1.819264 4.368001 1.630330
v 1.511499 4.060000 2.109221
v 1.511499 4.368001 2.109221
v 1.081282 4.060000 2.482007
v 1.081282 4.368001 2.482007
v 0.563465 4.060000 2.718486
v 0.563465 4.368001 2.718486
v 0.000000 4.060000 2.799500
v 0.000000 4.368001 2.799500
v -0.563465 4.060000 2.718486
v -0.563465 4.368001 2.718486
v -1.081282 4.060000 2.482007
v -1.081282 4.368001 2.482007
v -1.511499 4.060000 2.109221
v -1.511499 4.368001 2.109221
v -1.819264 4.060000 1.630330
v -1.819264 4.368001 1.630330
v -1.979643 4.060000 1.084130
v -1.979643 4.368001 1.084130
v -1.979643 4.060000 0.514870
v -1.979643 4.368001 0.514870
v -1.819264 4.060000 -0.031330
v -1.819264 4.368001 -0.031330
v -1.511499 4.060000 -0.510222
v -1.511499 4.368001 -0.510222
v -1.081282 4.060000 -0.883007
v -1.081282 4.368001 -0.883007
v -0.563465 4.060000 -1.119486
v -0.563465 4.368001 -1.119486
v 0.000000 8.974001 -1.150500
v 0.000000 10.094000 -0.526500
v 0.549379 8.974001 -1.071511
v 0.373578 10.094000 -0.472788
v 1.054250 8.974001 -0.840944
v 0.716890 10.094000 -0.316002
v 1.473711 8.974001 -0.477479
v 1.002124 10.094000 -0.068845
v 1.773782 8.974001 -0.010559
v 1.206172 10.094000 0.248660
v 1.930152 8.974001 0.521986
v 1.312503 10.094000 0.610790
v 1.930152 8.974001 1.077014
v 1.312503 10.094000 0.988209
v 1.773782 8.974001 1.609559
v 1.206172 10.094000 1.350340
v 1.473711 8.974001 2.076478
v 1.002124 10.094000 1.667845
v 1.054250 8.974001 2.439944
v 0.716890 10.094000 1.915002
v 0.549379 8.974001 2.670511
v 0.373578 10.094000 2.071788
v 0.000000 8.974001 2.749500
v 0.000000 10.094000 2.125500
v -0.549378 8.974001 2.670511
v -0.373578 10.094000 2.071788
v -1.054250 8.974001 2.439944
v -0.716890 10.094000 1.915002
v -1.473711 8.974001 2.076478
v -1.002124 10.094000 1.667845
v -1.773782 8.974001 1.609559
v -1.206172 10.094000 1.350340
v -1.930152 8.974001 1.077014
v -1.312503 10.094000 0.988209
v -1.930152 8.974001 0.521986
v -1.312503 10.094000 0.610790
v -1.773782 8.974001 -0.010559
v -1.206172 10.094000 0.248660
v -1.473711 8.974001 -0.477479
v -1.002124 10.094000 -0.068845
v -1.054250 8.974001 -0.840944
v -0.716890 10.094000 -0.316002
v -0.549378 8.974001 -1.071511
v -0.373578 10.094000 -0.472788
v 0.000000 10.094000 -0.526500
v 0.000000 13.844000 0.639500
v 0.373578 10.094000 -0.472788
v 0.045077 13.844000 0.645981
v 0.716890 10.094000 -0.316002
v 0.086503 13.844000 0.664899
v 1.002124 10.094000 -0.068845
v 0.120920 13.844000 0.694722
v 1.206172 10.094000 0.248660
v 0.145541 13.844000 0.733034
v 1.312503 10.094000 0.610790
v 0.158371 13.844000 0.776730
v 1.312503 10.094000 0.988209
v 0.158371 13.844000 0.822270
v 1.206172 10.094000 1.350340
v 0.145541 13.844000 0.865966
v 1.002124 10.094000 1.667845
v 0.120920 13.844000 0.904278
v 0.716890 10.094000 1.915002
v 0.086503 13.844000 0.934101
v 0.373578 10.094000 2.071788
v 0.045077 13.844000 0.953019
v 0.000000 10.094000 2.125500
v 0.000000 13.844000 0.959500
v -0.373578 10.094000 2.071788
v -0.045077 13.844000 0.953019
v -0.716890 10.094000 1.915002
v -0.086503 13.844000 0.934101
v -1.002124 10.094000 1.667845
v -0.120920 13.844000 0.904278
v -1.206172 10.094000 1.350340
v -0.145541 13.844000 0.865966
v -1.312503 10.094000 0.988209
v -0.158371 13.844000 0.822270
v -1.312503 10.094000 0.610790
v -0.158371 13.844000 0.776730
v -1.206172 10.094000 0.248660
v -0.145541 13.844000 0.733034
v -1.002124 10.094000 -0.068845
v -0.120920 13.844000 0.694722
v -0.716890 10.094000 -0.316002
v -0.086503 13.844000 0.664899
v -0.373578 10.094000 -0.472788
v -0.045077 13.844000 0.645981
v 0.000000 13.868999 0.499500
v 0.000000 14.219000 0.499500
v 0.176335 13.868999 0.556795
v 0.176335 14.219000 0.556795
v 0.285317 13.868999 0.706795
v 0.285317 14.219000 0.706795
v 0.285317 13.868999 0.892205
v 0.285317 14.219000 0.892205
v 0.176335 13.868999 1.042205
v 0.176335 14.219000 1.042205
v 0.000000 13.868999 1.099500
v 0.000000 14.219000 1.099500
v -0.176335 13.868999 1.042205
v -0.176335 14.219000 1.042205
v -0.285317 13.868999 0.892205
v -0.285317 14.219000 0.892205
v -0.285317 13.868999 0.706795
v -0.285317 14.219000 0.706795
v -0.176335 13.868999 0.556795
v -0.176335 14.219000 0.556795
v 0.000000 8.237000 2.609500
v 0.000000 8.237000 2.849500
v 0.253719 8.186533 2.609500
v 0.253719 8.186533 2.849500
v 0.468812 8.042812 2.609500
v 0.468812 8.042812 2.849500
v 0.612532 7.827719 2.609500
v 0.612532 7.827719 2.849500
v 0.663000 7.574000 2.609500
v 0.663000 7.574000 2.849500
v 0.612532 7.320282 2.609500
v 0.612532 7.320282 2.849500
v 0.468812 7.105188 2.609500
v 0.468812 7.105188 2.849500
v 0.253719 6.961468 2.609500
v 0.253719 6.961468 2.849500
v 0.000000 6.911000 2.609500
v 0.000000 6.911000 2.849500
v -0.253719 6.961468 2.609500
v -0.253719 6.961468 2.849500
v -0.468812 7.105188 2.609500
v -0.468812 7.105188 2.849500
v -0.612532 7.320282 2.609500
v -0.612532 7.320282 2.849500
v -0.663000 7.574000 2.609500
v -0.663000 7.574000 2.849500
v -0.612532 7.827719 2.609500
v -0.612532 7.827719 2.849500
v -0.468812 8.042812 2.609500
v -0.468812 8.042812 2.849500
v -0.253719 8.186533 2.609500
v -0.253719 8.186533 2.849500
v 0.000000 8.042000 2.619500
v 0.000000 8.042000 2.879500
v 0.179096 8.006376 2.619500
v 0.179096 8.006376 2.879500
v 0.330926 7.904926 2.619500
v 0.330926 7.904926 2.879500
v 0.432375 7.753096 2.619500
v 0.432375 7.753096 2.879500
v 0.468000 7.574000 2.619500
v 0.468000 7.574000 2.879500
v 0.432375 7.394905 2.619500
v 0.432375 7.394905 2.879500
v 0.330926 7.243074 2.619500
v 0.330926 7.243074 2.879500
v 0.179096 7.141625 2.619500
v 0.179096 7.141625 2.879500
v 0.000000 7.106000 2.619500
v 0.000000 7.106000 2.879500
v -0.179096 7.141625 2.619500
v -0.179096 7.141625 2.879500
v -0.330926 7.243074 2.619500
v -0.330926 7.243074 2.879500
v -0.432375 7.394905 2.619500
v -0.432375 7.394905 2.879500
v -0.468000 7.574000 2.619500
v -0.468000 7.574000 2.879500
v -0.432375 7.753096 2.619500
v -0.432375 7.753096 2.879500
v -0.330926 7.904926 2.619500
v -0.330926 7.904926 2.879500
v -0.179096 8.006376 2.619500
v -0.179096 8.006376 2.879500
v 0.160000 0.694000 -0.273000
v 0.160000 0.494000 -2.905500
v 0.160000 1.905200 -2.168400
v 0.160000 3.854000 -0.273000
v -0.160000 0.694000 -0.273000
v -0.160000 0.494000 -2.905500
v -0.160000 1.905200 -2.168400
v -0.160000 3.854000 -0.273000
v -1.008812 0.694000 1.197186
v -3.288624 0.494000 2.513436
v -2.650277 1.905200 2.144886
v -1.008812 3.854000 1.197186
v -0.848812 0.694000 1.474314
v -3.128624 0.494000 2.790564
v -2.490277 1.905200 2.422014
v -0.848812 3.854000 1.474314
v 0.848812 0.694000 1.474314
v 3.128624 0.494000 2.790565
v 2.490277 1.905200 2.422014
v 0.848812 3.854000 1.474314
v 1.008812 0.694000 1.197186
v 3.288624 0.494000 2.513437
v 2.650276 1.905200 2.144886
v 1.008812 3.854000 1.197186
vn -0.0000 -0.6764 -0.7365
vn -0.0000 0.6764 -0.7365
vn 0.2075 0.6764 -0.7067
vn 0.2075 -0.6764 -0.7067
vn 0.3982 0.6764 -0.6196
vn 0.3982 -0.6764 -0.6196
vn 0.5566 0.6764 -0.4823
vn 0.5566 -0.6764 -0.4823
vn 0.6699 0.6764 -0.3060
vn 0.6699 -0.6764 -0.3060
vn 0.7290 0.6764 -0.1048
vn 0.7290 -0.6764 -0.1048
vn 0.7290 0.6764 0.1048
vn 0.7290 -0.6764 0.1048
vn 0.6699 0.6764 0.3060
vn 0.6699 -0.6764 0.3060
vn 0.5566 0.6764 0.4823
vn 0.5566 -0.6764 0.4823
vn 0.3982 0.6764 0.6196
vn 0.3982 -0.6764 0.6196
vn 0.2075 0.6764 0.7067
vn 0.2075 -0.6764 0.7067
vn -0.0000 0.6764 0.7365
vn -0.0000 -0.6764 0.7365
vn -0.2075 0.6764 0.7067
vn -0.2075 -0.6764 0.7067
vn -0.3982 0.6764 0.6196
vn -0.3982 -0.6764 0.6196
vn -0.5566 0.6764 0.4823
vn -0.5566 -0.6764 0.4823
vn -0.6699 0.6764 0.3060
vn -0.6699 -0.6764 0.3060
vn -0.7290 0.6764 0.1048
vn -0.7290 -0.6764 0.1048
vn -0.7290 0.6764 -0.1048
vn -0.7290 -0.6764 -0.1048
vn -0.6699 0.6764 -0.3060
vn -0.6699 -0.6764 -0.3060
vn -0.5566 0.6764 -0.4823
vn -0.5566 -0.6764 -0.4823
vn -0.3982 0.6764 -0.6196
vn -0.3982 -0.6764 -0.6196
vn -0.2075 0.6764 -0.7067
vn -0.2075 -0.6764 -0.7067
vn -0.0000 -0.6657 -0.7462
vn -0.0000 0.6657 -0.7462
vn 0.2856 0.6657 -0.6894
vn 0.2856 -0.6657 -0.6894
vn 0.5276 0.6657 -0.5276
vn 0.5276 -0.6657 -0.5276
vn 0.6894 0.6657 -0.2856
vn 0.6894 -0.6657 -0.2856
vn 0.7462 0.6657 -0.0000
vn 0.7462 -0.6657 -0.0000
vn 0.6894 0.6657 0.2856
vn 0.6894 -0.6657 0.2856
vn 0.5276 0.6657 0.5276
vn 0.5276 -0.6657 0.5276
vn 0.2856 0.6657 0.6894
vn 0.2856 -0.6657 0.6894
vn -0.0000 0.6657 0.7462
vn -0.0000 -0.6657 0.7462
vn -0.2856 0.6657 0.6894
vn -0.2856 -0.6657 0.6894
vn -0.5276 0.6657 0.5276
vn -0.5276 -0.6657 0.5276
vn -0.6894 0.6657 0.2856
vn -0.6894 -0.6657 0.2856
vn -0.7462 0.6657 -0.0000
vn -0.7462 -0.6657 -0.0000
vn -0.6894 0.6657 -0.2856
vn -0.6894 -0.6657 -0.2856
vn -0.5276 0.6657 -0.5276
vn -0.5276 -0.6657 -0.5276
vn -0.2856 0.6657 -0.6894
vn -0.2856 -0.6657 -0.6894
vn -0.0000 -0.6020 -0.7985
vn -0.0000 0.7456 -0.6664
vn 0.1877 0.7456 -0.6394
vn 0.2250 -0.6020 -0.7661
vn 0.3603 0.7456 -0.5606
vn 0.4317 -0.6020 -0.6717
vn 0.5036 0.7456 -0.4364
vn 0.6035 -0.6020 -0.5229
vn 0.6062 0.7456 -0.2768
vn 0.7263 -0.6020 -0.3317
vn 0.6596 0.7456 -0.0948
vn 0.7904 -0.6020 -0.1136
vn 0.6596 0.7456 0.0948
vn 0.7904 -0.6020 0.1136
vn 0.6062 0.7456 0.2768
vn 0.7263 -0.6020 0.3317
vn 0.5036 0.7456 0.4364
vn 0.6035 -0.6020 0.5229
vn 0.3603 0.7456 0.5606
vn 0.4317 -0.6020 0.6717
vn 0.1877 0.7456 0.6394
vn 0.2250 -0.6020 0.7661
vn -0.0000 0.7456 0.6664
vn -0.0000 -0.6020 0.7985
vn -0.1877 0.7456 0.6394
vn -0.2250 -0.6020 0.7661
vn -0.3603 0.7456 0.5606
vn -0.4317 -0.6020 0.6717
vn -0.5036 0.7456 0.4364
vn -0.6035 -0.6020 0.5229
vn -0.6062 0.7456 0.2768
vn -0.7263 -0.6020 0.3317
vn -0.6596 0.7456 0.0948
vn -0.7904 -0.6020 0.1136
vn -0.6596 0.7456 -0.0948
vn -0.7904 -0.6020 -0.1136
vn -0.6062 0.7456 -0.2768
vn -0.7263 -0.6020 -0.3317
vn -0.5036 0.7456 -0.4364
vn -0.6035 -0.6020 -0.5229
vn -0.3603 0.7456 -0.5606
vn -0.4317 -0.6020 -0.6717
vn -0.1877 0.7456 -0.6394
vn -0.2250 -0.6020 -0.7661
vn -0.0000 -0.4752 -0.8799
vn -0.0000 0.8421 -0.5393
vn 0.1519 0.8421 -0.5174
vn 0.2479 -0.4752 -0.8442
vn 0.2915 0.8421 -0.4536
vn 0.4757 -0.4752 -0.7402
vn 0.4075 0.8421 -0.3531
vn 0.6650 -0.4752 -0.5762
vn 0.4905 0.8421 -0.2240
vn 0.8004 -0.4752 -0.3655
vn 0.5338 0.8421 -0.0767
vn 0.8709 -0.4752 -0.1252
vn 0.5338 0.8421 0.0767
vn 0.8709 -0.4752 0.1252
vn 0.4905 0.8421 0.2240
vn 0.8004 -0.4752 0.3655
vn 0.4075 0.8421 0.3531
vn 0.6650 -0.4752 0.5762
vn 0.2915 0.8421 0.4536
vn 0.4757 -0.4752 0.7402
vn 0.1519 0.8421 0.5174
vn 0.2479 -0.4752 0.8442
vn -0.0000 0.8421 0.5393
vn -0.0000 -0.4752 0.8799
vn -0.1519 0.8421 0.5174
vn -0.2479 -0.4752 0.8442
vn -0.2915 0.8421 0.4536
vn -0.4757 -0.4752 0.7402
vn -0.4075 0.8421 0.3531
vn -0.6650 -0.4752 0.5762
vn -0.4905 0.8421 0.2240
vn -0.8004 -0.4752 0.3655
vn -0.5338 0.8421 0.0767
vn -0.8709 -0.4752 0.1252
vn -0.5338 0.8421 -0.0767
vn -0.8709 -0.4752 -0.1252
vn -0.4905 0.8421 -0.2240
vn -0.8004 -0.4752 -0.3655
vn -0.4075 0.8421 -0.3531
vn -0.6650 -0.4752 -0.5762
vn -0.2915 0.8421 -0.4536
vn -0.4757 -0.4752 -0.7402
vn -0.1519 0.8421 -0.5174
vn -0.2479 -0.4752 -0.8442
vn -0.0000 -0.5604 -0.8282
vn -0.0000 0.7801 -0.6257
vn 0.1763 0.7801 -0.6003
vn 0.2333 -0.5604 -0.7947
vn 0.3383 0.7801 -0.5264
vn 0.4478 -0.5604 -0.6968
vn 0.4729 0.7801 -0.4097
vn 0.6259 -0.5604 -0.5424
vn 0.5691 0.7801 -0.2599
vn 0.7534 -0.5604 -0.3441
vn 0.6193 0.7801 -0.0890
vn 0.8198 -0.5604 -0.1179
vn 0.6193 0.7801 0.0890
vn 0.8198 -0.5604 0.1179
vn 0.5691 0.7801 0.2599
vn 0.7534 -0.5604 0.3441
vn 0.4729 0.7801 0.4097
vn 0.6259 -0.5604 0.5424
vn 0.3383 0.7801 0.5264
vn 0.4478 -0.5604 0.6968
vn 0.1763 0.7801 0.6003
vn 0.2333 -0.5604 0.7947
vn -0.0000 0.7801 0.6257
vn -0.0000 -0.5604 0.8282
vn -0.1763 0.7801 0.6003
vn -0.2333 -0.5604 0.7947
vn -0.3383 0.7801 0.5264
vn -0.4478 -0.5604 0.6968
vn -0.4729 0.7801 0.4097
vn -0.6259 -0.5604 0.5424
vn -0.5691 0.7801 0.2599
vn -0.7534 -0.5604 0.3441
vn -0.6193 0.7801 0.0890
vn -0.8198 -0.5604 0.1179
vn -0.6193 0.7801 -0.0890
vn -0.8198 -0.5604 -0.1179
vn -0.5691 0.7801 -0.2599
vn -0.7534 -0.5604 -0.3441
vn -0.4729 0.7801 -0.4097
vn -0.6259 -0.5604 -0.5424
vn -0.3383 0.7801 -0.5264
vn -0.4478 -0.5604 -0.6968
vn -0.1763 0.7801 -0.6003
vn -0.2333 -0.5604 -0.7947
vn -0.0000 -0.6437 -0.7653
vn -0.0000 0.6437 -0.7653
vn 0.4498 0.6437 -0.6191
vn 0.4498 -0.6437 -0.6191
vn 0.7278 0.6437 -0.2365
vn 0.7278 -0.6437 -0.2365
vn 0.7278 0.6437 0.2365
vn 0.7278 -0.6437 0.2365
vn 0.4498 0.6437 0.6191
vn 0.4498 -0.6437 0.6191
vn -0.0000 0.6437 0.7653
vn -0.0000 -0.6437 0.7653
vn -0.4498 0.6437 0.6191
vn -0.4498 -0.6437 0.6191
vn -0.7278 0.6437 0.2365
vn -0.7278 -0.6437 0.2365
vn -0.7278 0.6437 -0.2365
vn -0.7278 -0.6437 -0.2365
vn -0.4498 0.6437 -0.6191
vn -0.4498 -0.6437 -0.6191
vn -0.0000 0.7462 -0.6657
vn -0.0000 0.7462 0.6657
vn 0.2856 0.6894 0.6657
vn 0.2856 0.6894 -0.6657
vn 0.5276 0.5276 0.6657
vn 0.5276 0.5276 -0.6657
vn 0.6894 0.2856 0.6657
vn 0.6894 0.2856 -0.6657
vn 0.7462 -0.0000 0.6657
vn 0.7462 -0.0000 -0.6657
vn 0.6894 -0.2856 0.6657
vn 0.6894 -0.2856 -0.6657
vn 0.5276 -0.5276 0.6657
vn 0.5276 -0.5276 -0.6657
vn 0.2856 -0.6894 0.6657
vn 0.2856 -0.6894 -0.6657
vn -0.0000 -0.7462 0.6657
vn -0.0000 -0.7462 -0.6657
vn -0.2856 -0.6894 0.6657
vn -0.2856 -0.6894 -0.6657
vn -0.5276 -0.5276 0.6657
vn -0.5276 -0.5276 -0.6657
vn -0.6894 -0.2856 0.6657
vn -0.6894 -0.2856 -0.6657
vn -0.7462 -0.0000 0.6657
vn -0.7462 -0.0000 -0.6657
vn -0.6894 0.2856 0.6657
vn -0.6894 0.2856 -0.6657
vn -0.5276 0.5276 0.6657
vn -0.5276 0.5276 -0.6657
vn -0.2856 0.6894 0.6657
vn -0.2856 0.6894 -0.6657
vn -1.0000 -0.0000 -0.0000
vn 1.0000 -0.0000 -0.0000
vn -0.0000 0.9971 -0.0758
vn -0.0000 -0.4630 0.8864
vn -0.0000 -0.6972 0.7169
vn -0.0000 -0.0000 -1.0000
vn 0.5000 -0.0000 0.8660
vn -0.5000 -0.0000 -0.8660
vn -0.0656 0.9971 0.0379
vn 0.7676 -0.4630 -0.4432
vn 0.6208 -0.6972 -0.3584
vn -0.8660 -0.0000 0.5000
vn 0.5000 -0.0000 -0.8660
vn -0.5000 -0.0000 0.8660
vn 0.0656 0.9971 0.0379
vn -0.7676 -0.4630 -0.4432
vn -0.6208 -0.6972 -0.3584
vn 0.8660 -0.0000 0.5000
vt 0.940423 0.785455
vt 0.891084 0.785455
vt 0.890698 0.758579
vt 0.940037 0.758579
vt 0.889573 0.733880
vt 0.938912 0.733880
vt 0.887800 0.713360
vt 0.937139 0.713360
vt 0.667177 0.393452
vt 0.716542 0.393377
vt 0.715160 0.415979
vt 0.665794 0.416055
vt 0.714439 0.441905
vt 0.665073 0.441980
vt 0.714439 0.469053
vt 0.665073 0.469129
vt 0.715160 0.495225
vt 0.665794 0.495301
vt 0.716542 0.518300
vt 0.667177 0.518376
vt 0.937815 0.367000
vt 0.987243 0.366980
vt 0.986070 0.389746
vt 0.936642 0.389766
vt 0.985458 0.415758
vt 0.936031 0.415779
vt 0.985458 0.442910
vt 0.936031 0.442931
vt 0.986070 0.469001
vt 0.936642 0.469022
vt 0.987243 0.491918
vt 0.937815 0.491938
vt 0.891684 0.527874
vt 0.941046 0.527282
vt 0.939358 0.545416
vt 0.889996 0.546007
vt 0.938287 0.568508
vt 0.888925 0.569099
vt 0.937921 0.594687
vt 0.888558 0.595279
vt 0.938287 0.621833
vt 0.888925 0.622425
vt 0.939358 0.647747
vt 0.889996 0.648338
vt 0.941046 0.670328
vt 0.891684 0.670920
vt 0.937139 0.857549
vt 0.887800 0.857549
vt 0.889573 0.837029
vt 0.938912 0.837029
vt 0.283443 0.407729
vt 0.283443 0.434881
vt 0.275794 0.460933
vt 0.261114 0.483775
vt 0.240594 0.501556
vt 0.215896 0.512835
vt 0.189020 0.516699
vt 0.162144 0.512835
vt 0.137446 0.501556
vt 0.116926 0.483775
vt 0.102246 0.460933
vt 0.094597 0.434881
vt 0.094597 0.407729
vt 0.102246 0.381677
vt 0.116926 0.358835
vt 0.137446 0.341054
vt 0.162144 0.329775
vt 0.189020 0.325911
vt 0.215896 0.329775
vt 0.240594 0.341054
vt 0.261114 0.358835
vt 0.275794 0.381677
vt 0.890698 0.812330
vt 0.940037 0.812330
vt 0.677407 0.111028
vt 0.669758 0.137080
vt 0.655078 0.159922
vt 0.634558 0.177703
vt 0.609860 0.188982
vt 0.582984 0.192846
vt 0.556108 0.188982
vt 0.531410 0.177703
vt 0.510890 0.159922
vt 0.496210 0.137080
vt 0.488561 0.111028
vt 0.488561 0.083876
vt 0.496210 0.057824
vt 0.510890 0.034982
vt 0.531410 0.017201
vt 0.556108 0.005922
vt 0.582984 0.002058
vt 0.609860 0.005922
vt 0.634558 0.017201
vt 0.655078 0.034982
vt 0.669758 0.057824
vt 0.677407 0.083876
vt 0.206145 0.964390
vt 0.206145 0.881500
vt 0.225527 0.881116
vt 0.225527 0.964005
vt 0.241959 0.880020
vt 0.241959 0.962910
vt 0.526247 0.945436
vt 0.526247 0.862501
vt 0.542498 0.863560
vt 0.542498 0.946495
vt 0.561816 0.863953
vt 0.561816 0.946888
vt 0.581258 0.863620
vt 0.581258 0.946554
vt 0.597866 0.862611
vt 0.597866 0.945545
vt 0.002058 0.972956
vt 0.002058 0.889918
vt 0.019840 0.890607
vt 0.019840 0.973645
vt 0.039568 0.890699
vt 0.039568 0.973738
vt 0.058239 0.890182
vt 0.058239 0.973220
vt 0.073008 0.889132
vt 0.073008 0.972170
vt 0.094597 0.963065
vt 0.094597 0.880130
vt 0.111205 0.881139
vt 0.111205 0.964073
vt 0.130647 0.881472
vt 0.130647 0.964407
vt 0.149964 0.881080
vt 0.149964 0.964014
vt 0.166215 0.880020
vt 0.166215 0.962955
vt 0.702726 0.930931
vt 0.695163 0.949189
vt 0.681189 0.963163
vt 0.662932 0.970726
vt 0.643169 0.970726
vt 0.624912 0.963163
vt 0.610938 0.949189
vt 0.603375 0.930931
vt 0.603375 0.911169
vt 0.610938 0.892911
vt 0.624912 0.878937
vt 0.643169 0.871375
vt 0.662932 0.871375
vt 0.681189 0.878937
vt 0.695163 0.892911
vt 0.702726 0.911169
vt 0.170331 0.962910
vt 0.170331 0.880020
vt 0.186762 0.881116
vt 0.186762 0.964005
vt 0.318695 0.975076
vt 0.298933 0.975076
vt 0.280675 0.967513
vt 0.266701 0.953539
vt 0.259138 0.935281
vt 0.259138 0.915519
vt 0.266701 0.897261
vt 0.280675 0.883287
vt 0.298933 0.875725
vt 0.318695 0.875725
vt 0.336953 0.883287
vt 0.350927 0.897261
vt 0.358489 0.915519
vt 0.358489 0.935281
vt 0.350927 0.953539
vt 0.336953 0.967513
vt 0.931915 0.442143
vt 0.837979 0.442143
vt 0.837652 0.419312
vt 0.931513 0.414123
vt 0.836696 0.398331
vt 0.930341 0.388373
vt 0.835189 0.380899
vt 0.928492 0.366980
vt 0.870133 0.002058
vt 0.963594 0.014200
vt 0.962419 0.033401
vt 0.868692 0.025622
vt 0.961807 0.055425
vt 0.867940 0.052652
vt 0.961807 0.078488
vt 0.867940 0.080956
vt 0.962419 0.100721
vt 0.868692 0.108242
vt 0.963594 0.120323
vt 0.870133 0.132300
vt 0.414144 0.849653
vt 0.507521 0.861747
vt 0.506524 0.881087
vt 0.412920 0.873389
vt 0.506005 0.903185
vt 0.412283 0.900509
vt 0.506005 0.926251
vt 0.412283 0.928816
vt 0.506524 0.948415
vt 0.412920 0.956018
vt 0.507521 0.967883
vt 0.414144 0.979911
vt 0.855088 0.205084
vt 0.948375 0.219298
vt 0.946941 0.234702
vt 0.853328 0.223990
vt 0.946032 0.254319
vt 0.852211 0.248065
vt 0.945720 0.276558
vt 0.851829 0.275358
vt 0.946032 0.299619
vt 0.852211 0.303660
vt 0.946941 0.321632
vt 0.853328 0.330677
vt 0.948375 0.340816
vt 0.855088 0.354220
vt 0.928492 0.517307
vt 0.835189 0.503388
vt 0.836696 0.485956
vt 0.930341 0.495913
vt 0.101095 0.828532
vt 0.094597 0.806400
vt 0.094597 0.783334
vt 0.101095 0.761203
vt 0.113565 0.741799
vt 0.130997 0.726694
vt 0.151979 0.717112
vt 0.174810 0.713829
vt 0.197641 0.717112
vt 0.218622 0.726694
vt 0.236054 0.741799
vt 0.248525 0.761203
vt 0.255023 0.783334
vt 0.255023 0.806400
vt 0.248525 0.828532
vt 0.236054 0.847936
vt 0.218622 0.863041
vt 0.197641 0.872623
vt 0.174810 0.875905
vt 0.151979 0.872623
vt 0.130997 0.863041
vt 0.113565 0.847936
vt 0.837652 0.464974
vt 0.931513 0.470163
vt 0.476470 0.142829
vt 0.461166 0.166643
vt 0.439772 0.185181
vt 0.414022 0.196940
vt 0.386002 0.200969
vt 0.357982 0.196940
vt 0.332232 0.185181
vt 0.310838 0.166643
vt 0.295534 0.142829
vt 0.287559 0.115667
vt 0.287559 0.087359
vt 0.295534 0.060198
vt 0.310838 0.036384
vt 0.332232 0.017846
vt 0.357982 0.006086
vt 0.386002 0.002058
vt 0.414022 0.006086
vt 0.439772 0.017846
vt 0.461166 0.036384
vt 0.476470 0.060198
vt 0.484445 0.087359
vt 0.484445 0.115667
vt 0.071654 0.320997
vt 0.071654 0.005228
vt 0.097598 0.004856
vt 0.097598 0.320625
vt 0.121440 0.003770
vt 0.121440 0.319539
vt 0.141249 0.002058
vt 0.141249 0.317827
vt 0.412283 0.521025
vt 0.412283 0.205084
vt 0.434100 0.206452
vt 0.434100 0.522393
vt 0.459126 0.207186
vt 0.459126 0.523127
vt 0.485334 0.207226
vt 0.485334 0.523167
vt 0.510600 0.206569
vt 0.510600 0.522510
vt 0.532877 0.205269
vt 0.532877 0.521210
vt 0.287559 0.521420
vt 0.287559 0.205084
vt 0.309536 0.206226
vt 0.309536 0.522562
vt 0.334647 0.206827
vt 0.334647 0.523163
vt 0.360857 0.206837
vt 0.360857 0.523174
vt 0.386045 0.206258
vt 0.386045 0.522594
vt 0.408167 0.205134
vt 0.408167 0.521470
vt 0.145365 0.317998
vt 0.145365 0.002058
vt 0.162849 0.003897
vt 0.162849 0.319838
vt 0.185127 0.005198
vt 0.185127 0.321138
vt 0.210393 0.005854
vt 0.210393 0.321795
vt 0.236600 0.005814
vt 0.236600 0.321755
vt 0.261626 0.005080
vt 0.261626 0.321021
vt 0.283443 0.003712
vt 0.283443 0.319653
vt 0.002058 0.317827
vt 0.002058 0.002058
vt 0.021867 0.003770
vt 0.021867 0.319539
vt 0.697740 0.357478
vt 0.677931 0.374643
vt 0.654088 0.385531
vt 0.628144 0.389261
vt 0.602199 0.385531
vt 0.578357 0.374643
vt 0.558548 0.357478
vt 0.544377 0.335428
vt 0.536992 0.310278
vt 0.536992 0.284067
vt 0.544377 0.258918
vt 0.558548 0.236868
vt 0.578357 0.219703
vt 0.602199 0.208814
vt 0.628144 0.205084
vt 0.654088 0.208814
vt 0.677931 0.219703
vt 0.697740 0.236868
vt 0.711910 0.258918
vt 0.719295 0.284067
vt 0.719295 0.310278
vt 0.711910 0.335428
vt 0.045709 0.004856
vt 0.045709 0.320625
vt 0.744313 0.696841
vt 0.720471 0.707729
vt 0.694526 0.711460
vt 0.668582 0.707729
vt 0.644739 0.696841
vt 0.624930 0.679676
vt 0.610759 0.657626
vt 0.603375 0.632477
vt 0.603375 0.606265
vt 0.610759 0.581116
vt 0.624930 0.559066
vt 0.644739 0.541901
vt 0.668582 0.531013
vt 0.694526 0.527282
vt 0.720471 0.531013
vt 0.744313 0.541901
vt 0.764122 0.559066
vt 0.778293 0.581116
vt 0.785677 0.606265
vt 0.785677 0.632477
vt 0.778293 0.657626
vt 0.764122 0.679676
vt 0.405281 0.785210
vt 0.390808 0.785210
vt 0.390426 0.758600
vt 0.404899 0.758600
vt 0.389313 0.734146
vt 0.403785 0.734146
vt 0.387557 0.713829
vt 0.402029 0.713829
vt 0.968310 0.713382
vt 0.982790 0.713360
vt 0.981421 0.735739
vt 0.966941 0.735761
vt 0.980708 0.761408
vt 0.966227 0.761430
vt 0.980708 0.788288
vt 0.966227 0.788310
vt 0.981421 0.814200
vt 0.966941 0.814223
vt 0.982790 0.837047
vt 0.968310 0.837069
vt 0.967994 0.841191
vt 0.982493 0.841185
vt 0.981331 0.863725
vt 0.966833 0.863731
vt 0.980726 0.889481
vt 0.966227 0.889487
vt 0.980726 0.916363
vt 0.966227 0.916369
vt 0.981331 0.942196
vt 0.966833 0.942202
vt 0.982493 0.964886
vt 0.967994 0.964892
vt 0.947633 0.713534
vt 0.962112 0.713360
vt 0.960441 0.731314
vt 0.945961 0.731488
vt 0.959381 0.754177
vt 0.944901 0.754351
vt 0.959017 0.780098
vt 0.944538 0.780271
vt 0.959381 0.806975
vt 0.944901 0.807148
vt 0.960441 0.832632
vt 0.945961 0.832805
vt 0.962112 0.854990
vt 0.947633 0.855163
vt 0.402029 0.856590
vt 0.387557 0.856590
vt 0.389313 0.836273
vt 0.403785 0.836273
vt 0.137022 0.694721
vt 0.116705 0.677116
vt 0.102171 0.654500
vt 0.094597 0.628706
vt 0.094597 0.601823
vt 0.102171 0.576028
vt 0.116705 0.553413
vt 0.137022 0.535808
vt 0.161476 0.524640
vt 0.188085 0.520814
vt 0.214695 0.524640
vt 0.239149 0.535808
vt 0.259466 0.553413
vt 0.274000 0.576028
vt 0.281574 0.601823
vt 0.281574 0.628706
vt 0.274000 0.654500
vt 0.259466 0.677116
vt 0.239149 0.694721
vt 0.214695 0.705888
vt 0.188085 0.709714
vt 0.161476 0.705888
vt 0.390426 0.811819
vt 0.404899 0.811819
vt 0.434391 0.683584
vt 0.419857 0.660968
vt 0.412283 0.635174
vt 0.412283 0.608291
vt 0.419857 0.582496
vt 0.434391 0.559881
vt 0.454708 0.542276
vt 0.479162 0.531108
vt 0.505771 0.527282
vt 0.532381 0.531108
vt 0.556835 0.542276
vt 0.577152 0.559881
vt 0.591686 0.582496
vt 0.599260 0.608291
vt 0.599260 0.635174
vt 0.591686 0.660968
vt 0.577152 0.683584
vt 0.556835 0.701189
vt 0.532381 0.712356
vt 0.505771 0.716182
vt 0.479162 0.712356
vt 0.454708 0.701189
vt 0.772877 0.785171
vt 0.717310 0.785171
vt 0.717057 0.767529
vt 0.772505 0.759226
vt 0.716318 0.751316
vt 0.771419 0.735384
vt 0.715154 0.737846
vt 0.769707 0.715575
vt 0.717184 0.858882
vt 0.771939 0.878455
vt 0.771031 0.893292
vt 0.715850 0.880701
vt 0.770558 0.910311
vt 0.715154 0.905728
vt 0.770558 0.928132
vt 0.715154 0.931936
vt 0.771031 0.945312
vt 0.715850 0.957201
vt 0.771939 0.960459
vt 0.717185 0.979477
vt 0.889523 0.861664
vt 0.944026 0.881054
vt 0.943255 0.895998
vt 0.888390 0.883641
vt 0.942854 0.913074
vt 0.887800 0.908753
vt 0.942854 0.930897
vt 0.887800 0.934963
vt 0.943255 0.948025
vt 0.888390 0.960150
vt 0.944026 0.963068
vt 0.889523 0.982273
vt 0.543381 0.720297
vt 0.597866 0.744174
vt 0.596758 0.756078
vt 0.541751 0.737802
vt 0.596055 0.771236
vt 0.540718 0.760094
vt 0.595814 0.788421
vt 0.540364 0.785366
vt 0.596055 0.806241
vt 0.540718 0.811572
vt 0.596758 0.823251
vt 0.541751 0.836587
vt 0.597866 0.838075
vt 0.543381 0.858386
vt 0.769707 0.854767
vt 0.715154 0.832496
vt 0.716318 0.819026
vt 0.771419 0.834958
vt 0.646300 0.497004
vt 0.632830 0.508676
vt 0.616617 0.516081
vt 0.598975 0.518617
vt 0.581333 0.516081
vt 0.565120 0.508676
vt 0.551650 0.497004
vt 0.542014 0.482010
vt 0.536992 0.464909
vt 0.536992 0.447085
vt 0.542014 0.429983
vt 0.551650 0.414989
vt 0.565120 0.403317
vt 0.581333 0.395913
vt 0.598975 0.393377
vt 0.616617 0.395913
vt 0.632830 0.403317
vt 0.646300 0.414989
vt 0.655937 0.429983
vt 0.660958 0.447085
vt 0.660958 0.464909
vt 0.655937 0.482010
vt 0.717057 0.802813
vt 0.772505 0.811115
vt 0.822461 0.171616
vt 0.798618 0.182505
vt 0.772674 0.186235
vt 0.746729 0.182505
vt 0.722887 0.171616
vt 0.703078 0.154451
vt 0.688907 0.132401
vt 0.681523 0.107252
vt 0.681523 0.081041
vt 0.688907 0.055891
vt 0.703078 0.033841
vt 0.722887 0.016676
vt 0.746729 0.005788
vt 0.772674 0.002058
vt 0.798618 0.005788
vt 0.822461 0.016676
vt 0.842270 0.033841
vt 0.856441 0.055891
vt 0.863825 0.081041
vt 0.863825 0.107252
vt 0.856441 0.132401
vt 0.842270 0.154451
vt 0.837118 0.709245
vt 0.837118 0.527543
vt 0.839247 0.527512
vt 0.854760 0.708992
vt 0.841203 0.527423
vt 0.870973 0.708254
vt 0.842828 0.527282
vt 0.884443 0.707089
vt 0.002058 0.698496
vt 0.038512 0.518270
vt 0.040302 0.518380
vt 0.016895 0.699404
vt 0.042356 0.518437
vt 0.033913 0.699877
vt 0.044506 0.518437
vt 0.051734 0.699877
vt 0.046579 0.518380
vt 0.068915 0.699404
vt 0.048407 0.518270
vt 0.084062 0.698496
vt 0.002058 0.883845
vt 0.038257 0.703992
vt 0.040060 0.704085
vt 0.017002 0.884615
vt 0.042121 0.704133
vt 0.034078 0.885017
vt 0.044271 0.704133
vt 0.051901 0.885017
vt 0.046338 0.704085
vt 0.069028 0.884616
vt 0.048153 0.703992
vt 0.084072 0.883845
vt 0.789793 0.892471
vt 0.835900 0.713360
vt 0.837334 0.713513
vt 0.801680 0.893739
vt 0.839162 0.713623
vt 0.816827 0.894647
vt 0.841235 0.713680
vt 0.834008 0.895120
vt 0.843386 0.713680
vt 0.851829 0.895120
vt 0.845439 0.713623
vt 0.868847 0.894647
vt 0.847229 0.713513
vt 0.883684 0.893739
vt 0.789793 0.707089
vt 0.831407 0.527282
vt 0.833033 0.527423
vt 0.803263 0.708254
vt 0.290953 0.707225
vt 0.289327 0.705817
vt 0.288165 0.704008
vt 0.287559 0.701944
vt 0.287559 0.699794
vt 0.288165 0.697730
vt 0.289327 0.695921
vt 0.290953 0.694512
vt 0.292909 0.693619
vt 0.295038 0.693313
vt 0.297166 0.693619
vt 0.299123 0.694512
vt 0.300748 0.695921
vt 0.301911 0.697730
vt 0.302517 0.699793
vt 0.302517 0.701944
vt 0.301911 0.704008
vt 0.300748 0.705817
vt 0.299123 0.707225
vt 0.297167 0.708119
vt 0.295038 0.708425
vt 0.292909 0.708119
vt 0.834989 0.527512
vt 0.819476 0.708992
vt 0.508121 0.835597
vt 0.491908 0.843001
vt 0.474266 0.845538
vt 0.456623 0.843001
vt 0.440411 0.835597
vt 0.426940 0.823925
vt 0.417304 0.808931
vt 0.412283 0.791829
vt 0.412283 0.774006
vt 0.417304 0.756904
vt 0.426940 0.741910
vt 0.440410 0.730238
vt 0.456623 0.722834
vt 0.474266 0.720297
vt 0.491908 0.722834
vt 0.508121 0.730238
vt 0.521591 0.741910
vt 0.531227 0.756904
vt 0.536248 0.774006
vt 0.536248 0.791829
vt 0.531227 0.808931
vt 0.521591 0.823925
vt 0.941505 0.200608
vt 0.941505 0.184162
vt 0.949833 0.183892
vt 0.949833 0.200338
vt 0.936515 0.496079
vt 0.952971 0.496053
vt 0.952486 0.503053
vt 0.936031 0.503079
vt 0.952486 0.511808
vt 0.936031 0.511833
vt 0.952971 0.518974
vt 0.936515 0.518999
vt 0.953948 0.200550
vt 0.953948 0.184074
vt 0.962568 0.184197
vt 0.962568 0.200673
vt 0.970445 0.183892
vt 0.970445 0.200368
vt 0.973541 0.518999
vt 0.957086 0.518974
vt 0.957570 0.511808
vt 0.974026 0.511833
vt 0.957570 0.503053
vt 0.974026 0.503079
vt 0.902032 0.703370
vt 0.893705 0.700664
vt 0.888558 0.693580
vt 0.888558 0.684824
vt 0.893705 0.677741
vt 0.902032 0.675035
vt 0.910360 0.677741
vt 0.915507 0.684824
vt 0.915507 0.693580
vt 0.910360 0.700664
vt 0.957086 0.496053
vt 0.973541 0.496079
vt 0.933178 0.200338
vt 0.933178 0.183892
vt 0.949684 0.706539
vt 0.944538 0.699456
vt 0.944538 0.690700
vt 0.949684 0.683616
vt 0.958012 0.680910
vt 0.966339 0.683616
vt 0.971486 0.690700
vt 0.971486 0.699456
vt 0.966339 0.706539
vt 0.958012 0.709245
vt 0.584504 0.973142
vt 0.573170 0.973142
vt 0.573170 0.961161
vt 0.584504 0.961161
vt 0.573170 0.951003
vt 0.584504 0.951003
vt 0.948290 0.936004
vt 0.959622 0.936021
vt 0.959512 0.946773
vt 0.948179 0.946756
vt 0.959473 0.958926
vt 0.948141 0.958909
vt 0.959512 0.970630
vt 0.948179 0.970613
vt 0.959622 0.980104
vt 0.948290 0.980086
vt 0.997942 0.885464
vt 0.986608 0.885464
vt 0.986608 0.875306
vt 0.997942 0.875306
vt 0.986608 0.863324
vt 0.997942 0.863324
vt 0.986608 0.851342
vt 0.997942 0.851342
vt 0.986608 0.841185
vt 0.997942 0.841185
vt 0.991771 0.180497
vt 0.980438 0.180515
vt 0.980549 0.171041
vt 0.991881 0.171024
vt 0.980587 0.159337
vt 0.991920 0.159320
vt 0.980549 0.147184
vt 0.991881 0.147167
vt 0.980438 0.136432
vt 0.991771 0.136415
vt 0.794409 0.912518
vt 0.802939 0.903893
vt 0.814083 0.899235
vt 0.826146 0.899254
vt 0.837291 0.903946
vt 0.845821 0.912597
vt 0.850437 0.923890
vt 0.850437 0.936106
vt 0.845821 0.947385
vt 0.837291 0.956010
vt 0.826146 0.960668
vt 0.814083 0.960650
vt 0.802939 0.955958
vt 0.794409 0.947307
vt 0.789793 0.936013
vt 0.789793 0.923797
vt 0.584504 0.995282
vt 0.573170 0.995282
vt 0.573170 0.985124
vt 0.584504 0.985124
vt 0.929063 0.161081
vt 0.929063 0.173295
vt 0.924410 0.184571
vt 0.915813 0.193191
vt 0.904581 0.197844
vt 0.892423 0.197820
vt 0.881190 0.193125
vt 0.872593 0.184471
vt 0.867940 0.173178
vt 0.867941 0.160964
vt 0.872593 0.149688
vt 0.881190 0.141068
vt 0.892423 0.136415
vt 0.904581 0.136438
vt 0.915813 0.141134
vt 0.924410 0.149787
vt 0.802071 0.980411
vt 0.789793 0.980411
vt 0.789793 0.971953
vt 0.802071 0.971953
vt 0.789793 0.964783
vt 0.802071 0.964783
vt 0.919727 0.675035
vt 0.932004 0.675054
vt 0.931926 0.682643
vt 0.919649 0.682624
vt 0.931899 0.691222
vt 0.919622 0.691203
vt 0.931926 0.699484
vt 0.919649 0.699465
vt 0.932004 0.706171
vt 0.919727 0.706152
vt 0.818465 0.996039
vt 0.806186 0.996039
vt 0.806186 0.988869
vt 0.818465 0.988869
vt 0.806186 0.980411
vt 0.818465 0.980411
vt 0.806186 0.971953
vt 0.818465 0.971953
vt 0.806186 0.964783
vt 0.818465 0.964783
vt 0.089400 0.994589
vt 0.077123 0.994608
vt 0.077201 0.987921
vt 0.089478 0.987902
vt 0.077229 0.979659
vt 0.089506 0.979640
vt 0.077201 0.971080
vt 0.089478 0.971061
vt 0.077123 0.963491
vt 0.089400 0.963472
vt 0.529506 0.960379
vt 0.535527 0.954291
vt 0.543394 0.951003
vt 0.551909 0.951016
vt 0.559776 0.954328
vt 0.565796 0.960434
vt 0.569055 0.968406
vt 0.569055 0.977029
vt 0.565796 0.984991
vt 0.559775 0.991079
vt 0.551909 0.994367
vt 0.543394 0.994354
vt 0.535527 0.991042
vt 0.529506 0.984936
vt 0.526247 0.976964
vt 0.526247 0.968341
vt 0.802071 0.996039
vt 0.789793 0.996039
vt 0.789793 0.988869
vt 0.802071 0.988869
vt 0.933178 0.153826
vt 0.936462 0.145854
vt 0.942531 0.139746
vt 0.950459 0.136431
vt 0.959042 0.136415
vt 0.966970 0.139699
vt 0.973039 0.145784
vt 0.976323 0.153744
vt 0.976323 0.162365
vt 0.973039 0.170337
vt 0.966970 0.176445
vt 0.959042 0.179760
vt 0.950459 0.179776
vt 0.942531 0.176492
vt 0.936462 0.170407
vt 0.933178 0.162448
vt 0.723410 0.205084
vt 0.812908 0.296570
vt 0.847713 0.362864
vt 0.723410 0.353652
vt 0.383441 0.862397
vt 0.259138 0.871609
vt 0.293943 0.805315
vt 0.383441 0.713829
vt 0.402669 0.860705
vt 0.402669 0.985025
vt 0.387557 0.985025
vt 0.387557 0.860705
vt 0.981712 0.686046
vt 0.981712 0.622193
vt 0.996627 0.620908
vt 0.996627 0.684761
vt 0.854552 0.988745
vt 0.854552 0.899235
vt 0.869664 0.899235
vt 0.869664 0.988745
vt 0.960274 0.527282
vt 0.960274 0.675769
vt 0.945162 0.675769
vt 0.945162 0.527282
vt 0.287559 0.527289
vt 0.370484 0.621720
vt 0.402733 0.689198
vt 0.287559 0.676042
vt 0.711039 0.864061
vt 0.603375 0.867260
vt 0.633521 0.802684
vt 0.711039 0.715575
vt 0.967709 0.126377
vt 0.967709 0.002058
vt 0.982821 0.002058
vt 0.982821 0.126377
vt 0.077124 0.955139
vt 0.077124 0.889132
vt 0.089403 0.893350
vt 0.089403 0.959357
vt 0.996824 0.527283
vt 0.996824 0.616793
vt 0.981712 0.616793
vt 0.981712 0.527283
vt 0.965699 0.205776
vt 0.965699 0.354343
vt 0.952490 0.353652
vt 0.952490 0.205084
vt 0.723410 0.366980
vt 0.800928 0.454089
vt 0.831074 0.518664
vt 0.723410 0.515466
vt 0.087254 0.463074
vt 0.002058 0.514155
vt 0.002058 0.440686
vt 0.031630 0.325112
vt 0.969814 0.329404
vt 0.969814 0.205084
vt 0.984926 0.205084
vt 0.984926 0.329404
vt 0.948141 0.931889
vt 0.948141 0.865882
vt 0.960420 0.861664
vt 0.960420 0.927671
vt 0.377716 0.875725
vt 0.377717 0.965235
vt 0.362605 0.965235
vt 0.362605 0.875725
vt 0.977597 0.527282
vt 0.977597 0.675850
vt 0.964389 0.676541
vt 0.964389 0.527974
s 1
usemtl RocketBaked_2
f 1/1/1 2/2/2 4/3/3 3/4/4
f 3/4/4 4/3/3 6/5/5 5/6/6
f 5/6/6 6/5/5 8/7/7 7/8/8
f 7/9/8 8/10/7 10/11/9 9/12/10
f 9/12/10 10/11/9 12/13/11 11/14/12
f 11/14/12 12/13/11 14/15/13 13/16/14
f 13/16/14 14/15/13 16/17/15 15/18/16
f 15/18/16 16/17/15 18/19/17 17/20/18
f 17/21/18 18/22/17 20/23/19 19/24/20
f 19/24/20 20/23/19 22/25/21 21/26/22
f 21/26/22 22/25/21 24/27/23 23/28/24
f 23/28/24 24/27/23 26/29/25 25/30/26
f 25/30/26 26/29/25 28/31/27 27/32/28
f 27/33/28 28/34/27 30/35/29 29/36/30
f 29/36/30 30/35/29 32/37/31 31/38/32
f 31/38/32 32/37/31 34/39/33 33/40/34
f 33/40/34 34/39/33 36/41/35 35/42/36
f 35/42/36 36/41/35 38/43/37 37/44/38
f 37/44/38 38/43/37 40/45/39 39/46/40
f 39/47/40 40/48/39 42/49/41 41/50/42
f 4/51/3 2/52/2 44/53/43 42/54/41 40/55/39 38/56/37 36/57/35 34/58/33 32/59/31 30/60/29 28/61/27 26/62/25 24/63/23 22/64/21 20/65/19 18/66/17 16/67/15 14/68/13 12/69/11 10/70/9 8/71/7 6/72/5
f 41/50/42 42/49/41 44/73/43 43/74/44
f 43/74/44 44/73/43 2/2/2 1/1/1
f 1/75/1 3/76/4 5/77/6 7/78/8 9/79/10 11/80/12 13/81/14 15/82/16 17/83/18 19/84/20 21/85/22 23/86/24 25/87/26 27/88/28 29/89/30 31/90/32 33/91/34 35/92/36 37/93/38 39/94/40 41/95/42 43/96/44
f 45/97/45 46/98/46 48/99/47 47/100/48
f 47/100/48 48/99/47 50/101/49 49/102/50
f 49/103/50 50/104/49 52/105/51 51/106/52
f 51/106/52 52/105/51 54/107/53 53/108/54
f 53/108/54 54/107/53 56/109/55 55/110/56
f 55/110/56 56/109/55 58/111/57 57/112/58
f 57/113/58 58/114/57 60/115/59 59/116/60
f 59/116/60 60/115/59 62/117/61 61/118/62
f 61/118/62 62/117/61 64/119/63 63/120/64
f 63/120/64 64/119/63 66/121/65 65/122/66
f 65/123/66 66/124/65 68/125/67 67/126/68
f 67/126/68 68/125/67 70/127/69 69/128/70
f 69/128/70 70/127/69 72/129/71 71/130/72
f 71/130/72 72/129/71 74/131/73 73/132/74
f 48/133/47 46/134/46 76/135/75 74/136/73 72/137/71 70/138/69 68/139/67 66/140/65 64/141/63 62/142/61 60/143/59 58/144/57 56/145/55 54/146/53 52/147/51 50/148/49
f 73/149/74 74/150/73 76/151/75 75/152/76
f 75/152/76 76/151/75 46/98/46 45/97/45
f 45/153/45 47/154/48 49/155/50 51/156/52 53/157/54 55/158/56 57/159/58 59/160/60 61/161/62 63/162/64 65/163/66 67/164/68 69/165/70 71/166/72 73/167/74 75/168/76
f 77/169/77 78/170/78 80/171/79 79/172/80
f 79/172/80 80/171/79 82/173/81 81/174/82
f 81/174/82 82/173/81 84/175/83 83/176/84
f 83/177/84 84/178/83 86/179/85 85/180/86
f 85/180/86 86/179/85 88/181/87 87/182/88
f 87/182/88 88/181/87 90/183/89 89/184/90
f 89/184/90 90/183/89 92/185/91 91/186/92
f 91/186/92 92/185/91 94/187/93 93/188/94
f 93/189/94 94/190/93 96/191/95 95/192/96
f 95/192/96 96/191/95 98/193/97 97/194/98
f 97/194/98 98/193/97 100/195/99 99/196/100
f 99/196/100 100/195/99 102/197/101 101/198/102
f 101/198/102 102/197/101 104/199/103 103/200/104
f 103/201/104 104/202/103 106/203/105 105/204/106
f 105/204/106 106/203/105 108/205/107 107/206/108
f 107/206/108 108/205/107 110/207/109 109/208/110
f 109/208/110 110/207/109 112/209/111 111/210/112
f 111/210/112 112/209/111 114/211/113 113/212/114
f 113/212/114 114/211/113 116/213/115 115/214/116
f 115/215/116 116/216/115 118/217/117 117/218/118
f 80/219/79 78/220/78 120/221/119 118/222/117 116/223/115 114/224/113 112/225/111 110/226/109 108/227/107 106/228/105 104/229/103 102/230/101 100/231/99 98/232/97 96/233/95 94/234/93 92/235/91 90/236/89 88/237/87 86/238/85 84/239/83 82/240/81
f 117/218/118 118/217/117 120/241/119 119/242/120
f 119/242/120 120/241/119 78/170/78 77/169/77
f 77/243/77 79/244/80 81/245/82 83/246/84 85/247/86 87/248/88 89/249/90 91/250/92 93/251/94 95/252/96 97/253/98 99/254/100 101/255/102 103/256/104 105/257/106 107/258/108 109/259/110 111/260/112 113/261/114 115/262/116 117/263/118 119/264/120
f 121/265/1 122/266/2 124/267/3 123/268/4
f 123/268/4 124/267/3 126/269/5 125/270/6
f 125/270/6 126/269/5 128/271/7 127/272/8
f 127/273/8 128/274/7 130/275/9 129/276/10
f 129/276/10 130/275/9 132/277/11 131/278/12
f 131/278/12 132/277/11 134/279/13 133/280/14
f 133/280/14 134/279/13 136/281/15 135/282/16
f 135/282/16 136/281/15 138/283/17 137/284/18
f 137/285/18 138/286/17 140/287/19 139/288/20
f 139/288/20 140/287/19 142/289/21 141/290/22
f 141/290/22 142/289/21 144/291/23 143/292/24
f 143/292/24 144/291/23 146/293/25 145/294/26
f 145/294/26 146/293/25 148/295/27 147/296/28
f 147/297/28 148/298/27 150/299/29 149/300/30
f 149/300/30 150/299/29 152/301/31 151/302/32
f 151/302/32 152/301/31 154/303/33 153/304/34
f 153/304/34 154/303/33 156/305/35 155/306/36
f 155/306/36 156/305/35 158/307/37 157/308/38
f 157/308/38 158/307/37 160/309/39 159/310/40
f 159/311/40 160/312/39 162/313/41 161/314/42
f 124/315/3 122/316/2 164/317/43 162/318/41 160/319/39 158/320/37 156/321/35 154/322/33 152/323/31 150/324/29 148/325/27 146/326/25 144/327/23 142/328/21 140/329/19 138/330/17 136/331/15 134/332/13 132/333/11 130/334/9 128/335/7 126/336/5
f 161/314/42 162/313/41 164/337/43 163/338/44
f 163/338/44 164/337/43 122/266/2 121/265/1
f 121/339/1 123/340/4 125/341/6 127/342/8 129/343/10 131/344/12 133/345/14 135/346/16 137/347/18 139/348/20 141/349/22 143/350/24 145/351/26 147/352/28 149/353/30 151/354/32 153/355/34 155/356/36 157/357/38 159/358/40 161/359/42 163/360/44
f 165/361/1 166/362/2 168/363/3 167/364/4
f 167/364/4 168/363/3 170/365/5 169/366/6
f 169/366/6 170/365/5 172/367/7 171/368/8
f 171/369/8 172/370/7 174/371/9 173/372/10
f 173/372/10 174/371/9 176/373/11 175/374/12
f 175/374/12 176/373/11 178/375/13 177/376/14
f 177/376/14 178/375/13 180/377/15 179/378/16
f 179/378/16 180/377/15 182/379/17 181/380/18
f 181/381/18 182/382/17 184/383/19 183/384/20
f 183/384/20 184/383/19 186/385/21 185/386/22
f 185/386/22 186/385/21 188/387/23 187/388/24
f 187/388/24 188/387/23 190/389/25 189/390/26
f 189/390/26 190/389/25 192/391/27 191/392/28
f 191/393/28 192/394/27 194/395/29 193/396/30
f 193/396/30 194/395/29 196/397/31 195/398/32
f 195/398/32 196/397/31 198/399/33 197/400/34
f 197/400/34 198/399/33 200/401/35 199/402/36
f 199/402/36 200/401/35 202/403/37 201/404/38
f 201/404/38 202/403/37 204/405/39 203/406/40
f 203/407/40 204/408/39 206/409/41 205/410/42
f 168/411/3 166/412/2 208/413/43 206/414/41 204/415/39 202/416/37 200/417/35 198/418/33 196/419/31 194/420/29 192/421/27 190/422/25 188/423/23 186/424/21 184/425/19 182/426/17 180/427/15 178/428/13 176/429/11 174/430/9 172/431/7 170/432/5
f 205/410/42 206/409/41 208/433/43 207/434/44
f 207/434/44 208/433/43 166/362/2 165/361/1
f 165/435/1 167/436/4 169/437/6 171/438/8 173/439/10 175/440/12 177/441/14 179/442/16 181/443/18 183/444/20 185/445/22 187/446/24 189/447/26 191/448/28 193/449/30 195/450/32 197/451/34 199/452/36 201/453/38 203/454/40 205/455/42 207/456/44
f 209/457/121 210/458/122 212/459/123 211/460/124
f 211/460/124 212/459/123 214/461/125 213/462/126
f 213/462/126 214/461/125 216/463/127 215/464/128
f 215/465/128 216/466/127 218/467/129 217/468/130
f 217/468/130 218/467/129 220/469/131 219/470/132
f 219/470/132 220/469/131 222/471/133 221/472/134
f 221/472/134 222/471/133 224/473/135 223/474/136
f 223/474/136 224/473/135 226/475/137 225/476/138
f 225/477/138 226/478/137 228/479/139 227/480/140
f 227/480/140 228/479/139 230/481/141 229/482/142
f 229/482/142 230/481/141 232/483/143 231/484/144
f 231/484/144 232/483/143 234/485/145 233/486/146
f 233/486/146 234/485/145 236/487/147 235/488/148
f 235/489/148 236/490/147 238/491/149 237/492/150
f 237/492/150 238/491/149 240/493/151 239/494/152
f 239/494/152 240/493/151 242/495/153 241/496/154
f 241/496/154 242/495/153 244/497/155 243/498/156
f 243/498/156 244/497/155 246/499/157 245/500/158
f 245/500/158 246/499/157 248/501/159 247/502/160
f 247/503/160 248/504/159 250/505/161 249/506/162
f 212/507/123 210/508/122 252/509/163 250/510/161 248/511/159 246/512/157 244/513/155 242/514/153 240/515/151 238/516/149 236/517/147 234/518/145 232/519/143 230/520/141 228/521/139 226/522/137 224/523/135 222/524/133 220/525/131 218/526/129 216/527/127 214/528/125
f 249/506/162 250/505/161 252/529/163 251/530/164
f 251/530/164 252/529/163 210/458/122 209/457/121
f 209/531/121 211/532/124 213/533/126 215/534/128 217/535/130 219/536/132 221/537/134 223/538/136 225/539/138 227/540/140 229/541/142 231/542/144 233/543/146 235/544/148 237/545/150 239/546/152 241/547/154 243/548/156 245/549/158 247/550/160 249/551/162 251/552/164
f 253/553/165 254/554/166 256/555/167 255/556/168
f 255/556/168 256/555/167 258/557/169 257/558/170
f 257/558/170 258/557/169 260/559/171 259/560/172
f 259/561/172 260/562/171 262/563/173 261/564/174
f 261/564/174 262/563/173 264/565/175 263/566/176
f 263/566/176 264/565/175 266/567/177 265/568/178
f 265/568/178 266/567/177 268/569/179 267/570/180
f 267/570/180 268/569/179 270/571/181 269/572/182
f 269/573/182 270/574/181 272/575/183 271/576/184
f 271/576/184 272/575/183 274/577/185 273/578/186
f 273/578/186 274/577/185 276/579/187 275/580/188
f 275/580/188 276/579/187 278/581/189 277/582/190
f 277/582/190 278/581/189 280/583/191 279/584/192
f 279/585/192 280/586/191 282/587/193 281/588/194
f 281/588/194 282/587/193 284/589/195 283/590/196
f 283/590/196 284/589/195 286/591/197 285/592/198
f 285/592/198 286/591/197 288/593/199 287/594/200
f 287/594/200 288/593/199 290/595/201 289/596/202
f 289/596/202 290/595/201 292/597/203 291/598/204
f 291/599/204 292/600/203 294/601/205 293/602/206
f 256/603/167 254/604/166 296/605/207 294/606/205 292/607/203 290/608/201 288/609/199 286/610/197 284/611/195 282/612/193 280/613/191 278/614/189 276/615/187 274/616/185 272/617/183 270/618/181 268/619/179 266/620/177 264/621/175 262/622/173 260/623/171 258/624/169
f 293/602/206 294/601/205 296/625/207 295/626/208
f 295/626/208 296/625/207 254/554/166 253/553/165
f 253/627/165 255/628/168 257/629/170 259/630/172 261/631/174 263/632/176 265/633/178 267/634/180 269/635/182 271/636/184 273/637/186 275/638/188 277/639/190 279/640/192 281/641/194 283/642/196 285/643/198 287/644/200 289/645/202 291/646/204 293/647/206 295/648/208
f 297/649/209 298/650/210 300/651/211 299/652/212
f 299/653/212 300/654/211 302/655/213 301/656/214
f 301/656/214 302/655/213 304/657/215 303/658/216
f 303/658/216 304/657/215 306/659/217 305/660/218
f 305/661/218 306/662/217 308/663/219 307/664/220
f 307/664/220 308/663/219 310/665/221 309/666/222
f 309/667/222 310/668/221 312/669/223 311/670/224
f 311/670/224 312/669/223 314/671/225 313/672/226
f 300/673/211 298/674/210 316/675/227 314/676/225 312/677/223 310/678/221 308/679/219 306/680/217 304/681/215 302/682/213
f 313/672/226 314/671/225 316/683/227 315/684/228
f 315/685/228 316/686/227 298/650/210 297/649/209
f 297/687/209 299/688/212 301/689/214 303/690/216 305/691/218 307/692/220 309/693/222 311/694/224 313/695/226 315/696/228
f 317/697/229 318/698/230 320/699/231 319/700/232
f 319/700/232 320/699/231 322/701/233 321/702/234
f 321/703/234 322/704/233 324/705/235 323/706/236
f 323/706/236 324/705/235 326/707/237 325/708/238
f 325/708/238 326/707/237 328/709/239 327/710/240
f 327/710/240 328/709/239 330/711/241 329/712/242
f 329/713/242 330/714/241 332/715/243 331/716/244
f 331/716/244 332/715/243 334/717/245 333/718/246
f 333/718/246 334/717/245 336/719/247 335/720/248
f 335/720/248 336/719/247 338/721/249 337/722/250
f 337/723/250 338/724/249 340/725/251 339/726/252
f 339/726/252 340/725/251 342/727/253 341/728/254
f 341/728/254 342/727/253 344/729/255 343/730/256
f 343/730/256 344/729/255 346/731/257 345/732/258
f 320/733/231 318/734/230 348/735/259 346/736/257 344/737/255 342/738/253 340/739/251 338/740/249 336/741/247 334/742/245 332/743/243 330/744/241 328/745/239 326/746/237 324/747/235 322/748/233
f 345/749/258 346/750/257 348/751/259 347/752/260
f 347/752/260 348/751/259 318/698/230 317/697/229
f 317/753/229 319/754/232 321/755/234 323/756/236 325/757/238 327/758/240 329/759/242 331/760/244 333/761/246 335/762/248 337/763/250 339/764/252 341/765/254 343/766/256 345/767/258 347/768/260
f 349/769/229 350/770/230 352/771/231 351/772/232
f 351/772/232 352/771/231 354/773/233 353/774/234
f 353/775/234 354/776/233 356/777/235 355/778/236
f 355/778/236 356/777/235 358/779/237 357/780/238
f 357/780/238 358/779/237 360/781/239 359/782/240
f 359/782/240 360/781/239 362/783/241 361/784/242
f 361/785/242 362/786/241 364/787/243 363/788/244
f 363/788/244 364/787/243 366/789/245 365/790/246
f 365/790/246 366/789/245 368/791/247 367/792/248
f 367/792/248 368/791/247 370/793/249 369/794/250
f 369/795/250 370/796/249 372/797/251 371/798/252
f 371/798/252 372/797/251 374/799/253 373/800/254
f 373/800/254 374/799/253 376/801/255 375/802/256
f 375/802/256 376/801/255 378/803/257 377/804/258
f 352/805/231 350/806/230 380/807/259 378/808/257 376/809/255 374/810/253 372/811/251 370/812/249 368/813/247 366/814/245 364/815/243 362/816/241 360/817/239 358/818/237 356/819/235 354/820/233
f 377/821/258 378/822/257 380/823/259 379/824/260
f 379/824/260 380/823/259 350/770/230 349/769/229
f 349/825/229 351/826/232 353/827/234 355/828/236 357/829/238 359/830/240 361/831/242 363/832/244 365/833/246 367/834/248 369/835/250 371/836/252 373/837/254 375/838/256 377/839/258 379/840/260
s 0
f 384/841/261 383/842/261 382/843/261 381/844/261
f 385/845/262 386/846/262 387/847/262 388/848/262
f 381/849/263 382/850/263 386/851/263 385/852/263
f 382/853/264 383/854/264 387/855/264 386/856/264
f 383/857/265 384/858/265 388/859/265 387/860/265
f 384/861/266 381/862/266 385/863/266 388/864/266
f 392/865/267 391/866/267 390/867/267 389/868/267
f 393/869/268 394/870/268 395/871/268 396/872/268
f 389/873/269 390/874/269 394/875/269 393/876/269
f 390/877/270 391/878/270 395/879/270 394/880/270
f 391/881/271 392/882/271 396/883/271 395/884/271
f 392/885/272 389/886/272 393/887/272 396/888/272
f 400/889/273 399/890/273 398/891/273 397/892/273
f 401/893/274 402/894/274 403/895/274 404/896/274
f 397/897/275 398/898/275 402/899/275 401/900/275
f 398/901/276 399/902/276 403/903/276 402/904/276
f 399/905/277 400/906/277 404/907/277 403/908/277
f 400/909/278 397/910/278 401/911/278 404/912/278
