# Blender 4.5.9 LTS
# www.blender.org
mtllib rocket_mk4.mtl
o RocketMk4
v 1.600000 17.925001 -0.080000
v 1.600000 20.125002 -0.080000
v 1.656569 17.925001 -0.056569
v 1.656569 20.125002 -0.056569
v 1.680000 17.925001 0.000000
v 1.680000 20.125002 0.000000
v 1.656569 17.925001 0.056569
v 1.656569 20.125002 0.056569
v 1.600000 17.925001 0.080000
v 1.600000 20.125002 0.080000
v 1.543432 17.925001 0.056569
v 1.543432 20.125002 0.056569
v 1.520000 17.925001 0.000000
v 1.520000 20.125002 0.000000
v 1.543432 17.925001 -0.056569
v 1.543432 20.125002 -0.056569
v 0.000000 0.000000 -1.760000
v 0.000000 3.150001 -1.760000
v 0.673523 0.000000 -1.626028
v 0.673523 3.150001 -1.626028
v 1.244509 0.000000 -1.244508
v 1.244509 3.150001 -1.244508
v 1.626028 0.000000 -0.673523
v 1.626028 3.150001 -0.673523
v 1.760000 0.000000 0.000000
v 1.760000 3.150001 0.000000
v 1.626028 0.000000 0.673523
v 1.626028 3.150001 0.673523
v 1.244509 0.000000 1.244508
v 1.244509 3.150001 1.244508
v 0.673523 0.000000 1.626028
v 0.673523 3.150001 1.626028
v 0.000000 0.000000 1.760000
v 0.000000 3.150001 1.760000
v -0.673523 0.000000 1.626028
v -0.673523 3.150001 1.626028
v -1.244508 0.000000 1.244508
v -1.244508 3.150001 1.244508
v -1.626028 0.000000 0.673523
v -1.626028 3.150001 0.673523
v -1.760000 0.000000 0.000000
v -1.760000 3.150001 0.000000
v -1.626028 0.000000 -0.673523
v -1.626028 3.150001 -0.673523
v -1.244508 0.000000 -1.244508
v -1.244508 3.150001 -1.244508
v -0.673523 0.000000 -1.626028
v -0.673523 3.150001 -1.626028
v 0.000000 0.825001 -3.456000
v 0.000000 4.325001 -2.816000
v 0.973667 0.825001 -3.316008
v 0.793360 4.325001 -2.701932
v 1.868454 0.825001 -2.907372
v 1.522444 4.325001 -2.368970
v 2.611870 0.825001 -2.263199
v 2.128191 4.325001 -1.844088
v 3.143688 0.825001 -1.435674
v 2.561523 4.325001 -1.169809
v 3.420822 0.825001 -0.491840
v 2.787336 4.325001 -0.400759
v 3.420822 0.825001 0.491840
v 2.787336 4.325001 0.400759
v 3.143688 0.825001 1.435674
v 2.561523 4.325001 1.169809
v 2.611870 0.825001 2.263199
v 2.128191 4.325001 1.844088
v 1.868454 0.825001 2.907372
v 1.522444 4.325001 2.368970
v 0.973667 0.825001 3.316008
v 0.793360 4.325001 2.701932
v 0.000000 0.825001 3.456000
v 0.000000 4.325001 2.816000
v -0.973668 0.825001 3.316008
v -0.793359 4.325001 2.701932
v -1.868455 0.825001 2.907372
v -1.522445 4.325001 2.368970
v -2.611871 0.825001 2.263199
v -2.128191 4.325001 1.844088
v -3.143688 0.825001 1.435674
v -2.561523 4.325001 1.169809
v -3.420823 0.825001 0.491840
v -2.787337 4.325001 0.400759
v -3.420823 0.825001 -0.491840
v -2.787337 4.325001 -0.400759
v -3.143688 0.825001 -1.435674
v -2.561523 4.325001 -1.169809
v -2.611871 0.825001 -2.263199
v -2.128191 4.325001 -1.844088
v -1.868455 0.825001 -2.907372
v -1.522445 4.325001 -2.368970
v -0.973668 0.825001 -3.316008
v -0.793359 4.325001 -2.701932
v 0.000000 4.025002 -3.200000
v 0.000000 16.025002 -3.200000
v 0.901545 4.025002 -3.070378
v 0.901545 16.025002 -3.070378
v 1.730051 4.025002 -2.692011
v 1.730051 16.025002 -2.692011
v 2.418398 4.025002 -2.095555
v 2.418398 16.025002 -2.095555
v 2.910822 4.025002 -1.329328
v 2.910822 16.025002 -1.329328
v 3.167429 4.025002 -0.455408
v 3.167429 16.025002 -0.455408
v 3.167429 4.025002 0.455408
v 3.167429 16.025002 0.455408
v 2.910822 4.025002 1.329328
v 2.910822 16.025002 1.329328
v 2.418398 4.025002 2.095555
v 2.418398 16.025002 2.095555
v 1.730051 4.025002 2.692011
v 1.730051 16.025002 2.692011
v 0.901545 4.025002 3.070378
v 0.901545 16.025002 3.070378
v 0.000000 4.025002 3.200000
v 0.000000 16.025002 3.200000
v -0.901545 4.025002 3.070378
v -0.901545 16.025002 3.070378
v -1.730051 4.025002 2.692011
v -1.730051 16.025002 2.692011
v -2.418399 4.025002 2.095555
v -2.418399 16.025002 2.095555
v -2.910822 4.025002 1.329328
v -2.910822 16.025002 1.329328
v -3.167429 4.025002 0.455408
v -3.167429 16.025002 0.455408
v -3.167429 4.025002 -0.455408
v -3.167429 16.025002 -0.455408
v -2.910822 4.025002 -1.329328
v -2.910822 16.025002 -1.329328
v -2.418399 4.025002 -2.095555
v -2.418399 16.025002 -2.095555
v -1.730051 4.025002 -2.692011
v -1.730051 16.025002 -2.692011
v -0.901545 4.025002 -3.070378
v -0.901545 16.025002 -3.070378
v 0.000000 11.087502 -3.270000
v 0.000000 12.962502 -3.270000
v 0.921265 11.087502 -3.137542
v 0.921265 12.962502 -3.137542
v 1.767895 11.087502 -2.750899
v 1.767895 12.962502 -2.750899
v 2.471300 11.087502 -2.141395
v 2.471300 12.962502 -2.141395
v 2.974497 11.087502 -1.358407
v 2.974497 12.962502 -1.358407
v 3.236715 11.087502 -0.465370
v 3.236715 12.962502 -0.465370
v 3.236715 11.087502 0.465370
v 3.236715 12.962502 0.465370
v 2.974497 11.087502 1.358407
v 2.974497 12.962502 1.358407
v 2.471300 11.087502 2.141395
v 2.471300 12.962502 2.141395
v 1.767895 11.087502 2.750899
v 1.767895 12.962502 2.750899
v 0.921265 11.087502 3.137542
v 0.921265 12.962502 3.137542
v 0.000000 11.087502 3.270000
v 0.000000 12.962502 3.270000
v -0.921266 11.087502 3.137542
v -0.921266 12.962502 3.137542
v -1.767896 11.087502 2.750899
v -1.767896 12.962502 2.750899
v -2.471301 11.087502 2.141395
v -2.471301 12.962502 2.141395
v -2.974497 11.087502 1.358407
v -2.974497 12.962502 1.358407
v -3.236716 11.087502 0.465370
v -3.236716 12.962502 0.465370
v -3.236716 11.087502 -0.465370
v -3.236716 12.962502 -0.465370
v -2.974497 11.087502 -1.358407
v -2.974497 12.962502 -1.358407
v -2.471301 11.087502 -2.141395
v -2.471301 12.962502 -2.141395
v -1.767896 11.087502 -2.750899
v -1.767896 12.962502 -2.750899
v -0.921266 11.087502 -3.137542
v -0.921266 12.962502 -3.137542
v 0.000000 7.250002 -3.250000
v 0.000000 7.800001 -3.250000
v 0.915630 7.250002 -3.118352
v 0.915630 7.800001 -3.118352
v 1.757082 7.250002 -2.734074
v 1.757082 7.800001 -2.734074
v 2.456186 7.250002 -2.128298
v 2.456186 7.800001 -2.128298
v 2.956305 7.250002 -1.350099
v 2.956305 7.800001 -1.350099
v 3.216919 7.250002 -0.462523
v 3.216919 7.800001 -0.462523
v 3.216919 7.250002 0.462523
v 3.216919 7.800001 0.462523
v 2.956305 7.250002 1.350099
v 2.956305 7.800001 1.350099
v 2.456186 7.250002 2.128298
v 2.456186 7.800001 2.128298
v 1.757082 7.250002 2.734074
v 1.757082 7.800001 2.734074
v 0.915630 7.250002 3.118352
v 0.915630 7.800001 3.118352
v 0.000000 7.250002 3.250000
v 0.000000 7.800001 3.250000
v -0.915630 7.250002 3.118352
v -0.915630 7.800001 3.118352
v -1.757083 7.250002 2.734074
v -1.757083 7.800001 2.734074
v -2.456186 7.250002 2.128298
v -2.456186 7.800001 2.128298
v -2.956304 7.250002 1.350099
v -2.956304 7.800001 1.350099
v -3.216920 7.250002 0.462523
v -3.216920 7.800001 0.462523
v -3.216920 7.250002 -0.462523
v -3.216920 7.800001 -0.462523
v -2.956304 7.250002 -1.350099
v -2.956304 7.800001 -1.350099
v -2.456186 7.250002 -2.128298
v -2.456186 7.800001 -2.128298
v -1.757083 7.250002 -2.734074
v -1.757083 7.800001 -2.734074
v -0.915630 7.250002 -3.118352
v -0.915630 7.800001 -3.118352
v 0.000000 16.025002 -3.200000
v 0.000000 18.025002 -2.176000
v 0.901545 16.025002 -3.070378
v 0.613050 18.025002 -2.087857
v 1.730051 16.025002 -2.692011
v 1.176434 18.025002 -1.830568
v 2.418398 16.025002 -2.095555
v 1.644510 18.025002 -1.424977
v 2.910822 16.025002 -1.329328
v 1.979359 18.025002 -0.903943
v 3.167429 16.025002 -0.455408
v 2.153851 18.025002 -0.309677
v 3.167429 16.025002 0.455408
v 2.153851 18.025002 0.309677
v 2.910822 16.025002 1.329328
v 1.979359 18.025002 0.903943
v 2.418398 16.025002 2.095555
v 1.644510 18.025002 1.424977
v 1.730051 16.025002 2.692011
v 1.176434 18.025002 1.830568
v 0.901545 16.025002 3.070378
v 0.613050 18.025002 2.087857
v 0.000000 16.025002 3.200000
v 0.000000 18.025002 2.176000
v -0.901545 16.025002 3.070378
v -0.613050 18.025002 2.087857
v -1.730051 16.025002 2.692011
v -1.176435 18.025002 1.830568
v -2.418399 16.025002 2.095555
v -1.644511 18.025002 1.424977
v -2.910822 16.025002 1.329328
v -1.979359 18.025002 0.903943
v -3.167429 16.025002 0.455408
v -2.153852 18.025002 0.309677
v -3.167429 16.025002 -0.455408
v -2.153852 18.025002 -0.309677
v -2.910822 16.025002 -1.329328
v -1.979359 18.025002 -0.903943
v -2.418399 16.025002 -2.095555
v -1.644511 18.025002 -1.424977
v -1.730051 16.025002 -2.692011
v -1.176435 18.025002 -1.830568
v -0.901545 16.025002 -3.070378
v -0.613050 18.025002 -2.087857
v 0.000000 18.025002 -2.176000
v 0.000000 25.075001 -0.160000
v 0.613050 18.025002 -2.087857
v 0.045076 25.075001 -0.153519
v 1.176434 18.025002 -1.830568
v 0.086502 25.075001 -0.134601
v 1.644510 18.025002 -1.424977
v 0.120920 25.075001 -0.104778
v 1.979359 18.025002 -0.903943
v 0.145540 25.075001 -0.066466
v 2.153851 18.025002 -0.309677
v 0.158371 25.075001 -0.022770
v 2.153851 18.025002 0.309677
v 0.158371 25.075001 0.022770
v 1.979359 18.025002 0.903943
v 0.145540 25.075001 0.066466
v 1.644510 18.025002 1.424977
v 0.120920 25.075001 0.104778
v 1.176434 18.025002 1.830568
v 0.086502 25.075001 0.134601
v 0.613050 18.025002 2.087857
v 0.045076 25.075001 0.153519
v 0.000000 18.025002 2.176000
v 0.000000 25.075001 0.160000
v -0.613050 18.025002 2.087857
v -0.045077 25.075001 0.153519
v -1.176435 18.025002 1.830568
v -0.086502 25.075001 0.134601
v -1.644511 18.025002 1.424977
v -0.120920 25.075001 0.104778
v -1.979359 18.025002 0.903943
v -0.145541 25.075001 0.066466
v -2.153852 18.025002 0.309677
v -0.158371 25.075001 0.022770
v -2.153852 18.025002 -0.309677
v -0.158371 25.075001 -0.022770
v -1.979359 18.025002 -0.903943
v -0.145541 25.075001 -0.066466
v -1.644511 18.025002 -1.424977
v -0.120920 25.075001 -0.104778
v -1.176435 18.025002 -1.830568
v -0.086502 25.075001 -0.134601
v -0.613050 18.025002 -2.087857
v -0.045077 25.075001 -0.153519
v 0.000000 25.100002 -0.300000
v 0.000000 25.450001 -0.300000
v 0.176336 25.100002 -0.242705
v 0.176336 25.450001 -0.242705
v 0.285316 25.100002 -0.092705
v 0.285316 25.450001 -0.092705
v 0.285316 25.100002 0.092705
v 0.285316 25.450001 0.092705
v 0.176336 25.100002 0.242705
v 0.176336 25.450001 0.242705
v 0.000000 25.100002 0.300000
v 0.000000 25.450001 0.300000
v -0.176335 25.100002 0.242705
v -0.176335 25.450001 0.242705
v -0.285316 25.100002 0.092705
v -0.285316 25.450001 0.092705
v -0.285316 25.100002 -0.092705
v -0.285316 25.450001 -0.092705
v -0.176335 25.100002 -0.242705
v -0.176335 25.450001 -0.242705
v 0.000000 14.613002 3.060000
v 0.000000 14.613002 3.300000
v 0.416359 14.530182 3.060000
v 0.416359 14.530182 3.300000
v 0.769333 14.294334 3.060000
v 0.769333 14.294334 3.300000
v 1.005180 13.941360 3.060000
v 1.005180 13.941360 3.300000
v 1.087999 13.525002 3.060000
v 1.087999 13.525002 3.300000
v 1.005180 13.108643 3.060000
v 1.005180 13.108643 3.300000
v 0.769333 12.755669 3.060000
v 0.769333 12.755669 3.300000
v 0.416359 12.519821 3.060000
v 0.416359 12.519821 3.300000
v 0.000000 12.437001 3.060000
v 0.000000 12.437001 3.300000
v -0.416360 12.519821 3.060000
v -0.416360 12.519821 3.300000
v -0.769332 12.755669 3.060000
v -0.769332 12.755669 3.300000
v -1.005180 13.108643 3.060000
v -1.005180 13.108643 3.300000
v -1.088000 13.525002 3.060000
v -1.088000 13.525002 3.300000
v -1.005180 13.941360 3.060000
v -1.005180 13.941360 3.300000
v -0.769332 14.294334 3.060000
v -0.769332 14.294334 3.300000
v -0.416360 14.530182 3.060000
v -0.416360 14.530182 3.300000
v 0.000000 14.293001 3.070000
v 0.000000 14.293001 3.330000
v 0.293901 14.234541 3.070000
v 0.293901 14.234541 3.330000
v 0.543058 14.068060 3.070000
v 0.543058 14.068060 3.330000
v 0.709539 13.818903 3.070000
v 0.709539 13.818903 3.330000
v 0.768000 13.525002 3.070000
v 0.768000 13.525002 3.330000
v 0.709539 13.231100 3.070000
v 0.709539 13.231100 3.330000
v 0.543058 12.981943 3.070000
v 0.543058 12.981943 3.330000
v 0.293901 12.815462 3.070000
v 0.293901 12.815462 3.330000
v 0.000000 12.757002 3.070000
v 0.000000 12.757002 3.330000
v -0.293901 12.815462 3.070000
v -0.293901 12.815462 3.330000
v -0.543058 12.981943 3.070000
v -0.543058 12.981943 3.330000
v -0.709539 13.231100 3.070000
v -0.709539 13.231100 3.330000
v -0.768000 13.525002 3.070000
v -0.768000 13.525002 3.330000
v -0.709539 13.818903 3.070000
v -0.709539 13.818903 3.330000
v -0.543058 14.068060 3.070000
v -0.543058 14.068060 3.330000
v -0.293901 14.234541 3.070000
v -0.293901 14.234541 3.330000
v 1.760000 0.925003 0.160000
v 6.080000 0.725002 0.160000
v 4.870399 3.245003 0.160000
v 1.760000 6.725002 0.160000
v 1.760000 0.925003 -0.160000
v 6.080000 0.725002 -0.160000
v 4.870399 3.245003 -0.160000
v 1.760000 6.725002 -0.160000
v 0.160000 0.925003 -1.760000
v 0.160000 0.725002 -6.080000
v 0.160000 3.245003 -4.870400
v 0.160000 6.725002 -1.760000
v -0.160000 0.925003 -1.760000
v -0.160000 0.725002 -6.080000
v -0.160000 3.245003 -4.870400
v -0.160000 6.725002 -1.760000
v -1.760000 0.925003 -0.160000
v -6.080000 0.725002 -0.159999
v -4.870399 3.245003 -0.160000
v -1.760000 6.725002 -0.160000
v -1.760000 0.925003 0.160000
v -6.080000 0.725002 0.160001
v -4.870399 3.245003 0.160000
v -1.760000 6.725002 0.160000
v -0.160000 0.925003 1.760000
v -0.160000 0.725002 6.080000
v -0.160000 3.245003 4.870400
v -0.160000 6.725002 1.760000
v 0.160000 0.925003 1.760000
v 0.160000 0.725002 6.080000
v 0.160000 3.245003 4.870400
v 0.160000 6.725002 1.760000
v 0.000000 8.900002 -3.270000
v 0.000000 10.150002 -3.270000
v 0.921265 8.900002 -3.137542
v 0.921265 10.150002 -3.137542
v 1.767895 8.900002 -2.750899
v 1.767895 10.150002 -2.750899
v 2.471300 8.900002 -2.141395
v 2.471300 10.150002 -2.141395
v 2.974497 8.900002 -1.358407
v 2.974497 10.150002 -1.358407
v 3.236715 8.900002 -0.465370
v 3.236715 10.150002 -0.465370
v 3.236715 8.900002 0.465370
v 3.236715 10.150002 0.465370
v 2.974497 8.900002 1.358407
v 2.974497 10.150002 1.358407
v 2.471300 8.900002 2.141395
v 2.471300 10.150002 2.141395
v 1.767895 8.900002 2.750899
v 1.767895 10.150002 2.750899
v 0.921265 8.900002 3.137542
v 0.921265 10.150002 3.137542
v 0.000000 8.900002 3.270000
v 0.000000 10.150002 3.270000
v -0.921266 8.900002 3.137542
v -0.921266 10.150002 3.137542
v -1.767896 8.900002 2.750899
v -1.767896 10.150002 2.750899
v -2.471301 8.900002 2.141395
v -2.471301 10.150002 2.141395
v -2.974497 8.900002 1.358407
v -2.974497 10.150002 1.358407
v -3.236716 8.900002 0.465370
v -3.236716 10.150002 0.465370
v -3.236716 8.900002 -0.465370
v -3.236716 10.150002 -0.465370
v -2.974497 8.900002 -1.358407
v -2.974497 10.150002 -1.358407
v -2.471301 8.900002 -2.141395
v -2.471301 10.150002 -2.141395
v -1.767896 8.900002 -2.750899
v -1.767896 10.150002 -2.750899
v -0.921266 8.900002 -3.137542
v -0.921266 10.150002 -3.137542
vn -0.0000 -0.6303 -0.7764
vn -0.0000 0.6303 -0.7764
vn 0.5490 0.6303 -0.5490
vn 0.5490 -0.6303 -0.5490
vn 0.7764 0.6303 -0.0000
vn 0.7764 -0.6303 -0.0000
vn 0.5490 0.6303 0.5490
vn 0.5490 -0.6303 0.5490
vn -0.0000 0.6303 0.7764
vn -0.0000 -0.6303 0.7764
vn -0.5490 0.6303 0.5490
vn -0.5490 -0.6303 0.5490
vn -0.7764 0.6303 -0.0000
vn -0.7764 -0.6303 -0.0000
vn -0.5490 0.6303 -0.5490
vn -0.5490 -0.6303 -0.5490
vn -0.0000 -0.6657 -0.7462
vn -0.0000 0.6657 -0.7462
vn 0.2856 0.6657 -0.6894
vn 0.2856 -0.6657 -0.6894
vn 0.5276 0.6657 -0.5276
vn 0.5276 -0.6657 -0.5276
vn 0.6894 0.6657 -0.2856
vn 0.6894 -0.6657 -0.2856
vn 0.7462 0.6657 -0.0000
vn 0.7462 -0.6657 -0.0000
vn 0.6894 0.6657 0.2856
vn 0.6894 -0.6657 0.2856
vn 0.5276 0.6657 0.5276
vn 0.5276 -0.6657 0.5276
vn 0.2856 0.6657 0.6894
vn 0.2856 -0.6657 0.6894
vn -0.0000 0.6657 0.7462
vn -0.0000 -0.6657 0.7462
vn -0.2856 0.6657 0.6894
vn -0.2856 -0.6657 0.6894
vn -0.5276 0.6657 0.5276
vn -0.5276 -0.6657 0.5276
vn -0.6894 0.6657 0.2856
vn -0.6894 -0.6657 0.2856
vn -0.7462 0.6657 -0.0000
vn -0.7462 -0.6657 -0.0000
vn -0.6894 0.6657 -0.2856
vn -0.6894 -0.6657 -0.2856
vn -0.5276 0.6657 -0.5276
vn -0.5276 -0.6657 -0.5276
vn -0.2856 0.6657 -0.6894
vn -0.2856 -0.6657 -0.6894
vn -0.0000 -0.6081 -0.7939
vn -0.0000 0.7403 -0.6722
vn 0.1894 0.7403 -0.6450
vn 0.2237 -0.6081 -0.7617
vn 0.3634 0.7403 -0.5655
vn 0.4292 -0.6081 -0.6678
vn 0.5080 0.7403 -0.4402
vn 0.6000 -0.6081 -0.5199
vn 0.6115 0.7403 -0.2793
vn 0.7221 -0.6081 -0.3298
vn 0.6654 0.7403 -0.0957
vn 0.7858 -0.6081 -0.1130
vn 0.6654 0.7403 0.0957
vn 0.7858 -0.6081 0.1130
vn 0.6115 0.7403 0.2793
vn 0.7221 -0.6081 0.3298
vn 0.5080 0.7403 0.4402
vn 0.6000 -0.6081 0.5199
vn 0.3634 0.7403 0.5655
vn 0.4292 -0.6081 0.6678
vn 0.1894 0.7403 0.6450
vn 0.2237 -0.6081 0.7617
vn -0.0000 0.7403 0.6722
vn -0.0000 -0.6081 0.7939
vn -0.1894 0.7403 0.6450
vn -0.2237 -0.6081 0.7617
vn -0.3634 0.7403 0.5655
vn -0.4292 -0.6081 0.6678
vn -0.5080 0.7403 0.4402
vn -0.6000 -0.6081 0.5199
vn -0.6115 0.7403 0.2793
vn -0.7221 -0.6081 0.3298
vn -0.6654 0.7403 0.0957
vn -0.7858 -0.6081 0.1130
vn -0.6654 0.7403 -0.0957
vn -0.7858 -0.6081 -0.1130
vn -0.6115 0.7403 -0.2793
vn -0.7221 -0.6081 -0.3298
vn -0.5080 0.7403 -0.4402
vn -0.6000 -0.6081 -0.5199
vn -0.3634 0.7403 -0.5655
vn -0.4292 -0.6081 -0.6678
vn -0.1894 0.7403 -0.6450
vn -0.2237 -0.6081 -0.7617
vn -0.0000 -0.6764 -0.7365
vn -0.0000 0.6764 -0.7365
vn 0.2075 0.6764 -0.7067
vn 0.2075 -0.6764 -0.7067
vn 0.3982 0.6764 -0.6196
vn 0.3982 -0.6764 -0.6196
vn 0.5566 0.6764 -0.4823
vn 0.5566 -0.6764 -0.4823
vn 0.6699 0.6764 -0.3060
vn 0.6699 -0.6764 -0.3060
vn 0.7290 0.6764 -0.1048
vn 0.7290 -0.6764 -0.1048
vn 0.7290 0.6764 0.1048
vn 0.7290 -0.6764 0.1048
vn 0.6699 0.6764 0.3060
vn 0.6699 -0.6764 0.3060
vn 0.5566 0.6764 0.4823
vn 0.5566 -0.6764 0.4823
vn 0.3982 0.6764 0.6196
vn 0.3982 -0.6764 0.6196
vn 0.2075 0.6764 0.7067
vn 0.2075 -0.6764 0.7067
vn -0.0000 0.6764 0.7365
vn -0.0000 -0.6764 0.7365
vn -0.2075 0.6764 0.7067
vn -0.2075 -0.6764 0.7067
vn -0.3982 0.6764 0.6196
vn -0.3982 -0.6764 0.6196
vn -0.5566 0.6764 0.4823
vn -0.5566 -0.6764 0.4823
vn -0.6699 0.6764 0.3060
vn -0.6699 -0.6764 0.3060
vn -0.7290 0.6764 0.1048
vn -0.7290 -0.6764 0.1048
vn -0.7290 0.6764 -0.1048
vn -0.7290 -0.6764 -0.1048
vn -0.6699 0.6764 -0.3060
vn -0.6699 -0.6764 -0.3060
vn -0.5566 0.6764 -0.4823
vn -0.5566 -0.6764 -0.4823
vn -0.3982 0.6764 -0.6196
vn -0.3982 -0.6764 -0.6196
vn -0.2075 0.6764 -0.7067
vn -0.2075 -0.6764 -0.7067
vn -0.0000 -0.4899 -0.8718
vn -0.0000 0.8322 -0.5545
vn 0.1562 0.8322 -0.5320
vn 0.2456 -0.4899 -0.8364
vn 0.2998 0.8322 -0.4665
vn 0.4713 -0.4899 -0.7334
vn 0.4191 0.8322 -0.3631
vn 0.6588 -0.4899 -0.5709
vn 0.5044 0.8322 -0.2303
vn 0.7930 -0.4899 -0.3621
vn 0.5488 0.8322 -0.0789
vn 0.8629 -0.4899 -0.1241
vn 0.5488 0.8322 0.0789
vn 0.8629 -0.4899 0.1241
vn 0.5044 0.8322 0.2303
vn 0.7930 -0.4899 0.3621
vn 0.4191 0.8322 0.3631
vn 0.6588 -0.4899 0.5709
vn 0.2998 0.8322 0.4665
vn 0.4713 -0.4899 0.7334
vn 0.1562 0.8322 0.5320
vn 0.2456 -0.4899 0.8364
vn -0.0000 0.8322 0.5545
vn -0.0000 -0.4899 0.8718
vn -0.1562 0.8322 0.5320
vn -0.2456 -0.4899 0.8364
vn -0.2998 0.8322 0.4665
vn -0.4713 -0.4899 0.7334
vn -0.4191 0.8322 0.3631
vn -0.6588 -0.4899 0.5709
vn -0.5044 0.8322 0.2303
vn -0.7930 -0.4899 0.3621
vn -0.5488 0.8322 0.0789
vn -0.8629 -0.4899 0.1241
vn -0.5488 0.8322 -0.0789
vn -0.8629 -0.4899 -0.1241
vn -0.5044 0.8322 -0.2303
vn -0.7930 -0.4899 -0.3621
vn -0.4191 0.8322 -0.3631
vn -0.6588 -0.4899 -0.5709
vn -0.2998 0.8322 -0.4665
vn -0.4713 -0.4899 -0.7334
vn -0.1562 0.8322 -0.5320
vn -0.2456 -0.4899 -0.8364
vn -0.0000 -0.5696 -0.8219
vn -0.0000 0.7727 -0.6348
vn 0.1788 0.7727 -0.6091
vn 0.2316 -0.5696 -0.7887
vn 0.3432 0.7727 -0.5340
vn 0.4444 -0.5696 -0.6915
vn 0.4797 0.7727 -0.4157
vn 0.6212 -0.5696 -0.5383
vn 0.5774 0.7727 -0.2637
vn 0.7477 -0.5696 -0.3414
vn 0.6283 0.7727 -0.0903
vn 0.8136 -0.5696 -0.1170
vn 0.6283 0.7727 0.0903
vn 0.8136 -0.5696 0.1170
vn 0.5774 0.7727 0.2637
vn 0.7477 -0.5696 0.3414
vn 0.4797 0.7727 0.4157
vn 0.6212 -0.5696 0.5383
vn 0.3432 0.7727 0.5340
vn 0.4444 -0.5696 0.6915
vn 0.1788 0.7727 0.6091
vn 0.2316 -0.5696 0.7887
vn -0.0000 0.7727 0.6348
vn -0.0000 -0.5696 0.8219
vn -0.1788 0.7727 0.6091
vn -0.2316 -0.5696 0.7887
vn -0.3432 0.7727 0.5340
vn -0.4444 -0.5696 0.6915
vn -0.4797 0.7727 0.4157
vn -0.6212 -0.5696 0.5383
vn -0.5774 0.7727 0.2637
vn -0.7477 -0.5696 0.3414
vn -0.6283 0.7727 0.0903
vn -0.8136 -0.5696 0.1170
vn -0.6283 0.7727 -0.0903
vn -0.8136 -0.5696 -0.1170
vn -0.5774 0.7727 -0.2637
vn -0.7477 -0.5696 -0.3414
vn -0.4797 0.7727 -0.4157
vn -0.6212 -0.5696 -0.5383
vn -0.3432 0.7727 -0.5340
vn -0.4444 -0.5696 -0.6915
vn -0.1788 0.7727 -0.6091
vn -0.2316 -0.5696 -0.7887
vn -0.0000 -0.6437 -0.7653
vn -0.0000 0.6437 -0.7653
vn 0.4498 0.6437 -0.6191
vn 0.4498 -0.6437 -0.6191
vn 0.7278 0.6437 -0.2365
vn 0.7278 -0.6437 -0.2365
vn 0.7278 0.6437 0.2365
vn 0.7278 -0.6437 0.2365
vn 0.4498 0.6437 0.6191
vn 0.4498 -0.6437 0.6191
vn -0.0000 0.6437 0.7653
vn -0.0000 -0.6437 0.7653
vn -0.4498 0.6437 0.6191
vn -0.4498 -0.6437 0.6191
vn -0.7278 0.6437 0.2365
vn -0.7278 -0.6437 0.2365
vn -0.7278 0.6437 -0.2365
vn -0.7278 -0.6437 -0.2365
vn -0.4498 0.6437 -0.6191
vn -0.4498 -0.6437 -0.6191
vn -0.0000 0.7462 -0.6657
vn -0.0000 0.7462 0.6657
vn 0.2856 0.6894 0.6657
vn 0.2856 0.6894 -0.6657
vn 0.5276 0.5276 0.6657
vn 0.5276 0.5276 -0.6657
vn 0.6894 0.2856 0.6657
vn 0.6894 0.2856 -0.6657
vn 0.7462 -0.0000 0.6657
vn 0.7462 -0.0000 -0.6657
vn 0.6894 -0.2856 0.6657
vn 0.6894 -0.2856 -0.6657
vn 0.5276 -0.5276 0.6657
vn 0.5276 -0.5276 -0.6657
vn 0.2856 -0.6894 0.6657
vn 0.2856 -0.6894 -0.6657
vn -0.0000 -0.7462 0.6657
vn -0.0000 -0.7462 -0.6657
vn -0.2856 -0.6894 0.6657
vn -0.2856 -0.6894 -0.6657
vn -0.5276 -0.5276 0.6657
vn -0.5276 -0.5276 -0.6657
vn -0.6894 -0.2856 0.6657
vn -0.6894 -0.2856 -0.6657
vn -0.7462 -0.0000 0.6657
vn -0.7462 -0.0000 -0.6657
vn -0.6894 0.2856 0.6657
vn -0.6894 0.2856 -0.6657
vn -0.5276 0.5276 0.6657
vn -0.5276 0.5276 -0.6657
vn -0.2856 0.6894 0.6657
vn -0.2856 0.6894 -0.6657
vn -0.0000 -0.0000 -1.0000
vn -0.0000 -0.0000 1.0000
vn 0.0462 0.9989 -0.0000
vn -0.9015 -0.4327 -0.0000
vn -0.7456 -0.6664 -0.0000
vn 1.0000 -0.0000 -0.0000
vn -1.0000 -0.0000 -0.0000
vn -0.0000 0.9989 -0.0462
vn -0.0000 -0.4327 0.9015
vn -0.0000 -0.6664 0.7456
vn -0.0462 0.9989 -0.0000
vn 0.9015 -0.4327 -0.0000
vn 0.7456 -0.6664 -0.0000
vn -0.0000 0.9989 0.0462
vn -0.0000 -0.4327 -0.9015
vn -0.0000 -0.6664 -0.7456
vt 0.250724 0.491966
vt 0.250724 0.435761
vt 0.252172 0.435723
vt 0.252172 0.491928
vt 0.249276 0.370942
vt 0.249276 0.314720
vt 0.250724 0.314754
vt 0.250724 0.370977
vt 0.252172 0.314720
vt 0.252172 0.370942
vt 0.250389 0.558342
vt 0.250389 0.502137
vt 0.251837 0.502175
vt 0.251837 0.558379
vt 0.253285 0.502137
vt 0.253285 0.558342
vt 0.249276 0.431444
vt 0.249276 0.375222
vt 0.250724 0.375256
vt 0.250724 0.431479
vt 0.429857 0.629938
vt 0.428289 0.629938
vt 0.427181 0.628830
vt 0.427181 0.627262
vt 0.428289 0.626154
vt 0.429857 0.626154
vt 0.430965 0.627262
vt 0.430965 0.628830
vt 0.252172 0.375222
vt 0.252172 0.431444
vt 0.249276 0.491928
vt 0.249276 0.435723
vt 0.428289 0.637967
vt 0.427181 0.636858
vt 0.427181 0.635291
vt 0.428289 0.634183
vt 0.429857 0.634183
vt 0.430965 0.635291
vt 0.430965 0.636858
vt 0.429857 0.637967
vt 0.901210 0.919297
vt 0.901210 0.838822
vt 0.918451 0.838606
vt 0.918451 0.919081
vt 0.933067 0.837990
vt 0.933067 0.918465
vt 0.902858 0.254281
vt 0.902858 0.173781
vt 0.917474 0.174345
vt 0.917474 0.254845
vt 0.934716 0.174543
vt 0.934716 0.255043
vt 0.951957 0.174345
vt 0.951957 0.254845
vt 0.966573 0.173781
vt 0.966573 0.254281
vt 0.888812 0.582315
vt 0.888812 0.501841
vt 0.903428 0.502457
vt 0.903428 0.582931
vt 0.920669 0.502673
vt 0.920669 0.583148
vt 0.937910 0.502457
vt 0.937910 0.582931
vt 0.952526 0.501841
vt 0.952526 0.582315
vt 0.362718 0.986048
vt 0.362718 0.905548
vt 0.377334 0.906112
vt 0.377334 0.986612
vt 0.394576 0.906310
vt 0.394576 0.986810
vt 0.411817 0.906112
vt 0.411817 0.986612
vt 0.426433 0.905548
vt 0.426433 0.986048
vt 0.104450 0.883809
vt 0.097723 0.867568
vt 0.097723 0.849989
vt 0.104450 0.833748
vt 0.116880 0.821318
vt 0.133121 0.814591
vt 0.150700 0.814591
vt 0.166941 0.821318
vt 0.179371 0.833748
vt 0.186098 0.849989
vt 0.186098 0.867568
vt 0.179371 0.883809
vt 0.166941 0.896239
vt 0.150700 0.902966
vt 0.133121 0.902966
vt 0.116880 0.896239
vt 0.869352 0.918465
vt 0.869352 0.837990
vt 0.883968 0.838606
vt 0.883968 0.919081
vt 0.437620 0.868015
vt 0.437620 0.850436
vt 0.444348 0.834195
vt 0.456778 0.821765
vt 0.473019 0.815038
vt 0.490597 0.815038
vt 0.506838 0.821765
vt 0.519268 0.834195
vt 0.525995 0.850436
vt 0.525995 0.868015
vt 0.519268 0.884256
vt 0.506838 0.896686
vt 0.490597 0.903413
vt 0.473019 0.903413
vt 0.456778 0.896686
vt 0.444348 0.884256
vt 0.573320 0.240640
vt 0.482870 0.240640
vt 0.482686 0.220332
vt 0.573094 0.215716
vt 0.482149 0.201668
vt 0.572434 0.192811
vt 0.481301 0.186162
vt 0.571394 0.173781
vt 0.844682 0.923690
vt 0.754522 0.912961
vt 0.755163 0.895701
vt 0.845468 0.902506
vt 0.755497 0.876014
vt 0.845878 0.878346
vt 0.755497 0.855497
vt 0.845878 0.853165
vt 0.755163 0.835810
vt 0.845468 0.829004
vt 0.754522 0.818550
vt 0.844682 0.807821
vt 0.667657 0.307500
vt 0.577565 0.295119
vt 0.578412 0.279613
vt 0.668697 0.288470
vt 0.578950 0.260949
vt 0.669357 0.265565
vt 0.579134 0.240640
vt 0.669583 0.240640
vt 0.578950 0.220332
vt 0.669357 0.215716
vt 0.578412 0.201668
vt 0.668697 0.192811
vt 0.577565 0.186162
vt 0.667657 0.173781
vt 0.092282 0.930460
vt 0.002122 0.919731
vt 0.002763 0.902471
vt 0.093068 0.909277
vt 0.003097 0.882784
vt 0.093478 0.885116
vt 0.003097 0.862267
vt 0.093478 0.859935
vt 0.002763 0.842580
vt 0.093068 0.835775
vt 0.002122 0.825320
vt 0.092282 0.814591
vt 0.571394 0.307500
vt 0.481301 0.295119
vt 0.482149 0.279613
vt 0.572434 0.288470
vt 0.624448 0.769583
vt 0.613355 0.752322
vt 0.607575 0.732636
vt 0.607575 0.712118
vt 0.613355 0.692432
vt 0.624448 0.675171
vt 0.639954 0.661735
vt 0.658617 0.653212
vt 0.678926 0.650292
vt 0.699235 0.653212
vt 0.717898 0.661735
vt 0.733404 0.675171
vt 0.744497 0.692432
vt 0.750278 0.712118
vt 0.750278 0.732636
vt 0.744497 0.752322
vt 0.733405 0.769583
vt 0.717898 0.783019
vt 0.699235 0.791542
vt 0.678926 0.794462
vt 0.658617 0.791542
vt 0.639954 0.783019
vt 0.482686 0.260949
vt 0.573094 0.265565
vt 0.258240 0.415201
vt 0.258240 0.390020
vt 0.265335 0.365860
vt 0.278948 0.344677
vt 0.297979 0.328187
vt 0.320884 0.317726
vt 0.345808 0.314143
vt 0.370732 0.317726
vt 0.393638 0.328187
vt 0.412668 0.344677
vt 0.426282 0.365860
vt 0.433376 0.390020
vt 0.433376 0.415201
vt 0.426282 0.439362
vt 0.412668 0.460545
vt 0.393638 0.477035
vt 0.370732 0.487495
vt 0.345808 0.491079
vt 0.320884 0.487495
vt 0.297979 0.477035
vt 0.278948 0.460545
vt 0.265335 0.439362
vt 0.064030 0.310475
vt 0.064030 0.003906
vt 0.087108 0.003696
vt 0.087108 0.310266
vt 0.108316 0.003085
vt 0.108316 0.309655
vt 0.125937 0.002122
vt 0.125937 0.308692
vt 0.258240 0.308791
vt 0.258240 0.002122
vt 0.277855 0.002850
vt 0.277855 0.309519
vt 0.300226 0.003230
vt 0.300226 0.309898
vt 0.323541 0.003230
vt 0.323541 0.309898
vt 0.345912 0.002850
vt 0.345912 0.309519
vt 0.365526 0.002122
vt 0.365526 0.308791
vt 0.130181 0.308692
vt 0.130181 0.002122
vt 0.147802 0.003085
vt 0.147802 0.309655
vt 0.169010 0.003696
vt 0.169010 0.310266
vt 0.192089 0.003906
vt 0.192089 0.310475
vt 0.215167 0.003696
vt 0.215167 0.310266
vt 0.236375 0.003085
vt 0.236375 0.309655
vt 0.253996 0.002122
vt 0.253996 0.308692
vt 0.369771 0.308791
vt 0.369771 0.002122
vt 0.389385 0.002850
vt 0.389385 0.309519
vt 0.411756 0.003230
vt 0.411756 0.309898
vt 0.435071 0.003230
vt 0.435071 0.309898
vt 0.457442 0.002850
vt 0.457442 0.309519
vt 0.477057 0.002122
vt 0.477057 0.308791
vt 0.002122 0.308692
vt 0.002122 0.002122
vt 0.019743 0.003085
vt 0.019743 0.309655
vt 0.626749 0.449701
vt 0.614143 0.430086
vt 0.607575 0.407715
vt 0.607575 0.384400
vt 0.614143 0.362029
vt 0.626749 0.342415
vt 0.644369 0.327146
vt 0.665578 0.317461
vt 0.688656 0.314143
vt 0.711734 0.317461
vt 0.732942 0.327146
vt 0.750563 0.342415
vt 0.763168 0.362029
vt 0.769737 0.384400
vt 0.769737 0.407715
vt 0.763168 0.430086
vt 0.750563 0.449700
vt 0.732942 0.464969
vt 0.711734 0.474654
vt 0.688656 0.477973
vt 0.665578 0.474654
vt 0.644369 0.464969
vt 0.040951 0.003696
vt 0.040951 0.310266
vt 0.614143 0.598161
vt 0.607575 0.575790
vt 0.607575 0.552474
vt 0.614143 0.530104
vt 0.626749 0.510489
vt 0.644369 0.495221
vt 0.665578 0.485535
vt 0.688656 0.482217
vt 0.711734 0.485535
vt 0.732942 0.495221
vt 0.750563 0.510489
vt 0.763168 0.530103
vt 0.769737 0.552474
vt 0.769737 0.575790
vt 0.763168 0.598161
vt 0.750563 0.617775
vt 0.732942 0.633043
vt 0.711734 0.642729
vt 0.688656 0.646047
vt 0.665578 0.642729
vt 0.644369 0.633043
vt 0.626749 0.617775
vt 0.602174 0.720721
vt 0.554273 0.720721
vt 0.554059 0.697138
vt 0.601960 0.697138
vt 0.553434 0.675465
vt 0.601336 0.675465
vt 0.552450 0.657459
vt 0.600352 0.657459
vt 0.238260 0.924224
vt 0.190343 0.924224
vt 0.191086 0.904181
vt 0.239003 0.904181
vt 0.191474 0.881320
vt 0.239391 0.881320
vt 0.191474 0.857495
vt 0.239391 0.857495
vt 0.191086 0.834634
vt 0.239003 0.834634
vt 0.190343 0.814591
vt 0.238260 0.814591
vt 0.600352 0.914750
vt 0.552450 0.914750
vt 0.553434 0.896743
vt 0.601336 0.896743
vt 0.554059 0.875071
vt 0.601960 0.875071
vt 0.554273 0.851488
vt 0.602174 0.851488
vt 0.554059 0.827905
vt 0.601960 0.827905
vt 0.553434 0.806233
vt 0.601336 0.806233
vt 0.552450 0.788227
vt 0.600352 0.788227
vt 0.306157 0.933170
vt 0.258240 0.933170
vt 0.258984 0.913126
vt 0.306901 0.913126
vt 0.259372 0.890266
vt 0.307289 0.890266
vt 0.259372 0.866440
vt 0.307289 0.866440
vt 0.258984 0.843580
vt 0.306901 0.843580
vt 0.258240 0.823537
vt 0.306157 0.823537
vt 0.600352 0.783982
vt 0.552450 0.783982
vt 0.553434 0.765976
vt 0.601336 0.765976
vt 0.039722 0.468845
vt 0.021716 0.453243
vt 0.008835 0.433200
vt 0.002122 0.410339
vt 0.002122 0.386514
vt 0.008835 0.363653
vt 0.021716 0.343610
vt 0.039722 0.328008
vt 0.061394 0.318110
vt 0.084977 0.314720
vt 0.108560 0.318110
vt 0.130232 0.328008
vt 0.148239 0.343610
vt 0.161120 0.363653
vt 0.167832 0.386514
vt 0.167832 0.410339
vt 0.161120 0.433200
vt 0.148239 0.453243
vt 0.130232 0.468845
vt 0.108560 0.478743
vt 0.084977 0.482133
vt 0.061394 0.478743
vt 0.554059 0.744304
vt 0.601960 0.744304
vt 0.457214 0.452666
vt 0.444333 0.432623
vt 0.437620 0.409762
vt 0.437620 0.385937
vt 0.444333 0.363076
vt 0.457214 0.343033
vt 0.475220 0.327431
vt 0.496892 0.317533
vt 0.520475 0.314143
vt 0.544058 0.317533
vt 0.565731 0.327431
vt 0.583737 0.343033
vt 0.596618 0.363076
vt 0.603330 0.385937
vt 0.603330 0.409762
vt 0.596618 0.432623
vt 0.583737 0.452666
vt 0.565731 0.468268
vt 0.544058 0.478166
vt 0.520475 0.481556
vt 0.496892 0.478166
vt 0.475220 0.468268
vt 0.246144 0.565012
vt 0.232093 0.565012
vt 0.231881 0.541573
vt 0.245932 0.541573
vt 0.231260 0.520033
vt 0.245311 0.520033
vt 0.230282 0.502137
vt 0.244333 0.502137
vt 0.544296 0.924000
vt 0.530240 0.924000
vt 0.530980 0.904079
vt 0.545035 0.904079
vt 0.531365 0.881359
vt 0.545420 0.881359
vt 0.531365 0.857679
vt 0.545420 0.857679
vt 0.530980 0.834959
vt 0.545035 0.834959
vt 0.530240 0.815038
vt 0.544296 0.815038
vt 0.245833 0.782761
vt 0.231782 0.782761
vt 0.232760 0.764865
vt 0.246811 0.764865
vt 0.233381 0.743326
vt 0.247432 0.743326
vt 0.233593 0.719887
vt 0.247644 0.719887
vt 0.233381 0.696448
vt 0.247432 0.696448
vt 0.232760 0.674908
vt 0.246811 0.674908
vt 0.231782 0.657012
vt 0.245833 0.657012
vt 0.971846 0.759254
vt 0.957791 0.759254
vt 0.958530 0.739333
vt 0.972585 0.739333
vt 0.958915 0.716613
vt 0.972971 0.716613
vt 0.958915 0.692933
vt 0.972971 0.692933
vt 0.958530 0.670212
vt 0.972585 0.670212
vt 0.957791 0.650292
vt 0.971846 0.650292
vt 0.244333 0.627886
vt 0.230282 0.627886
vt 0.231260 0.609990
vt 0.245311 0.609990
vt 0.008794 0.604133
vt 0.002122 0.581413
vt 0.002122 0.557733
vt 0.008794 0.535012
vt 0.021596 0.515092
vt 0.039492 0.499585
vt 0.061032 0.489748
vt 0.084470 0.486378
vt 0.107909 0.489748
vt 0.129449 0.499585
vt 0.147345 0.515092
vt 0.160147 0.535012
vt 0.166818 0.557733
vt 0.166818 0.581413
vt 0.160147 0.604133
vt 0.147345 0.624054
vt 0.129449 0.639561
vt 0.107909 0.649398
vt 0.084470 0.652768
vt 0.061032 0.649398
vt 0.039492 0.639561
vt 0.021596 0.624054
vt 0.231881 0.588450
vt 0.245932 0.588450
vt 0.258240 0.590358
vt 0.258240 0.566679
vt 0.264912 0.543958
vt 0.277714 0.524037
vt 0.295610 0.508530
vt 0.317150 0.498694
vt 0.340588 0.495324
vt 0.364027 0.498694
vt 0.385567 0.508530
vt 0.403463 0.524037
vt 0.416265 0.543958
vt 0.422937 0.566679
vt 0.422937 0.590358
vt 0.416265 0.613079
vt 0.403463 0.633000
vt 0.385567 0.648506
vt 0.364027 0.658343
vt 0.340588 0.661713
vt 0.317150 0.658343
vt 0.295610 0.648506
vt 0.277714 0.633000
vt 0.264912 0.613079
vt 0.226037 0.564044
vt 0.173289 0.564044
vt 0.173147 0.548351
vt 0.225828 0.540966
vt 0.172731 0.533930
vt 0.225217 0.519758
vt 0.172077 0.521948
vt 0.224254 0.502137
vt 0.425326 0.901303
vt 0.373070 0.884137
vt 0.373565 0.870799
vt 0.426054 0.881689
vt 0.373823 0.855587
vt 0.426433 0.859318
vt 0.373823 0.839733
vt 0.426433 0.836002
vt 0.373565 0.824520
vt 0.426054 0.813631
vt 0.373070 0.811183
vt 0.425326 0.794017
vt 0.425248 0.789772
vt 0.373070 0.769962
vt 0.373725 0.757980
vt 0.426211 0.772152
vt 0.374141 0.743558
vt 0.426822 0.750943
vt 0.374283 0.727865
vt 0.427031 0.727865
vt 0.374141 0.712172
vt 0.426822 0.704787
vt 0.373725 0.697750
vt 0.426211 0.683579
vt 0.373070 0.685768
vt 0.425248 0.665958
vt 0.737029 0.905992
vt 0.684774 0.888827
vt 0.685269 0.875489
vt 0.737757 0.886378
vt 0.685527 0.860277
vt 0.738136 0.864007
vt 0.685527 0.844422
vt 0.738137 0.840692
vt 0.685269 0.829210
vt 0.737757 0.818321
vt 0.684774 0.815872
vt 0.737029 0.798707
vt 0.224254 0.625952
vt 0.172077 0.606141
vt 0.172731 0.594159
vt 0.225217 0.608331
vt 0.686866 0.265960
vt 0.678295 0.252622
vt 0.673828 0.237410
vt 0.673828 0.221556
vt 0.678295 0.206343
vt 0.686866 0.193006
vt 0.698848 0.182623
vt 0.713270 0.176037
vt 0.728963 0.173781
vt 0.744656 0.176037
vt 0.759078 0.182623
vt 0.771060 0.193006
vt 0.779632 0.206343
vt 0.784098 0.221556
vt 0.784098 0.237410
vt 0.779632 0.252622
vt 0.771060 0.265960
vt 0.759078 0.276342
vt 0.744656 0.282929
vt 0.728963 0.285185
vt 0.713270 0.282929
vt 0.698848 0.276342
vt 0.173147 0.579738
vt 0.225828 0.587123
vt 0.657824 0.118066
vt 0.651256 0.095695
vt 0.651256 0.072380
vt 0.657824 0.050009
vt 0.670430 0.030394
vt 0.688050 0.015126
vt 0.709259 0.005440
vt 0.732337 0.002122
vt 0.755415 0.005440
vt 0.776623 0.015126
vt 0.794244 0.030394
vt 0.806849 0.050009
vt 0.813418 0.072380
vt 0.813418 0.095695
vt 0.806849 0.118066
vt 0.794244 0.137680
vt 0.776623 0.152949
vt 0.755415 0.162634
vt 0.732337 0.165952
vt 0.709259 0.162634
vt 0.688050 0.152949
vt 0.670430 0.137680
vt 0.911449 0.833745
vt 0.911449 0.650381
vt 0.912603 0.650370
vt 0.927142 0.833603
vt 0.913663 0.650340
vt 0.941564 0.833188
vt 0.914544 0.650292
vt 0.953546 0.832533
vt 0.172077 0.497140
vt 0.205872 0.314720
vt 0.206852 0.314756
vt 0.185414 0.497635
vt 0.207971 0.314775
vt 0.200627 0.497893
vt 0.209137 0.314775
vt 0.216481 0.497893
vt 0.210255 0.314756
vt 0.231693 0.497635
vt 0.211236 0.314720
vt 0.245031 0.497140
vt 0.888812 0.496384
vt 0.927813 0.314143
vt 0.928694 0.314191
vt 0.900794 0.497039
vt 0.929755 0.314221
vt 0.915215 0.497454
vt 0.930909 0.314232
vt 0.930909 0.497596
vt 0.932062 0.314221
vt 0.946602 0.497454
vt 0.933123 0.314191
vt 0.961023 0.497039
vt 0.934004 0.314143
vt 0.973005 0.496384
vt 0.607575 0.981127
vt 0.641370 0.798707
vt 0.642350 0.798743
vt 0.620912 0.981622
vt 0.643469 0.798762
vt 0.636125 0.981880
vt 0.644635 0.798762
vt 0.651979 0.981880
vt 0.645753 0.798743
vt 0.667191 0.981622
vt 0.646734 0.798707
vt 0.680529 0.981127
vt 0.869352 0.832533
vt 0.908354 0.650292
vt 0.909235 0.650340
vt 0.881334 0.833188
vt 0.687429 0.295227
vt 0.687100 0.294108
vt 0.687100 0.292942
vt 0.687429 0.291824
vt 0.688059 0.290843
vt 0.688940 0.290080
vt 0.690001 0.289596
vt 0.691155 0.289430
vt 0.692308 0.289596
vt 0.693369 0.290080
vt 0.694250 0.290843
vt 0.694880 0.291824
vt 0.695209 0.292942
vt 0.695209 0.294108
vt 0.694880 0.295227
vt 0.694250 0.296207
vt 0.693369 0.296971
vt 0.692308 0.297455
vt 0.691155 0.297621
vt 0.690001 0.297455
vt 0.688940 0.296971
vt 0.688059 0.296207
vt 0.910295 0.650370
vt 0.895756 0.833603
vt 0.792810 0.252622
vt 0.788343 0.237410
vt 0.788343 0.221556
vt 0.792810 0.206343
vt 0.801381 0.193006
vt 0.813363 0.182623
vt 0.827785 0.176037
vt 0.843478 0.173781
vt 0.859171 0.176037
vt 0.873593 0.182623
vt 0.885575 0.193006
vt 0.894147 0.206343
vt 0.898613 0.221556
vt 0.898613 0.237410
vt 0.894147 0.252622
vt 0.885575 0.265960
vt 0.873593 0.276342
vt 0.859171 0.282929
vt 0.843478 0.285185
vt 0.827785 0.282929
vt 0.813363 0.276342
vt 0.801381 0.265960
vt 0.248146 0.641165
vt 0.248146 0.632223
vt 0.252660 0.632131
vt 0.252660 0.641073
vt 0.218725 0.642622
vt 0.209781 0.642622
vt 0.209942 0.638782
vt 0.218886 0.638782
vt 0.209942 0.634036
vt 0.218886 0.634036
vt 0.209781 0.630196
vt 0.218725 0.630196
vt 0.673828 0.298371
vt 0.673828 0.289430
vt 0.678342 0.289522
vt 0.678342 0.298464
vt 0.682856 0.289430
vt 0.682856 0.298371
vt 0.239226 0.644557
vt 0.230282 0.644557
vt 0.230443 0.640717
vt 0.239388 0.640717
vt 0.230443 0.635971
vt 0.239388 0.635971
vt 0.183894 0.644089
vt 0.179380 0.645555
vt 0.174866 0.644089
vt 0.172077 0.640249
vt 0.172077 0.635503
vt 0.174866 0.631663
vt 0.179380 0.630196
vt 0.183894 0.631663
vt 0.186684 0.635503
vt 0.186684 0.640249
vt 0.230282 0.632131
vt 0.239226 0.632131
vt 0.243632 0.641073
vt 0.243632 0.632131
vt 0.198232 0.645555
vt 0.193718 0.644089
vt 0.190929 0.640249
vt 0.190929 0.635503
vt 0.193718 0.631663
vt 0.198232 0.630196
vt 0.202746 0.631663
vt 0.205536 0.635503
vt 0.205536 0.640249
vt 0.202746 0.644089
vt 0.433325 0.515017
vt 0.427181 0.515017
vt 0.427181 0.504359
vt 0.433325 0.504359
vt 0.427181 0.495324
vt 0.433325 0.495324
vt 0.427181 0.582588
vt 0.433325 0.582588
vt 0.433325 0.591957
vt 0.427181 0.591957
vt 0.433325 0.602720
vt 0.427181 0.602720
vt 0.433325 0.613238
vt 0.427181 0.613238
vt 0.433325 0.621909
vt 0.427181 0.621909
vt 0.433325 0.578343
vt 0.427181 0.578343
vt 0.427181 0.569308
vt 0.433325 0.569308
vt 0.427181 0.558649
vt 0.433325 0.558649
vt 0.427181 0.547991
vt 0.433325 0.547991
vt 0.427181 0.538956
vt 0.433325 0.538956
vt 0.748525 0.838028
vt 0.742381 0.838028
vt 0.742381 0.829356
vt 0.748525 0.829356
vt 0.742381 0.818839
vt 0.748525 0.818839
vt 0.742381 0.808076
vt 0.748525 0.808076
vt 0.742381 0.798707
vt 0.748525 0.798707
vt 0.148099 0.919074
vt 0.152250 0.929117
vt 0.152250 0.939983
vt 0.148099 0.950019
vt 0.140430 0.957696
vt 0.130410 0.961847
vt 0.119563 0.961839
vt 0.109543 0.957673
vt 0.101874 0.949983
vt 0.097723 0.939941
vt 0.097723 0.929075
vt 0.101873 0.919039
vt 0.109543 0.911362
vt 0.119563 0.907211
vt 0.130409 0.907219
vt 0.140430 0.911385
vt 0.433325 0.534711
vt 0.427181 0.534711
vt 0.427181 0.525675
vt 0.433325 0.525675
vt 0.943339 0.609298
vt 0.943339 0.620164
vt 0.939188 0.630200
vt 0.931519 0.637878
vt 0.921498 0.642028
vt 0.910652 0.642020
vt 0.900632 0.637854
vt 0.892962 0.630165
vt 0.888812 0.620123
vt 0.888812 0.609257
vt 0.892962 0.599221
vt 0.900632 0.591543
vt 0.910652 0.587392
vt 0.921498 0.587401
vt 0.931519 0.591567
vt 0.939188 0.599256
vt 0.368626 0.837438
vt 0.361971 0.837438
vt 0.361971 0.829915
vt 0.368626 0.829915
vt 0.361971 0.823537
vt 0.368626 0.823537
vt 0.742381 0.874321
vt 0.749037 0.874321
vt 0.749037 0.880934
vt 0.742381 0.880934
vt 0.749037 0.888531
vt 0.742381 0.888531
vt 0.749037 0.895956
vt 0.742381 0.895956
vt 0.749037 0.902077
vt 0.742381 0.902077
vt 0.749037 0.870076
vt 0.742381 0.870076
vt 0.742381 0.863698
vt 0.749037 0.863698
vt 0.742381 0.856174
vt 0.749037 0.856174
vt 0.742381 0.848651
vt 0.749037 0.848651
vt 0.742381 0.842273
vt 0.749037 0.842273
vt 0.368627 0.883341
vt 0.361971 0.883341
vt 0.361971 0.877220
vt 0.368627 0.877220
vt 0.361971 0.869795
vt 0.368627 0.869795
vt 0.361971 0.862198
vt 0.368627 0.862198
vt 0.361971 0.855584
vt 0.368627 0.855584
vt 0.938418 0.267662
vt 0.941348 0.274751
vt 0.941348 0.282421
vt 0.938418 0.289505
vt 0.933004 0.294925
vt 0.925931 0.297854
vt 0.918275 0.297849
vt 0.911202 0.294908
vt 0.905788 0.289480
vt 0.902858 0.282392
vt 0.902858 0.274721
vt 0.905788 0.267637
vt 0.911202 0.262218
vt 0.918275 0.259288
vt 0.925931 0.259294
vt 0.933004 0.262234
vt 0.368626 0.851340
vt 0.361971 0.851340
vt 0.361971 0.844962
vt 0.368626 0.844962
vt 0.476110 0.923103
vt 0.476116 0.930773
vt 0.473192 0.937860
vt 0.467782 0.943283
vt 0.460711 0.946219
vt 0.453055 0.946219
vt 0.445979 0.943283
vt 0.440562 0.937860
vt 0.437626 0.930773
vt 0.437620 0.923103
vt 0.440545 0.916017
vt 0.445954 0.910593
vt 0.453026 0.907658
vt 0.460682 0.907658
vt 0.467757 0.910593
vt 0.473175 0.916017
vt 0.773982 0.314143
vt 0.853603 0.403048
vt 0.884567 0.467427
vt 0.773982 0.462318
vt 0.884567 0.619847
vt 0.773982 0.624957
vt 0.804946 0.560577
vt 0.884567 0.471672
vt 0.982930 0.112708
vt 0.982930 0.002122
vt 0.991121 0.002122
vt 0.991121 0.112708
vt 0.977215 0.797240
vt 0.977215 0.734627
vt 0.985407 0.734627
vt 0.985407 0.797240
vt 0.977215 0.650292
vt 0.985407 0.650292
vt 0.858314 0.807821
vt 0.858314 0.956044
vt 0.850123 0.956044
vt 0.850123 0.807821
vt 0.002122 0.657012
vt 0.081744 0.745946
vt 0.112708 0.810347
vt 0.002122 0.805235
vt 0.548206 0.805682
vt 0.437620 0.810794
vt 0.468584 0.746393
vt 0.548206 0.657459
vt 0.997843 0.650292
vt 0.997843 0.760877
vt 0.989652 0.760877
vt 0.989652 0.650292
vt 0.977250 0.460452
vt 0.977250 0.398026
vt 0.985442 0.398026
vt 0.985442 0.460452
vt 0.977250 0.314143
vt 0.985442 0.314143
vt 0.357726 0.823537
vt 0.357726 0.971712
vt 0.349535 0.971712
vt 0.349535 0.823537
vt 0.754522 0.650292
vt 0.834144 0.739197
vt 0.865107 0.803576
vt 0.754522 0.798467
vt 0.928248 0.150298
vt 0.817663 0.155407
vt 0.848626 0.091027
vt 0.928248 0.002122
vt 0.987069 0.948575
vt 0.987069 0.837990
vt 0.995260 0.837990
vt 0.995260 0.948575
vt 0.974633 0.984938
vt 0.974633 0.922326
vt 0.982824 0.922326
vt 0.982824 0.984938
vt 0.974633 0.837990
vt 0.982824 0.837990
vt 0.251827 0.814591
vt 0.251827 0.962814
vt 0.243636 0.962814
vt 0.243636 0.814591
vt 0.116952 0.657012
vt 0.196574 0.745946
vt 0.227537 0.810347
vt 0.116952 0.805235
vt 0.368826 0.814181
vt 0.258240 0.819292
vt 0.289204 0.754892
vt 0.368826 0.665958
vt 0.989686 0.274174
vt 0.989686 0.163588
vt 0.997878 0.163588
vt 0.997878 0.274174
vt 0.977250 0.309898
vt 0.977250 0.247471
vt 0.985442 0.247471
vt 0.985442 0.309898
vt 0.977250 0.163588
vt 0.985442 0.163588
vt 0.978685 0.002122
vt 0.978685 0.150298
vt 0.970494 0.150298
vt 0.970494 0.002122
vt 0.345290 0.886798
vt 0.313356 0.886798
vt 0.313142 0.863215
vt 0.345076 0.863215
vt 0.312518 0.841543
vt 0.344452 0.841543
vt 0.311534 0.823537
vt 0.343468 0.823537
vt 0.969256 0.947623
vt 0.937312 0.947623
vt 0.938056 0.927579
vt 0.970000 0.927579
vt 0.938443 0.904719
vt 0.970388 0.904719
vt 0.938443 0.880894
vt 0.970388 0.880894
vt 0.938056 0.858033
vt 0.970000 0.858033
vt 0.937312 0.837990
vt 0.969256 0.837990
vt 0.964427 0.128645
vt 0.932492 0.128645
vt 0.933476 0.110639
vt 0.965411 0.110639
vt 0.934101 0.088967
vt 0.966035 0.088967
vt 0.934315 0.065384
vt 0.966249 0.065384
vt 0.934101 0.041801
vt 0.966035 0.041801
vt 0.933476 0.020128
vt 0.965411 0.020128
vt 0.932492 0.002122
vt 0.964427 0.002122
vt 0.988716 0.611474
vt 0.956771 0.611474
vt 0.957515 0.591430
vt 0.989460 0.591430
vt 0.957903 0.568570
vt 0.989847 0.568570
vt 0.957903 0.544745
vt 0.989847 0.544745
vt 0.957515 0.521884
vt 0.989460 0.521884
vt 0.956771 0.501841
vt 0.988716 0.501841
vt 0.343468 0.950060
vt 0.311534 0.950060
vt 0.312518 0.932054
vt 0.344452 0.932054
vt 0.518901 0.156248
vt 0.500895 0.140645
vt 0.488014 0.120602
vt 0.481301 0.097742
vt 0.481301 0.073916
vt 0.488014 0.051056
vt 0.500895 0.031013
vt 0.518901 0.015410
vt 0.540573 0.005513
vt 0.564156 0.002122
vt 0.587739 0.005513
vt 0.609411 0.015410
vt 0.627418 0.031013
vt 0.640298 0.051056
vt 0.647011 0.073916
vt 0.647011 0.097742
vt 0.640299 0.120602
vt 0.627418 0.140645
vt 0.609411 0.156248
vt 0.587739 0.166145
vt 0.564156 0.169536
vt 0.540573 0.166145
vt 0.313142 0.910381
vt 0.345076 0.910381
vt 0.457214 0.624324
vt 0.444333 0.604281
vt 0.437620 0.581421
vt 0.437620 0.557595
vt 0.444333 0.534735
vt 0.457214 0.514692
vt 0.475220 0.499089
vt 0.496892 0.489192
vt 0.520475 0.485801
vt 0.544058 0.489192
vt 0.565731 0.499089
vt 0.583737 0.514692
vt 0.596618 0.534735
vt 0.603330 0.557595
vt 0.603330 0.581421
vt 0.596618 0.604281
vt 0.583737 0.624324
vt 0.565731 0.639926
vt 0.544058 0.649824
vt 0.520475 0.653215
vt 0.496892 0.649824
vt 0.475220 0.639926
s 1
usemtl RocketBaked_4
f 1/1/1 2/2/2 4/3/3 3/4/4
f 3/5/4 4/6/3 6/7/5 5/8/6
f 5/8/6 6/7/5 8/9/7 7/10/8
f 7/11/8 8/12/7 10/13/9 9/14/10
f 9/14/10 10/13/9 12/15/11 11/16/12
f 11/17/12 12/18/11 14/19/13 13/20/14
f 4/21/3 2/22/2 16/23/15 14/24/13 12/25/11 10/26/9 8/27/7 6/28/5
f 13/20/14 14/19/13 16/29/15 15/30/16
f 15/31/16 16/32/15 2/2/2 1/1/1
f 1/33/1 3/34/4 5/35/6 7/36/8 9/37/10 11/38/12 13/39/14 15/40/16
f 17/41/17 18/42/18 20/43/19 19/44/20
f 19/44/20 20/43/19 22/45/21 21/46/22
f 21/47/22 22/48/21 24/49/23 23/50/24
f 23/50/24 24/49/23 26/51/25 25/52/26
f 25/52/26 26/51/25 28/53/27 27/54/28
f 27/54/28 28/53/27 30/55/29 29/56/30
f 29/57/30 30/58/29 32/59/31 31/60/32
f 31/60/32 32/59/31 34/61/33 33/62/34
f 33/62/34 34/61/33 36/63/35 35/64/36
f 35/64/36 36/63/35 38/65/37 37/66/38
f 37/67/38 38/68/37 40/69/39 39/70/40
f 39/70/40 40/69/39 42/71/41 41/72/42
f 41/72/42 42/71/41 44/73/43 43/74/44
f 43/74/44 44/73/43 46/75/45 45/76/46
f 20/77/19 18/78/18 48/79/47 46/80/45 44/81/43 42/82/41 40/83/39 38/84/37 36/85/35 34/86/33 32/87/31 30/88/29 28/89/27 26/90/25 24/91/23 22/92/21
f 45/93/46 46/94/45 48/95/47 47/96/48
f 47/96/48 48/95/47 18/42/18 17/41/17
f 17/97/17 19/98/20 21/99/22 23/100/24 25/101/26 27/102/28 29/103/30 31/104/32 33/105/34 35/106/36 37/107/38 39/108/40 41/109/42 43/110/44 45/111/46 47/112/48
f 49/113/49 50/114/50 52/115/51 51/116/52
f 51/116/52 52/115/51 54/117/53 53/118/54
f 53/118/54 54/117/53 56/119/55 55/120/56
f 55/121/56 56/122/55 58/123/57 57/124/58
f 57/124/58 58/123/57 60/125/59 59/126/60
f 59/126/60 60/125/59 62/127/61 61/128/62
f 61/128/62 62/127/61 64/129/63 63/130/64
f 63/130/64 64/129/63 66/131/65 65/132/66
f 65/133/66 66/134/65 68/135/67 67/136/68
f 67/136/68 68/135/67 70/137/69 69/138/70
f 69/138/70 70/137/69 72/139/71 71/140/72
f 71/140/72 72/139/71 74/141/73 73/142/74
f 73/142/74 74/141/73 76/143/75 75/144/76
f 75/144/76 76/143/75 78/145/77 77/146/78
f 77/147/78 78/148/77 80/149/79 79/150/80
f 79/150/80 80/149/79 82/151/81 81/152/82
f 81/152/82 82/151/81 84/153/83 83/154/84
f 83/154/84 84/153/83 86/155/85 85/156/86
f 85/156/86 86/155/85 88/157/87 87/158/88
f 87/159/88 88/160/87 90/161/89 89/162/90
f 52/163/51 50/164/50 92/165/91 90/166/89 88/167/87 86/168/85 84/169/83 82/170/81 80/171/79 78/172/77 76/173/75 74/174/73 72/175/71 70/176/69 68/177/67 66/178/65 64/179/63 62/180/61 60/181/59 58/182/57 56/183/55 54/184/53
f 89/162/90 90/161/89 92/185/91 91/186/92
f 91/186/92 92/185/91 50/114/50 49/113/49
f 49/187/49 51/188/52 53/189/54 55/190/56 57/191/58 59/192/60 61/193/62 63/194/64 65/195/66 67/196/68 69/197/70 71/198/72 73/199/74 75/200/76 77/201/78 79/202/80 81/203/82 83/204/84 85/205/86 87/206/88 89/207/90 91/208/92
f 93/209/93 94/210/94 96/211/95 95/212/96
f 95/212/96 96/211/95 98/213/97 97/214/98
f 97/214/98 98/213/97 100/215/99 99/216/100
f 99/217/100 100/218/99 102/219/101 101/220/102
f 101/220/102 102/219/101 104/221/103 103/222/104
f 103/222/104 104/221/103 106/223/105 105/224/106
f 105/224/106 106/223/105 108/225/107 107/226/108
f 107/226/108 108/225/107 110/227/109 109/228/110
f 109/229/110 110/230/109 112/231/111 111/232/112
f 111/232/112 112/231/111 114/233/113 113/234/114
f 113/234/114 114/233/113 116/235/115 115/236/116
f 115/236/116 116/235/115 118/237/117 117/238/118
f 117/238/118 118/237/117 120/239/119 119/240/120
f 119/240/120 120/239/119 122/241/121 121/242/122
f 121/243/122 122/244/121 124/245/123 123/246/124
f 123/246/124 124/245/123 126/247/125 125/248/126
f 125/248/126 126/247/125 128/249/127 127/250/128
f 127/250/128 128/249/127 130/251/129 129/252/130
f 129/252/130 130/251/129 132/253/131 131/254/132
f 131/255/132 132/256/131 134/257/133 133/258/134
f 96/259/95 94/260/94 136/261/135 134/262/133 132/263/131 130/264/129 128/265/127 126/266/125 124/267/123 122/268/121 120/269/119 118/270/117 116/271/115 114/272/113 112/273/111 110/274/109 108/275/107 106/276/105 104/277/103 102/278/101 100/279/99 98/280/97
f 133/258/134 134/257/133 136/281/135 135/282/136
f 135/282/136 136/281/135 94/210/94 93/209/93
f 93/283/93 95/284/96 97/285/98 99/286/100 101/287/102 103/288/104 105/289/106 107/290/108 109/291/110 111/292/112 113/293/114 115/294/116 117/295/118 119/296/120 121/297/122 123/298/124 125/299/126 127/300/128 129/301/130 131/302/132 133/303/134 135/304/136
f 137/305/93 138/306/94 140/307/95 139/308/96
f 139/308/96 140/307/95 142/309/97 141/310/98
f 141/310/98 142/309/97 144/311/99 143/312/100
f 143/313/100 144/314/99 146/315/101 145/316/102
f 145/316/102 146/315/101 148/317/103 147/318/104
f 147/318/104 148/317/103 150/319/105 149/320/106
f 149/320/106 150/319/105 152/321/107 151/322/108
f 151/322/108 152/321/107 154/323/109 153/324/110
f 153/325/110 154/326/109 156/327/111 155/328/112
f 155/328/112 156/327/111 158/329/113 157/330/114
f 157/330/114 158/329/113 160/331/115 159/332/116
f 159/332/116 160/331/115 162/333/117 161/334/118
f 161/334/118 162/333/117 164/335/119 163/336/120
f 163/336/120 164/335/119 166/337/121 165/338/122
f 165/339/122 166/340/121 168/341/123 167/342/124
f 167/342/124 168/341/123 170/343/125 169/344/126
f 169/344/126 170/343/125 172/345/127 171/346/128
f 171/346/128 172/345/127 174/347/129 173/348/130
f 173/348/130 174/347/129 176/349/131 175/350/132
f 175/351/132 176/352/131 178/353/133 177/354/134
f 140/355/95 138/356/94 180/357/135 178/358/133 176/359/131 174/360/129 172/361/127 170/362/125 168/363/123 166/364/121 164/365/119 162/366/117 160/367/115 158/368/113 156/369/111 154/370/109 152/371/107 150/372/105 148/373/103 146/374/101 144/375/99 142/376/97
f 177/354/134 178/353/133 180/377/135 179/378/136
f 179/378/136 180/377/135 138/306/94 137/305/93
f 137/379/93 139/380/96 141/381/98 143/382/100 145/383/102 147/384/104 149/385/106 151/386/108 153/387/110 155/388/112 157/389/114 159/390/116 161/391/118 163/392/120 165/393/122 167/394/124 169/395/126 171/396/128 173/397/130 175/398/132 177/399/134 179/400/136
f 181/401/93 182/402/94 184/403/95 183/404/96
f 183/404/96 184/403/95 186/405/97 185/406/98
f 185/406/98 186/405/97 188/407/99 187/408/100
f 187/409/100 188/410/99 190/411/101 189/412/102
f 189/412/102 190/411/101 192/413/103 191/414/104
f 191/414/104 192/413/103 194/415/105 193/416/106
f 193/416/106 194/415/105 196/417/107 195/418/108
f 195/418/108 196/417/107 198/419/109 197/420/110
f 197/421/110 198/422/109 200/423/111 199/424/112
f 199/424/112 200/423/111 202/425/113 201/426/114
f 201/426/114 202/425/113 204/427/115 203/428/116
f 203/428/116 204/427/115 206/429/117 205/430/118
f 205/430/118 206/429/117 208/431/119 207/432/120
f 207/432/120 208/431/119 210/433/121 209/434/122
f 209/435/122 210/436/121 212/437/123 211/438/124
f 211/438/124 212/437/123 214/439/125 213/440/126
f 213/440/126 214/439/125 216/441/127 215/442/128
f 215/442/128 216/441/127 218/443/129 217/444/130
f 217/444/130 218/443/129 220/445/131 219/446/132
f 219/447/132 220/448/131 222/449/133 221/450/134
f 184/451/95 182/452/94 224/453/135 222/454/133 220/455/131 218/456/129 216/457/127 214/458/125 212/459/123 210/460/121 208/461/119 206/462/117 204/463/115 202/464/113 200/465/111 198/466/109 196/467/107 194/468/105 192/469/103 190/470/101 188/471/99 186/472/97
f 221/450/134 222/449/133 224/473/135 223/474/136
f 223/474/136 224/473/135 182/402/94 181/401/93
f 181/475/93 183/476/96 185/477/98 187/478/100 189/479/102 191/480/104 193/481/106 195/482/108 197/483/110 199/484/112 201/485/114 203/486/116 205/487/118 207/488/120 209/489/122 211/490/124 213/491/126 215/492/128 217/493/130 219/494/132 221/495/134 223/496/136
f 225/497/137 226/498/138 228/499/139 227/500/140
f 227/500/140 228/499/139 230/501/141 229/502/142
f 229/502/142 230/501/141 232/503/143 231/504/144
f 231/505/144 232/506/143 234/507/145 233/508/146
f 233/508/146 234/507/145 236/509/147 235/510/148
f 235/510/148 236/509/147 238/511/149 237/512/150
f 237/512/150 238/511/149 240/513/151 239/514/152
f 239/514/152 240/513/151 242/515/153 241/516/154
f 241/517/154 242/518/153 244/519/155 243/520/156
f 243/520/156 244/519/155 246/521/157 245/522/158
f 245/522/158 246/521/157 248/523/159 247/524/160
f 247/524/160 248/523/159 250/525/161 249/526/162
f 249/526/162 250/525/161 252/527/163 251/528/164
f 251/528/164 252/527/163 254/529/165 253/530/166
f 253/531/166 254/532/165 256/533/167 255/534/168
f 255/534/168 256/533/167 258/535/169 257/536/170
f 257/536/170 258/535/169 260/537/171 259/538/172
f 259/538/172 260/537/171 262/539/173 261/540/174
f 261/540/174 262/539/173 264/541/175 263/542/176
f 263/543/176 264/544/175 266/545/177 265/546/178
f 228/547/139 226/548/138 268/549/179 266/550/177 264/551/175 262/552/173 260/553/171 258/554/169 256/555/167 254/556/165 252/557/163 250/558/161 248/559/159 246/560/157 244/561/155 242/562/153 240/563/151 238/564/149 236/565/147 234/566/145 232/567/143 230/568/141
f 265/546/178 266/545/177 268/569/179 267/570/180
f 267/570/180 268/569/179 226/498/138 225/497/137
f 225/571/137 227/572/140 229/573/142 231/574/144 233/575/146 235/576/148 237/577/150 239/578/152 241/579/154 243/580/156 245/581/158 247/582/160 249/583/162 251/584/164 253/585/166 255/586/168 257/587/170 259/588/172 261/589/174 263/590/176 265/591/178 267/592/180
f 269/593/181 270/594/182 272/595/183 271/596/184
f 271/596/184 272/595/183 274/597/185 273/598/186
f 273/598/186 274/597/185 276/599/187 275/600/188
f 275/601/188 276/602/187 278/603/189 277/604/190
f 277/604/190 278/603/189 280/605/191 279/606/192
f 279/606/192 280/605/191 282/607/193 281/608/194
f 281/608/194 282/607/193 284/609/195 283/610/196
f 283/610/196 284/609/195 286/611/197 285/612/198
f 285/613/198 286/614/197 288/615/199 287/616/200
f 287/616/200 288/615/199 290/617/201 289/618/202
f 289/618/202 290/617/201 292/619/203 291/620/204
f 291/620/204 292/619/203 294/621/205 293/622/206
f 293/622/206 294/621/205 296/623/207 295/624/208
f 295/624/208 296/623/207 298/625/209 297/626/210
f 297/627/210 298/628/209 300/629/211 299/630/212
f 299/630/212 300/629/211 302/631/213 301/632/214
f 301/632/214 302/631/213 304/633/215 303/634/216
f 303/634/216 304/633/215 306/635/217 305/636/218
f 305/636/218 306/635/217 308/637/219 307/638/220
f 307/639/220 308/640/219 310/641/221 309/642/222
f 272/643/183 270/644/182 312/645/223 310/646/221 308/647/219 306/648/217 304/649/215 302/650/213 300/651/211 298/652/209 296/653/207 294/654/205 292/655/203 290/656/201 288/657/199 286/658/197 284/659/195 282/660/193 280/661/191 278/662/189 276/663/187 274/664/185
f 309/642/222 310/641/221 312/665/223 311/666/224
f 311/666/224 312/665/223 270/594/182 269/593/181
f 269/667/181 271/668/184 273/669/186 275/670/188 277/671/190 279/672/192 281/673/194 283/674/196 285/675/198 287/676/200 289/677/202 291/678/204 293/679/206 295/680/208 297/681/210 299/682/212 301/683/214 303/684/216 305/685/218 307/686/220 309/687/222 311/688/224
f 313/689/225 314/690/226 316/691/227 315/692/228
f 315/693/228 316/694/227 318/695/229 317/696/230
f 317/696/230 318/695/229 320/697/231 319/698/232
f 319/698/232 320/697/231 322/699/233 321/700/234
f 321/701/234 322/702/233 324/703/235 323/704/236
f 323/704/236 324/703/235 326/705/237 325/706/238
f 325/707/238 326/708/237 328/709/239 327/710/240
f 327/710/240 328/709/239 330/711/241 329/712/242
f 316/713/227 314/714/226 332/715/243 330/716/241 328/717/239 326/718/237 324/719/235 322/720/233 320/721/231 318/722/229
f 329/712/242 330/711/241 332/723/243 331/724/244
f 331/725/244 332/726/243 314/690/226 313/689/225
f 313/727/225 315/728/228 317/729/230 319/730/232 321/731/234 323/732/236 325/733/238 327/734/240 329/735/242 331/736/244
f 333/737/245 334/738/246 336/739/247 335/740/248
f 335/740/248 336/739/247 338/741/249 337/742/250
f 337/743/250 338/744/249 340/745/251 339/746/252
f 339/746/252 340/745/251 342/747/253 341/748/254
f 341/748/254 342/747/253 344/749/255 343/750/256
f 343/750/256 344/749/255 346/751/257 345/752/258
f 345/753/258 346/754/257 348/755/259 347/756/260
f 347/756/260 348/755/259 350/757/261 349/758/262
f 349/758/262 350/757/261 352/759/263 351/760/264
f 351/760/264 352/759/263 354/761/265 353/762/266
f 353/763/266 354/764/265 356/765/267 355/766/268
f 355/766/268 356/765/267 358/767/269 357/768/270
f 357/768/270 358/767/269 360/769/271 359/770/272
f 359/770/272 360/769/271 362/771/273 361/772/274
f 336/773/247 334/774/246 364/775/275 362/776/273 360/777/271 358/778/269 356/779/267 354/780/265 352/781/263 350/782/261 348/783/259 346/784/257 344/785/255 342/786/253 340/787/251 338/788/249
f 361/789/274 362/790/273 364/791/275 363/792/276
f 363/792/276 364/791/275 334/738/246 333/737/245
f 333/793/245 335/794/248 337/795/250 339/796/252 341/797/254 343/798/256 345/799/258 347/800/260 349/801/262 351/802/264 353/803/266 355/804/268 357/805/270 359/806/272 361/807/274 363/808/276
f 365/809/245 366/810/246 368/811/247 367/812/248
f 367/812/248 368/811/247 370/813/249 369/814/250
f 369/815/250 370/816/249 372/817/251 371/818/252
f 371/818/252 372/817/251 374/819/253 373/820/254
f 373/820/254 374/819/253 376/821/255 375/822/256
f 375/822/256 376/821/255 378/823/257 377/824/258
f 377/825/258 378/826/257 380/827/259 379/828/260
f 379/828/260 380/827/259 382/829/261 381/830/262
f 381/830/262 382/829/261 384/831/263 383/832/264
f 383/832/264 384/831/263 386/833/265 385/834/266
f 385/835/266 386/836/265 388/837/267 387/838/268
f 387/838/268 388/837/267 390/839/269 389/840/270
f 389/840/270 390/839/269 392/841/271 391/842/272
f 391/842/272 392/841/271 394/843/273 393/844/274
f 368/845/247 366/846/246 396/847/275 394/848/273 392/849/271 390/850/269 388/851/267 386/852/265 384/853/263 382/854/261 380/855/259 378/856/257 376/857/255 374/858/253 372/859/251 370/860/249
f 393/861/274 394/862/273 396/863/275 395/864/276
f 395/864/276 396/863/275 366/810/246 365/809/245
f 365/865/245 367/866/248 369/867/250 371/868/252 373/869/254 375/870/256 377/871/258 379/872/260 381/873/262 383/874/264 385/875/266 387/876/268 389/877/270 391/878/272 393/879/274 395/880/276
s 0
f 400/881/277 399/882/277 398/883/277 397/884/277
f 401/885/278 402/886/278 403/887/278 404/888/278
f 397/889/279 398/890/279 402/891/279 401/892/279
f 398/893/280 399/894/280 403/895/280 402/896/280
f 399/894/281 400/897/281 404/898/281 403/895/281
f 400/899/282 397/900/282 401/901/282 404/902/282
f 408/903/283 407/904/283 406/905/283 405/906/283
f 409/907/282 410/908/282 411/909/282 412/910/282
f 405/911/284 406/912/284 410/913/284 409/914/284
f 406/915/285 407/916/285 411/917/285 410/918/285
f 407/916/286 408/919/286 412/920/286 411/917/286
f 408/921/277 405/922/277 409/923/277 412/924/277
f 416/925/278 415/926/278 414/927/278 413/928/278
f 417/929/277 418/930/277 419/931/277 420/932/277
f 413/933/287 414/934/287 418/935/287 417/936/287
f 414/937/288 415/938/288 419/939/288 418/940/288
f 415/938/289 416/941/289 420/942/289 419/939/289
f 416/943/283 413/944/283 417/945/283 420/946/283
f 424/947/282 423/948/282 422/949/282 421/950/282
f 425/951/283 426/952/283 427/953/283 428/954/283
f 421/955/290 422/956/290 426/957/290 425/958/290
f 422/959/291 423/960/291 427/961/291 426/962/291
f 423/960/292 424/963/292 428/964/292 427/961/292
f 424/965/278 421/966/278 425/967/278 428/968/278
s 1
f 429/969/93 430/970/94 432/971/95 431/972/96
f 431/972/96 432/971/95 434/973/97 433/974/98
f 433/974/98 434/973/97 436/975/99 435/976/100
f 435/977/100 436/978/99 438/979/101 437/980/102
f 437/980/102 438/979/101 440/981/103 439/982/104
f 439/982/104 440/981/103 442/983/105 441/984/106
f 441/984/106 442/983/105 444/985/107 443/986/108
f 443/986/108 444/985/107 446/987/109 445/988/110
f 445/989/110 446/990/109 448/991/111 447/992/112
f 447/992/112 448/991/111 450/993/113 449/994/114
f 449/994/114 450/993/113 452/995/115 451/996/116
f 451/996/116 452/995/115 454/997/117 453/998/118
f 453/998/118 454/997/117 456/999/119 455/1000/120
f 455/1000/120 456/999/119 458/1001/121 457/1002/122
f 457/1003/122 458/1004/121 460/1005/123 459/1006/124
f 459/1006/124 460/1005/123 462/1007/125 461/1008/126
f 461/1008/126 462/1007/125 464/1009/127 463/1010/128
f 463/1010/128 464/1009/127 466/1011/129 465/1012/130
f 465/1012/130 466/1011/129 468/1013/131 467/1014/132
f 467/1015/132 468/1016/131 470/1017/133 469/1018/134
f 432/1019/95 430/1020/94 472/1021/135 470/1022/133 468/1023/131 466/1024/129 464/1025/127 462/1026/125 460/1027/123 458/1028/121 456/1029/119 454/1030/117 452/1031/115 450/1032/113 448/1033/111 446/1034/109 444/1035/107 442/1036/105 440/1037/103 438/1038/101 436/1039/99 434/1040/97
f 469/1018/134 470/1017/133 472/1041/135 471/1042/136
f 471/1042/136 472/1041/135 430/970/94 429/969/93
f 429/1043/93 431/1044/96 433/1045/98 435/1046/100 437/1047/102 439/1048/104 441/1049/106 443/1050/108 445/1051/110 447/1052/112 449/1053/114 451/1054/116 453/1055/118 455/1056/120 457/1057/122 459/1058/124 461/1059/126 463/1060/128 465/1061/130 467/1062/132 469/1063/134 471/1064/136
