# Blender 4.5.9 LTS
# www.blender.org
mtllib rocket_mk3.mtl
o RocketMk3
v 0.000000 8.426500 -2.570000
v 0.000000 9.851500 -2.570000
v 0.724053 8.426500 -2.465897
v 0.724053 9.851500 -2.465897
v 1.389447 8.426500 -2.162021
v 1.389447 9.851500 -2.162021
v 1.942276 8.426500 -1.682992
v 1.942276 9.851500 -1.682992
v 2.337754 8.426500 -1.067617
v 2.337754 9.851500 -1.067617
v 2.543841 8.426500 -0.365749
v 2.543841 9.851500 -0.365749
v 2.543841 8.426500 0.365749
v 2.543841 9.851500 0.365749
v 2.337754 8.426500 1.067617
v 2.337754 9.851500 1.067617
v 1.942276 8.426500 1.682992
v 1.942276 9.851500 1.682992
v 1.389447 8.426500 2.162021
v 1.389447 9.851500 2.162021
v 0.724053 8.426500 2.465897
v 0.724053 9.851500 2.465897
v 0.000000 8.426500 2.570000
v 0.000000 9.851500 2.570000
v -0.724053 8.426500 2.465897
v -0.724053 9.851500 2.465897
v -1.389447 8.426500 2.162021
v -1.389447 9.851500 2.162021
v -1.942276 8.426500 1.682992
v -1.942276 9.851500 1.682992
v -2.337754 8.426500 1.067617
v -2.337754 9.851500 1.067617
v -2.543841 8.426500 0.365749
v -2.543841 9.851500 0.365749
v -2.543841 8.426500 -0.365749
v -2.543841 9.851500 -0.365749
v -2.337754 8.426500 -1.067617
v -2.337754 9.851500 -1.067617
v -1.942276 8.426500 -1.682992
v -1.942276 9.851500 -1.682992
v -1.389447 8.426500 -2.162021
v -1.389447 9.851500 -2.162021
v -0.724053 8.426500 -2.465897
v -0.724053 9.851500 -2.465897
v 0.000000 0.000000 -1.375000
v 0.000000 2.394000 -1.375000
v 0.526190 0.000000 -1.270334
v 0.526190 2.394000 -1.270334
v 0.972272 0.000000 -0.972272
v 0.972272 2.394000 -0.972272
v 1.270334 0.000000 -0.526190
v 1.270334 2.394000 -0.526190
v 1.375000 0.000000 0.000000
v 1.375000 2.394000 0.000000
v 1.270334 0.000000 0.526190
v 1.270334 2.394000 0.526190
v 0.972272 0.000000 0.972272
v 0.972272 2.394000 0.972272
v 0.526190 0.000000 1.270334
v 0.526190 2.394000 1.270334
v 0.000000 0.000000 1.375000
v 0.000000 2.394000 1.375000
v -0.526190 0.000000 1.270334
v -0.526190 2.394000 1.270334
v -0.972272 0.000000 0.972272
v -0.972272 2.394000 0.972272
v -1.270334 0.000000 0.526190
v -1.270334 2.394000 0.526190
v -1.375000 0.000000 0.000000
v -1.375000 2.394000 0.000000
v -1.270334 0.000000 -0.526190
v -1.270334 2.394000 -0.526190
v -0.972272 0.000000 -0.972272
v -0.972272 2.394000 -0.972272
v -0.526190 0.000000 -1.270334
v -0.526190 2.394000 -1.270334
v 0.000000 0.699000 -2.700000
v 0.000000 3.359000 -2.200000
v 0.760678 0.699000 -2.590631
v 0.619812 3.359000 -2.110885
v 1.459730 0.699000 -2.271384
v 1.189410 3.359000 -1.850758
v 2.040524 0.699000 -1.768124
v 1.662649 3.359000 -1.440694
v 2.456006 0.699000 -1.121621
v 2.001190 3.359000 -0.913913
v 2.672518 0.699000 -0.384250
v 2.177608 3.359000 -0.313093
v 2.672518 0.699000 0.384250
v 2.177608 3.359000 0.313093
v 2.456006 0.699000 1.121621
v 2.001190 3.359000 0.913913
v 2.040524 0.699000 1.768124
v 1.662649 3.359000 1.440694
v 1.459730 0.699000 2.271384
v 1.189410 3.359000 1.850758
v 0.760678 0.699000 2.590631
v 0.619812 3.359000 2.110885
v 0.000000 0.699000 2.700000
v 0.000000 3.359000 2.200000
v -0.760678 0.699000 2.590631
v -0.619812 3.359000 2.110885
v -1.459730 0.699000 2.271384
v -1.189410 3.359000 1.850758
v -2.040524 0.699000 1.768124
v -1.662649 3.359000 1.440694
v -2.456006 0.699000 1.121621
v -2.001190 3.359000 0.913913
v -2.672518 0.699000 0.384250
v -2.177607 3.359000 0.313093
v -2.672518 0.699000 -0.384250
v -2.177607 3.359000 -0.313093
v -2.456006 0.699000 -1.121621
v -2.001190 3.359000 -0.913913
v -2.040524 0.699000 -1.768124
v -1.662649 3.359000 -1.440694
v -1.459730 0.699000 -2.271384
v -1.189410 3.359000 -1.850758
v -0.760678 0.699000 -2.590631
v -0.619812 3.359000 -2.110885
v 0.000000 3.059000 -2.500000
v 0.000000 12.179000 -2.500000
v 0.704331 3.059000 -2.398732
v 0.704331 12.179000 -2.398732
v 1.351602 3.059000 -2.103134
v 1.351602 12.179000 -2.103134
v 1.889374 3.059000 -1.637152
v 1.889374 12.179000 -1.637152
v 2.274080 3.059000 -1.038538
v 2.274080 12.179000 -1.038538
v 2.474554 3.059000 -0.355787
v 2.474554 12.179000 -0.355787
v 2.474554 3.059000 0.355787
v 2.474554 12.179000 0.355787
v 2.274080 3.059000 1.038538
v 2.274080 12.179000 1.038538
v 1.889374 3.059000 1.637152
v 1.889374 12.179000 1.637152
v 1.351602 3.059000 2.103134
v 1.351602 12.179000 2.103134
v 0.704331 3.059000 2.398732
v 0.704331 12.179000 2.398732
v 0.000000 3.059000 2.500000
v 0.000000 12.179000 2.500000
v -0.704331 3.059000 2.398732
v -0.704331 12.179000 2.398732
v -1.351602 3.059000 2.103134
v -1.351602 12.179000 2.103134
v -1.889374 3.059000 1.637152
v -1.889374 12.179000 1.637152
v -2.274080 3.059000 1.038538
v -2.274080 12.179000 1.038538
v -2.474554 3.059000 0.355787
v -2.474554 12.179000 0.355787
v -2.474554 3.059000 -0.355787
v -2.474554 12.179000 -0.355787
v -2.274080 3.059000 -1.038538
v -2.274080 12.179000 -1.038538
v -1.889374 3.059000 -1.637152
v -1.889374 12.179000 -1.637152
v -1.351602 3.059000 -2.103134
v -1.351602 12.179000 -2.103134
v -0.704331 3.059000 -2.398732
v -0.704331 12.179000 -2.398732
v 0.000000 5.510000 -2.550000
v 0.000000 5.928000 -2.550000
v 0.718418 5.510000 -2.446707
v 0.718418 5.928000 -2.446707
v 1.378634 5.510000 -2.145196
v 1.378634 5.928000 -2.145196
v 1.927161 5.510000 -1.669895
v 1.927161 5.928000 -1.669895
v 2.319561 5.510000 -1.059308
v 2.319561 5.928000 -1.059308
v 2.524045 5.510000 -0.362903
v 2.524045 5.928000 -0.362903
v 2.524045 5.510000 0.362903
v 2.524045 5.928000 0.362903
v 2.319561 5.510000 1.059308
v 2.319561 5.928000 1.059308
v 1.927161 5.510000 1.669895
v 1.927161 5.928000 1.669895
v 1.378634 5.510000 2.145196
v 1.378634 5.928000 2.145196
v 0.718418 5.510000 2.446707
v 0.718418 5.928000 2.446707
v 0.000000 5.510000 2.550000
v 0.000000 5.928000 2.550000
v -0.718418 5.510000 2.446707
v -0.718418 5.928000 2.446707
v -1.378634 5.510000 2.145196
v -1.378634 5.928000 2.145196
v -1.927161 5.510000 1.669895
v -1.927161 5.928000 1.669895
v -2.319561 5.510000 1.059308
v -2.319561 5.928000 1.059308
v -2.524045 5.510000 0.362903
v -2.524045 5.928000 0.362903
v -2.524045 5.510000 -0.362903
v -2.524045 5.928000 -0.362903
v -2.319561 5.510000 -1.059308
v -2.319561 5.928000 -1.059308
v -1.927161 5.510000 -1.669895
v -1.927161 5.928000 -1.669895
v -1.378634 5.510000 -2.145196
v -1.378634 5.928000 -2.145196
v -0.718418 5.510000 -2.446707
v -0.718418 5.928000 -2.446707
v 0.000000 12.179000 -2.500000
v 0.000000 13.699000 -1.700000
v 0.704331 12.179000 -2.398732
v 0.478945 13.699000 -1.631138
v 1.351602 12.179000 -2.103134
v 0.919089 13.699000 -1.430131
v 1.889374 12.179000 -1.637152
v 1.284774 13.699000 -1.113263
v 2.274080 12.179000 -1.038538
v 1.546374 13.699000 -0.706206
v 2.474554 12.179000 -0.355787
v 1.682696 13.699000 -0.241935
v 2.474554 12.179000 0.355787
v 1.682696 13.699000 0.241935
v 2.274080 12.179000 1.038538
v 1.546374 13.699000 0.706206
v 1.889374 12.179000 1.637152
v 1.284774 13.699000 1.113263
v 1.351602 12.179000 2.103134
v 0.919089 13.699000 1.430131
v 0.704331 12.179000 2.398732
v 0.478945 13.699000 1.631138
v 0.000000 12.179000 2.500000
v 0.000000 13.699000 1.700000
v -0.704331 12.179000 2.398732
v -0.478945 13.699000 1.631138
v -1.351602 12.179000 2.103134
v -0.919089 13.699000 1.430131
v -1.889374 12.179000 1.637152
v -1.284774 13.699000 1.113263
v -2.274080 12.179000 1.038538
v -1.546374 13.699000 0.706206
v -2.474554 12.179000 0.355787
v -1.682696 13.699000 0.241935
v -2.474554 12.179000 -0.355787
v -1.682696 13.699000 -0.241935
v -2.274080 12.179000 -1.038538
v -1.546374 13.699000 -0.706206
v -1.889374 12.179000 -1.637152
v -1.284774 13.699000 -1.113263
v -1.351602 12.179000 -2.103134
v -0.919089 13.699000 -1.430131
v -0.704331 12.179000 -2.398732
v -0.478945 13.699000 -1.631138
v 0.000000 13.699000 -1.700000
v 0.000000 18.948999 -0.160000
v 0.478945 13.699000 -1.631138
v 0.045077 18.948999 -0.153519
v 0.919089 13.699000 -1.430131
v 0.086503 18.948999 -0.134601
v 1.284774 13.699000 -1.113263
v 0.120920 18.948999 -0.104778
v 1.546374 13.699000 -0.706206
v 0.145541 18.948999 -0.066466
v 1.682696 13.699000 -0.241935
v 0.158371 18.948999 -0.022770
v 1.682696 13.699000 0.241935
v 0.158371 18.948999 0.022770
v 1.546374 13.699000 0.706206
v 0.145541 18.948999 0.066466
v 1.284774 13.699000 1.113263
v 0.120920 18.948999 0.104778
v 0.919089 13.699000 1.430131
v 0.086503 18.948999 0.134601
v 0.478945 13.699000 1.631138
v 0.045077 18.948999 0.153519
v 0.000000 13.699000 1.700000
v 0.000000 18.948999 0.160000
v -0.478945 13.699000 1.631138
v -0.045077 18.948999 0.153519
v -0.919089 13.699000 1.430131
v -0.086503 18.948999 0.134601
v -1.284774 13.699000 1.113263
v -0.120920 18.948999 0.104778
v -1.546374 13.699000 0.706206
v -0.145541 18.948999 0.066466
v -1.682696 13.699000 0.241935
v -0.158371 18.948999 0.022770
v -1.682696 13.699000 -0.241935
v -0.158371 18.948999 -0.022770
v -1.546374 13.699000 -0.706206
v -0.145541 18.948999 -0.066466
v -1.284774 13.699000 -1.113263
v -0.120920 18.948999 -0.104778
v -0.919089 13.699000 -1.430131
v -0.086503 18.948999 -0.134601
v -0.478945 13.699000 -1.631138
v -0.045077 18.948999 -0.153519
v 0.000000 18.974001 -0.300000
v 0.000000 19.323999 -0.300000
v 0.176335 18.974001 -0.242705
v 0.176335 19.323999 -0.242705
v 0.285317 18.974001 -0.092705
v 0.285317 19.323999 -0.092705
v 0.285317 18.974001 0.092705
v 0.285317 19.323999 0.092705
v 0.176335 18.974001 0.242705
v 0.176335 19.323999 0.242705
v 0.000000 18.974001 0.300000
v 0.000000 19.323999 0.300000
v -0.176335 18.974001 0.242705
v -0.176335 19.323999 0.242705
v -0.285317 18.974001 0.092705
v -0.285317 19.323999 0.092705
v -0.285317 18.974001 -0.092705
v -0.285317 19.323999 -0.092705
v -0.176335 18.974001 -0.242705
v -0.176335 19.323999 -0.242705
v 0.000000 11.129001 2.360000
v 0.000000 11.129001 2.600000
v 0.325281 11.064298 2.360000
v 0.325281 11.064298 2.600000
v 0.601041 10.880041 2.360000
v 0.601041 10.880041 2.600000
v 0.785297 10.604281 2.360000
v 0.785297 10.604281 2.600000
v 0.850000 10.279000 2.360000
v 0.850000 10.279000 2.600000
v 0.785297 9.953719 2.360000
v 0.785297 9.953719 2.600000
v 0.601041 9.677959 2.360000
v 0.601041 9.677959 2.600000
v 0.325281 9.493703 2.360000
v 0.325281 9.493703 2.600000
v 0.000000 9.429000 2.360000
v 0.000000 9.429000 2.600000
v -0.325281 9.493703 2.360000
v -0.325281 9.493703 2.600000
v -0.601041 9.677959 2.360000
v -0.601041 9.677959 2.600000
v -0.785297 9.953719 2.360000
v -0.785297 9.953719 2.600000
v -0.850000 10.279000 2.360000
v -0.850000 10.279000 2.600000
v -0.785297 10.604281 2.360000
v -0.785297 10.604281 2.600000
v -0.601041 10.880041 2.360000
v -0.601041 10.880041 2.600000
v -0.325281 11.064298 2.360000
v -0.325281 11.064298 2.600000
v 0.000000 10.879001 2.370000
v 0.000000 10.879001 2.630000
v 0.229610 10.833328 2.370000
v 0.229610 10.833328 2.630000
v 0.424264 10.703264 2.370000
v 0.424264 10.703264 2.630000
v 0.554328 10.508611 2.370000
v 0.554328 10.508611 2.630000
v 0.600000 10.279000 2.370000
v 0.600000 10.279000 2.630000
v 0.554328 10.049390 2.370000
v 0.554328 10.049390 2.630000
v 0.424264 9.854736 2.370000
v 0.424264 9.854736 2.630000
v 0.229610 9.724672 2.370000
v 0.229610 9.724672 2.630000
v 0.000000 9.679000 2.370000
v 0.000000 9.679000 2.630000
v -0.229610 9.724672 2.370000
v -0.229610 9.724672 2.630000
v -0.424264 9.854736 2.370000
v -0.424264 9.854736 2.630000
v -0.554328 10.049390 2.370000
v -0.554328 10.049390 2.630000
v -0.600000 10.279000 2.370000
v -0.600000 10.279000 2.630000
v -0.554328 10.508611 2.370000
v -0.554328 10.508611 2.630000
v -0.424264 10.703264 2.370000
v -0.424264 10.703264 2.630000
v -0.229610 10.833328 2.370000
v -0.229610 10.833328 2.630000
v 1.375000 0.799000 0.160000
v 4.750000 0.599000 0.160000
v 3.805000 2.514200 0.160000
v 1.375000 5.159000 0.160000
v 1.375000 0.799000 -0.160000
v 4.750000 0.599000 -0.160000
v 3.805000 2.514200 -0.160000
v 1.375000 5.159000 -0.160000
v 0.160000 0.799000 -1.375000
v 0.160000 0.599000 -4.750000
v 0.160000 2.514200 -3.805000
v 0.160000 5.159000 -1.375000
v -0.160000 0.799000 -1.375000
v -0.160000 0.599000 -4.750000
v -0.160000 2.514200 -3.805000
v -0.160000 5.159000 -1.375000
v -1.375000 0.799000 -0.160000
v -4.750000 0.599000 -0.160000
v -3.805000 2.514200 -0.160000
v -1.375000 5.159000 -0.160000
v -1.375000 0.799000 0.160000
v -4.750000 0.599000 0.160000
v -3.805000 2.514200 0.160000
v -1.375000 5.159000 0.160000
v -0.160000 0.799000 1.375000
v -0.160000 0.599000 4.750000
v -0.160000 2.514200 3.805000
v -0.160000 5.159000 1.375000
v 0.160000 0.799000 1.375000
v 0.160000 0.599000 4.750000
v 0.160000 2.514200 3.805000
v 0.160000 5.159000 1.375000
vn -0.0000 -0.6764 -0.7365
vn -0.0000 0.6764 -0.7365
vn 0.2075 0.6764 -0.7067
vn 0.2075 -0.6764 -0.7067
vn 0.3982 0.6764 -0.6196
vn 0.3982 -0.6764 -0.6196
vn 0.5566 0.6764 -0.4823
vn 0.5566 -0.6764 -0.4823
vn 0.6699 0.6764 -0.3060
vn 0.6699 -0.6764 -0.3060
vn 0.7290 0.6764 -0.1048
vn 0.7290 -0.6764 -0.1048
vn 0.7290 0.6764 0.1048
vn 0.7290 -0.6764 0.1048
vn 0.6699 0.6764 0.3060
vn 0.6699 -0.6764 0.3060
vn 0.5566 0.6764 0.4823
vn 0.5566 -0.6764 0.4823
vn 0.3982 0.6764 0.6196
vn 0.3982 -0.6764 0.6196
vn 0.2075 0.6764 0.7067
vn 0.2075 -0.6764 0.7067
vn -0.0000 0.6764 0.7365
vn -0.0000 -0.6764 0.7365
vn -0.2075 0.6764 0.7067
vn -0.2075 -0.6764 0.7067
vn -0.3982 0.6764 0.6196
vn -0.3982 -0.6764 0.6196
vn -0.5566 0.6764 0.4823
vn -0.5566 -0.6764 0.4823
vn -0.6699 0.6764 0.3060
vn -0.6699 -0.6764 0.3060
vn -0.7290 0.6764 0.1048
vn -0.7290 -0.6764 0.1048
vn -0.7290 0.6764 -0.1048
vn -0.7290 -0.6764 -0.1048
vn -0.6699 0.6764 -0.3060
vn -0.6699 -0.6764 -0.3060
vn -0.5566 0.6764 -0.4823
vn -0.5566 -0.6764 -0.4823
vn -0.3982 0.6764 -0.6196
vn -0.3982 -0.6764 -0.6196
vn -0.2075 0.6764 -0.7067
vn -0.2075 -0.6764 -0.7067
vn -0.0000 -0.6657 -0.7462
vn -0.0000 0.6657 -0.7462
vn 0.2856 0.6657 -0.6894
vn 0.2856 -0.6657 -0.6894
vn 0.5276 0.6657 -0.5276
vn 0.5276 -0.6657 -0.5276
vn 0.6894 0.6657 -0.2856
vn 0.6894 -0.6657 -0.2856
vn 0.7462 0.6657 -0.0000
vn 0.7462 -0.6657 -0.0000
vn 0.6894 0.6657 0.2856
vn 0.6894 -0.6657 0.2856
vn 0.5276 0.6657 0.5276
vn 0.5276 -0.6657 0.5276
vn 0.2856 0.6657 0.6894
vn 0.2856 -0.6657 0.6894
vn -0.0000 0.6657 0.7462
vn -0.0000 -0.6657 0.7462
vn -0.2856 0.6657 0.6894
vn -0.2856 -0.6657 0.6894
vn -0.5276 0.6657 0.5276
vn -0.5276 -0.6657 0.5276
vn -0.6894 0.6657 0.2856
vn -0.6894 -0.6657 0.2856
vn -0.7462 0.6657 -0.0000
vn -0.7462 -0.6657 -0.0000
vn -0.6894 0.6657 -0.2856
vn -0.6894 -0.6657 -0.2856
vn -0.5276 0.6657 -0.5276
vn -0.5276 -0.6657 -0.5276
vn -0.2856 0.6657 -0.6894
vn -0.2856 -0.6657 -0.6894
vn -0.0000 -0.6062 -0.7953
vn -0.0000 0.7420 -0.6704
vn 0.1889 0.7420 -0.6432
vn 0.2241 -0.6062 -0.7631
vn 0.3624 0.7420 -0.5640
vn 0.4300 -0.6062 -0.6691
vn 0.5066 0.7420 -0.4390
vn 0.6011 -0.6062 -0.5208
vn 0.6098 0.7420 -0.2785
vn 0.7235 -0.6062 -0.3304
vn 0.6636 0.7420 -0.0954
vn 0.7872 -0.6062 -0.1132
vn 0.6636 0.7420 0.0954
vn 0.7872 -0.6062 0.1132
vn 0.6098 0.7420 0.2785
vn 0.7235 -0.6062 0.3304
vn 0.5066 0.7420 0.4390
vn 0.6011 -0.6062 0.5208
vn 0.3624 0.7420 0.5640
vn 0.4300 -0.6062 0.6691
vn 0.1889 0.7420 0.6432
vn 0.2241 -0.6062 0.7631
vn -0.0000 0.7420 0.6704
vn -0.0000 -0.6062 0.7953
vn -0.1889 0.7420 0.6432
vn -0.2241 -0.6062 0.7631
vn -0.3624 0.7420 0.5640
vn -0.4300 -0.6062 0.6691
vn -0.5066 0.7420 0.4390
vn -0.6011 -0.6062 0.5208
vn -0.6098 0.7420 0.2785
vn -0.7235 -0.6062 0.3304
vn -0.6636 0.7420 0.0954
vn -0.7872 -0.6062 0.1132
vn -0.6636 0.7420 -0.0954
vn -0.7872 -0.6062 -0.1132
vn -0.6098 0.7420 -0.2785
vn -0.7235 -0.6062 -0.3304
vn -0.5066 0.7420 -0.4390
vn -0.6011 -0.6062 -0.5208
vn -0.3624 0.7420 -0.5640
vn -0.4300 -0.6062 -0.6691
vn -0.1889 0.7420 -0.6432
vn -0.2241 -0.6062 -0.7631
vn -0.0000 -0.4852 -0.8744
vn -0.0000 0.8354 -0.5496
vn 0.1548 0.8354 -0.5274
vn 0.2463 -0.4852 -0.8390
vn 0.2971 0.8354 -0.4624
vn 0.4727 -0.4852 -0.7356
vn 0.4154 0.8354 -0.3599
vn 0.6608 -0.4852 -0.5726
vn 0.4999 0.8354 -0.2283
vn 0.7954 -0.4852 -0.3632
vn 0.5440 0.8354 -0.0782
vn 0.8655 -0.4852 -0.1244
vn 0.5440 0.8354 0.0782
vn 0.8655 -0.4852 0.1244
vn 0.4999 0.8354 0.2283
vn 0.7954 -0.4852 0.3632
vn 0.4154 0.8354 0.3599
vn 0.6608 -0.4852 0.5726
vn 0.2971 0.8354 0.4624
vn 0.4727 -0.4852 0.7356
vn 0.1548 0.8354 0.5274
vn 0.2463 -0.4852 0.8390
vn -0.0000 0.8354 0.5496
vn -0.0000 -0.4852 0.8744
vn -0.1548 0.8354 0.5274
vn -0.2463 -0.4852 0.8390
vn -0.2971 0.8354 0.4624
vn -0.4727 -0.4852 0.7356
vn -0.4154 0.8354 0.3599
vn -0.6608 -0.4852 0.5726
vn -0.4999 0.8354 0.2283
vn -0.7954 -0.4852 0.3632
vn -0.5440 0.8354 0.0782
vn -0.8655 -0.4852 0.1244
vn -0.5440 0.8354 -0.0782
vn -0.8655 -0.4852 -0.1244
vn -0.4999 0.8354 -0.2283
vn -0.7954 -0.4852 -0.3632
vn -0.4154 0.8354 -0.3599
vn -0.6608 -0.4852 -0.5726
vn -0.2971 0.8354 -0.4624
vn -0.4727 -0.4852 -0.7356
vn -0.1548 0.8354 -0.5274
vn -0.2463 -0.4852 -0.8390
vn -0.0000 -0.5668 -0.8238
vn -0.0000 0.7749 -0.6321
vn 0.1781 0.7749 -0.6065
vn 0.2321 -0.5668 -0.7905
vn 0.3417 0.7749 -0.5317
vn 0.4454 -0.5668 -0.6930
vn 0.4777 0.7749 -0.4139
vn 0.6226 -0.5668 -0.5395
vn 0.5750 0.7749 -0.2626
vn 0.7494 -0.5668 -0.3422
vn 0.6256 0.7749 -0.0900
vn 0.8154 -0.5668 -0.1172
vn 0.6256 0.7749 0.0900
vn 0.8154 -0.5668 0.1172
vn 0.5750 0.7749 0.2626
vn 0.7494 -0.5668 0.3422
vn 0.4777 0.7749 0.4139
vn 0.6226 -0.5668 0.5395
vn 0.3417 0.7749 0.5317
vn 0.4454 -0.5668 0.6930
vn 0.1781 0.7749 0.6065
vn 0.2321 -0.5668 0.7905
vn -0.0000 0.7749 0.6321
vn -0.0000 -0.5668 0.8238
vn -0.1781 0.7749 0.6065
vn -0.2321 -0.5668 0.7905
vn -0.3417 0.7749 0.5317
vn -0.4454 -0.5668 0.6930
vn -0.4777 0.7749 0.4139
vn -0.6226 -0.5668 0.5395
vn -0.5750 0.7749 0.2626
vn -0.7494 -0.5668 0.3422
vn -0.6256 0.7749 0.0900
vn -0.8154 -0.5668 0.1172
vn -0.6256 0.7749 -0.0900
vn -0.8154 -0.5668 -0.1172
vn -0.5750 0.7749 -0.2626
vn -0.7494 -0.5668 -0.3422
vn -0.4777 0.7749 -0.4139
vn -0.6226 -0.5668 -0.5395
vn -0.3417 0.7749 -0.5317
vn -0.4454 -0.5668 -0.6930
vn -0.1781 0.7749 -0.6065
vn -0.2321 -0.5668 -0.7905
vn -0.0000 -0.6437 -0.7653
vn -0.0000 0.6437 -0.7653
vn 0.4498 0.6437 -0.6191
vn 0.4498 -0.6437 -0.6191
vn 0.7278 0.6437 -0.2365
vn 0.7278 -0.6437 -0.2365
vn 0.7278 0.6437 0.2365
vn 0.7278 -0.6437 0.2365
vn 0.4498 0.6437 0.6191
vn 0.4498 -0.6437 0.6191
vn -0.0000 0.6437 0.7653
vn -0.0000 -0.6437 0.7653
vn -0.4498 0.6437 0.6191
vn -0.4498 -0.6437 0.6191
vn -0.7278 0.6437 0.2365
vn -0.7278 -0.6437 0.2365
vn -0.7278 0.6437 -0.2365
vn -0.7278 -0.6437 -0.2365
vn -0.4498 0.6437 -0.6191
vn -0.4498 -0.6437 -0.6191
vn -0.0000 0.7462 -0.6657
vn -0.0000 0.7462 0.6657
vn 0.2856 0.6894 0.6657
vn 0.2856 0.6894 -0.6657
vn 0.5276 0.5276 0.6657
vn 0.5276 0.5276 -0.6657
vn 0.6894 0.2856 0.6657
vn 0.6894 0.2856 -0.6657
vn 0.7462 -0.0000 0.6657
vn 0.7462 -0.0000 -0.6657
vn 0.6894 -0.2856 0.6657
vn 0.6894 -0.2856 -0.6657
vn 0.5276 -0.5276 0.6657
vn 0.5276 -0.5276 -0.6657
vn 0.2856 -0.6894 0.6657
vn 0.2856 -0.6894 -0.6657
vn -0.0000 -0.7462 0.6657
vn -0.0000 -0.7462 -0.6657
vn -0.2856 -0.6894 0.6657
vn -0.2856 -0.6894 -0.6657
vn -0.5276 -0.5276 0.6657
vn -0.5276 -0.5276 -0.6657
vn -0.6894 -0.2856 0.6657
vn -0.6894 -0.2856 -0.6657
vn -0.7462 -0.0000 0.6657
vn -0.7462 -0.0000 -0.6657
vn -0.6894 0.2856 0.6657
vn -0.6894 0.2856 -0.6657
vn -0.5276 0.5276 0.6657
vn -0.5276 0.5276 -0.6657
vn -0.2856 0.6894 0.6657
vn -0.2856 0.6894 -0.6657
vn -0.0000 -0.0000 -1.0000
vn -0.0000 -0.0000 1.0000
vn 0.0592 0.9982 -0.0000
vn -0.8968 -0.4425 -0.0000
vn -0.7364 -0.6766 -0.0000
vn 1.0000 -0.0000 -0.0000
vn -1.0000 -0.0000 -0.0000
vn -0.0000 0.9982 -0.0592
vn -0.0000 -0.4425 0.8968
vn -0.0000 -0.6766 0.7364
vn -0.0592 0.9982 -0.0000
vn 0.8968 -0.4425 -0.0000
vn 0.7364 -0.6766 -0.0000
vn -0.0000 0.9982 0.0592
vn -0.0000 -0.4425 -0.8968
vn -0.0000 -0.6766 -0.7364
vt 0.635062 0.754306
vt 0.585754 0.754306
vt 0.585477 0.729178
vt 0.634785 0.729178
vt 0.584669 0.706086
vt 0.633977 0.706086
vt 0.583395 0.686901
vt 0.632703 0.686901
vt 0.632724 0.942635
vt 0.583395 0.942635
vt 0.584365 0.921279
vt 0.633695 0.921279
vt 0.584871 0.896921
vt 0.634201 0.896921
vt 0.584871 0.871535
vt 0.634201 0.871535
vt 0.584365 0.847178
vt 0.633695 0.847178
vt 0.583395 0.825822
vt 0.632724 0.825822
vt 0.951167 0.136865
vt 0.901859 0.136865
vt 0.903133 0.117680
vt 0.952441 0.117680
vt 0.903941 0.094588
vt 0.953249 0.094588
vt 0.904218 0.069460
vt 0.953526 0.069460
vt 0.903941 0.044333
vt 0.953249 0.044333
vt 0.903133 0.021241
vt 0.952441 0.021241
vt 0.901859 0.002056
vt 0.951167 0.002056
vt 0.959936 0.610230
vt 0.910607 0.610230
vt 0.911578 0.588874
vt 0.960907 0.588874
vt 0.912083 0.564517
vt 0.961413 0.564517
vt 0.912083 0.539131
vt 0.961413 0.539131
vt 0.911578 0.514773
vt 0.960907 0.514773
vt 0.910607 0.493417
vt 0.959936 0.493417
vt 0.632703 0.821710
vt 0.583395 0.821710
vt 0.584669 0.802525
vt 0.633977 0.802525
vt 0.042118 0.488250
vt 0.022932 0.471626
vt 0.009208 0.450270
vt 0.002056 0.425913
vt 0.002056 0.400527
vt 0.009208 0.376169
vt 0.022932 0.354813
vt 0.042118 0.338189
vt 0.065209 0.327643
vt 0.090337 0.324031
vt 0.115464 0.327644
vt 0.138556 0.338189
vt 0.157742 0.354813
vt 0.171466 0.376169
vt 0.178618 0.400527
vt 0.178618 0.425913
vt 0.171466 0.450270
vt 0.157742 0.471626
vt 0.138556 0.488250
vt 0.115464 0.498796
vt 0.090337 0.502409
vt 0.065209 0.498796
vt 0.585477 0.779433
vt 0.634785 0.779433
vt 0.483035 0.470906
vt 0.469310 0.449550
vt 0.462158 0.425192
vt 0.462158 0.399807
vt 0.469310 0.375449
vt 0.483035 0.354093
vt 0.502220 0.337469
vt 0.525312 0.326923
vt 0.550439 0.323310
vt 0.575567 0.326923
vt 0.598659 0.337469
vt 0.617844 0.354093
vt 0.631568 0.375449
vt 0.638721 0.399807
vt 0.638721 0.425193
vt 0.631568 0.449550
vt 0.617844 0.470906
vt 0.598658 0.487530
vt 0.575567 0.498076
vt 0.550439 0.501689
vt 0.525312 0.498076
vt 0.502220 0.487530
vt 0.232182 0.930024
vt 0.232182 0.847187
vt 0.250442 0.846909
vt 0.250442 0.929746
vt 0.265923 0.846116
vt 0.265923 0.928953
vt 0.883932 0.955988
vt 0.883932 0.873114
vt 0.899413 0.873846
vt 0.899413 0.956719
vt 0.917673 0.874103
vt 0.917673 0.956976
vt 0.935934 0.873846
vt 0.935934 0.956719
vt 0.951415 0.873114
vt 0.951415 0.955988
vt 0.272553 0.937186
vt 0.272553 0.854350
vt 0.288034 0.855142
vt 0.288034 0.937979
vt 0.306295 0.855421
vt 0.306295 0.938258
vt 0.324555 0.855142
vt 0.324555 0.937979
vt 0.340036 0.854350
vt 0.340036 0.937186
vt 0.919323 0.406184
vt 0.919323 0.323310
vt 0.934804 0.324042
vt 0.934804 0.406915
vt 0.953065 0.324299
vt 0.953065 0.407172
vt 0.971326 0.324042
vt 0.971326 0.406915
vt 0.986806 0.323310
vt 0.986806 0.406184
vt 0.138218 0.939718
vt 0.121017 0.932593
vt 0.107852 0.919428
vt 0.100727 0.902226
vt 0.100727 0.883608
vt 0.107852 0.866406
vt 0.121017 0.853241
vt 0.138218 0.846116
vt 0.156837 0.846116
vt 0.174038 0.853241
vt 0.187204 0.866406
vt 0.194329 0.883608
vt 0.194329 0.902226
vt 0.187204 0.919428
vt 0.174038 0.932593
vt 0.156837 0.939718
vt 0.198440 0.928953
vt 0.198440 0.846116
vt 0.213921 0.846909
vt 0.213921 0.929746
vt 0.482448 0.935274
vt 0.469283 0.922109
vt 0.462158 0.904907
vt 0.462158 0.886289
vt 0.469283 0.869087
vt 0.482448 0.855922
vt 0.499650 0.848797
vt 0.518268 0.848797
vt 0.535470 0.855922
vt 0.548635 0.869087
vt 0.555760 0.886289
vt 0.555760 0.904907
vt 0.548635 0.922109
vt 0.535470 0.935274
vt 0.518268 0.942399
vt 0.499650 0.942399
vt 0.858085 0.916141
vt 0.764714 0.916141
vt 0.764477 0.894631
vt 0.857794 0.889742
vt 0.763785 0.874864
vt 0.856945 0.865482
vt 0.762695 0.858440
vt 0.855606 0.845327
vt 0.095064 0.968838
vt 0.002056 0.957475
vt 0.002886 0.939193
vt 0.096084 0.946401
vt 0.003319 0.918342
vt 0.096615 0.920812
vt 0.003319 0.896611
vt 0.096615 0.894142
vt 0.002886 0.875760
vt 0.096084 0.868552
vt 0.002056 0.857479
vt 0.095064 0.846116
vt 0.734369 0.987024
vt 0.641458 0.973910
vt 0.642548 0.957487
vt 0.735708 0.966868
vt 0.643240 0.937720
vt 0.736557 0.942608
vt 0.643477 0.916210
vt 0.736848 0.916210
vt 0.643240 0.894700
vt 0.736557 0.889811
vt 0.642548 0.874933
vt 0.735708 0.865552
vt 0.641458 0.858509
vt 0.734369 0.845396
vt 0.891095 0.319199
vt 0.798086 0.307836
vt 0.798917 0.289555
vt 0.892114 0.296763
vt 0.799350 0.268704
vt 0.892646 0.271173
vt 0.799350 0.246973
vt 0.892646 0.244503
vt 0.798917 0.226122
vt 0.892114 0.218914
vt 0.798086 0.207841
vt 0.891095 0.196477
vt 0.855606 0.986955
vt 0.762695 0.973841
vt 0.763785 0.957418
vt 0.856945 0.966799
vt 0.660703 0.449657
vt 0.648954 0.431376
vt 0.642832 0.410525
vt 0.642832 0.388794
vt 0.648954 0.367943
vt 0.660703 0.349661
vt 0.677126 0.335431
vt 0.696893 0.326403
vt 0.718403 0.323310
vt 0.739913 0.326403
vt 0.759680 0.335431
vt 0.776104 0.349661
vt 0.787852 0.367943
vt 0.793975 0.388794
vt 0.793975 0.410525
vt 0.787852 0.431376
vt 0.776104 0.449657
vt 0.759680 0.463888
vt 0.739913 0.472915
vt 0.718403 0.476008
vt 0.696893 0.472915
vt 0.677126 0.463888
vt 0.764477 0.937651
vt 0.857794 0.942539
vt 0.280067 0.455936
vt 0.272553 0.430346
vt 0.272553 0.403676
vt 0.280067 0.378086
vt 0.294486 0.355650
vt 0.314641 0.338185
vt 0.338901 0.327106
vt 0.365300 0.323310
vt 0.391698 0.327106
vt 0.415958 0.338185
vt 0.436114 0.355650
vt 0.450533 0.378086
vt 0.458047 0.403676
vt 0.458047 0.430346
vt 0.450533 0.455936
vt 0.436114 0.478372
vt 0.415958 0.495837
vt 0.391698 0.506916
vt 0.365300 0.510712
vt 0.338901 0.506916
vt 0.314641 0.495837
vt 0.294486 0.478372
vt 0.067624 0.319919
vt 0.067624 0.004350
vt 0.092067 0.004081
vt 0.092067 0.319650
vt 0.114530 0.003295
vt 0.114530 0.318864
vt 0.133193 0.002056
vt 0.133193 0.317625
vt 0.272553 0.317763
vt 0.272553 0.002056
vt 0.293327 0.003000
vt 0.293327 0.318707
vt 0.317021 0.003492
vt 0.317021 0.319199
vt 0.341716 0.003492
vt 0.341716 0.319199
vt 0.365410 0.003000
vt 0.365410 0.318707
vt 0.386184 0.002056
vt 0.386184 0.317763
vt 0.137304 0.317625
vt 0.137304 0.002056
vt 0.155967 0.003295
vt 0.155967 0.318864
vt 0.178430 0.004081
vt 0.178430 0.319650
vt 0.202873 0.004350
vt 0.202873 0.319919
vt 0.227316 0.004081
vt 0.227316 0.319650
vt 0.249779 0.003295
vt 0.249779 0.318864
vt 0.268442 0.002056
vt 0.268442 0.317625
vt 0.390295 0.317763
vt 0.390295 0.002056
vt 0.411070 0.003000
vt 0.411070 0.318707
vt 0.434764 0.003492
vt 0.434764 0.319199
vt 0.459458 0.003492
vt 0.459458 0.319199
vt 0.483152 0.003000
vt 0.483152 0.318707
vt 0.503927 0.002056
vt 0.503927 0.317763
vt 0.002056 0.317625
vt 0.002056 0.002056
vt 0.020718 0.003295
vt 0.020718 0.318864
vt 0.063489 0.676525
vt 0.041026 0.666267
vt 0.022364 0.650096
vt 0.009013 0.629321
vt 0.002056 0.605627
vt 0.002056 0.580933
vt 0.009013 0.557239
vt 0.022364 0.536464
vt 0.041026 0.520293
vt 0.063489 0.510035
vt 0.087932 0.506520
vt 0.112375 0.510035
vt 0.134838 0.520293
vt 0.153501 0.536464
vt 0.166852 0.557239
vt 0.173809 0.580933
vt 0.173809 0.605627
vt 0.166852 0.629321
vt 0.153501 0.650096
vt 0.134838 0.666267
vt 0.112375 0.676525
vt 0.087932 0.680040
vt 0.043181 0.004081
vt 0.043181 0.319650
vt 0.311524 0.674570
vt 0.292861 0.658398
vt 0.279510 0.637624
vt 0.272553 0.613930
vt 0.272553 0.589236
vt 0.279510 0.565541
vt 0.292861 0.544767
vt 0.311524 0.528596
vt 0.333987 0.518337
vt 0.358430 0.514823
vt 0.382873 0.518337
vt 0.405336 0.528596
vt 0.423998 0.544767
vt 0.437349 0.565541
vt 0.444306 0.589235
vt 0.444306 0.613930
vt 0.437349 0.637624
vt 0.423998 0.658398
vt 0.405336 0.674570
vt 0.382873 0.684828
vt 0.358430 0.688343
vt 0.333987 0.684828
vt 0.259928 0.580594
vt 0.245464 0.580594
vt 0.245189 0.555663
vt 0.259653 0.555663
vt 0.244388 0.532750
vt 0.258851 0.532750
vt 0.243124 0.513714
vt 0.257587 0.513714
vt 0.785230 0.299061
vt 0.770760 0.299061
vt 0.771724 0.277871
vt 0.786193 0.277871
vt 0.772225 0.253703
vt 0.786695 0.253703
vt 0.772225 0.228515
vt 0.786695 0.228515
vt 0.771724 0.204347
vt 0.786193 0.204347
vt 0.770760 0.183157
vt 0.785230 0.183157
vt 0.764309 0.316917
vt 0.749845 0.316917
vt 0.751109 0.297881
vt 0.765573 0.297881
vt 0.751911 0.274969
vt 0.766375 0.274969
vt 0.752186 0.250037
vt 0.766649 0.250037
vt 0.751911 0.225105
vt 0.766375 0.225105
vt 0.751109 0.202193
vt 0.765573 0.202193
vt 0.749845 0.183157
vt 0.764309 0.183157
vt 0.259000 0.800055
vt 0.244530 0.800055
vt 0.245493 0.778865
vt 0.259963 0.778865
vt 0.245995 0.754697
vt 0.260464 0.754697
vt 0.245995 0.729509
vt 0.260464 0.729509
vt 0.245493 0.705341
vt 0.259963 0.705341
vt 0.244530 0.684151
vt 0.259000 0.684151
vt 0.257587 0.647475
vt 0.243124 0.647475
vt 0.244388 0.628438
vt 0.258851 0.628438
vt 0.501908 0.668742
vt 0.482872 0.652247
vt 0.469254 0.631057
vt 0.462158 0.606889
vt 0.462158 0.581701
vt 0.469254 0.557533
vt 0.482872 0.536343
vt 0.501908 0.519848
vt 0.524820 0.509385
vt 0.549752 0.505800
vt 0.574684 0.509385
vt 0.597596 0.519848
vt 0.616632 0.536343
vt 0.630250 0.557533
vt 0.637346 0.581701
vt 0.637346 0.606889
vt 0.630250 0.631057
vt 0.616632 0.652247
vt 0.597596 0.668742
vt 0.574684 0.679205
vt 0.549752 0.682790
vt 0.524820 0.679205
vt 0.245189 0.605526
vt 0.259653 0.605526
vt 0.528752 0.148503
vt 0.515134 0.127313
vt 0.508038 0.103145
vt 0.508038 0.077956
vt 0.515134 0.053788
vt 0.528752 0.032599
vt 0.547788 0.016104
vt 0.570700 0.005640
vt 0.595632 0.002056
vt 0.620564 0.005640
vt 0.643476 0.016104
vt 0.662512 0.032599
vt 0.676130 0.053789
vt 0.683226 0.077957
vt 0.683226 0.103145
vt 0.676130 0.127313
vt 0.662512 0.148503
vt 0.643476 0.164997
vt 0.620564 0.175461
vt 0.595632 0.179046
vt 0.570700 0.175461
vt 0.547788 0.164997
vt 0.239012 0.579283
vt 0.184290 0.579283
vt 0.184107 0.562662
vt 0.238743 0.554840
vt 0.183572 0.547387
vt 0.237957 0.532377
vt 0.182729 0.534696
vt 0.236718 0.513714
vt 0.447892 0.941334
vt 0.393790 0.923153
vt 0.394432 0.909026
vt 0.448836 0.920559
vt 0.394767 0.892914
vt 0.449328 0.896865
vt 0.394767 0.876122
vt 0.449328 0.872171
vt 0.394432 0.860010
vt 0.448836 0.848477
vt 0.393790 0.845883
vt 0.447892 0.827702
vt 0.447778 0.823591
vt 0.393790 0.802609
vt 0.394633 0.789918
vt 0.449017 0.804928
vt 0.395167 0.774644
vt 0.449803 0.782466
vt 0.395350 0.758022
vt 0.450073 0.758022
vt 0.395167 0.741401
vt 0.449804 0.733579
vt 0.394633 0.726126
vt 0.449017 0.711116
vt 0.393790 0.713436
vt 0.447778 0.692454
vt 0.950859 0.310109
vt 0.896757 0.291928
vt 0.897399 0.277801
vt 0.951803 0.289334
vt 0.897734 0.261689
vt 0.952295 0.265640
vt 0.897734 0.244897
vt 0.952295 0.240946
vt 0.897399 0.228785
vt 0.951803 0.217252
vt 0.896757 0.214658
vt 0.950859 0.196477
vt 0.236718 0.644852
vt 0.182729 0.623870
vt 0.183572 0.611179
vt 0.237957 0.626189
vt 0.512769 0.266662
vt 0.508038 0.250550
vt 0.508038 0.233758
vt 0.512769 0.217646
vt 0.521847 0.203519
vt 0.534538 0.192522
vt 0.549813 0.185547
vt 0.566434 0.183157
vt 0.583055 0.185547
vt 0.598330 0.192522
vt 0.611021 0.203519
vt 0.620099 0.217645
vt 0.624830 0.233757
vt 0.624830 0.250550
vt 0.620099 0.266662
vt 0.611021 0.280788
vt 0.598330 0.291785
vt 0.583055 0.298761
vt 0.566434 0.301150
vt 0.549813 0.298761
vt 0.534538 0.291785
vt 0.521847 0.280788
vt 0.184107 0.595904
vt 0.238743 0.603726
vt 0.680429 0.665547
vt 0.661766 0.649375
vt 0.648415 0.628601
vt 0.641458 0.604907
vt 0.641458 0.580212
vt 0.648415 0.556518
vt 0.661766 0.535744
vt 0.680429 0.519573
vt 0.702891 0.509314
vt 0.727334 0.505800
vt 0.751778 0.509314
vt 0.774240 0.519573
vt 0.792903 0.535744
vt 0.806254 0.556518
vt 0.813211 0.580212
vt 0.813211 0.604907
vt 0.806254 0.628601
vt 0.792903 0.649375
vt 0.774240 0.665547
vt 0.751778 0.675805
vt 0.727334 0.679320
vt 0.702891 0.675805
vt 0.853161 0.187958
vt 0.853161 0.002202
vt 0.854726 0.002185
vt 0.869783 0.187775
vt 0.856163 0.002135
vt 0.885057 0.187240
vt 0.857358 0.002056
vt 0.897748 0.186397
vt 0.182729 0.508627
vt 0.217728 0.324031
vt 0.219057 0.324091
vt 0.196856 0.509269
vt 0.220574 0.324123
vt 0.212968 0.509603
vt 0.222154 0.324123
vt 0.229760 0.509603
vt 0.223671 0.324091
vt 0.245872 0.509269
vt 0.225000 0.324031
vt 0.259999 0.508627
vt 0.817322 0.677759
vt 0.857713 0.493417
vt 0.858907 0.493497
vt 0.830013 0.678602
vt 0.860345 0.493547
vt 0.845288 0.679136
vt 0.861909 0.493564
vt 0.861909 0.679320
vt 0.863473 0.493547
vt 0.878530 0.679136
vt 0.864911 0.493497
vt 0.893805 0.678602
vt 0.866106 0.493417
vt 0.906496 0.677759
vt 0.883932 0.868027
vt 0.918930 0.683431
vt 0.920260 0.683491
vt 0.898058 0.868669
vt 0.921776 0.683523
vt 0.914170 0.869003
vt 0.923357 0.683523
vt 0.930962 0.869003
vt 0.924873 0.683491
vt 0.947074 0.868669
vt 0.926202 0.683431
vt 0.961201 0.868027
vt 0.808575 0.186397
vt 0.848965 0.002056
vt 0.850159 0.002135
vt 0.821265 0.187240
vt 0.543233 0.315485
vt 0.542038 0.314450
vt 0.541184 0.313121
vt 0.540738 0.311604
vt 0.540738 0.310024
vt 0.541184 0.308508
vt 0.542038 0.307178
vt 0.543233 0.306143
vt 0.544670 0.305486
vt 0.546235 0.305262
vt 0.547799 0.305486
vt 0.549236 0.306143
vt 0.550431 0.307178
vt 0.551285 0.308508
vt 0.551731 0.310024
vt 0.551731 0.311604
vt 0.551285 0.313121
vt 0.550431 0.314450
vt 0.549237 0.315485
vt 0.547799 0.316142
vt 0.546235 0.316367
vt 0.544670 0.316142
vt 0.851597 0.002185
vt 0.836540 0.187775
vt 0.628941 0.250550
vt 0.628941 0.233757
vt 0.633672 0.217645
vt 0.642751 0.203519
vt 0.655442 0.192522
vt 0.670716 0.185547
vt 0.687338 0.183157
vt 0.703959 0.185547
vt 0.719234 0.192522
vt 0.731924 0.203519
vt 0.741003 0.217645
vt 0.745734 0.233757
vt 0.745734 0.250550
vt 0.741003 0.266662
vt 0.731924 0.280788
vt 0.719234 0.291785
vt 0.703959 0.298761
vt 0.687338 0.301150
vt 0.670716 0.298761
vt 0.655442 0.291785
vt 0.642751 0.280788
vt 0.633672 0.266662
vt 0.514157 0.317524
vt 0.514157 0.305414
vt 0.520277 0.305261
vt 0.520277 0.317372
vt 0.255239 0.668431
vt 0.243124 0.668431
vt 0.243391 0.663226
vt 0.255507 0.663226
vt 0.243391 0.656791
vt 0.255507 0.656791
vt 0.243124 0.651586
vt 0.255239 0.651586
vt 0.524388 0.317372
vt 0.524388 0.305261
vt 0.530508 0.305414
vt 0.530508 0.317524
vt 0.536627 0.305261
vt 0.536627 0.317372
vt 0.678862 0.496965
vt 0.666746 0.496965
vt 0.667014 0.491759
vt 0.679130 0.491759
vt 0.667014 0.485325
vt 0.679130 0.485325
vt 0.652733 0.500941
vt 0.646614 0.498953
vt 0.642832 0.493747
vt 0.642832 0.487313
vt 0.646614 0.482107
vt 0.652733 0.480119
vt 0.658853 0.482107
vt 0.662635 0.487313
vt 0.662635 0.493747
vt 0.658853 0.498953
vt 0.666746 0.480119
vt 0.678862 0.480119
vt 0.508038 0.317372
vt 0.508038 0.305261
vt 0.186511 0.667797
vt 0.182729 0.662591
vt 0.182729 0.656157
vt 0.186512 0.650951
vt 0.192631 0.648963
vt 0.198751 0.650951
vt 0.202533 0.656157
vt 0.202533 0.662591
vt 0.198751 0.667797
vt 0.192631 0.669785
vt 0.456747 0.535681
vt 0.448418 0.535681
vt 0.448418 0.524393
vt 0.456747 0.524393
vt 0.448418 0.514823
vt 0.456747 0.514823
vt 0.901859 0.140976
vt 0.910188 0.140976
vt 0.910188 0.150974
vt 0.901859 0.150974
vt 0.910188 0.162393
vt 0.901859 0.162393
vt 0.910188 0.173495
vt 0.901859 0.173495
vt 0.910188 0.182589
vt 0.901859 0.182589
vt 0.456747 0.602368
vt 0.448418 0.602368
vt 0.448418 0.592798
vt 0.456747 0.592798
vt 0.448418 0.581510
vt 0.456747 0.581510
vt 0.448418 0.570221
vt 0.456747 0.570221
vt 0.448418 0.560651
vt 0.456747 0.560651
vt 0.456747 0.648092
vt 0.448418 0.648092
vt 0.448418 0.638998
vt 0.456747 0.638998
vt 0.448418 0.627897
vt 0.456747 0.627897
vt 0.448418 0.616477
vt 0.456747 0.616477
vt 0.448418 0.606479
vt 0.456747 0.606479
vt 0.972630 0.423859
vt 0.977022 0.434496
vt 0.977022 0.446005
vt 0.972630 0.456632
vt 0.964515 0.464761
vt 0.953911 0.469153
vt 0.942434 0.469140
vt 0.931831 0.464724
vt 0.923715 0.456577
vt 0.919323 0.445940
vt 0.919323 0.434431
vt 0.923715 0.423804
vt 0.931831 0.415675
vt 0.942434 0.411283
vt 0.953911 0.411296
vt 0.964515 0.415712
vt 0.456747 0.556540
vt 0.448418 0.556540
vt 0.448418 0.546970
vt 0.456747 0.546970
vt 0.968306 0.637554
vt 0.968306 0.649063
vt 0.963914 0.659690
vt 0.955799 0.667819
vt 0.945195 0.672211
vt 0.933718 0.672198
vt 0.923115 0.667782
vt 0.914999 0.659635
vt 0.910607 0.648998
vt 0.910607 0.637489
vt 0.914999 0.626862
vt 0.923115 0.618733
vt 0.933718 0.614341
vt 0.945195 0.614354
vt 0.955799 0.618770
vt 0.963914 0.626917
vt 0.215667 0.663687
vt 0.206644 0.663687
vt 0.206644 0.655718
vt 0.215667 0.655718
vt 0.206644 0.648963
vt 0.215667 0.648963
vt 0.448418 0.652203
vt 0.457441 0.652203
vt 0.457441 0.659261
vt 0.448418 0.659261
vt 0.457441 0.667321
vt 0.448418 0.667321
vt 0.457441 0.675157
vt 0.448418 0.675157
vt 0.457441 0.681576
vt 0.448418 0.681576
vt 0.228801 0.678410
vt 0.219778 0.678410
vt 0.219778 0.671655
vt 0.228801 0.671655
vt 0.219778 0.663687
vt 0.228801 0.663687
vt 0.219778 0.655718
vt 0.228801 0.655718
vt 0.219778 0.648963
vt 0.228801 0.648963
vt 0.253553 0.833540
vt 0.244530 0.833540
vt 0.244530 0.827120
vt 0.253553 0.827120
vt 0.244530 0.819284
vt 0.253553 0.819284
vt 0.244530 0.811224
vt 0.253553 0.811224
vt 0.244530 0.804166
vt 0.253553 0.804166
vt 0.344147 0.878831
vt 0.344157 0.870708
vt 0.347265 0.863203
vt 0.353000 0.857458
vt 0.360489 0.854350
vt 0.368590 0.854350
vt 0.376072 0.857458
vt 0.381794 0.863203
vt 0.384886 0.870708
vt 0.384876 0.878831
vt 0.381768 0.886337
vt 0.376033 0.892081
vt 0.368544 0.895190
vt 0.360443 0.895190
vt 0.352961 0.892081
vt 0.347239 0.886337
vt 0.215667 0.678410
vt 0.206644 0.678410
vt 0.206644 0.671655
vt 0.215667 0.671655
vt 0.384876 0.915686
vt 0.384876 0.923810
vt 0.381776 0.931312
vt 0.376047 0.937050
vt 0.368563 0.940150
vt 0.360461 0.940141
vt 0.352976 0.937024
vt 0.347248 0.931273
vt 0.344147 0.923764
vt 0.344147 0.915641
vt 0.347248 0.908139
vt 0.352976 0.902401
vt 0.360461 0.899301
vt 0.368563 0.899310
vt 0.376047 0.902427
vt 0.381776 0.908178
vt 0.462158 0.686901
vt 0.546488 0.778416
vt 0.579284 0.844686
vt 0.462158 0.837765
vt 0.879820 0.834295
vt 0.762695 0.841215
vt 0.795490 0.774946
vt 0.879820 0.683431
vt 0.862196 0.962452
vt 0.862196 0.845327
vt 0.873301 0.845327
vt 0.873301 0.962452
vt 0.972854 0.151626
vt 0.972854 0.087647
vt 0.983959 0.087647
vt 0.983959 0.151626
vt 0.972854 0.002056
vt 0.983959 0.002056
vt 0.967511 0.159178
vt 0.967511 0.310109
vt 0.956406 0.310109
vt 0.956406 0.159178
vt 0.687338 0.002056
vt 0.771668 0.093611
vt 0.804463 0.159909
vt 0.687338 0.152986
vt 0.240418 0.835081
vt 0.123293 0.842005
vt 0.156088 0.775706
vt 0.240418 0.684151
vt 0.752064 0.845396
vt 0.752064 0.962521
vt 0.740959 0.962521
vt 0.740959 0.845396
vt 0.965312 0.987215
vt 0.965312 0.923459
vt 0.976417 0.923459
vt 0.976417 0.987215
vt 0.965312 0.838406
vt 0.976417 0.838406
vt 0.976417 0.683431
vt 0.976417 0.834295
vt 0.965312 0.834295
vt 0.965312 0.683431
vt 0.272553 0.692454
vt 0.356883 0.783969
vt 0.389679 0.850238
vt 0.272553 0.843318
vt 0.915212 0.474175
vt 0.798086 0.481095
vt 0.830881 0.414825
vt 0.915212 0.323310
vt 0.559871 0.965923
vt 0.559871 0.848797
vt 0.570976 0.848797
vt 0.570976 0.965923
vt 0.972418 0.672211
vt 0.972418 0.608232
vt 0.983523 0.608232
vt 0.983523 0.672211
vt 0.972418 0.522640
vt 0.983523 0.522640
vt 0.968742 0.002056
vt 0.968742 0.152986
vt 0.957637 0.152986
vt 0.957637 0.002056
vt 0.641458 0.683431
vt 0.725788 0.774986
vt 0.758583 0.841284
vt 0.641458 0.834361
vt 0.119181 0.835081
vt 0.002056 0.842005
vt 0.034851 0.775706
vt 0.119181 0.684151
vt 0.986839 0.276304
vt 0.986839 0.159178
vt 0.997944 0.159178
vt 0.997944 0.276304
vt 0.980529 0.832239
vt 0.980529 0.768483
vt 0.991634 0.768483
vt 0.991634 0.832239
vt 0.980529 0.683431
vt 0.991634 0.683431
vt 0.982728 0.159178
vt 0.982728 0.310043
vt 0.971623 0.310043
vt 0.971623 0.159178
s 1
usemtl RocketBaked_3
f 1/1/1 2/2/2 4/3/3 3/4/4
f 3/4/4 4/3/3 6/5/5 5/6/6
f 5/6/6 6/5/5 8/7/7 7/8/8
f 7/9/8 8/10/7 10/11/9 9/12/10
f 9/12/10 10/11/9 12/13/11 11/14/12
f 11/14/12 12/13/11 14/15/13 13/16/14
f 13/16/14 14/15/13 16/17/15 15/18/16
f 15/18/16 16/17/15 18/19/17 17/20/18
f 17/21/18 18/22/17 20/23/19 19/24/20
f 19/24/20 20/23/19 22/25/21 21/26/22
f 21/26/22 22/25/21 24/27/23 23/28/24
f 23/28/24 24/27/23 26/29/25 25/30/26
f 25/30/26 26/29/25 28/31/27 27/32/28
f 27/32/28 28/31/27 30/33/29 29/34/30
f 29/35/30 30/36/29 32/37/31 31/38/32
f 31/38/32 32/37/31 34/39/33 33/40/34
f 33/40/34 34/39/33 36/41/35 35/42/36
f 35/42/36 36/41/35 38/43/37 37/44/38
f 37/44/38 38/43/37 40/45/39 39/46/40
f 39/47/40 40/48/39 42/49/41 41/50/42
f 4/51/3 2/52/2 44/53/43 42/54/41 40/55/39 38/56/37 36/57/35 34/58/33 32/59/31 30/60/29 28/61/27 26/62/25 24/63/23 22/64/21 20/65/19 18/66/17 16/67/15 14/68/13 12/69/11 10/70/9 8/71/7 6/72/5
f 41/50/42 42/49/41 44/73/43 43/74/44
f 43/74/44 44/73/43 2/2/2 1/1/1
f 1/75/1 3/76/4 5/77/6 7/78/8 9/79/10 11/80/12 13/81/14 15/82/16 17/83/18 19/84/20 21/85/22 23/86/24 25/87/26 27/88/28 29/89/30 31/90/32 33/91/34 35/92/36 37/93/38 39/94/40 41/95/42 43/96/44
f 45/97/45 46/98/46 48/99/47 47/100/48
f 47/100/48 48/99/47 50/101/49 49/102/50
f 49/103/50 50/104/49 52/105/51 51/106/52
f 51/106/52 52/105/51 54/107/53 53/108/54
f 53/108/54 54/107/53 56/109/55 55/110/56
f 55/110/56 56/109/55 58/111/57 57/112/58
f 57/113/58 58/114/57 60/115/59 59/116/60
f 59/116/60 60/115/59 62/117/61 61/118/62
f 61/118/62 62/117/61 64/119/63 63/120/64
f 63/120/64 64/119/63 66/121/65 65/122/66
f 65/123/66 66/124/65 68/125/67 67/126/68
f 67/126/68 68/125/67 70/127/69 69/128/70
f 69/128/70 70/127/69 72/129/71 71/130/72
f 71/130/72 72/129/71 74/131/73 73/132/74
f 48/133/47 46/134/46 76/135/75 74/136/73 72/137/71 70/138/69 68/139/67 66/140/65 64/141/63 62/142/61 60/143/59 58/144/57 56/145/55 54/146/53 52/147/51 50/148/49
f 73/149/74 74/150/73 76/151/75 75/152/76
f 75/152/76 76/151/75 46/98/46 45/97/45
f 45/153/45 47/154/48 49/155/50 51/156/52 53/157/54 55/158/56 57/159/58 59/160/60 61/161/62 63/162/64 65/163/66 67/164/68 69/165/70 71/166/72 73/167/74 75/168/76
f 77/169/77 78/170/78 80/171/79 79/172/80
f 79/172/80 80/171/79 82/173/81 81/174/82
f 81/174/82 82/173/81 84/175/83 83/176/84
f 83/177/84 84/178/83 86/179/85 85/180/86
f 85/180/86 86/179/85 88/181/87 87/182/88
f 87/182/88 88/181/87 90/183/89 89/184/90
f 89/184/90 90/183/89 92/185/91 91/186/92
f 91/186/92 92/185/91 94/187/93 93/188/94
f 93/189/94 94/190/93 96/191/95 95/192/96
f 95/192/96 96/191/95 98/193/97 97/194/98
f 97/194/98 98/193/97 100/195/99 99/196/100
f 99/196/100 100/195/99 102/197/101 101/198/102
f 101/198/102 102/197/101 104/199/103 103/200/104
f 103/200/104 104/199/103 106/201/105 105/202/106
f 105/203/106 106/204/105 108/205/107 107/206/108
f 107/206/108 108/205/107 110/207/109 109/208/110
f 109/208/110 110/207/109 112/209/111 111/210/112
f 111/210/112 112/209/111 114/211/113 113/212/114
f 113/212/114 114/211/113 116/213/115 115/214/116
f 115/215/116 116/216/115 118/217/117 117/218/118
f 80/219/79 78/220/78 120/221/119 118/222/117 116/223/115 114/224/113 112/225/111 110/226/109 108/227/107 106/228/105 104/229/103 102/230/101 100/231/99 98/232/97 96/233/95 94/234/93 92/235/91 90/236/89 88/237/87 86/238/85 84/239/83 82/240/81
f 117/218/118 118/217/117 120/241/119 119/242/120
f 119/242/120 120/241/119 78/170/78 77/169/77
f 77/243/77 79/244/80 81/245/82 83/246/84 85/247/86 87/248/88 89/249/90 91/250/92 93/251/94 95/252/96 97/253/98 99/254/100 101/255/102 103/256/104 105/257/106 107/258/108 109/259/110 111/260/112 113/261/114 115/262/116 117/263/118 119/264/120
f 121/265/1 122/266/2 124/267/3 123/268/4
f 123/268/4 124/267/3 126/269/5 125/270/6
f 125/270/6 126/269/5 128/271/7 127/272/8
f 127/273/8 128/274/7 130/275/9 129/276/10
f 129/276/10 130/275/9 132/277/11 131/278/12
f 131/278/12 132/277/11 134/279/13 133/280/14
f 133/280/14 134/279/13 136/281/15 135/282/16
f 135/282/16 136/281/15 138/283/17 137/284/18
f 137/285/18 138/286/17 140/287/19 139/288/20
f 139/288/20 140/287/19 142/289/21 141/290/22
f 141/290/22 142/289/21 144/291/23 143/292/24
f 143/292/24 144/291/23 146/293/25 145/294/26
f 145/294/26 146/293/25 148/295/27 147/296/28
f 147/296/28 148/295/27 150/297/29 149/298/30
f 149/299/30 150/300/29 152/301/31 151/302/32
f 151/302/32 152/301/31 154/303/33 153/304/34
f 153/304/34 154/303/33 156/305/35 155/306/36
f 155/306/36 156/305/35 158/307/37 157/308/38
f 157/308/38 158/307/37 160/309/39 159/310/40
f 159/311/40 160/312/39 162/313/41 161/314/42
f 124/315/3 122/316/2 164/317/43 162/318/41 160/319/39 158/320/37 156/321/35 154/322/33 152/323/31 150/324/29 148/325/27 146/326/25 144/327/23 142/328/21 140/329/19 138/330/17 136/331/15 134/332/13 132/333/11 130/334/9 128/335/7 126/336/5
f 161/314/42 162/313/41 164/337/43 163/338/44
f 163/338/44 164/337/43 122/266/2 121/265/1
f 121/339/1 123/340/4 125/341/6 127/342/8 129/343/10 131/344/12 133/345/14 135/346/16 137/347/18 139/348/20 141/349/22 143/350/24 145/351/26 147/352/28 149/353/30 151/354/32 153/355/34 155/356/36 157/357/38 159/358/40 161/359/42 163/360/44
f 165/361/1 166/362/2 168/363/3 167/364/4
f 167/364/4 168/363/3 170/365/5 169/366/6
f 169/366/6 170/365/5 172/367/7 171/368/8
f 171/369/8 172/370/7 174/371/9 173/372/10
f 173/372/10 174/371/9 176/373/11 175/374/12
f 175/374/12 176/373/11 178/375/13 177/376/14
f 177/376/14 178/375/13 180/377/15 179/378/16
f 179/378/16 180/377/15 182/379/17 181/380/18
f 181/381/18 182/382/17 184/383/19 183/384/20
f 183/384/20 184/383/19 186/385/21 185/386/22
f 185/386/22 186/385/21 188/387/23 187/388/24
f 187/388/24 188/387/23 190/389/25 189/390/26
f 189/390/26 190/389/25 192/391/27 191/392/28
f 191/392/28 192/391/27 194/393/29 193/394/30
f 193/395/30 194/396/29 196/397/31 195/398/32
f 195/398/32 196/397/31 198/399/33 197/400/34
f 197/400/34 198/399/33 200/401/35 199/402/36
f 199/402/36 200/401/35 202/403/37 201/404/38
f 201/404/38 202/403/37 204/405/39 203/406/40
f 203/407/40 204/408/39 206/409/41 205/410/42
f 168/411/3 166/412/2 208/413/43 206/414/41 204/415/39 202/416/37 200/417/35 198/418/33 196/419/31 194/420/29 192/421/27 190/422/25 188/423/23 186/424/21 184/425/19 182/426/17 180/427/15 178/428/13 176/429/11 174/430/9 172/431/7 170/432/5
f 205/410/42 206/409/41 208/433/43 207/434/44
f 207/434/44 208/433/43 166/362/2 165/361/1
f 165/435/1 167/436/4 169/437/6 171/438/8 173/439/10 175/440/12 177/441/14 179/442/16 181/443/18 183/444/20 185/445/22 187/446/24 189/447/26 191/448/28 193/449/30 195/450/32 197/451/34 199/452/36 201/453/38 203/454/40 205/455/42 207/456/44
f 209/457/121 210/458/122 212/459/123 211/460/124
f 211/460/124 212/459/123 214/461/125 213/462/126
f 213/462/126 214/461/125 216/463/127 215/464/128
f 215/465/128 216/466/127 218/467/129 217/468/130
f 217/468/130 218/467/129 220/469/131 219/470/132
f 219/470/132 220/469/131 222/471/133 221/472/134
f 221/472/134 222/471/133 224/473/135 223/474/136
f 223/474/136 224/473/135 226/475/137 225/476/138
f 225/477/138 226/478/137 228/479/139 227/480/140
f 227/480/140 228/479/139 230/481/141 229/482/142
f 229/482/142 230/481/141 232/483/143 231/484/144
f 231/484/144 232/483/143 234/485/145 233/486/146
f 233/486/146 234/485/145 236/487/147 235/488/148
f 235/488/148 236/487/147 238/489/149 237/490/150
f 237/491/150 238/492/149 240/493/151 239/494/152
f 239/494/152 240/493/151 242/495/153 241/496/154
f 241/496/154 242/495/153 244/497/155 243/498/156
f 243/498/156 244/497/155 246/499/157 245/500/158
f 245/500/158 246/499/157 248/501/159 247/502/160
f 247/503/160 248/504/159 250/505/161 249/506/162
f 212/507/123 210/508/122 252/509/163 250/510/161 248/511/159 246/512/157 244/513/155 242/514/153 240/515/151 238/516/149 236/517/147 234/518/145 232/519/143 230/520/141 228/521/139 226/522/137 224/523/135 222/524/133 220/525/131 218/526/129 216/527/127 214/528/125
f 249/506/162 250/505/161 252/529/163 251/530/164
f 251/530/164 252/529/163 210/458/122 209/457/121
f 209/531/121 211/532/124 213/533/126 215/534/128 217/535/130 219/536/132 221/537/134 223/538/136 225/539/138 227/540/140 229/541/142 231/542/144 233/543/146 235/544/148 237/545/150 239/546/152 241/547/154 243/548/156 245/549/158 247/550/160 249/551/162 251/552/164
f 253/553/165 254/554/166 256/555/167 255/556/168
f 255/556/168 256/555/167 258/557/169 257/558/170
f 257/558/170 258/557/169 260/559/171 259/560/172
f 259/561/172 260/562/171 262/563/173 261/564/174
f 261/564/174 262/563/173 264/565/175 263/566/176
f 263/566/176 264/565/175 266/567/177 265/568/178
f 265/568/178 266/567/177 268/569/179 267/570/180
f 267/570/180 268/569/179 270/571/181 269/572/182
f 269/573/182 270/574/181 272/575/183 271/576/184
f 271/576/184 272/575/183 274/577/185 273/578/186
f 273/578/186 274/577/185 276/579/187 275/580/188
f 275/580/188 276/579/187 278/581/189 277/582/190
f 277/582/190 278/581/189 280/583/191 279/584/192
f 279/584/192 280/583/191 282/585/193 281/586/194
f 281/587/194 282/588/193 284/589/195 283/590/196
f 283/590/196 284/589/195 286/591/197 285/592/198
f 285/592/198 286/591/197 288/593/199 287/594/200
f 287/594/200 288/593/199 290/595/201 289/596/202
f 289/596/202 290/595/201 292/597/203 291/598/204
f 291/599/204 292/600/203 294/601/205 293/602/206
f 256/603/167 254/604/166 296/605/207 294/606/205 292/607/203 290/608/201 288/609/199 286/610/197 284/611/195 282/612/193 280/613/191 278/614/189 276/615/187 274/616/185 272/617/183 270/618/181 268/619/179 266/620/177 264/621/175 262/622/173 260/623/171 258/624/169
f 293/602/206 294/601/205 296/625/207 295/626/208
f 295/626/208 296/625/207 254/554/166 253/553/165
f 253/627/165 255/628/168 257/629/170 259/630/172 261/631/174 263/632/176 265/633/178 267/634/180 269/635/182 271/636/184 273/637/186 275/638/188 277/639/190 279/640/192 281/641/194 283/642/196 285/643/198 287/644/200 289/645/202 291/646/204 293/647/206 295/648/208
f 297/649/209 298/650/210 300/651/211 299/652/212
f 299/653/212 300/654/211 302/655/213 301/656/214
f 301/656/214 302/655/213 304/657/215 303/658/216
f 303/658/216 304/657/215 306/659/217 305/660/218
f 305/661/218 306/662/217 308/663/219 307/664/220
f 307/664/220 308/663/219 310/665/221 309/666/222
f 309/667/222 310/668/221 312/669/223 311/670/224
f 311/670/224 312/669/223 314/671/225 313/672/226
f 300/673/211 298/674/210 316/675/227 314/676/225 312/677/223 310/678/221 308/679/219 306/680/217 304/681/215 302/682/213
f 313/672/226 314/671/225 316/683/227 315/684/228
f 315/685/228 316/686/227 298/650/210 297/649/209
f 297/687/209 299/688/212 301/689/214 303/690/216 305/691/218 307/692/220 309/693/222 311/694/224 313/695/226 315/696/228
f 317/697/229 318/698/230 320/699/231 319/700/232
f 319/700/232 320/699/231 322/701/233 321/702/234
f 321/703/234 322/704/233 324/705/235 323/706/236
f 323/706/236 324/705/235 326/707/237 325/708/238
f 325/708/238 326/707/237 328/709/239 327/710/240
f 327/710/240 328/709/239 330/711/241 329/712/242
f 329/713/242 330/714/241 332/715/243 331/716/244
f 331/716/244 332/715/243 334/717/245 333/718/246
f 333/718/246 334/717/245 336/719/247 335/720/248
f 335/720/248 336/719/247 338/721/249 337/722/250
f 337/723/250 338/724/249 340/725/251 339/726/252
f 339/726/252 340/725/251 342/727/253 341/728/254
f 341/728/254 342/727/253 344/729/255 343/730/256
f 343/730/256 344/729/255 346/731/257 345/732/258
f 320/733/231 318/734/230 348/735/259 346/736/257 344/737/255 342/738/253 340/739/251 338/740/249 336/741/247 334/742/245 332/743/243 330/744/241 328/745/239 326/746/237 324/747/235 322/748/233
f 345/749/258 346/750/257 348/751/259 347/752/260
f 347/752/260 348/751/259 318/698/230 317/697/229
f 317/753/229 319/754/232 321/755/234 323/756/236 325/757/238 327/758/240 329/759/242 331/760/244 333/761/246 335/762/248 337/763/250 339/764/252 341/765/254 343/766/256 345/767/258 347/768/260
f 349/769/229 350/770/230 352/771/231 351/772/232
f 351/772/232 352/771/231 354/773/233 353/774/234
f 353/775/234 354/776/233 356/777/235 355/778/236
f 355/778/236 356/777/235 358/779/237 357/780/238
f 357/780/238 358/779/237 360/781/239 359/782/240
f 359/782/240 360/781/239 362/783/241 361/784/242
f 361/785/242 362/786/241 364/787/243 363/788/244
f 363/788/244 364/787/243 366/789/245 365/790/246
f 365/790/246 366/789/245 368/791/247 367/792/248
f 367/792/248 368/791/247 370/793/249 369/794/250
f 369/795/250 370/796/249 372/797/251 371/798/252
f 371/798/252 372/797/251 374/799/253 373/800/254
f 373/800/254 374/799/253 376/801/255 375/802/256
f 375/802/256 376/801/255 378/803/257 377/804/258
f 352/805/231 350/806/230 380/807/259 378/808/257 376/809/255 374/810/253 372/811/251 370/812/249 368/813/247 366/814/245 364/815/243 362/816/241 360/817/239 358/818/237 356/819/235 354/820/233
f 377/821/258 378/822/257 380/823/259 379/824/260
f 379/824/260 380/823/259 350/770/230 349/769/229
f 349/825/229 351/826/232 353/827/234 355/828/236 357/829/238 359/830/240 361/831/242 363/832/244 365/833/246 367/834/248 369/835/250 371/836/252 373/837/254 375/838/256 377/839/258 379/840/260
s 0
f 384/841/261 383/842/261 382/843/261 381/844/261
f 385/845/262 386/846/262 387/847/262 388/848/262
f 381/849/263 382/850/263 386/851/263 385/852/263
f 382/853/264 383/854/264 387/855/264 386/856/264
f 383/854/265 384/857/265 388/858/265 387/855/265
f 384/859/266 381/860/266 385/861/266 388/862/266
f 392/863/267 391/864/267 390/865/267 389/866/267
f 393/867/266 394/868/266 395/869/266 396/870/266
f 389/871/268 390/872/268 394/873/268 393/874/268
f 390/875/269 391/876/269 395/877/269 394/878/269
f 391/876/270 392/879/270 396/880/270 395/877/270
f 392/881/261 389/882/261 393/883/261 396/884/261
f 400/885/262 399/886/262 398/887/262 397/888/262
f 401/889/261 402/890/261 403/891/261 404/892/261
f 397/893/271 398/894/271 402/895/271 401/896/271
f 398/897/272 399/898/272 403/899/272 402/900/272
f 399/898/273 400/901/273 404/902/273 403/899/273
f 400/903/267 397/904/267 401/905/267 404/906/267
f 408/907/266 407/908/266 406/909/266 405/910/266
f 409/911/267 410/912/267 411/913/267 412/914/267
f 405/915/274 406/916/274 410/917/274 409/918/274
f 406/919/275 407/920/275 411/921/275 410/922/275
f 407/920/276 408/923/276 412/924/276 411/921/276
f 408/925/262 405/926/262 409/927/262 412/928/262
