# Blender 4.5.9 LTS
# www.blender.org
mtllib rocket_mk1.mtl
o RocketMk1
v 0.000000 4.435000 -0.955000
v 0.000000 5.185000 -0.955000
v 0.442320 4.435000 -0.891404
v 0.442320 5.185000 -0.891404
v 0.848806 4.435000 -0.705768
v 0.848806 5.185000 -0.705768
v 1.186527 4.435000 -0.413132
v 1.186527 5.185000 -0.413132
v 1.428123 4.435000 -0.037202
v 1.428123 5.185000 -0.037202
v 1.554020 4.435000 0.391566
v 1.554020 5.185000 0.391566
v 1.554020 4.435000 0.838434
v 1.554020 5.185000 0.838434
v 1.428123 4.435000 1.267202
v 1.428123 5.185000 1.267202
v 1.186527 4.435000 1.643131
v 1.186527 5.185000 1.643131
v 0.848806 4.435000 1.935768
v 0.848806 5.185000 1.935768
v 0.442320 4.435000 2.121404
v 0.442320 5.185000 2.121404
v 0.000000 4.435000 2.185000
v 0.000000 5.185000 2.185000
v -0.442320 4.435000 2.121404
v -0.442320 5.185000 2.121404
v -0.848806 4.435000 1.935768
v -0.848806 5.185000 1.935768
v -1.186527 4.435000 1.643131
v -1.186527 5.185000 1.643131
v -1.428123 4.435000 1.267202
v -1.428123 5.185000 1.267202
v -1.554020 4.435000 0.838434
v -1.554020 5.185000 0.838434
v -1.554020 4.435000 0.391566
v -1.554020 5.185000 0.391566
v -1.428123 4.435000 -0.037202
v -1.428123 5.185000 -0.037202
v -1.186527 4.435000 -0.413132
v -1.186527 5.185000 -0.413132
v -0.848806 4.435000 -0.705768
v -0.848806 5.185000 -0.705768
v -0.442320 4.435000 -0.891404
v -0.442320 5.185000 -0.891404
v 0.000000 0.000000 -0.210000
v 0.000000 1.260000 -0.210000
v 0.315714 0.000000 -0.147201
v 0.315714 1.260000 -0.147201
v 0.583363 0.000000 0.031637
v 0.583363 1.260000 0.031637
v 0.762200 0.000000 0.299286
v 0.762200 1.260000 0.299286
v 0.825000 0.000000 0.615000
v 0.825000 1.260000 0.615000
v 0.762200 0.000000 0.930714
v 0.762200 1.260000 0.930714
v 0.583363 0.000000 1.198363
v 0.583363 1.260000 1.198363
v 0.315714 0.000000 1.377201
v 0.315714 1.260000 1.377201
v 0.000000 0.000000 1.440000
v 0.000000 1.260000 1.440000
v -0.315714 0.000000 1.377201
v -0.315714 1.260000 1.377201
v -0.583363 0.000000 1.198363
v -0.583363 1.260000 1.198363
v -0.762200 0.000000 0.930714
v -0.762200 1.260000 0.930714
v -0.825000 0.000000 0.615000
v -0.825000 1.260000 0.615000
v -0.762200 0.000000 0.299286
v -0.762200 1.260000 0.299286
v -0.583363 0.000000 0.031637
v -0.583363 1.260000 0.031637
v -0.315714 0.000000 -0.147201
v -0.315714 1.260000 -0.147201
v 0.000000 0.510000 -1.005000
v 0.000000 1.910000 -0.705000
v 0.456407 0.510000 -0.939379
v 0.371887 1.910000 -0.651531
v 0.875838 0.510000 -0.747831
v 0.713646 1.910000 -0.495455
v 1.224314 0.510000 -0.445875
v 0.997589 1.910000 -0.249416
v 1.473604 0.510000 -0.057972
v 1.200714 1.910000 0.066652
v 1.603511 0.510000 0.384450
v 1.306564 1.910000 0.427144
v 1.603511 0.510000 0.845550
v 1.306564 1.910000 0.802856
v 1.473604 0.510000 1.287972
v 1.200714 1.910000 1.163348
v 1.224314 0.510000 1.675874
v 0.997589 1.910000 1.479416
v 0.875838 0.510000 1.977831
v 0.713646 1.910000 1.725455
v 0.456407 0.510000 2.169379
v 0.371887 1.910000 1.881531
v 0.000000 0.510000 2.235000
v 0.000000 1.910000 1.935000
v -0.456407 0.510000 2.169379
v -0.371887 1.910000 1.881531
v -0.875838 0.510000 1.977831
v -0.713646 1.910000 1.725455
v -1.224314 0.510000 1.675874
v -0.997589 1.910000 1.479416
v -1.473604 0.510000 1.287972
v -1.200714 1.910000 1.163348
v -1.603511 0.510000 0.845550
v -1.306564 1.910000 0.802856
v -1.603511 0.510000 0.384450
v -1.306564 1.910000 0.427144
v -1.473604 0.510000 -0.057972
v -1.200714 1.910000 0.066652
v -1.224314 0.510000 -0.445875
v -0.997589 1.910000 -0.249416
v -0.875838 0.510000 -0.747831
v -0.713646 1.910000 -0.495455
v -0.456407 0.510000 -0.939379
v -0.371887 1.910000 -0.651531
v 0.000000 1.610000 -0.885000
v 0.000000 6.410000 -0.885000
v 0.422599 1.610000 -0.824240
v 0.422599 6.410000 -0.824240
v 0.810961 1.610000 -0.646880
v 0.810961 6.410000 -0.646880
v 1.133624 1.610000 -0.367291
v 1.133624 6.410000 -0.367291
v 1.364448 1.610000 -0.008123
v 1.364448 6.410000 -0.008123
v 1.484732 1.610000 0.401528
v 1.484732 6.410000 0.401528
v 1.484732 1.610000 0.828472
v 1.484732 6.410000 0.828472
v 1.364448 1.610000 1.238122
v 1.364448 6.410000 1.238122
v 1.133624 1.610000 1.597291
v 1.133624 6.410000 1.597291
v 0.810961 1.610000 1.876880
v 0.810961 6.410000 1.876880
v 0.422599 1.610000 2.054240
v 0.422599 6.410000 2.054240
v 0.000000 1.610000 2.115000
v 0.000000 6.410000 2.115000
v -0.422599 1.610000 2.054240
v -0.422599 6.410000 2.054240
v -0.810961 1.610000 1.876880
v -0.810961 6.410000 1.876880
v -1.133624 1.610000 1.597291
v -1.133624 6.410000 1.597291
v -1.364448 1.610000 1.238122
v -1.364448 6.410000 1.238122
v -1.484732 1.610000 0.828472
v -1.484732 6.410000 0.828472
v -1.484732 1.610000 0.401528
v -1.484732 6.410000 0.401528
v -1.364448 1.610000 -0.008123
v -1.364448 6.410000 -0.008123
v -1.133624 1.610000 -0.367291
v -1.133624 6.410000 -0.367291
v -0.810961 1.610000 -0.646880
v -0.810961 6.410000 -0.646880
v -0.422599 1.610000 -0.824240
v -0.422599 6.410000 -0.824240
v 0.000000 2.900000 -0.935000
v 0.000000 3.120000 -0.935000
v 0.436686 2.900000 -0.872214
v 0.436686 3.120000 -0.872214
v 0.837994 2.900000 -0.688943
v 0.837994 3.120000 -0.688943
v 1.171412 2.900000 -0.400034
v 1.171412 3.120000 -0.400034
v 1.409929 2.900000 -0.028893
v 1.409929 3.120000 -0.028893
v 1.534224 2.900000 0.394412
v 1.534224 3.120000 0.394412
v 1.534224 2.900000 0.835588
v 1.534224 3.120000 0.835588
v 1.409929 2.900000 1.258893
v 1.409929 3.120000 1.258893
v 1.171412 2.900000 1.630034
v 1.171412 3.120000 1.630034
v 0.837994 2.900000 1.918943
v 0.837994 3.120000 1.918943
v 0.436686 2.900000 2.102214
v 0.436686 3.120000 2.102214
v 0.000000 2.900000 2.165000
v 0.000000 3.120000 2.165000
v -0.436686 2.900000 2.102214
v -0.436686 3.120000 2.102214
v -0.837994 2.900000 1.918943
v -0.837994 3.120000 1.918943
v -1.171412 2.900000 1.630034
v -1.171412 3.120000 1.630034
v -1.409929 2.900000 1.258893
v -1.409929 3.120000 1.258893
v -1.534224 2.900000 0.835588
v -1.534224 3.120000 0.835588
v -1.534224 2.900000 0.394412
v -1.534224 3.120000 0.394412
v -1.409929 2.900000 -0.028893
v -1.409929 3.120000 -0.028893
v -1.171412 2.900000 -0.400034
v -1.171412 3.120000 -0.400034
v -0.837994 2.900000 -0.688943
v -0.837994 3.120000 -0.688943
v -0.436686 2.900000 -0.872214
v -0.436686 3.120000 -0.872214
v 0.000000 6.410000 -0.885000
v 0.000000 7.210000 -0.405000
v 0.422599 6.410000 -0.824240
v 0.287367 7.210000 -0.363683
v 0.810961 6.410000 -0.646880
v 0.551454 7.210000 -0.243079
v 1.133624 6.410000 -0.367291
v 0.770864 7.210000 -0.052958
v 1.364448 6.410000 -0.008123
v 0.927825 7.210000 0.191277
v 1.484732 6.410000 0.401528
v 1.009618 7.210000 0.469839
v 1.484732 6.410000 0.828472
v 1.009618 7.210000 0.760161
v 1.364448 6.410000 1.238122
v 0.927825 7.210000 1.038723
v 1.133624 6.410000 1.597291
v 0.770864 7.210000 1.282958
v 0.810961 6.410000 1.876880
v 0.551454 7.210000 1.473078
v 0.422599 6.410000 2.054240
v 0.287367 7.210000 1.593683
v 0.000000 6.410000 2.115000
v 0.000000 7.210000 1.635000
v -0.422599 6.410000 2.054240
v -0.287367 7.210000 1.593683
v -0.810961 6.410000 1.876880
v -0.551454 7.210000 1.473078
v -1.133624 6.410000 1.597291
v -0.770864 7.210000 1.282958
v -1.364448 6.410000 1.238122
v -0.927825 7.210000 1.038723
v -1.484732 6.410000 0.828472
v -1.009618 7.210000 0.760161
v -1.484732 6.410000 0.401528
v -1.009618 7.210000 0.469839
v -1.364448 6.410000 -0.008123
v -0.927825 7.210000 0.191277
v -1.133624 6.410000 -0.367291
v -0.770864 7.210000 -0.052958
v -0.810961 6.410000 -0.646880
v -0.551454 7.210000 -0.243079
v -0.422599 6.410000 -0.824240
v -0.287367 7.210000 -0.363683
v 0.000000 7.210000 -0.405000
v 0.000000 9.759999 0.455000
v 0.287367 7.210000 -0.363683
v 0.045077 9.759999 0.461481
v 0.551454 7.210000 -0.243079
v 0.086502 9.759999 0.480399
v 0.770864 7.210000 -0.052958
v 0.120920 9.759999 0.510222
v 0.927825 7.210000 0.191277
v 0.145541 9.759999 0.548534
v 1.009618 7.210000 0.469839
v 0.158371 9.759999 0.592230
v 1.009618 7.210000 0.760161
v 0.158371 9.759999 0.637770
v 0.927825 7.210000 1.038723
v 0.145541 9.759999 0.681466
v 0.770864 7.210000 1.282958
v 0.120920 9.759999 0.719778
v 0.551454 7.210000 1.473078
v 0.086502 9.759999 0.749601
v 0.287367 7.210000 1.593683
v 0.045077 9.759999 0.768519
v 0.000000 7.210000 1.635000
v 0.000000 9.759999 0.775000
v -0.287367 7.210000 1.593683
v -0.045077 9.759999 0.768519
v -0.551454 7.210000 1.473078
v -0.086502 9.759999 0.749601
v -0.770864 7.210000 1.282958
v -0.120920 9.759999 0.719778
v -0.927825 7.210000 1.038723
v -0.145541 9.759999 0.681466
v -1.009618 7.210000 0.760161
v -0.158371 9.759999 0.637770
v -1.009618 7.210000 0.469839
v -0.158371 9.759999 0.592230
v -0.927825 7.210000 0.191277
v -0.145541 9.759999 0.548534
v -0.770864 7.210000 -0.052958
v -0.120920 9.759999 0.510222
v -0.551454 7.210000 -0.243079
v -0.086502 9.759999 0.480399
v -0.287367 7.210000 -0.363683
v -0.045077 9.759999 0.461481
v 0.000000 9.785000 0.315000
v 0.000000 10.135000 0.315000
v 0.176335 9.785000 0.372295
v 0.176335 10.135000 0.372295
v 0.285317 9.785000 0.522295
v 0.285317 10.135000 0.522295
v 0.285317 9.785000 0.707705
v 0.285317 10.135000 0.707705
v 0.176335 9.785000 0.857705
v 0.176335 10.135000 0.857705
v 0.000000 9.785000 0.915000
v 0.000000 10.135000 0.915000
v -0.176335 9.785000 0.857705
v -0.176335 10.135000 0.857705
v -0.285317 9.785000 0.707705
v -0.285317 10.135000 0.707705
v -0.285317 9.785000 0.522295
v -0.285317 10.135000 0.522295
v -0.176335 9.785000 0.372295
v -0.176335 10.135000 0.372295
v 0.160000 0.610000 -0.210000
v 0.160000 0.410000 -2.235000
v 0.160000 1.418000 -1.668000
v 0.160000 2.810000 -0.210000
v -0.160000 0.610000 -0.210000
v -0.160000 0.410000 -2.235000
v -0.160000 1.418000 -1.668000
v -0.160000 2.810000 -0.210000
v -0.794471 0.610000 0.888936
v -2.548172 0.410000 1.901436
v -2.057136 1.418000 1.617936
v -0.794471 2.810000 0.888936
v -0.634471 0.610000 1.166064
v -2.388172 0.410000 2.178564
v -1.897136 1.418000 1.895064
v -0.634471 2.810000 1.166064
v 0.634471 0.610000 1.166064
v 2.388172 0.410000 2.178565
v 1.897136 1.418000 1.895064
v 0.634471 2.810000 1.166064
v 0.794471 0.610000 0.888936
v 2.548172 0.410000 1.901436
v 2.057136 1.418000 1.617936
v 0.794471 2.810000 0.888936
vn -0.0000 -0.6764 -0.7365
vn -0.0000 0.6764 -0.7365
vn 0.2075 0.6764 -0.7067
vn 0.2075 -0.6764 -0.7067
vn 0.3982 0.6764 -0.6196
vn 0.3982 -0.6764 -0.6196
vn 0.5566 0.6764 -0.4823
vn 0.5566 -0.6764 -0.4823
vn 0.6699 0.6764 -0.3060
vn 0.6699 -0.6764 -0.3060
vn 0.7290 0.6764 -0.1048
vn 0.7290 -0.6764 -0.1048
vn 0.7290 0.6764 0.1048
vn 0.7290 -0.6764 0.1048
vn 0.6699 0.6764 0.3060
vn 0.6699 -0.6764 0.3060
vn 0.5566 0.6764 0.4823
vn 0.5566 -0.6764 0.4823
vn 0.3982 0.6764 0.6196
vn 0.3982 -0.6764 0.6196
vn 0.2075 0.6764 0.7067
vn 0.2075 -0.6764 0.7067
vn -0.0000 0.6764 0.7365
vn -0.0000 -0.6764 0.7365
vn -0.2075 0.6764 0.7067
vn -0.2075 -0.6764 0.7067
vn -0.3982 0.6764 0.6196
vn -0.3982 -0.6764 0.6196
vn -0.5566 0.6764 0.4823
vn -0.5566 -0.6764 0.4823
vn -0.6699 0.6764 0.3060
vn -0.6699 -0.6764 0.3060
vn -0.7290 0.6764 0.1048
vn -0.7290 -0.6764 0.1048
vn -0.7290 0.6764 -0.1048
vn -0.7290 -0.6764 -0.1048
vn -0.6699 0.6764 -0.3060
vn -0.6699 -0.6764 -0.3060
vn -0.5566 0.6764 -0.4823
vn -0.5566 -0.6764 -0.4823
vn -0.3982 0.6764 -0.6196
vn -0.3982 -0.6764 -0.6196
vn -0.2075 0.6764 -0.7067
vn -0.2075 -0.6764 -0.7067
vn -0.0000 -0.6657 -0.7462
vn -0.0000 0.6657 -0.7462
vn 0.2856 0.6657 -0.6894
vn 0.2856 -0.6657 -0.6894
vn 0.5276 0.6657 -0.5276
vn 0.5276 -0.6657 -0.5276
vn 0.6894 0.6657 -0.2856
vn 0.6894 -0.6657 -0.2856
vn 0.7462 0.6657 -0.0000
vn 0.7462 -0.6657 -0.0000
vn 0.6894 0.6657 0.2856
vn 0.6894 -0.6657 0.2856
vn 0.5276 0.6657 0.5276
vn 0.5276 -0.6657 0.5276
vn 0.2856 0.6657 0.6894
vn 0.2856 -0.6657 0.6894
vn -0.0000 0.6657 0.7462
vn -0.0000 -0.6657 0.7462
vn -0.2856 0.6657 0.6894
vn -0.2856 -0.6657 0.6894
vn -0.5276 0.6657 0.5276
vn -0.5276 -0.6657 0.5276
vn -0.6894 0.6657 0.2856
vn -0.6894 -0.6657 0.2856
vn -0.7462 0.6657 -0.0000
vn -0.7462 -0.6657 -0.0000
vn -0.6894 0.6657 -0.2856
vn -0.6894 -0.6657 -0.2856
vn -0.5276 0.6657 -0.5276
vn -0.5276 -0.6657 -0.5276
vn -0.2856 0.6657 -0.6894
vn -0.2856 -0.6657 -0.6894
vn -0.0000 -0.5963 -0.8028
vn -0.0000 0.7505 -0.6608
vn 0.1862 0.7505 -0.6341
vn 0.2262 -0.5963 -0.7703
vn 0.3573 0.7505 -0.5559
vn 0.4340 -0.5963 -0.6753
vn 0.4994 0.7505 -0.4328
vn 0.6067 -0.5963 -0.5257
vn 0.6011 0.7505 -0.2745
vn 0.7302 -0.5963 -0.3335
vn 0.6541 0.7505 -0.0940
vn 0.7946 -0.5963 -0.1142
vn 0.6541 0.7505 0.0940
vn 0.7946 -0.5963 0.1142
vn 0.6011 0.7505 0.2745
vn 0.7302 -0.5963 0.3335
vn 0.4994 0.7505 0.4328
vn 0.6067 -0.5963 0.5257
vn 0.3573 0.7505 0.5559
vn 0.4340 -0.5963 0.6753
vn 0.1862 0.7505 0.6341
vn 0.2262 -0.5963 0.7703
vn -0.0000 0.7505 0.6608
vn -0.0000 -0.5963 0.8028
vn -0.1862 0.7505 0.6341
vn -0.2262 -0.5963 0.7703
vn -0.3573 0.7505 0.5559
vn -0.4340 -0.5963 0.6753
vn -0.4994 0.7505 0.4328
vn -0.6067 -0.5963 0.5257
vn -0.6011 0.7505 0.2745
vn -0.7302 -0.5963 0.3335
vn -0.6541 0.7505 0.0940
vn -0.7946 -0.5963 0.1142
vn -0.6541 0.7505 -0.0940
vn -0.7946 -0.5963 -0.1142
vn -0.6011 0.7505 -0.2745
vn -0.7302 -0.5963 -0.3335
vn -0.4994 0.7505 -0.4328
vn -0.6067 -0.5963 -0.5257
vn -0.3573 0.7505 -0.5559
vn -0.4340 -0.5963 -0.6753
vn -0.1862 0.7505 -0.6341
vn -0.2262 -0.5963 -0.7703
vn -0.0000 -0.4617 -0.8870
vn -0.0000 0.8510 -0.5251
vn 0.1479 0.8510 -0.5039
vn 0.2499 -0.4617 -0.8511
vn 0.2839 0.8510 -0.4418
vn 0.4796 -0.4617 -0.7462
vn 0.3969 0.8510 -0.3439
vn 0.6704 -0.4617 -0.5809
vn 0.4777 0.8510 -0.2181
vn 0.8069 -0.4617 -0.3685
vn 0.5198 0.8510 -0.0747
vn 0.8780 -0.4617 -0.1262
vn 0.5198 0.8510 0.0747
vn 0.8780 -0.4617 0.1262
vn 0.4777 0.8510 0.2181
vn 0.8069 -0.4617 0.3685
vn 0.3969 0.8510 0.3439
vn 0.6704 -0.4617 0.5809
vn 0.2839 0.8510 0.4418
vn 0.4796 -0.4617 0.7462
vn 0.1479 0.8510 0.5039
vn 0.2499 -0.4617 0.8511
vn -0.0000 0.8510 0.5251
vn -0.0000 -0.4617 0.8870
vn -0.1479 0.8510 0.5039
vn -0.2499 -0.4617 0.8511
vn -0.2839 0.8510 0.4418
vn -0.4796 -0.4617 0.7462
vn -0.3969 0.8510 0.3439
vn -0.6704 -0.4617 0.5809
vn -0.4777 0.8510 0.2181
vn -0.8069 -0.4617 0.3685
vn -0.5198 0.8510 0.0747
vn -0.8780 -0.4617 0.1262
vn -0.5198 0.8510 -0.0747
vn -0.8780 -0.4617 -0.1262
vn -0.4777 0.8510 -0.2181
vn -0.8069 -0.4617 -0.3685
vn -0.3969 0.8510 -0.3439
vn -0.6704 -0.4617 -0.5809
vn -0.2839 0.8510 -0.4418
vn -0.4796 -0.4617 -0.7462
vn -0.1479 0.8510 -0.5039
vn -0.2499 -0.4617 -0.8511
vn -0.0000 -0.5508 -0.8347
vn -0.0000 0.7876 -0.6162
vn 0.1736 0.7876 -0.5912
vn 0.2351 -0.5508 -0.8008
vn 0.3331 0.7876 -0.5183
vn 0.4512 -0.5508 -0.7022
vn 0.4657 0.7876 -0.4035
vn 0.6308 -0.5508 -0.5466
vn 0.5605 0.7876 -0.2560
vn 0.7592 -0.5508 -0.3467
vn 0.6099 0.7876 -0.0877
vn 0.8262 -0.5508 -0.1188
vn 0.6099 0.7876 0.0877
vn 0.8262 -0.5508 0.1188
vn 0.5605 0.7876 0.2560
vn 0.7592 -0.5508 0.3467
vn 0.4657 0.7876 0.4035
vn 0.6308 -0.5508 0.5466
vn 0.3331 0.7876 0.5183
vn 0.4512 -0.5508 0.7022
vn 0.1736 0.7876 0.5912
vn 0.2351 -0.5508 0.8008
vn -0.0000 0.7876 0.6162
vn -0.0000 -0.5508 0.8347
vn -0.1736 0.7876 0.5912
vn -0.2351 -0.5508 0.8008
vn -0.3331 0.7876 0.5183
vn -0.4512 -0.5508 0.7022
vn -0.4657 0.7876 0.4035
vn -0.6308 -0.5508 0.5466
vn -0.5605 0.7876 0.2560
vn -0.7592 -0.5508 0.3467
vn -0.6099 0.7876 0.0877
vn -0.8262 -0.5508 0.1188
vn -0.6099 0.7876 -0.0877
vn -0.8262 -0.5508 -0.1188
vn -0.5605 0.7876 -0.2560
vn -0.7592 -0.5508 -0.3467
vn -0.4657 0.7876 -0.4035
vn -0.6308 -0.5508 -0.5466
vn -0.3331 0.7876 -0.5183
vn -0.4512 -0.5508 -0.7022
vn -0.1736 0.7876 -0.5912
vn -0.2351 -0.5508 -0.8008
vn -0.0000 -0.6437 -0.7653
vn -0.0000 0.6437 -0.7653
vn 0.4498 0.6437 -0.6191
vn 0.4498 -0.6437 -0.6191
vn 0.7278 0.6437 -0.2365
vn 0.7278 -0.6437 -0.2365
vn 0.7278 0.6437 0.2365
vn 0.7278 -0.6437 0.2365
vn 0.4498 0.6437 0.6191
vn 0.4498 -0.6437 0.6191
vn -0.0000 0.6437 0.7653
vn -0.0000 -0.6437 0.7653
vn -0.4498 0.6437 0.6191
vn -0.4498 -0.6437 0.6191
vn -0.7278 0.6437 0.2365
vn -0.7278 -0.6437 0.2365
vn -0.7278 0.6437 -0.2365
vn -0.7278 -0.6437 -0.2365
vn -0.4498 0.6437 -0.6191
vn -0.4498 -0.6437 -0.6191
vn -1.0000 -0.0000 -0.0000
vn 1.0000 -0.0000 -0.0000
vn -0.0000 0.9952 -0.0983
vn -0.0000 -0.4903 0.8716
vn -0.0000 -0.7233 0.6905
vn -0.0000 -0.0000 -1.0000
vn 0.5000 -0.0000 0.8660
vn -0.5000 -0.0000 -0.8660
vn -0.0851 0.9952 0.0491
vn 0.7548 -0.4903 -0.4358
vn 0.5980 -0.7233 -0.3453
vn -0.8660 -0.0000 0.5000
vn 0.5000 -0.0000 -0.8660
vn -0.5000 -0.0000 0.8660
vn 0.0851 0.9952 0.0491
vn -0.7548 -0.4903 -0.4358
vn -0.5980 -0.7233 -0.3453
vn 0.8660 -0.0000 0.5000
vt 0.939216 0.469938
vt 0.893885 0.469938
vt 0.893441 0.443026
vt 0.938772 0.443026
vt 0.892146 0.418295
vt 0.937477 0.418295
vt 0.890105 0.397747
vt 0.935436 0.397747
vt 0.936104 0.898405
vt 0.890631 0.897941
vt 0.892113 0.875379
vt 0.937587 0.875844
vt 0.893054 0.849458
vt 0.938527 0.849922
vt 0.893376 0.822277
vt 0.938849 0.822741
vt 0.893054 0.796038
vt 0.938527 0.796502
vt 0.892113 0.772866
vt 0.937587 0.773331
vt 0.890631 0.754640
vt 0.936104 0.755104
vt 0.941586 0.001928
vt 0.987137 0.001915
vt 0.986265 0.024716
vt 0.940714 0.024729
vt 0.985811 0.050766
vt 0.940259 0.050779
vt 0.985811 0.077954
vt 0.940259 0.077967
vt 0.986265 0.104078
vt 0.940714 0.104091
vt 0.987137 0.127021
vt 0.941586 0.127034
vt 0.958641 0.715345
vt 0.913165 0.715270
vt 0.914380 0.692112
vt 0.959856 0.692187
vt 0.915013 0.665878
vt 0.960489 0.665953
vt 0.915013 0.638695
vt 0.960489 0.638770
vt 0.914380 0.612765
vt 0.959856 0.612839
vt 0.913165 0.590187
vt 0.958641 0.590262
vt 0.935436 0.542129
vt 0.890105 0.542129
vt 0.892146 0.521581
vt 0.937477 0.521581
vt 0.306781 0.360949
vt 0.292082 0.338077
vt 0.284422 0.311989
vt 0.284422 0.284801
vt 0.292082 0.258714
vt 0.306781 0.235841
vt 0.327329 0.218037
vt 0.352060 0.206742
vt 0.378972 0.202873
vt 0.405884 0.206742
vt 0.430615 0.218037
vt 0.451163 0.235841
vt 0.465862 0.258714
vt 0.473522 0.284801
vt 0.473522 0.311990
vt 0.465862 0.338077
vt 0.451163 0.360949
vt 0.430615 0.378754
vt 0.405884 0.390048
vt 0.378972 0.393918
vt 0.352060 0.390048
vt 0.327329 0.378754
vt 0.893441 0.496850
vt 0.938772 0.496850
vt 0.099152 0.435274
vt 0.091492 0.409187
vt 0.091492 0.381998
vt 0.099152 0.355911
vt 0.113852 0.333038
vt 0.134399 0.315234
vt 0.159131 0.303939
vt 0.186043 0.300070
vt 0.212954 0.303939
vt 0.237686 0.315234
vt 0.258234 0.333039
vt 0.272933 0.355911
vt 0.280593 0.381998
vt 0.280593 0.409187
vt 0.272933 0.435274
vt 0.258234 0.458146
vt 0.237686 0.475951
vt 0.212954 0.487246
vt 0.186042 0.491115
vt 0.159131 0.487246
vt 0.134399 0.475951
vt 0.113851 0.458146
vt 0.512845 0.393918
vt 0.512845 0.317762
vt 0.532053 0.317324
vt 0.532053 0.393480
vt 0.548338 0.316076
vt 0.548338 0.392232
vt 0.552167 0.392475
vt 0.552167 0.316076
vt 0.568231 0.317002
vt 0.568231 0.393401
vt 0.587360 0.317349
vt 0.587360 0.393748
vt 0.606641 0.317065
vt 0.606641 0.393464
vt 0.623139 0.316193
vt 0.623139 0.392592
vt 0.832356 0.379428
vt 0.832356 0.302901
vt 0.846863 0.303682
vt 0.846863 0.380208
vt 0.865301 0.304073
vt 0.865301 0.380600
vt 0.884863 0.304017
vt 0.884863 0.380543
vt 0.902571 0.303521
vt 0.902571 0.380047
vt 0.626968 0.392592
vt 0.626968 0.316193
vt 0.643466 0.317065
vt 0.643466 0.393464
vt 0.662747 0.317349
vt 0.662747 0.393748
vt 0.681876 0.317002
vt 0.681876 0.393401
vt 0.697940 0.316076
vt 0.697940 0.392475
vt 0.821032 0.359256
vt 0.807184 0.373105
vt 0.789089 0.380600
vt 0.769504 0.380600
vt 0.751410 0.373105
vt 0.737561 0.359256
vt 0.730066 0.341162
vt 0.730066 0.321577
vt 0.737561 0.303483
vt 0.751410 0.289634
vt 0.769504 0.282139
vt 0.789089 0.282139
vt 0.807184 0.289634
vt 0.821032 0.303483
vt 0.828527 0.321577
vt 0.828527 0.341162
vt 0.477351 0.392232
vt 0.477351 0.316076
vt 0.493636 0.317324
vt 0.493636 0.393480
vt 0.168610 0.921415
vt 0.150515 0.928910
vt 0.130930 0.928910
vt 0.112836 0.921415
vt 0.098987 0.907566
vt 0.091492 0.889472
vt 0.091492 0.869887
vt 0.098987 0.851793
vt 0.112836 0.837944
vt 0.130930 0.830449
vt 0.150515 0.830449
vt 0.168610 0.837944
vt 0.182458 0.851793
vt 0.189953 0.869887
vt 0.189953 0.889472
vt 0.182458 0.907566
vt 0.484839 0.851033
vt 0.398128 0.851033
vt 0.397755 0.828407
vt 0.484381 0.823265
vt 0.396667 0.807613
vt 0.483045 0.797745
vt 0.394950 0.790338
vt 0.480938 0.776543
vt 0.574546 0.924408
vt 0.488668 0.911305
vt 0.489914 0.892336
vt 0.576076 0.901128
vt 0.490705 0.870543
vt 0.577046 0.874381
vt 0.490976 0.847690
vt 0.577379 0.846334
vt 0.490705 0.825629
vt 0.577046 0.819259
vt 0.489914 0.806147
vt 0.576076 0.795350
vt 0.488668 0.790823
vt 0.574546 0.776543
vt 0.858119 0.154192
vt 0.943966 0.166186
vt 0.943233 0.185357
vt 0.857219 0.177719
vt 0.942851 0.207259
vt 0.856750 0.204599
vt 0.942851 0.230118
vt 0.856750 0.232653
vt 0.943233 0.252082
vt 0.857219 0.259609
vt 0.943966 0.271371
vt 0.858119 0.283282
vt 0.934523 0.130981
vt 0.848495 0.119164
vt 0.849517 0.099693
vt 0.935777 0.107085
vt 0.850049 0.077637
vt 0.936430 0.080016
vt 0.850049 0.054782
vt 0.936430 0.051967
vt 0.849517 0.032980
vt 0.935777 0.025211
vt 0.848495 0.013998
vt 0.934523 0.001915
vt 0.480938 0.925523
vt 0.394950 0.911729
vt 0.396667 0.894453
vt 0.483045 0.904321
vt 0.689493 0.738062
vt 0.672217 0.723092
vt 0.659858 0.703862
vt 0.653418 0.681929
vt 0.653418 0.659070
vt 0.659858 0.637136
vt 0.672217 0.617906
vt 0.689493 0.602937
vt 0.710286 0.593440
vt 0.732913 0.590187
vt 0.755539 0.593440
vt 0.776333 0.602936
vt 0.793608 0.617906
vt 0.805967 0.637136
vt 0.812407 0.659070
vt 0.812407 0.681929
vt 0.805967 0.703862
vt 0.793608 0.723092
vt 0.776333 0.738062
vt 0.755539 0.747558
vt 0.732913 0.750811
vt 0.710286 0.747558
vt 0.397755 0.873660
vt 0.484381 0.878802
vt 0.307493 0.165025
vt 0.292326 0.141424
vt 0.284422 0.114506
vt 0.284422 0.086452
vt 0.292326 0.059534
vt 0.307493 0.035933
vt 0.328695 0.017561
vt 0.354214 0.005907
vt 0.381983 0.001915
vt 0.409752 0.005907
vt 0.435271 0.017561
vt 0.456473 0.035933
vt 0.471641 0.059534
vt 0.479544 0.086452
vt 0.479544 0.114506
vt 0.471641 0.141424
vt 0.456473 0.165025
vt 0.435271 0.183397
vt 0.409752 0.195051
vt 0.381983 0.199044
vt 0.354214 0.195051
vt 0.328695 0.183397
vt 0.070887 0.295643
vt 0.070887 0.005526
vt 0.096599 0.005102
vt 0.096599 0.295219
vt 0.120228 0.003865
vt 0.120228 0.293982
vt 0.139859 0.001915
vt 0.139859 0.292032
vt 0.143688 0.294356
vt 0.143688 0.003312
vt 0.165257 0.004508
vt 0.165257 0.295552
vt 0.190031 0.005154
vt 0.190031 0.296198
vt 0.216002 0.005197
vt 0.216002 0.296241
vt 0.241067 0.004633
vt 0.241067 0.295677
vt 0.263194 0.003509
vt 0.263194 0.294553
vt 0.280593 0.001915
vt 0.280593 0.292959
vt 0.606709 0.293444
vt 0.606709 0.001915
vt 0.628493 0.002754
vt 0.628493 0.294283
vt 0.653382 0.003195
vt 0.653382 0.294724
vt 0.679358 0.003202
vt 0.679358 0.294731
vt 0.704317 0.002776
vt 0.704317 0.294304
vt 0.726237 0.001949
vt 0.726237 0.293478
vt 0.483374 0.293155
vt 0.483374 0.002111
vt 0.505502 0.003236
vt 0.505502 0.294280
vt 0.530566 0.003799
vt 0.530566 0.294843
vt 0.556537 0.003756
vt 0.556537 0.294801
vt 0.581311 0.003111
vt 0.581311 0.294155
vt 0.602880 0.001915
vt 0.602880 0.292959
vt 0.001915 0.292032
vt 0.001915 0.001915
vt 0.021546 0.003865
vt 0.021546 0.293982
vt 0.156115 0.673774
vt 0.132486 0.662983
vt 0.112855 0.645972
vt 0.098811 0.624120
vt 0.091492 0.599196
vt 0.091492 0.573219
vt 0.098811 0.548295
vt 0.112855 0.526443
vt 0.132486 0.509432
vt 0.156115 0.498641
vt 0.181827 0.494944
vt 0.207539 0.498641
vt 0.231168 0.509432
vt 0.250799 0.526443
vt 0.264843 0.548295
vt 0.272161 0.573219
vt 0.272161 0.599196
vt 0.264843 0.624120
vt 0.250799 0.645972
vt 0.231168 0.662983
vt 0.207539 0.673774
vt 0.181827 0.677471
vt 0.045175 0.005102
vt 0.045175 0.295219
vt 0.325416 0.758226
vt 0.305784 0.741216
vt 0.291740 0.719363
vt 0.284422 0.694439
vt 0.284422 0.668463
vt 0.291740 0.643539
vt 0.305784 0.621686
vt 0.325416 0.604675
vt 0.349045 0.593884
vt 0.374756 0.590187
vt 0.400468 0.593884
vt 0.424097 0.604675
vt 0.443729 0.621686
vt 0.457773 0.643538
vt 0.465091 0.668463
vt 0.465091 0.694439
vt 0.457773 0.719363
vt 0.443729 0.741216
vt 0.424097 0.758226
vt 0.400468 0.769017
vt 0.374756 0.772714
vt 0.349045 0.769017
vt 0.959707 0.825912
vt 0.946410 0.825912
vt 0.945972 0.799343
vt 0.959269 0.799343
vt 0.944694 0.774926
vt 0.957991 0.774926
vt 0.942678 0.754640
vt 0.955976 0.754640
vt 0.976875 0.896251
vt 0.963536 0.896115
vt 0.965000 0.873841
vt 0.978339 0.873977
vt 0.965928 0.848250
vt 0.979267 0.848386
vt 0.966246 0.821415
vt 0.979585 0.821551
vt 0.965928 0.795510
vt 0.979267 0.795646
vt 0.965000 0.772634
vt 0.978339 0.772770
vt 0.963536 0.754640
vt 0.976875 0.754776
vt 0.984724 0.754644
vt 0.998085 0.754640
vt 0.997225 0.777151
vt 0.983863 0.777155
vt 0.996776 0.802869
vt 0.983414 0.802873
vt 0.996776 0.829711
vt 0.983414 0.829715
vt 0.997225 0.855502
vt 0.983863 0.855506
vt 0.998085 0.878153
vt 0.984724 0.878156
vt 0.984434 0.277703
vt 0.971094 0.277681
vt 0.972294 0.254818
vt 0.985633 0.254840
vt 0.972919 0.228918
vt 0.986258 0.228940
vt 0.972919 0.202082
vt 0.986258 0.202104
vt 0.972294 0.176481
vt 0.985633 0.176503
vt 0.971094 0.154192
vt 0.984434 0.154213
vt 0.955975 0.897183
vt 0.942678 0.897183
vt 0.944694 0.876897
vt 0.957991 0.876897
vt 0.326782 0.571387
vt 0.306496 0.553810
vt 0.291984 0.531228
vt 0.284422 0.505474
vt 0.284422 0.478631
vt 0.291984 0.452877
vt 0.306496 0.430296
vt 0.326782 0.412718
vt 0.351199 0.401567
vt 0.377768 0.397747
vt 0.404336 0.401567
vt 0.428753 0.412718
vt 0.449039 0.430295
vt 0.463551 0.452876
vt 0.471113 0.478631
vt 0.471113 0.505473
vt 0.463551 0.531228
vt 0.449039 0.553809
vt 0.428753 0.571387
vt 0.404337 0.582538
vt 0.377768 0.586358
vt 0.351199 0.582538
vt 0.945972 0.852480
vt 0.959269 0.852480
vt 0.497017 0.553810
vt 0.482505 0.531228
vt 0.474942 0.505474
vt 0.474942 0.478631
vt 0.482505 0.452877
vt 0.497017 0.430296
vt 0.517303 0.412718
vt 0.541719 0.401567
vt 0.568288 0.397747
vt 0.594857 0.401567
vt 0.619274 0.412718
vt 0.639560 0.430295
vt 0.654072 0.452876
vt 0.661634 0.478631
vt 0.661634 0.505473
vt 0.654072 0.531228
vt 0.639560 0.553809
vt 0.619274 0.571387
vt 0.594857 0.582538
vt 0.568288 0.586358
vt 0.541719 0.582538
vt 0.517303 0.571387
vt 0.272660 0.750273
vt 0.220959 0.750273
vt 0.220670 0.732788
vt 0.272236 0.724561
vt 0.219829 0.716721
vt 0.270999 0.700932
vt 0.218503 0.703371
vt 0.269049 0.681300
vt 0.631305 0.913455
vt 0.581208 0.893382
vt 0.582171 0.878724
vt 0.632721 0.891899
vt 0.582782 0.861884
vt 0.633620 0.867134
vt 0.582991 0.844225
vt 0.633928 0.841164
vt 0.582782 0.827177
vt 0.633620 0.816095
vt 0.582171 0.812123
vt 0.632721 0.793957
vt 0.581208 0.800282
vt 0.631305 0.776543
vt 0.219770 0.823074
vt 0.269667 0.842291
vt 0.269101 0.857104
vt 0.218937 0.844859
vt 0.268806 0.874029
vt 0.218503 0.869747
vt 0.268806 0.891692
vt 0.218503 0.895723
vt 0.269101 0.908664
vt 0.218937 0.920682
vt 0.269667 0.923570
vt 0.219770 0.942602
vt 0.052246 0.923886
vt 0.001915 0.905121
vt 0.002704 0.890075
vt 0.053407 0.901760
vt 0.003115 0.873032
vt 0.054012 0.876696
vt 0.003115 0.855372
vt 0.054012 0.850725
vt 0.002704 0.838525
vt 0.053407 0.825950
vt 0.001915 0.823857
vt 0.052246 0.804379
vt 0.269048 0.819245
vt 0.218503 0.797174
vt 0.219829 0.783824
vt 0.270999 0.799613
vt 0.735043 0.242031
vt 0.730066 0.225083
vt 0.730066 0.207419
vt 0.735043 0.190470
vt 0.744593 0.175611
vt 0.757942 0.164043
vt 0.774010 0.156705
vt 0.791494 0.154192
vt 0.808978 0.156705
vt 0.825046 0.164043
vt 0.838395 0.175611
vt 0.847945 0.190470
vt 0.852921 0.207419
vt 0.852921 0.225083
vt 0.847945 0.242031
vt 0.838395 0.256891
vt 0.825046 0.268458
vt 0.808978 0.275796
vt 0.791494 0.278310
vt 0.774010 0.275796
vt 0.757942 0.268458
vt 0.744593 0.256891
vt 0.220670 0.767757
vt 0.272236 0.775984
vt 0.509914 0.758226
vt 0.490282 0.741216
vt 0.476239 0.719363
vt 0.468920 0.694439
vt 0.468920 0.668463
vt 0.476238 0.643539
vt 0.490282 0.621686
vt 0.509914 0.604675
vt 0.533543 0.593884
vt 0.559255 0.590187
vt 0.584966 0.593884
vt 0.608595 0.604675
vt 0.628227 0.621686
vt 0.642271 0.643538
vt 0.649589 0.668463
vt 0.649589 0.694439
vt 0.642271 0.719363
vt 0.628227 0.741216
vt 0.608595 0.758226
vt 0.584967 0.769017
vt 0.559255 0.772714
vt 0.533543 0.769017
vt 0.839375 0.558256
vt 0.839375 0.398132
vt 0.842117 0.398087
vt 0.856859 0.557968
vt 0.844638 0.397955
vt 0.872926 0.557127
vt 0.846732 0.397747
vt 0.886276 0.555800
vt 0.816236 0.747649
vt 0.852891 0.590187
vt 0.855190 0.590338
vt 0.830894 0.748612
vt 0.857832 0.590434
vt 0.847735 0.749223
vt 0.860602 0.590467
vt 0.865394 0.749433
vt 0.863276 0.590434
vt 0.882441 0.749223
vt 0.865637 0.590338
vt 0.897495 0.748612
vt 0.867495 0.590187
vt 0.909336 0.747649
vt 0.001915 0.799689
vt 0.036325 0.642468
vt 0.038649 0.642557
vt 0.016728 0.800255
vt 0.041304 0.642603
vt 0.033653 0.800550
vt 0.044075 0.642603
vt 0.051316 0.800550
vt 0.046737 0.642557
vt 0.068288 0.800255
vt 0.049075 0.642468
vt 0.083194 0.799689
vt 0.001915 0.637438
vt 0.035646 0.479553
vt 0.038006 0.479677
vt 0.016960 0.638228
vt 0.040679 0.479741
vt 0.034004 0.638639
vt 0.043449 0.479741
vt 0.051664 0.638639
vt 0.046092 0.479677
vt 0.068511 0.638228
vt 0.048393 0.479553
vt 0.083179 0.637438
vt 0.792473 0.555800
vt 0.832018 0.397747
vt 0.834112 0.397955
vt 0.805823 0.557127
vt 0.768939 0.560674
vt 0.768158 0.558016
vt 0.768158 0.555245
vt 0.768939 0.552586
vt 0.770437 0.550255
vt 0.772531 0.548441
vt 0.775051 0.547290
vt 0.777794 0.546896
vt 0.780536 0.547290
vt 0.783057 0.548441
vt 0.785151 0.550255
vt 0.786649 0.552586
vt 0.787429 0.555245
vt 0.787429 0.558016
vt 0.786649 0.560674
vt 0.785151 0.563005
vt 0.783057 0.564820
vt 0.780536 0.565971
vt 0.777794 0.566365
vt 0.775051 0.565971
vt 0.772531 0.564820
vt 0.770437 0.563005
vt 0.836632 0.398087
vt 0.821891 0.557968
vt 0.653418 0.825531
vt 0.653418 0.807867
vt 0.658395 0.790919
vt 0.667945 0.776059
vt 0.681294 0.764492
vt 0.697362 0.757154
vt 0.714846 0.754640
vt 0.732330 0.757154
vt 0.748398 0.764492
vt 0.761747 0.776059
vt 0.771297 0.790919
vt 0.776273 0.807867
vt 0.776273 0.825531
vt 0.771297 0.842480
vt 0.761747 0.857339
vt 0.748398 0.868907
vt 0.732330 0.876245
vt 0.714846 0.878758
vt 0.697362 0.876245
vt 0.681294 0.868907
vt 0.667945 0.857339
vt 0.658395 0.842480
vt 0.803202 0.583639
vt 0.803202 0.562485
vt 0.813931 0.562085
vt 0.813931 0.583240
vt 0.743107 0.546930
vt 0.764329 0.546896
vt 0.763781 0.555889
vt 0.742559 0.555924
vt 0.763781 0.567168
vt 0.742559 0.567203
vt 0.764329 0.576423
vt 0.743107 0.576458
vt 0.817760 0.583342
vt 0.817760 0.562085
vt 0.827859 0.562383
vt 0.827859 0.583641
vt 0.838984 0.562272
vt 0.838984 0.583530
vt 0.911327 0.575521
vt 0.890105 0.575486
vt 0.890653 0.566230
vt 0.911875 0.566265
vt 0.890653 0.554952
vt 0.911875 0.554987
vt 0.682822 0.583401
vt 0.672094 0.579915
vt 0.665463 0.570789
vt 0.665463 0.559508
vt 0.672094 0.550381
vt 0.682822 0.546896
vt 0.693551 0.550382
vt 0.700182 0.559508
vt 0.700182 0.570789
vt 0.693551 0.579915
vt 0.890105 0.545958
vt 0.911327 0.545993
vt 0.792473 0.583240
vt 0.792473 0.562085
vt 0.710642 0.579915
vt 0.704011 0.570789
vt 0.704011 0.559508
vt 0.710642 0.550381
vt 0.721370 0.546896
vt 0.732099 0.550382
vt 0.738730 0.559508
vt 0.738730 0.570789
vt 0.732099 0.579915
vt 0.721370 0.583401
vt 0.665463 0.397747
vt 0.754154 0.482004
vt 0.788644 0.543066
vt 0.665463 0.531142
vt 0.214674 0.814695
vt 0.091492 0.826620
vt 0.125983 0.765557
vt 0.214674 0.681300
vt 0.967265 0.154192
vt 0.967265 0.277397
vt 0.947796 0.277397
vt 0.947796 0.154192
vt 0.653418 0.942002
vt 0.653418 0.882588
vt 0.672591 0.884402
vt 0.672591 0.943816
vt 0.929698 0.391609
vt 0.929698 0.302901
vt 0.949168 0.302901
vt 0.949168 0.391609
vt 0.077310 0.804379
vt 0.077310 0.937350
vt 0.057841 0.937350
vt 0.057841 0.804379
vt 0.054931 0.299472
vt 0.083850 0.407642
vt 0.083850 0.475724
vt 0.001915 0.422122
vt 0.886802 0.887610
vt 0.780102 0.892636
vt 0.809978 0.833689
vt 0.886802 0.754640
vt 0.193782 0.953655
vt 0.193782 0.830449
vt 0.213252 0.830449
vt 0.213252 0.953655
vt 0.676420 0.943919
vt 0.676420 0.882588
vt 0.692122 0.888231
vt 0.692122 0.949562
vt 0.721239 0.305040
vt 0.721239 0.393748
vt 0.701770 0.393748
vt 0.701770 0.305040
vt 0.981370 0.590964
vt 0.981370 0.724359
vt 0.964318 0.723583
vt 0.964318 0.590187
vt 0.284422 0.776543
vt 0.361245 0.855592
vt 0.391121 0.914539
vt 0.284422 0.909514
vt 0.844666 0.135532
vt 0.730066 0.150362
vt 0.762154 0.088390
vt 0.844666 0.001915
vt 0.943045 0.520953
vt 0.943045 0.397747
vt 0.962515 0.397747
vt 0.962515 0.520953
vt 0.695951 0.949562
vt 0.695951 0.888231
vt 0.711652 0.882588
vt 0.711652 0.943919
vt 0.925869 0.302901
vt 0.925869 0.391609
vt 0.906400 0.391609
vt 0.906400 0.302901
vt 0.983395 0.397747
vt 0.983395 0.531142
vt 0.966344 0.531919
vt 0.966344 0.398523
s 1
usemtl RocketBaked_1
f 1/1/1 2/2/2 4/3/3 3/4/4
f 3/4/4 4/3/3 6/5/5 5/6/6
f 5/6/6 6/5/5 8/7/7 7/8/8
f 7/9/8 8/10/7 10/11/9 9/12/10
f 9/12/10 10/11/9 12/13/11 11/14/12
f 11/14/12 12/13/11 14/15/13 13/16/14
f 13/16/14 14/15/13 16/17/15 15/18/16
f 15/18/16 16/17/15 18/19/17 17/20/18
f 17/20/18 18/19/17 20/21/19 19/22/20
f 19/23/20 20/24/19 22/25/21 21/26/22
f 21/26/22 22/25/21 24/27/23 23/28/24
f 23/28/24 24/27/23 26/29/25 25/30/26
f 25/30/26 26/29/25 28/31/27 27/32/28
f 27/32/28 28/31/27 30/33/29 29/34/30
f 29/35/30 30/36/29 32/37/31 31/38/32
f 31/38/32 32/37/31 34/39/33 33/40/34
f 33/40/34 34/39/33 36/41/35 35/42/36
f 35/42/36 36/41/35 38/43/37 37/44/38
f 37/44/38 38/43/37 40/45/39 39/46/40
f 39/47/40 40/48/39 42/49/41 41/50/42
f 4/51/3 2/52/2 44/53/43 42/54/41 40/55/39 38/56/37 36/57/35 34/58/33 32/59/31 30/60/29 28/61/27 26/62/25 24/63/23 22/64/21 20/65/19 18/66/17 16/67/15 14/68/13 12/69/11 10/70/9 8/71/7 6/72/5
f 41/50/42 42/49/41 44/73/43 43/74/44
f 43/74/44 44/73/43 2/2/2 1/1/1
f 1/75/1 3/76/4 5/77/6 7/78/8 9/79/10 11/80/12 13/81/14 15/82/16 17/83/18 19/84/20 21/85/22 23/86/24 25/87/26 27/88/28 29/89/30 31/90/32 33/91/34 35/92/36 37/93/38 39/94/40 41/95/42 43/96/44
f 45/97/45 46/98/46 48/99/47 47/100/48
f 47/100/48 48/99/47 50/101/49 49/102/50
f 49/103/50 50/104/49 52/105/51 51/106/52
f 51/106/52 52/105/51 54/107/53 53/108/54
f 53/108/54 54/107/53 56/109/55 55/110/56
f 55/110/56 56/109/55 58/111/57 57/112/58
f 57/113/58 58/114/57 60/115/59 59/116/60
f 59/116/60 60/115/59 62/117/61 61/118/62
f 61/118/62 62/117/61 64/119/63 63/120/64
f 63/120/64 64/119/63 66/121/65 65/122/66
f 65/123/66 66/124/65 68/125/67 67/126/68
f 67/126/68 68/125/67 70/127/69 69/128/70
f 69/128/70 70/127/69 72/129/71 71/130/72
f 71/130/72 72/129/71 74/131/73 73/132/74
f 48/133/47 46/134/46 76/135/75 74/136/73 72/137/71 70/138/69 68/139/67 66/140/65 64/141/63 62/142/61 60/143/59 58/144/57 56/145/55 54/146/53 52/147/51 50/148/49
f 73/149/74 74/150/73 76/151/75 75/152/76
f 75/152/76 76/151/75 46/98/46 45/97/45
f 45/153/45 47/154/48 49/155/50 51/156/52 53/157/54 55/158/56 57/159/58 59/160/60 61/161/62 63/162/64 65/163/66 67/164/68 69/165/70 71/166/72 73/167/74 75/168/76
f 77/169/77 78/170/78 80/171/79 79/172/80
f 79/172/80 80/171/79 82/173/81 81/174/82
f 81/174/82 82/173/81 84/175/83 83/176/84
f 83/177/84 84/178/83 86/179/85 85/180/86
f 85/180/86 86/179/85 88/181/87 87/182/88
f 87/182/88 88/181/87 90/183/89 89/184/90
f 89/184/90 90/183/89 92/185/91 91/186/92
f 91/186/92 92/185/91 94/187/93 93/188/94
f 93/188/94 94/187/93 96/189/95 95/190/96
f 95/191/96 96/192/95 98/193/97 97/194/98
f 97/194/98 98/193/97 100/195/99 99/196/100
f 99/196/100 100/195/99 102/197/101 101/198/102
f 101/198/102 102/197/101 104/199/103 103/200/104
f 103/200/104 104/199/103 106/201/105 105/202/106
f 105/203/106 106/204/105 108/205/107 107/206/108
f 107/206/108 108/205/107 110/207/109 109/208/110
f 109/208/110 110/207/109 112/209/111 111/210/112
f 111/210/112 112/209/111 114/211/113 113/212/114
f 113/212/114 114/211/113 116/213/115 115/214/116
f 115/215/116 116/216/115 118/217/117 117/218/118
f 80/219/79 78/220/78 120/221/119 118/222/117 116/223/115 114/224/113 112/225/111 110/226/109 108/227/107 106/228/105 104/229/103 102/230/101 100/231/99 98/232/97 96/233/95 94/234/93 92/235/91 90/236/89 88/237/87 86/238/85 84/239/83 82/240/81
f 117/218/118 118/217/117 120/241/119 119/242/120
f 119/242/120 120/241/119 78/170/78 77/169/77
f 77/243/77 79/244/80 81/245/82 83/246/84 85/247/86 87/248/88 89/249/90 91/250/92 93/251/94 95/252/96 97/253/98 99/254/100 101/255/102 103/256/104 105/257/106 107/258/108 109/259/110 111/260/112 113/261/114 115/262/116 117/263/118 119/264/120
f 121/265/1 122/266/2 124/267/3 123/268/4
f 123/268/4 124/267/3 126/269/5 125/270/6
f 125/270/6 126/269/5 128/271/7 127/272/8
f 127/273/8 128/274/7 130/275/9 129/276/10
f 129/276/10 130/275/9 132/277/11 131/278/12
f 131/278/12 132/277/11 134/279/13 133/280/14
f 133/280/14 134/279/13 136/281/15 135/282/16
f 135/282/16 136/281/15 138/283/17 137/284/18
f 137/284/18 138/283/17 140/285/19 139/286/20
f 139/287/20 140/288/19 142/289/21 141/290/22
f 141/290/22 142/289/21 144/291/23 143/292/24
f 143/292/24 144/291/23 146/293/25 145/294/26
f 145/294/26 146/293/25 148/295/27 147/296/28
f 147/296/28 148/295/27 150/297/29 149/298/30
f 149/299/30 150/300/29 152/301/31 151/302/32
f 151/302/32 152/301/31 154/303/33 153/304/34
f 153/304/34 154/303/33 156/305/35 155/306/36
f 155/306/36 156/305/35 158/307/37 157/308/38
f 157/308/38 158/307/37 160/309/39 159/310/40
f 159/311/40 160/312/39 162/313/41 161/314/42
f 124/315/3 122/316/2 164/317/43 162/318/41 160/319/39 158/320/37 156/321/35 154/322/33 152/323/31 150/324/29 148/325/27 146/326/25 144/327/23 142/328/21 140/329/19 138/330/17 136/331/15 134/332/13 132/333/11 130/334/9 128/335/7 126/336/5
f 161/314/42 162/313/41 164/337/43 163/338/44
f 163/338/44 164/337/43 122/266/2 121/265/1
f 121/339/1 123/340/4 125/341/6 127/342/8 129/343/10 131/344/12 133/345/14 135/346/16 137/347/18 139/348/20 141/349/22 143/350/24 145/351/26 147/352/28 149/353/30 151/354/32 153/355/34 155/356/36 157/357/38 159/358/40 161/359/42 163/360/44
f 165/361/1 166/362/2 168/363/3 167/364/4
f 167/364/4 168/363/3 170/365/5 169/366/6
f 169/366/6 170/365/5 172/367/7 171/368/8
f 171/369/8 172/370/7 174/371/9 173/372/10
f 173/372/10 174/371/9 176/373/11 175/374/12
f 175/374/12 176/373/11 178/375/13 177/376/14
f 177/376/14 178/375/13 180/377/15 179/378/16
f 179/378/16 180/377/15 182/379/17 181/380/18
f 181/380/18 182/379/17 184/381/19 183/382/20
f 183/383/20 184/384/19 186/385/21 185/386/22
f 185/386/22 186/385/21 188/387/23 187/388/24
f 187/388/24 188/387/23 190/389/25 189/390/26
f 189/390/26 190/389/25 192/391/27 191/392/28
f 191/392/28 192/391/27 194/393/29 193/394/30
f 193/395/30 194/396/29 196/397/31 195/398/32
f 195/398/32 196/397/31 198/399/33 197/400/34
f 197/400/34 198/399/33 200/401/35 199/402/36
f 199/402/36 200/401/35 202/403/37 201/404/38
f 201/404/38 202/403/37 204/405/39 203/406/40
f 203/407/40 204/408/39 206/409/41 205/410/42
f 168/411/3 166/412/2 208/413/43 206/414/41 204/415/39 202/416/37 200/417/35 198/418/33 196/419/31 194/420/29 192/421/27 190/422/25 188/423/23 186/424/21 184/425/19 182/426/17 180/427/15 178/428/13 176/429/11 174/430/9 172/431/7 170/432/5
f 205/410/42 206/409/41 208/433/43 207/434/44
f 207/434/44 208/433/43 166/362/2 165/361/1
f 165/435/1 167/436/4 169/437/6 171/438/8 173/439/10 175/440/12 177/441/14 179/442/16 181/443/18 183/444/20 185/445/22 187/446/24 189/447/26 191/448/28 193/449/30 195/450/32 197/451/34 199/452/36 201/453/38 203/454/40 205/455/42 207/456/44
f 209/457/121 210/458/122 212/459/123 211/460/124
f 211/460/124 212/459/123 214/461/125 213/462/126
f 213/462/126 214/461/125 216/463/127 215/464/128
f 215/465/128 216/466/127 218/467/129 217/468/130
f 217/468/130 218/467/129 220/469/131 219/470/132
f 219/470/132 220/469/131 222/471/133 221/472/134
f 221/472/134 222/471/133 224/473/135 223/474/136
f 223/474/136 224/473/135 226/475/137 225/476/138
f 225/476/138 226/475/137 228/477/139 227/478/140
f 227/479/140 228/480/139 230/481/141 229/482/142
f 229/482/142 230/481/141 232/483/143 231/484/144
f 231/484/144 232/483/143 234/485/145 233/486/146
f 233/486/146 234/485/145 236/487/147 235/488/148
f 235/488/148 236/487/147 238/489/149 237/490/150
f 237/491/150 238/492/149 240/493/151 239/494/152
f 239/494/152 240/493/151 242/495/153 241/496/154
f 241/496/154 242/495/153 244/497/155 243/498/156
f 243/498/156 244/497/155 246/499/157 245/500/158
f 245/500/158 246/499/157 248/501/159 247/502/160
f 247/503/160 248/504/159 250/505/161 249/506/162
f 212/507/123 210/508/122 252/509/163 250/510/161 248/511/159 246/512/157 244/513/155 242/514/153 240/515/151 238/516/149 236/517/147 234/518/145 232/519/143 230/520/141 228/521/139 226/522/137 224/523/135 222/524/133 220/525/131 218/526/129 216/527/127 214/528/125
f 249/506/162 250/505/161 252/529/163 251/530/164
f 251/530/164 252/529/163 210/458/122 209/457/121
f 209/531/121 211/532/124 213/533/126 215/534/128 217/535/130 219/536/132 221/537/134 223/538/136 225/539/138 227/540/140 229/541/142 231/542/144 233/543/146 235/544/148 237/545/150 239/546/152 241/547/154 243/548/156 245/549/158 247/550/160 249/551/162 251/552/164
f 253/553/165 254/554/166 256/555/167 255/556/168
f 255/556/168 256/555/167 258/557/169 257/558/170
f 257/558/170 258/557/169 260/559/171 259/560/172
f 259/561/172 260/562/171 262/563/173 261/564/174
f 261/564/174 262/563/173 264/565/175 263/566/176
f 263/566/176 264/565/175 266/567/177 265/568/178
f 265/568/178 266/567/177 268/569/179 267/570/180
f 267/570/180 268/569/179 270/571/181 269/572/182
f 269/572/182 270/571/181 272/573/183 271/574/184
f 271/575/184 272/576/183 274/577/185 273/578/186
f 273/578/186 274/577/185 276/579/187 275/580/188
f 275/580/188 276/579/187 278/581/189 277/582/190
f 277/582/190 278/581/189 280/583/191 279/584/192
f 279/584/192 280/583/191 282/585/193 281/586/194
f 281/587/194 282/588/193 284/589/195 283/590/196
f 283/590/196 284/589/195 286/591/197 285/592/198
f 285/592/198 286/591/197 288/593/199 287/594/200
f 287/594/200 288/593/199 290/595/201 289/596/202
f 289/596/202 290/595/201 292/597/203 291/598/204
f 291/599/204 292/600/203 294/601/205 293/602/206
f 256/603/167 254/604/166 296/605/207 294/606/205 292/607/203 290/608/201 288/609/199 286/610/197 284/611/195 282/612/193 280/613/191 278/614/189 276/615/187 274/616/185 272/617/183 270/618/181 268/619/179 266/620/177 264/621/175 262/622/173 260/623/171 258/624/169
f 293/602/206 294/601/205 296/625/207 295/626/208
f 295/626/208 296/625/207 254/554/166 253/553/165
f 253/627/165 255/628/168 257/629/170 259/630/172 261/631/174 263/632/176 265/633/178 267/634/180 269/635/182 271/636/184 273/637/186 275/638/188 277/639/190 279/640/192 281/641/194 283/642/196 285/643/198 287/644/200 289/645/202 291/646/204 293/647/206 295/648/208
f 297/649/209 298/650/210 300/651/211 299/652/212
f 299/653/212 300/654/211 302/655/213 301/656/214
f 301/656/214 302/655/213 304/657/215 303/658/216
f 303/658/216 304/657/215 306/659/217 305/660/218
f 305/661/218 306/662/217 308/663/219 307/664/220
f 307/664/220 308/663/219 310/665/221 309/666/222
f 309/667/222 310/668/221 312/669/223 311/670/224
f 311/670/224 312/669/223 314/671/225 313/672/226
f 300/673/211 298/674/210 316/675/227 314/676/225 312/677/223 310/678/221 308/679/219 306/680/217 304/681/215 302/682/213
f 313/672/226 314/671/225 316/683/227 315/684/228
f 315/685/228 316/686/227 298/650/210 297/649/209
f 297/687/209 299/688/212 301/689/214 303/690/216 305/691/218 307/692/220 309/693/222 311/694/224 313/695/226 315/696/228
s 0
f 320/697/229 319/698/229 318/699/229 317/700/229
f 321/701/230 322/702/230 323/703/230 324/704/230
f 317/705/231 318/706/231 322/707/231 321/708/231
f 318/709/232 319/710/232 323/711/232 322/712/232
f 319/713/233 320/714/233 324/715/233 323/716/233
f 320/717/234 317/718/234 321/719/234 324/720/234
f 328/721/235 327/722/235 326/723/235 325/724/235
f 329/725/236 330/726/236 331/727/236 332/728/236
f 325/729/237 326/730/237 330/731/237 329/732/237
f 326/733/238 327/734/238 331/735/238 330/736/238
f 327/737/239 328/738/239 332/739/239 331/740/239
f 328/741/240 325/742/240 329/743/240 332/744/240
f 336/745/241 335/746/241 334/747/241 333/748/241
f 337/749/242 338/750/242 339/751/242 340/752/242
f 333/753/243 334/754/243 338/755/243 337/756/243
f 334/757/244 335/758/244 339/759/244 338/760/244
f 335/761/245 336/762/245 340/763/245 339/764/245
f 336/765/246 333/766/246 337/767/246 340/768/246
