# Blender 4.5.9 LTS
# www.blender.org
mtllib air_defense_base.mtl
o AirDefense_base
v -2.600000 6.130000 2.380000
v -2.600000 6.430000 2.380000
v -2.444436 6.130000 2.444436
v -2.444436 6.430000 2.444436
v -2.380000 6.130000 2.600000
v -2.380000 6.430000 2.600000
v -2.444436 6.130000 2.755563
v -2.444436 6.430000 2.755563
v -2.600000 6.130000 2.820000
v -2.600000 6.430000 2.820000
v -2.755563 6.130000 2.755563
v -2.755563 6.430000 2.755563
v -2.820000 6.130000 2.600000
v -2.820000 6.430000 2.600000
v -2.755563 6.130000 2.444436
v -2.755563 6.430000 2.444436
v 0.000000 0.000000 -4.300000
v 0.000000 2.400000 -4.300000
v 0.956840 0.000000 -4.192190
v 0.956840 2.400000 -4.192190
v 1.865700 0.000000 -3.874166
v 1.865700 2.400000 -3.874166
v 2.681006 0.000000 -3.361875
v 2.681006 2.400000 -3.361875
v 3.361875 0.000000 -2.681006
v 3.361875 2.400000 -2.681006
v 3.874166 0.000000 -1.865700
v 3.874166 2.400000 -1.865700
v 4.192190 0.000000 -0.956840
v 4.192190 2.400000 -0.956840
v 4.300000 0.000000 0.000000
v 4.300000 2.400000 0.000000
v 4.192190 0.000000 0.956840
v 4.192190 2.400000 0.956840
v 3.874166 0.000000 1.865700
v 3.874166 2.400000 1.865700
v 3.361875 0.000000 2.681006
v 3.361875 2.400000 2.681006
v 2.681006 0.000000 3.361875
v 2.681006 2.400000 3.361875
v 1.865700 0.000000 3.874166
v 1.865700 2.400000 3.874166
v 0.956840 0.000000 4.192190
v 0.956840 2.400000 4.192190
v 0.000000 0.000000 4.300000
v 0.000000 2.400000 4.300000
v -0.956840 0.000000 4.192190
v -0.956840 2.400000 4.192190
v -1.865700 0.000000 3.874166
v -1.865700 2.400000 3.874166
v -2.681006 0.000000 3.361875
v -2.681006 2.400000 3.361875
v -3.361875 0.000000 2.681006
v -3.361875 2.400000 2.681006
v -3.874166 0.000000 1.865700
v -3.874166 2.400000 1.865700
v -4.192190 0.000000 0.956840
v -4.192190 2.400000 0.956840
v -4.300000 0.000000 0.000000
v -4.300000 2.400000 0.000000
v -4.192190 0.000000 -0.956840
v -4.192190 2.400000 -0.956840
v -3.874166 0.000000 -1.865700
v -3.874166 2.400000 -1.865700
v -3.361875 0.000000 -2.681006
v -3.361875 2.400000 -2.681006
v -2.681006 0.000000 -3.361875
v -2.681006 2.400000 -3.361875
v -1.865700 0.000000 -3.874166
v -1.865700 2.400000 -3.874166
v -0.956840 0.000000 -4.192190
v -0.956840 2.400000 -4.192190
v 0.000000 2.375000 -4.050000
v 0.000000 2.725000 -4.050000
v 0.901210 2.375000 -3.948458
v 0.901210 2.725000 -3.948458
v 1.757229 2.375000 -3.648924
v 1.757229 2.725000 -3.648924
v 2.525134 2.375000 -3.166418
v 2.525134 2.725000 -3.166418
v 3.166418 2.375000 -2.525134
v 3.166418 2.725000 -2.525134
v 3.648924 2.375000 -1.757229
v 3.648924 2.725000 -1.757229
v 3.948458 2.375000 -0.901210
v 3.948458 2.725000 -0.901210
v 4.050000 2.375000 0.000000
v 4.050000 2.725000 0.000000
v 3.948458 2.375000 0.901210
v 3.948458 2.725000 0.901210
v 3.648924 2.375000 1.757229
v 3.648924 2.725000 1.757229
v 3.166418 2.375000 2.525134
v 3.166418 2.725000 2.525134
v 2.525134 2.375000 3.166418
v 2.525134 2.725000 3.166418
v 1.757229 2.375000 3.648924
v 1.757229 2.725000 3.648924
v 0.901210 2.375000 3.948458
v 0.901210 2.725000 3.948458
v 0.000000 2.375000 4.050000
v 0.000000 2.725000 4.050000
v -0.901210 2.375000 3.948458
v -0.901210 2.725000 3.948458
v -1.757229 2.375000 3.648924
v -1.757229 2.725000 3.648924
v -2.525134 2.375000 3.166418
v -2.525134 2.725000 3.166418
v -3.166418 2.375000 2.525134
v -3.166418 2.725000 2.525134
v -3.648924 2.375000 1.757229
v -3.648924 2.725000 1.757229
v -3.948458 2.375000 0.901210
v -3.948458 2.725000 0.901210
v -4.050000 2.375000 0.000000
v -4.050000 2.725000 0.000000
v -3.948458 2.375000 -0.901210
v -3.948458 2.725000 -0.901210
v -3.648924 2.375000 -1.757229
v -3.648924 2.725000 -1.757229
v -3.166418 2.375000 -2.525134
v -3.166418 2.725000 -2.525134
v -2.525134 2.375000 -3.166418
v -2.525134 2.725000 -3.166418
v -1.757229 2.375000 -3.648924
v -1.757229 2.725000 -3.648924
v -0.901210 2.375000 -3.948458
v -0.901210 2.725000 -3.948458
v 3.300000 2.720000 -0.320000
v 3.300000 2.940000 -0.320000
v 3.488091 2.720000 -0.258885
v 3.488091 2.940000 -0.258885
v 3.604338 2.720000 -0.098886
v 3.604338 2.940000 -0.098886
v 3.604338 2.720000 0.098886
v 3.604338 2.940000 0.098886
v 3.488091 2.720000 0.258885
v 3.488091 2.940000 0.258885
v 3.300000 2.720000 0.320000
v 3.300000 2.940000 0.320000
v 3.111908 2.720000 0.258885
v 3.111908 2.940000 0.258885
v 2.995662 2.720000 0.098886
v 2.995662 2.940000 0.098886
v 2.995662 2.720000 -0.098886
v 2.995662 2.940000 -0.098886
v 3.111908 2.720000 -0.258885
v 3.111908 2.940000 -0.258885
v 2.669756 2.720000 -2.259691
v 2.669756 2.940000 -2.259691
v 2.857848 2.720000 -2.198576
v 2.857848 2.940000 -2.198576
v 2.974094 2.720000 -2.038577
v 2.974094 2.940000 -2.038577
v 2.974094 2.720000 -1.840806
v 2.974094 2.940000 -1.840806
v 2.857848 2.720000 -1.680806
v 2.857848 2.940000 -1.680806
v 2.669756 2.720000 -1.619691
v 2.669756 2.940000 -1.619691
v 2.481665 2.720000 -1.680806
v 2.481665 2.940000 -1.680806
v 2.365418 2.720000 -1.840806
v 2.365418 2.940000 -1.840806
v 2.365418 2.720000 -2.038577
v 2.365418 2.940000 -2.038577
v 2.481665 2.720000 -2.198576
v 2.481665 2.940000 -2.198576
v 1.019756 2.720000 -3.458487
v 1.019756 2.940000 -3.458487
v 1.207847 2.720000 -3.397372
v 1.207847 2.940000 -3.397372
v 1.324094 2.720000 -3.237372
v 1.324094 2.940000 -3.237372
v 1.324094 2.720000 -3.039601
v 1.324094 2.940000 -3.039601
v 1.207847 2.720000 -2.879601
v 1.207847 2.940000 -2.879601
v 1.019756 2.720000 -2.818486
v 1.019756 2.940000 -2.818486
v 0.831665 2.720000 -2.879601
v 0.831665 2.940000 -2.879601
v 0.715418 2.720000 -3.039601
v 0.715418 2.940000 -3.039601
v 0.715418 2.720000 -3.237372
v 0.715418 2.940000 -3.237372
v 0.831665 2.720000 -3.397372
v 0.831665 2.940000 -3.397372
v -1.019756 2.720000 -3.458487
v -1.019756 2.940000 -3.458487
v -0.831665 2.720000 -3.397372
v -0.831665 2.940000 -3.397372
v -0.715418 2.720000 -3.237372
v -0.715418 2.940000 -3.237372
v -0.715418 2.720000 -3.039601
v -0.715418 2.940000 -3.039601
v -0.831665 2.720000 -2.879601
v -0.831665 2.940000 -2.879601
v -1.019756 2.720000 -2.818486
v -1.019756 2.940000 -2.818486
v -1.207847 2.720000 -2.879601
v -1.207847 2.940000 -2.879601
v -1.324094 2.720000 -3.039601
v -1.324094 2.940000 -3.039601
v -1.324094 2.720000 -3.237372
v -1.324094 2.940000 -3.237372
v -1.207847 2.720000 -3.397372
v -1.207847 2.940000 -3.397372
v -2.669756 2.720000 -2.259691
v -2.669756 2.940000 -2.259691
v -2.481665 2.720000 -2.198576
v -2.481665 2.940000 -2.198576
v -2.365418 2.720000 -2.038577
v -2.365418 2.940000 -2.038577
v -2.365418 2.720000 -1.840806
v -2.365418 2.940000 -1.840806
v -2.481665 2.720000 -1.680806
v -2.481665 2.940000 -1.680806
v -2.669756 2.720000 -1.619691
v -2.669756 2.940000 -1.619691
v -2.857847 2.720000 -1.680806
v -2.857847 2.940000 -1.680806
v -2.974094 2.720000 -1.840806
v -2.974094 2.940000 -1.840806
v -2.974094 2.720000 -2.038577
v -2.974094 2.940000 -2.038577
v -2.857847 2.720000 -2.198576
v -2.857847 2.940000 -2.198576
v -3.300000 2.720000 -0.320000
v -3.300000 2.940000 -0.320000
v -3.111909 2.720000 -0.258885
v -3.111909 2.940000 -0.258885
v -2.995662 2.720000 -0.098886
v -2.995662 2.940000 -0.098886
v -2.995662 2.720000 0.098886
v -2.995662 2.940000 0.098886
v -3.111909 2.720000 0.258885
v -3.111909 2.940000 0.258885
v -3.300000 2.720000 0.320000
v -3.300000 2.940000 0.320000
v -3.488091 2.720000 0.258885
v -3.488091 2.940000 0.258885
v -3.604338 2.720000 0.098886
v -3.604338 2.940000 0.098886
v -3.604338 2.720000 -0.098886
v -3.604338 2.940000 -0.098886
v -3.488091 2.720000 -0.258885
v -3.488091 2.940000 -0.258885
v -2.669756 2.720000 1.619691
v -2.669756 2.940000 1.619691
v -2.481665 2.720000 1.680806
v -2.481665 2.940000 1.680806
v -2.365418 2.720000 1.840806
v -2.365418 2.940000 1.840806
v -2.365418 2.720000 2.038577
v -2.365418 2.940000 2.038577
v -2.481665 2.720000 2.198577
v -2.481665 2.940000 2.198577
v -2.669756 2.720000 2.259691
v -2.669756 2.940000 2.259691
v -2.857847 2.720000 2.198577
v -2.857847 2.940000 2.198577
v -2.974094 2.720000 2.038577
v -2.974094 2.940000 2.038577
v -2.974094 2.720000 1.840806
v -2.974094 2.940000 1.840806
v -2.857847 2.720000 1.680806
v -2.857847 2.940000 1.680806
v -1.019756 2.720000 2.818486
v -1.019756 2.940000 2.818486
v -0.831665 2.720000 2.879601
v -0.831665 2.940000 2.879601
v -0.715418 2.720000 3.039601
v -0.715418 2.940000 3.039601
v -0.715418 2.720000 3.237372
v -0.715418 2.940000 3.237372
v -0.831665 2.720000 3.397372
v -0.831665 2.940000 3.397372
v -1.019756 2.720000 3.458486
v -1.019756 2.940000 3.458486
v -1.207847 2.720000 3.397372
v -1.207847 2.940000 3.397372
v -1.324094 2.720000 3.237372
v -1.324094 2.940000 3.237372
v -1.324094 2.720000 3.039601
v -1.324094 2.940000 3.039601
v -1.207847 2.720000 2.879601
v -1.207847 2.940000 2.879601
v 1.019756 2.720000 2.818486
v 1.019756 2.940000 2.818486
v 1.207847 2.720000 2.879601
v 1.207847 2.940000 2.879601
v 1.324094 2.720000 3.039601
v 1.324094 2.940000 3.039601
v 1.324094 2.720000 3.237372
v 1.324094 2.940000 3.237372
v 1.207847 2.720000 3.397372
v 1.207847 2.940000 3.397372
v 1.019756 2.720000 3.458486
v 1.019756 2.940000 3.458486
v 0.831665 2.720000 3.397372
v 0.831665 2.940000 3.397372
v 0.715418 2.720000 3.237372
v 0.715418 2.940000 3.237372
v 0.715418 2.720000 3.039601
v 0.715418 2.940000 3.039601
v 0.831665 2.720000 2.879601
v 0.831665 2.940000 2.879601
v 2.669756 2.720000 1.619691
v 2.669756 2.940000 1.619691
v 2.857848 2.720000 1.680806
v 2.857848 2.940000 1.680806
v 2.974094 2.720000 1.840806
v 2.974094 2.940000 1.840806
v 2.974094 2.720000 2.038577
v 2.974094 2.940000 2.038577
v 2.857848 2.720000 2.198577
v 2.857848 2.940000 2.198577
v 2.669756 2.720000 2.259691
v 2.669756 2.940000 2.259691
v 2.481665 2.720000 2.198577
v 2.481665 2.940000 2.198577
v 2.365418 2.720000 2.038577
v 2.365418 2.940000 2.038577
v 2.365418 2.720000 1.840806
v 2.365418 2.940000 1.840806
v 2.481665 2.720000 1.680806
v 2.481665 2.940000 1.680806
v -3.100000 2.700000 3.100000
v -3.100000 6.300000 3.100000
v -3.100000 2.700000 -3.100000
v -3.100000 6.300000 -3.100000
v 3.100000 2.700000 3.100000
v 3.100000 6.300000 3.100000
v 3.100000 2.700000 -3.100000
v 3.100000 6.300000 -3.100000
v -3.450000 5.900000 -2.750000
v -3.450000 6.300000 -2.750000
v -3.450000 5.900000 -3.250000
v -3.450000 6.300000 -3.250000
v 3.450000 5.900000 -2.750000
v 3.450000 6.300000 -2.750000
v 3.450000 5.900000 -3.250000
v 3.450000 6.300000 -3.250000
v -3.450000 5.900000 3.250000
v -3.450000 6.300000 3.250000
v -3.450000 5.900000 2.750000
v -3.450000 6.300000 2.750000
v 3.450000 5.900000 3.250000
v 3.450000 6.300000 3.250000
v 3.450000 5.900000 2.750000
v 3.450000 6.300000 2.750000
v 2.750000 5.900000 2.850000
v 2.750000 6.300000 2.850000
v 2.750000 5.900000 -2.850000
v 2.750000 6.300000 -2.850000
v 3.250000 5.900000 2.850000
v 3.250000 6.300000 2.850000
v 3.250000 5.900000 -2.850000
v 3.250000 6.300000 -2.850000
v -3.250000 5.900000 2.850000
v -3.250000 6.300000 2.850000
v -3.250000 5.900000 -2.850000
v -3.250000 6.300000 -2.850000
v -2.750000 5.900000 2.850000
v -2.750000 6.300000 2.850000
v -2.750000 5.900000 -2.850000
v -2.750000 6.300000 -2.850000
v -2.958236 6.003774 3.330000
v -2.576989 6.590843 3.330000
v -2.958236 6.003774 3.030000
v -2.576989 6.590843 3.030000
v 2.576989 2.409157 3.330000
v 2.958236 2.996226 3.330000
v 2.576989 2.409157 3.030000
v 2.958236 2.996226 3.030000
v -2.576989 2.409157 3.330000
v -2.958236 2.996226 3.330000
v -2.576989 2.409157 3.030000
v -2.958236 2.996226 3.030000
v 2.958236 6.003774 3.330000
v 2.576989 6.590843 3.330000
v 2.958236 6.003774 3.030000
v 2.576989 6.590843 3.030000
v -2.958236 6.003774 -3.030000
v -2.576989 6.590843 -3.030000
v -2.958236 6.003774 -3.330000
v -2.576989 6.590843 -3.330000
v 2.576989 2.409157 -3.030000
v 2.958236 2.996226 -3.030000
v 2.576989 2.409157 -3.330000
v 2.958236 2.996226 -3.330000
v -2.576989 2.409157 -3.030000
v -2.958236 2.996226 -3.030000
v -2.576989 2.409157 -3.330000
v -2.958236 2.996226 -3.330000
v 2.958236 6.003774 -3.030000
v 2.576989 6.590843 -3.030000
v 2.958236 6.003774 -3.330000
v 2.576989 6.590843 -3.330000
v -2.600000 6.130000 -2.820000
v -2.600000 6.430000 -2.820000
v -2.444436 6.130000 -2.755563
v -2.444436 6.430000 -2.755563
v -2.380000 6.130000 -2.600000
v -2.380000 6.430000 -2.600000
v -2.444436 6.130000 -2.444437
v -2.444436 6.430000 -2.444437
v -2.600000 6.130000 -2.380000
v -2.600000 6.430000 -2.380000
v -2.755563 6.130000 -2.444437
v -2.755563 6.430000 -2.444437
v -2.820000 6.130000 -2.600000
v -2.820000 6.430000 -2.600000
v -2.755563 6.130000 -2.755563
v -2.755563 6.430000 -2.755563
v 2.600000 6.130000 2.380000
v 2.600000 6.430000 2.380000
v 2.755563 6.130000 2.444436
v 2.755563 6.430000 2.444436
v 2.820000 6.130000 2.600000
v 2.820000 6.430000 2.600000
v 2.755563 6.130000 2.755563
v 2.755563 6.430000 2.755563
v 2.600000 6.130000 2.820000
v 2.600000 6.430000 2.820000
v 2.444437 6.130000 2.755563
v 2.444437 6.430000 2.755563
v 2.380000 6.130000 2.600000
v 2.380000 6.430000 2.600000
v 2.444437 6.130000 2.444436
v 2.444437 6.430000 2.444436
v 2.600000 6.130000 -2.820000
v 2.600000 6.430000 -2.820000
v 2.755563 6.130000 -2.755563
v 2.755563 6.430000 -2.755563
v 2.820000 6.130000 -2.600000
v 2.820000 6.430000 -2.600000
v 2.755563 6.130000 -2.444437
v 2.755563 6.430000 -2.444437
v 2.600000 6.130000 -2.380000
v 2.600000 6.430000 -2.380000
v 2.444437 6.130000 -2.444437
v 2.444437 6.430000 -2.444437
v 2.380000 6.130000 -2.600000
v 2.380000 6.430000 -2.600000
v 2.444437 6.130000 -2.755563
v 2.444437 6.430000 -2.755563
v 0.000000 6.100000 -2.800000
v 0.000000 6.800000 -2.800000
v 0.724693 6.100000 -2.704592
v 0.724693 6.800000 -2.704592
v 1.400000 6.100000 -2.424871
v 1.400000 6.800000 -2.424871
v 1.979899 6.100000 -1.979899
v 1.979899 6.800000 -1.979899
v 2.424871 6.100000 -1.400000
v 2.424871 6.800000 -1.400000
v 2.704592 6.100000 -0.724693
v 2.704592 6.800000 -0.724693
v 2.800000 6.100000 0.000000
v 2.800000 6.800000 0.000000
v 2.704592 6.100000 0.724693
v 2.704592 6.800000 0.724693
v 2.424871 6.100000 1.400000
v 2.424871 6.800000 1.400000
v 1.979899 6.100000 1.979899
v 1.979899 6.800000 1.979899
v 1.400000 6.100000 2.424871
v 1.400000 6.800000 2.424871
v 0.724693 6.100000 2.704592
v 0.724693 6.800000 2.704592
v 0.000000 6.100000 2.800000
v 0.000000 6.800000 2.800000
v -0.724693 6.100000 2.704592
v -0.724693 6.800000 2.704592
v -1.400000 6.100000 2.424871
v -1.400000 6.800000 2.424871
v -1.979899 6.100000 1.979899
v -1.979899 6.800000 1.979899
v -2.424871 6.100000 1.400000
v -2.424871 6.800000 1.400000
v -2.704592 6.100000 0.724693
v -2.704592 6.800000 0.724693
v -2.800000 6.100000 0.000000
v -2.800000 6.800000 0.000000
v -2.704592 6.100000 -0.724693
v -2.704592 6.800000 -0.724693
v -2.424871 6.100000 -1.400000
v -2.424871 6.800000 -1.400000
v -1.979899 6.100000 -1.979899
v -1.979899 6.800000 -1.979899
v -1.400000 6.100000 -2.424871
v -1.400000 6.800000 -2.424871
v -0.724693 6.100000 -2.704592
v -0.724693 6.800000 -2.704592
vn -0.0000 -0.6303 -0.7764
vn -0.0000 0.6303 -0.7764
vn 0.5490 0.6303 -0.5490
vn 0.5490 -0.6303 -0.5490
vn 0.7764 0.6303 -0.0000
vn 0.7764 -0.6303 -0.0000
vn 0.5490 0.6303 0.5490
vn 0.5490 -0.6303 0.5490
vn -0.0000 0.6303 0.7764
vn -0.0000 -0.6303 0.7764
vn -0.5490 0.6303 0.5490
vn -0.5490 -0.6303 0.5490
vn -0.7764 0.6303 -0.0000
vn -0.7764 -0.6303 -0.0000
vn -0.5490 0.6303 -0.5490
vn -0.5490 -0.6303 -0.5490
vn -0.0000 -0.6828 -0.7306
vn -0.0000 0.6828 -0.7306
vn 0.1626 0.6828 -0.7123
vn 0.1626 -0.6828 -0.7123
vn 0.3170 0.6828 -0.6583
vn 0.3170 -0.6828 -0.6583
vn 0.4555 0.6828 -0.5712
vn 0.4555 -0.6828 -0.5712
vn 0.5712 0.6828 -0.4555
vn 0.5712 -0.6828 -0.4555
vn 0.6583 0.6828 -0.3170
vn 0.6583 -0.6828 -0.3170
vn 0.7123 0.6828 -0.1626
vn 0.7123 -0.6828 -0.1626
vn 0.7306 0.6828 -0.0000
vn 0.7306 -0.6828 -0.0000
vn 0.7123 0.6828 0.1626
vn 0.7123 -0.6828 0.1626
vn 0.6583 0.6828 0.3170
vn 0.6583 -0.6828 0.3170
vn 0.5712 0.6828 0.4555
vn 0.5712 -0.6828 0.4555
vn 0.4555 0.6828 0.5712
vn 0.4555 -0.6828 0.5712
vn 0.3170 0.6828 0.6583
vn 0.3170 -0.6828 0.6583
vn 0.1626 0.6828 0.7123
vn 0.1626 -0.6828 0.7123
vn -0.0000 0.6828 0.7306
vn -0.0000 -0.6828 0.7306
vn -0.1626 0.6828 0.7123
vn -0.1626 -0.6828 0.7123
vn -0.3170 0.6828 0.6583
vn -0.3170 -0.6828 0.6583
vn -0.4555 0.6828 0.5712
vn -0.4555 -0.6828 0.5712
vn -0.5712 0.6828 0.4555
vn -0.5712 -0.6828 0.4555
vn -0.6583 0.6828 0.3170
vn -0.6583 -0.6828 0.3170
vn -0.7123 0.6828 0.1626
vn -0.7123 -0.6828 0.1626
vn -0.7306 0.6828 -0.0000
vn -0.7306 -0.6828 -0.0000
vn -0.7123 0.6828 -0.1626
vn -0.7123 -0.6828 -0.1626
vn -0.6583 0.6828 -0.3170
vn -0.6583 -0.6828 -0.3170
vn -0.5712 0.6828 -0.4555
vn -0.5712 -0.6828 -0.4555
vn -0.4555 0.6828 -0.5712
vn -0.4555 -0.6828 -0.5712
vn -0.3170 0.6828 -0.6583
vn -0.3170 -0.6828 -0.6583
vn -0.1626 0.6828 -0.7123
vn -0.1626 -0.6828 -0.7123
vn -0.0000 -0.6437 -0.7653
vn -0.0000 0.6437 -0.7653
vn 0.4498 0.6437 -0.6191
vn 0.4498 -0.6437 -0.6191
vn 0.7278 0.6437 -0.2365
vn 0.7278 -0.6437 -0.2365
vn 0.7278 0.6437 0.2365
vn 0.7278 -0.6437 0.2365
vn 0.4498 0.6437 0.6191
vn 0.4498 -0.6437 0.6191
vn -0.0000 0.6437 0.7653
vn -0.0000 -0.6437 0.7653
vn -0.4498 0.6437 0.6191
vn -0.4498 -0.6437 0.6191
vn -0.7278 0.6437 0.2365
vn -0.7278 -0.6437 0.2365
vn -0.7278 0.6437 -0.2365
vn -0.7278 -0.6437 -0.2365
vn -0.4498 0.6437 -0.6191
vn -0.4498 -0.6437 -0.6191
vn -1.0000 -0.0000 -0.0000
vn -0.0000 -0.0000 -1.0000
vn 1.0000 -0.0000 -0.0000
vn -0.0000 -0.0000 1.0000
vn -0.0000 -1.0000 -0.0000
vn -0.0000 1.0000 -0.0000
vn -0.8387 0.5446 -0.0000
vn 0.8387 -0.5446 -0.0000
vn -0.5446 -0.8387 -0.0000
vn 0.5446 0.8387 -0.0000
vn -0.8387 -0.5446 -0.0000
vn 0.8387 0.5446 -0.0000
vn 0.5446 -0.8387 -0.0000
vn -0.5446 0.8387 -0.0000
vn -0.0000 -0.6789 -0.7342
vn -0.0000 0.6789 -0.7342
vn 0.1900 0.6789 -0.7092
vn 0.1900 -0.6789 -0.7092
vn 0.3671 0.6789 -0.6359
vn 0.3671 -0.6789 -0.6359
vn 0.5192 0.6789 -0.5192
vn 0.5192 -0.6789 -0.5192
vn 0.6359 0.6789 -0.3671
vn 0.6359 -0.6789 -0.3671
vn 0.7092 0.6789 -0.1900
vn 0.7092 -0.6789 -0.1900
vn 0.7342 0.6789 -0.0000
vn 0.7342 -0.6789 -0.0000
vn 0.7092 0.6789 0.1900
vn 0.7092 -0.6789 0.1900
vn 0.6359 0.6789 0.3671
vn 0.6359 -0.6789 0.3671
vn 0.5192 0.6789 0.5192
vn 0.5192 -0.6789 0.5192
vn 0.3671 0.6789 0.6359
vn 0.3671 -0.6789 0.6359
vn 0.1900 0.6789 0.7092
vn 0.1900 -0.6789 0.7092
vn -0.0000 0.6789 0.7342
vn -0.0000 -0.6789 0.7342
vn -0.1900 0.6789 0.7092
vn -0.1900 -0.6789 0.7092
vn -0.3671 0.6789 0.6359
vn -0.3671 -0.6789 0.6359
vn -0.5192 0.6789 0.5192
vn -0.5192 -0.6789 0.5192
vn -0.6359 0.6789 0.3671
vn -0.6359 -0.6789 0.3671
vn -0.7092 0.6789 0.1900
vn -0.7092 -0.6789 0.1900
vn -0.7342 0.6789 -0.0000
vn -0.7342 -0.6789 -0.0000
vn -0.7092 0.6789 -0.1900
vn -0.7092 -0.6789 -0.1900
vn -0.6359 0.6789 -0.3671
vn -0.6359 -0.6789 -0.3671
vn -0.5192 0.6789 -0.5192
vn -0.5192 -0.6789 -0.5192
vn -0.3671 0.6789 -0.6359
vn -0.3671 -0.6789 -0.6359
vn -0.1900 0.6789 -0.7092
vn -0.1900 -0.6789 -0.7092
vt 0.763240 0.451668
vt 0.753129 0.451668
vt 0.753129 0.446425
vt 0.763240 0.446425
vt 0.777345 0.456910
vt 0.767234 0.456910
vt 0.767234 0.451668
vt 0.777345 0.451668
vt 0.767234 0.446425
vt 0.777345 0.446425
vt 0.791450 0.456910
vt 0.781339 0.456910
vt 0.781339 0.451668
vt 0.791450 0.451668
vt 0.781339 0.446425
vt 0.791450 0.446425
vt 0.805555 0.456910
vt 0.795444 0.456910
vt 0.795444 0.451668
vt 0.805555 0.451668
vt 0.006010 0.812652
vt 0.001997 0.808639
vt 0.001997 0.802964
vt 0.006010 0.798952
vt 0.011685 0.798952
vt 0.015697 0.802964
vt 0.015697 0.808639
vt 0.011685 0.812652
vt 0.795444 0.446425
vt 0.805555 0.446425
vt 0.763240 0.456910
vt 0.753129 0.456910
vt 0.019692 0.808639
vt 0.019692 0.802964
vt 0.023704 0.798952
vt 0.029379 0.798952
vt 0.033392 0.802964
vt 0.033392 0.808639
vt 0.029379 0.812652
vt 0.023704 0.812652
vt 0.841255 0.328242
vt 0.760372 0.328242
vt 0.760372 0.295995
vt 0.841255 0.295995
vt 0.760372 0.265365
vt 0.841255 0.265365
vt 0.760372 0.237888
vt 0.841255 0.237888
vt 0.760372 0.214941
vt 0.841255 0.214941
vt 0.926094 0.756173
vt 0.845211 0.756173
vt 0.845211 0.728696
vt 0.926094 0.728696
vt 0.845211 0.698066
vt 0.926094 0.698066
vt 0.845211 0.665819
vt 0.926094 0.665819
vt 0.845211 0.633572
vt 0.926094 0.633572
vt 0.845211 0.602942
vt 0.926094 0.602942
vt 0.845211 0.575465
vt 0.926094 0.575465
vt 0.845211 0.552518
vt 0.926094 0.552518
vt 0.926094 0.940875
vt 0.845211 0.940875
vt 0.845211 0.913398
vt 0.926094 0.913398
vt 0.845211 0.882768
vt 0.926094 0.882768
vt 0.845211 0.850521
vt 0.926094 0.850521
vt 0.845211 0.818274
vt 0.926094 0.818274
vt 0.845211 0.787644
vt 0.926094 0.787644
vt 0.845211 0.760167
vt 0.926094 0.760167
vt 0.926133 0.418596
vt 0.845250 0.418596
vt 0.845250 0.395649
vt 0.926133 0.395649
vt 0.845250 0.368172
vt 0.926133 0.368172
vt 0.845250 0.337542
vt 0.926133 0.337542
vt 0.845250 0.305295
vt 0.926133 0.305295
vt 0.845250 0.273048
vt 0.926133 0.273048
vt 0.845250 0.242418
vt 0.926133 0.242418
vt 0.845250 0.214941
vt 0.926133 0.214941
vt 0.841255 0.441542
vt 0.760371 0.441542
vt 0.760371 0.418596
vt 0.841255 0.418596
vt 0.760371 0.391119
vt 0.841255 0.391119
vt 0.023298 0.223103
vt 0.009218 0.193866
vt 0.001997 0.162228
vt 0.001997 0.129777
vt 0.009218 0.098140
vt 0.023298 0.068902
vt 0.043531 0.043531
vt 0.068902 0.023298
vt 0.098140 0.009218
vt 0.129777 0.001997
vt 0.162228 0.001997
vt 0.193866 0.009218
vt 0.223103 0.023298
vt 0.248474 0.043531
vt 0.268707 0.068902
vt 0.282787 0.098140
vt 0.290008 0.129777
vt 0.290008 0.162228
vt 0.282787 0.193866
vt 0.268707 0.223103
vt 0.248474 0.248474
vt 0.223103 0.268707
vt 0.193866 0.282787
vt 0.162228 0.290008
vt 0.129777 0.290008
vt 0.098140 0.282787
vt 0.068902 0.268707
vt 0.043531 0.248474
vt 0.760371 0.360489
vt 0.841255 0.360489
vt 0.009218 0.485871
vt 0.001997 0.454233
vt 0.001997 0.421782
vt 0.009218 0.390145
vt 0.023298 0.360908
vt 0.043531 0.335536
vt 0.068902 0.315304
vt 0.098140 0.301224
vt 0.129777 0.294003
vt 0.162228 0.294003
vt 0.193866 0.301224
vt 0.223103 0.315304
vt 0.248474 0.335536
vt 0.268707 0.360908
vt 0.282787 0.390145
vt 0.290008 0.421782
vt 0.290008 0.454233
vt 0.282787 0.485871
vt 0.268707 0.515108
vt 0.248474 0.540479
vt 0.223103 0.560712
vt 0.193866 0.574792
vt 0.162228 0.582013
vt 0.129777 0.582013
vt 0.098140 0.574792
vt 0.068902 0.560712
vt 0.043531 0.540479
vt 0.023298 0.515108
vt 0.648374 0.872175
vt 0.636578 0.872175
vt 0.636578 0.841803
vt 0.648374 0.841803
vt 0.636578 0.812954
vt 0.648374 0.812954
vt 0.636578 0.787075
vt 0.648374 0.787075
vt 0.636578 0.765462
vt 0.648374 0.765462
vt 0.679954 0.935664
vt 0.668158 0.935664
vt 0.668158 0.909784
vt 0.679954 0.909784
vt 0.668158 0.880935
vt 0.679954 0.880935
vt 0.668158 0.850563
vt 0.679954 0.850563
vt 0.668158 0.820191
vt 0.679954 0.820191
vt 0.668158 0.791342
vt 0.679954 0.791342
vt 0.668158 0.765462
vt 0.679954 0.765462
vt 0.664164 0.957276
vt 0.652368 0.957276
vt 0.652368 0.935664
vt 0.664164 0.935664
vt 0.652368 0.909784
vt 0.664164 0.909784
vt 0.652368 0.880935
vt 0.664164 0.880935
vt 0.652368 0.850563
vt 0.664164 0.850563
vt 0.652368 0.820191
vt 0.664164 0.820191
vt 0.652368 0.791342
vt 0.664164 0.791342
vt 0.652368 0.765462
vt 0.664164 0.765462
vt 0.562683 0.978888
vt 0.550887 0.978888
vt 0.550887 0.957276
vt 0.562683 0.957276
vt 0.550887 0.931397
vt 0.562683 0.931397
vt 0.550887 0.902547
vt 0.562683 0.902547
vt 0.550887 0.872175
vt 0.562683 0.872175
vt 0.550887 0.841803
vt 0.562683 0.841803
vt 0.550887 0.812954
vt 0.562683 0.812954
vt 0.550887 0.787074
vt 0.562683 0.787074
vt 0.550887 0.765462
vt 0.562683 0.765462
vt 0.648374 0.957276
vt 0.636578 0.957276
vt 0.636578 0.931397
vt 0.648374 0.931397
vt 0.300804 0.182710
vt 0.294003 0.152912
vt 0.294003 0.122348
vt 0.300804 0.092550
vt 0.314065 0.065013
vt 0.333122 0.041116
vt 0.357018 0.022060
vt 0.384555 0.008798
vt 0.414353 0.001997
vt 0.444918 0.001997
vt 0.474716 0.008798
vt 0.502253 0.022060
vt 0.526149 0.041116
vt 0.545206 0.065013
vt 0.558467 0.092550
vt 0.565268 0.122348
vt 0.565268 0.152912
vt 0.558467 0.182710
vt 0.545206 0.210248
vt 0.526149 0.234144
vt 0.502253 0.253201
vt 0.474716 0.266462
vt 0.444918 0.273263
vt 0.414353 0.273263
vt 0.384555 0.266462
vt 0.357018 0.253201
vt 0.333122 0.234144
vt 0.314065 0.210248
vt 0.636578 0.902548
vt 0.648374 0.902548
vt 0.294003 0.428173
vt 0.294003 0.397608
vt 0.300804 0.367810
vt 0.314065 0.340273
vt 0.333122 0.316377
vt 0.357018 0.297320
vt 0.384555 0.284059
vt 0.414353 0.277258
vt 0.444918 0.277258
vt 0.474716 0.284059
vt 0.502253 0.297320
vt 0.526149 0.316377
vt 0.545206 0.340273
vt 0.558467 0.367810
vt 0.565268 0.397608
vt 0.565268 0.428173
vt 0.558467 0.457971
vt 0.545206 0.485508
vt 0.526149 0.509404
vt 0.502253 0.528461
vt 0.474716 0.541722
vt 0.444918 0.548524
vt 0.414353 0.548524
vt 0.384555 0.541722
vt 0.357018 0.528461
vt 0.333122 0.509404
vt 0.314065 0.485508
vt 0.300804 0.457971
vt 0.032229 0.822985
vt 0.024815 0.822985
vt 0.024815 0.816646
vt 0.032229 0.816646
vt 0.287637 0.603458
vt 0.280223 0.603458
vt 0.280223 0.598065
vt 0.287637 0.598065
vt 0.280223 0.591400
vt 0.287637 0.591400
vt 0.280223 0.586008
vt 0.287637 0.586008
vt 0.044801 0.829324
vt 0.037386 0.829324
vt 0.037386 0.822985
vt 0.044801 0.822985
vt 0.037386 0.816646
vt 0.044801 0.816646
vt 0.287637 0.624902
vt 0.280223 0.624902
vt 0.280223 0.619510
vt 0.287637 0.619510
vt 0.280223 0.612844
vt 0.287637 0.612844
vt 0.738878 0.456910
vt 0.732539 0.454851
vt 0.728621 0.449459
vt 0.728621 0.442793
vt 0.732539 0.437401
vt 0.738878 0.435341
vt 0.745217 0.437401
vt 0.749134 0.442793
vt 0.749134 0.449459
vt 0.745217 0.454851
vt 0.280223 0.607452
vt 0.287637 0.607452
vt 0.032229 0.829324
vt 0.024815 0.829324
vt 0.732539 0.480414
vt 0.728621 0.475022
vt 0.728621 0.468357
vt 0.732539 0.462965
vt 0.738878 0.460905
vt 0.745217 0.462965
vt 0.749135 0.468357
vt 0.749135 0.475022
vt 0.745217 0.480414
vt 0.738878 0.482474
vt 0.056210 0.822985
vt 0.048795 0.822985
vt 0.048795 0.816646
vt 0.056210 0.816646
vt 0.287637 0.646346
vt 0.280223 0.646346
vt 0.280223 0.640954
vt 0.287637 0.640954
vt 0.280223 0.634289
vt 0.287637 0.634289
vt 0.280223 0.628896
vt 0.287637 0.628896
vt 0.067618 0.829324
vt 0.060204 0.829324
vt 0.060204 0.822985
vt 0.067618 0.822985
vt 0.060204 0.816646
vt 0.067618 0.816646
vt 0.287637 0.667790
vt 0.280223 0.667790
vt 0.280223 0.662398
vt 0.287637 0.662398
vt 0.280223 0.655733
vt 0.287637 0.655733
vt 0.628535 0.543229
vt 0.622196 0.541169
vt 0.618279 0.535777
vt 0.618279 0.529112
vt 0.622196 0.523720
vt 0.628535 0.521660
vt 0.634874 0.523720
vt 0.638792 0.529112
vt 0.638792 0.535777
vt 0.634874 0.541169
vt 0.280223 0.650341
vt 0.287637 0.650341
vt 0.056210 0.829324
vt 0.048795 0.829324
vt 0.683523 0.454851
vt 0.679605 0.449458
vt 0.679605 0.442793
vt 0.683523 0.437401
vt 0.689862 0.435341
vt 0.696201 0.437401
vt 0.700119 0.442793
vt 0.700119 0.449458
vt 0.696201 0.454851
vt 0.689862 0.456910
vt 0.823704 0.467244
vt 0.816290 0.467244
vt 0.816290 0.460905
vt 0.823704 0.460905
vt 0.287637 0.689234
vt 0.280223 0.689234
vt 0.280223 0.683842
vt 0.287637 0.683842
vt 0.280223 0.677177
vt 0.287637 0.677177
vt 0.280223 0.671785
vt 0.287637 0.671785
vt 0.079027 0.829324
vt 0.071613 0.829324
vt 0.071613 0.822985
vt 0.079027 0.822985
vt 0.071613 0.816646
vt 0.079027 0.816646
vt 0.287637 0.710679
vt 0.280223 0.710679
vt 0.280223 0.705287
vt 0.287637 0.705287
vt 0.280223 0.698621
vt 0.287637 0.698621
vt 0.689862 0.482474
vt 0.683523 0.480414
vt 0.679605 0.475022
vt 0.679605 0.468357
vt 0.683523 0.462965
vt 0.689862 0.460905
vt 0.696201 0.462965
vt 0.700119 0.468357
vt 0.700119 0.475022
vt 0.696201 0.480414
vt 0.280223 0.693229
vt 0.287637 0.693229
vt 0.823704 0.473583
vt 0.816290 0.473583
vt 0.696201 0.505978
vt 0.689862 0.508037
vt 0.683523 0.505978
vt 0.679605 0.500586
vt 0.679605 0.493920
vt 0.683523 0.488528
vt 0.689862 0.486468
vt 0.696201 0.488528
vt 0.700119 0.493920
vt 0.700119 0.500585
vt 0.090436 0.822985
vt 0.083022 0.822985
vt 0.083022 0.816646
vt 0.090436 0.816646
vt 0.287637 0.732123
vt 0.280223 0.732123
vt 0.280223 0.726731
vt 0.287637 0.726731
vt 0.280223 0.720066
vt 0.287637 0.720066
vt 0.280223 0.714673
vt 0.287637 0.714673
vt 0.288262 0.825110
vt 0.280848 0.825110
vt 0.280848 0.818771
vt 0.288262 0.818771
vt 0.280848 0.812433
vt 0.288262 0.812433
vt 0.287637 0.753567
vt 0.280223 0.753567
vt 0.280223 0.748175
vt 0.287637 0.748175
vt 0.280223 0.741510
vt 0.287637 0.741510
vt 0.702059 0.543229
vt 0.695720 0.541169
vt 0.691803 0.535777
vt 0.691803 0.529112
vt 0.695720 0.523720
vt 0.702059 0.521660
vt 0.708398 0.523720
vt 0.712316 0.529112
vt 0.712316 0.535777
vt 0.708398 0.541169
vt 0.280223 0.736118
vt 0.287637 0.736118
vt 0.090436 0.829324
vt 0.083022 0.829324
vt 0.720709 0.403724
vt 0.714370 0.405783
vt 0.708031 0.403724
vt 0.704113 0.398331
vt 0.704113 0.391666
vt 0.708031 0.386274
vt 0.714370 0.384214
vt 0.720709 0.386274
vt 0.724627 0.391666
vt 0.724627 0.398331
vt 0.101845 0.822985
vt 0.094431 0.822985
vt 0.094431 0.816646
vt 0.101845 0.816646
vt 0.287637 0.775011
vt 0.280223 0.775011
vt 0.280223 0.769619
vt 0.287637 0.769619
vt 0.280223 0.762954
vt 0.287637 0.762954
vt 0.280223 0.757562
vt 0.287637 0.757562
vt 0.113254 0.829324
vt 0.105840 0.829324
vt 0.105840 0.822985
vt 0.113254 0.822985
vt 0.105840 0.816646
vt 0.113254 0.816646
vt 0.287637 0.796456
vt 0.280223 0.796456
vt 0.280223 0.791063
vt 0.287637 0.791063
vt 0.280223 0.784398
vt 0.287637 0.784398
vt 0.653043 0.543229
vt 0.646704 0.541169
vt 0.642787 0.535777
vt 0.642787 0.529112
vt 0.646704 0.523720
vt 0.653043 0.521660
vt 0.659382 0.523720
vt 0.663300 0.529112
vt 0.663300 0.535777
vt 0.659382 0.541169
vt 0.280223 0.779006
vt 0.287637 0.779006
vt 0.101845 0.829324
vt 0.094431 0.829324
vt 0.671212 0.541169
vt 0.667295 0.535777
vt 0.667295 0.529112
vt 0.671212 0.523720
vt 0.677551 0.521660
vt 0.683890 0.523720
vt 0.687808 0.529112
vt 0.687808 0.535777
vt 0.683890 0.541169
vt 0.677551 0.543229
vt 0.124663 0.822985
vt 0.117249 0.822985
vt 0.117249 0.816646
vt 0.124663 0.816646
vt 0.811393 0.539110
vt 0.803979 0.539110
vt 0.803979 0.533717
vt 0.811393 0.533717
vt 0.803979 0.527052
vt 0.811393 0.527052
vt 0.803979 0.521660
vt 0.811393 0.521660
vt 0.136072 0.829324
vt 0.128658 0.829324
vt 0.128658 0.822985
vt 0.136072 0.822985
vt 0.128658 0.816646
vt 0.136072 0.816646
vt 0.152426 0.816401
vt 0.145012 0.816401
vt 0.145012 0.811009
vt 0.152426 0.811009
vt 0.145012 0.804344
vt 0.152426 0.804344
vt 0.696201 0.403724
vt 0.689862 0.405783
vt 0.683523 0.403724
vt 0.679605 0.398331
vt 0.679605 0.391666
vt 0.683523 0.386274
vt 0.689862 0.384214
vt 0.696201 0.386274
vt 0.700119 0.391666
vt 0.700119 0.398331
vt 0.145012 0.798952
vt 0.152426 0.798952
vt 0.124663 0.829324
vt 0.117249 0.829324
vt 0.689862 0.431347
vt 0.683523 0.429287
vt 0.679605 0.423895
vt 0.679605 0.417230
vt 0.683523 0.411837
vt 0.689862 0.409778
vt 0.696201 0.411837
vt 0.700119 0.417230
vt 0.700119 0.423895
vt 0.696201 0.429287
vt 0.830776 0.492807
vt 0.823362 0.492807
vt 0.823362 0.486468
vt 0.830776 0.486468
vt 0.163835 0.816401
vt 0.156421 0.816401
vt 0.156421 0.811009
vt 0.163835 0.811009
vt 0.156421 0.804344
vt 0.163835 0.804344
vt 0.156421 0.798952
vt 0.163835 0.798952
vt 0.830776 0.515819
vt 0.823362 0.515819
vt 0.823362 0.509480
vt 0.830776 0.509480
vt 0.823362 0.503141
vt 0.830776 0.503141
vt 0.175244 0.816401
vt 0.167830 0.816401
vt 0.167830 0.811009
vt 0.175244 0.811009
vt 0.167830 0.804344
vt 0.175244 0.804344
vt 0.589776 0.529112
vt 0.589776 0.535777
vt 0.585859 0.541169
vt 0.579520 0.543229
vt 0.573181 0.541169
vt 0.569263 0.535777
vt 0.569263 0.529112
vt 0.573181 0.523720
vt 0.579520 0.521660
vt 0.585859 0.523720
vt 0.167830 0.798952
vt 0.175244 0.798952
vt 0.830776 0.499146
vt 0.823362 0.499146
vt 0.593771 0.535777
vt 0.593771 0.529112
vt 0.597689 0.523720
vt 0.604028 0.521660
vt 0.610367 0.523720
vt 0.614284 0.529112
vt 0.614284 0.535777
vt 0.610367 0.541169
vt 0.604028 0.543229
vt 0.597689 0.541169
vt 0.832413 0.771801
vt 0.824999 0.771801
vt 0.824999 0.765462
vt 0.832413 0.765462
vt 0.186653 0.816401
vt 0.179239 0.816401
vt 0.179239 0.811009
vt 0.186653 0.811009
vt 0.179239 0.804344
vt 0.186653 0.804344
vt 0.179239 0.798952
vt 0.186653 0.798952
vt 0.009412 0.829324
vt 0.001997 0.829324
vt 0.001997 0.822985
vt 0.009412 0.822985
vt 0.001997 0.816646
vt 0.009412 0.816646
vt 0.198062 0.816401
vt 0.190647 0.816401
vt 0.190647 0.811009
vt 0.198062 0.811009
vt 0.190647 0.804344
vt 0.198062 0.804344
vt 0.708031 0.505978
vt 0.704113 0.500586
vt 0.704113 0.493920
vt 0.708031 0.488528
vt 0.714370 0.486468
vt 0.720709 0.488528
vt 0.724627 0.493920
vt 0.724627 0.500586
vt 0.720709 0.505978
vt 0.714370 0.508037
vt 0.190647 0.798952
vt 0.198062 0.798952
vt 0.832413 0.778140
vt 0.824999 0.778140
vt 0.726567 0.543229
vt 0.720228 0.541169
vt 0.716311 0.535777
vt 0.716311 0.529112
vt 0.720228 0.523720
vt 0.726567 0.521660
vt 0.732906 0.523720
vt 0.736824 0.529112
vt 0.736824 0.535777
vt 0.732906 0.541169
vt 0.020821 0.822985
vt 0.013406 0.822985
vt 0.013406 0.816646
vt 0.020821 0.816646
vt 0.209471 0.816401
vt 0.202056 0.816401
vt 0.202056 0.811009
vt 0.209471 0.811009
vt 0.202056 0.804344
vt 0.209471 0.804344
vt 0.202056 0.798952
vt 0.209471 0.798952
vt 0.832413 0.794813
vt 0.824999 0.794813
vt 0.824999 0.788474
vt 0.832413 0.788474
vt 0.824999 0.782135
vt 0.832413 0.782135
vt 0.220880 0.816401
vt 0.213465 0.816401
vt 0.213465 0.811009
vt 0.220880 0.811009
vt 0.213465 0.804344
vt 0.220880 0.804344
vt 0.724627 0.449458
vt 0.720709 0.454851
vt 0.714370 0.456910
vt 0.708031 0.454851
vt 0.704113 0.449458
vt 0.704113 0.442793
vt 0.708031 0.437401
vt 0.714370 0.435341
vt 0.720709 0.437401
vt 0.724627 0.442793
vt 0.213465 0.798952
vt 0.220880 0.798952
vt 0.020821 0.829324
vt 0.013406 0.829324
vt 0.708031 0.480414
vt 0.704113 0.475022
vt 0.704113 0.468357
vt 0.708031 0.462965
vt 0.714370 0.460905
vt 0.720709 0.462965
vt 0.724627 0.468357
vt 0.724627 0.475022
vt 0.720709 0.480414
vt 0.714370 0.482474
vt 0.832413 0.805146
vt 0.824999 0.805146
vt 0.824999 0.798807
vt 0.832413 0.798807
vt 0.232289 0.816401
vt 0.224874 0.816401
vt 0.224874 0.811009
vt 0.232289 0.811009
vt 0.224874 0.804344
vt 0.232289 0.804344
vt 0.224874 0.798952
vt 0.232289 0.798952
vt 0.832413 0.828158
vt 0.824999 0.828158
vt 0.824999 0.821819
vt 0.832413 0.821819
vt 0.824999 0.815480
vt 0.832413 0.815480
vt 0.243697 0.816401
vt 0.236283 0.816401
vt 0.236283 0.811009
vt 0.243697 0.811009
vt 0.236283 0.804344
vt 0.243697 0.804344
vt 0.749135 0.391666
vt 0.749135 0.398331
vt 0.745217 0.403724
vt 0.738878 0.405783
vt 0.732539 0.403724
vt 0.728621 0.398331
vt 0.728621 0.391666
vt 0.732539 0.386274
vt 0.738878 0.384214
vt 0.745217 0.386274
vt 0.236283 0.798952
vt 0.243697 0.798952
vt 0.832413 0.811485
vt 0.824999 0.811485
vt 0.728621 0.423895
vt 0.728621 0.417230
vt 0.732539 0.411838
vt 0.738878 0.409778
vt 0.745217 0.411838
vt 0.749135 0.417230
vt 0.749135 0.423895
vt 0.745217 0.429287
vt 0.738878 0.431347
vt 0.732539 0.429287
vt 0.123323 0.794957
vt 0.001997 0.794957
vt 0.001997 0.586008
vt 0.123323 0.586008
vt 0.248643 0.794957
vt 0.127317 0.794957
vt 0.127317 0.586008
vt 0.248643 0.586008
vt 0.841216 0.761468
vt 0.719891 0.761468
vt 0.719891 0.552518
vt 0.841216 0.552518
vt 0.881697 0.210947
vt 0.760372 0.210947
vt 0.760372 0.001997
vt 0.881697 0.001997
vt 0.502952 0.552518
vt 0.502952 0.761468
vt 0.294003 0.761468
vt 0.294003 0.552518
vt 0.715896 0.552518
vt 0.715896 0.761468
vt 0.506947 0.761468
vt 0.506947 0.552518
vt 0.717594 0.431347
vt 0.704113 0.431347
vt 0.704113 0.414496
vt 0.717594 0.414496
vt 0.473622 0.998003
vt 0.460141 0.998003
vt 0.460141 0.765462
vt 0.473622 0.765462
vt 0.742102 0.503319
vt 0.728621 0.503319
vt 0.728621 0.486468
vt 0.742102 0.486468
vt 0.491097 0.998003
vt 0.477616 0.998003
vt 0.477616 0.765462
vt 0.491097 0.765462
vt 0.393610 0.765462
vt 0.393610 0.998003
vt 0.376760 0.998003
vt 0.376760 0.765462
vt 0.414456 0.765462
vt 0.414456 0.998003
vt 0.397605 0.998003
vt 0.397605 0.765462
vt 0.754299 0.538511
vt 0.740819 0.538511
vt 0.740819 0.521660
vt 0.754299 0.521660
vt 0.508572 0.998003
vt 0.495091 0.998003
vt 0.495091 0.765462
vt 0.508572 0.765462
vt 0.759577 0.503319
vt 0.746096 0.503319
vt 0.746096 0.486468
vt 0.759577 0.486468
vt 0.526047 0.998003
vt 0.512567 0.998003
vt 0.512567 0.765462
vt 0.526047 0.765462
vt 0.435301 0.765462
vt 0.435301 0.998003
vt 0.418450 0.998003
vt 0.418450 0.765462
vt 0.456146 0.765462
vt 0.456146 0.998003
vt 0.439296 0.998003
vt 0.439296 0.765462
vt 0.580158 0.957561
vt 0.566677 0.957561
vt 0.566677 0.765462
vt 0.580158 0.765462
vt 0.766610 0.477756
vt 0.753129 0.477756
vt 0.753129 0.460905
vt 0.766610 0.460905
vt 0.597633 0.957561
vt 0.584152 0.957561
vt 0.584153 0.765462
vt 0.597633 0.765462
vt 0.771774 0.538511
vt 0.758294 0.538511
vt 0.758294 0.521660
vt 0.771774 0.521660
vt 0.902542 0.194096
vt 0.885692 0.194096
vt 0.885692 0.001997
vt 0.902542 0.001997
vt 0.923388 0.194096
vt 0.906537 0.194096
vt 0.906537 0.001997
vt 0.923388 0.001997
vt 0.615108 0.957561
vt 0.601628 0.957561
vt 0.601628 0.765462
vt 0.615108 0.765462
vt 0.777052 0.503319
vt 0.763572 0.503319
vt 0.763572 0.486468
vt 0.777052 0.486468
vt 0.632583 0.957561
vt 0.619103 0.957561
vt 0.619103 0.765462
vt 0.632583 0.765462
vt 0.784085 0.477756
vt 0.770604 0.477756
vt 0.770604 0.460905
vt 0.784085 0.460905
vt 0.944233 0.194096
vt 0.927382 0.194096
vt 0.927382 0.001997
vt 0.944233 0.001997
vt 0.546893 0.957561
vt 0.530042 0.957561
vt 0.530042 0.765462
vt 0.546893 0.765462
vt 0.796789 0.809027
vt 0.796789 0.789242
vt 0.806900 0.789242
vt 0.806900 0.809027
vt 0.957714 0.214941
vt 0.981305 0.214941
vt 0.981305 0.437371
vt 0.957714 0.437371
vt 0.795152 0.506254
vt 0.795152 0.486468
vt 0.805262 0.486468
vt 0.805262 0.506254
vt 0.317594 0.987892
vt 0.294003 0.987892
vt 0.294003 0.765462
vt 0.317594 0.765462
vt 0.750479 0.765462
vt 0.750479 0.952008
vt 0.740369 0.952008
vt 0.740369 0.765462
vt 0.764584 0.765462
vt 0.764584 0.952008
vt 0.754474 0.952008
vt 0.754474 0.765462
vt 0.796789 0.785247
vt 0.796789 0.765462
vt 0.806900 0.765462
vt 0.806900 0.785247
vt 0.276228 0.808438
vt 0.252637 0.808438
vt 0.252637 0.586008
vt 0.276228 0.586008
vt 0.802185 0.480690
vt 0.802185 0.460905
vt 0.812295 0.460905
vt 0.812295 0.480690
vt 0.930089 0.552518
vt 0.953680 0.552518
vt 0.953680 0.774948
vt 0.930089 0.774948
vt 0.778689 0.765462
vt 0.778689 0.952008
vt 0.768579 0.952008
vt 0.768579 0.765462
vt 0.792794 0.765462
vt 0.792794 0.952008
vt 0.782684 0.952008
vt 0.782684 0.765462
vt 0.788080 0.480690
vt 0.788080 0.460905
vt 0.798190 0.460905
vt 0.798190 0.480690
vt 0.321588 0.765462
vt 0.345179 0.765462
vt 0.345179 0.987892
vt 0.321588 0.987892
vt 0.775769 0.541445
vt 0.775769 0.521660
vt 0.785879 0.521660
vt 0.785879 0.541445
vt 0.372765 0.987892
vt 0.349174 0.987892
vt 0.349174 0.765462
vt 0.372765 0.765462
vt 0.694059 0.765462
vt 0.694059 0.952008
vt 0.683948 0.952008
vt 0.683948 0.765462
vt 0.708164 0.765462
vt 0.708164 0.952008
vt 0.698053 0.952008
vt 0.698053 0.765462
vt 0.781047 0.506254
vt 0.781047 0.486468
vt 0.791157 0.486468
vt 0.791157 0.506254
vt 0.953719 0.437371
vt 0.930128 0.437371
vt 0.930128 0.214941
vt 0.953719 0.214941
vt 0.789874 0.541445
vt 0.789874 0.521660
vt 0.799984 0.521660
vt 0.799984 0.541445
vt 0.957675 0.552518
vt 0.981266 0.552518
vt 0.981266 0.774948
vt 0.957675 0.774948
vt 0.722269 0.765462
vt 0.722269 0.952008
vt 0.712159 0.952008
vt 0.712159 0.765462
vt 0.736374 0.765462
vt 0.736374 0.952008
vt 0.726264 0.952008
vt 0.726264 0.765462
vt 0.819367 0.491711
vt 0.809257 0.491711
vt 0.809257 0.486468
vt 0.819367 0.486468
vt 0.821005 0.790428
vt 0.810894 0.790428
vt 0.810894 0.785185
vt 0.821005 0.785185
vt 0.810894 0.779942
vt 0.821005 0.779942
vt 0.819367 0.511434
vt 0.809257 0.511434
vt 0.809257 0.506191
vt 0.819367 0.506191
vt 0.809257 0.500949
vt 0.819367 0.500949
vt 0.821005 0.804908
vt 0.810894 0.804908
vt 0.810894 0.799665
vt 0.821005 0.799665
vt 0.076788 0.812652
vt 0.072775 0.808639
vt 0.072775 0.802964
vt 0.076788 0.798952
vt 0.082463 0.798952
vt 0.086475 0.802964
vt 0.086475 0.808639
vt 0.082463 0.812652
vt 0.810894 0.794422
vt 0.821005 0.794422
vt 0.819367 0.496954
vt 0.809257 0.496954
vt 0.090470 0.808639
vt 0.090470 0.802964
vt 0.094482 0.798952
vt 0.100157 0.798952
vt 0.104170 0.802964
vt 0.104170 0.808639
vt 0.100157 0.812652
vt 0.094482 0.812652
vt 0.821005 0.814145
vt 0.810894 0.814145
vt 0.810894 0.808902
vt 0.821005 0.808902
vt 0.819660 0.456910
vt 0.809550 0.456910
vt 0.809550 0.451668
vt 0.819660 0.451668
vt 0.809550 0.446425
vt 0.819660 0.446425
vt 0.262748 0.822918
vt 0.252637 0.822918
vt 0.252637 0.817675
vt 0.262748 0.817675
vt 0.252637 0.812432
vt 0.262748 0.812432
vt 0.821005 0.775948
vt 0.810894 0.775948
vt 0.810894 0.770705
vt 0.821005 0.770705
vt 0.047074 0.812652
vt 0.041399 0.812652
vt 0.037386 0.808639
vt 0.037386 0.802964
vt 0.041399 0.798952
vt 0.047074 0.798952
vt 0.051086 0.802964
vt 0.051086 0.808639
vt 0.810894 0.765462
vt 0.821005 0.765462
vt 0.821005 0.819388
vt 0.810894 0.819388
vt 0.059093 0.812652
vt 0.055081 0.808639
vt 0.055081 0.802964
vt 0.059093 0.798952
vt 0.064768 0.798952
vt 0.068781 0.802964
vt 0.068781 0.808639
vt 0.064768 0.812652
vt 0.276853 0.817675
vt 0.266742 0.817675
vt 0.266742 0.812432
vt 0.276853 0.812432
vt 0.806900 0.823507
vt 0.796789 0.823507
vt 0.796789 0.818264
vt 0.806900 0.818264
vt 0.796789 0.813022
vt 0.806900 0.813022
vt 0.825498 0.532146
vt 0.815388 0.532146
vt 0.815388 0.526903
vt 0.825498 0.526903
vt 0.815388 0.521660
vt 0.825498 0.521660
vt 0.825498 0.546626
vt 0.815388 0.546626
vt 0.815388 0.541383
vt 0.825498 0.541383
vt 0.121864 0.808639
vt 0.117851 0.812652
vt 0.112177 0.812652
vt 0.108164 0.808639
vt 0.108164 0.802964
vt 0.112177 0.798952
vt 0.117851 0.798952
vt 0.121864 0.802964
vt 0.815388 0.536140
vt 0.825498 0.536140
vt 0.276853 0.822918
vt 0.266742 0.822918
vt 0.127317 0.808639
vt 0.127317 0.802964
vt 0.131330 0.798952
vt 0.137005 0.798952
vt 0.141017 0.802964
vt 0.141017 0.808639
vt 0.137005 0.812652
vt 0.131330 0.812652
vt 0.592854 0.450940
vt 0.569263 0.450940
vt 0.569263 0.426517
vt 0.592854 0.426517
vt 0.569263 0.403758
vt 0.592854 0.403758
vt 0.569263 0.384214
vt 0.592854 0.384214
vt 0.620440 0.517665
vt 0.596849 0.517665
vt 0.596849 0.498122
vt 0.620440 0.498122
vt 0.596849 0.475363
vt 0.620440 0.475363
vt 0.596849 0.450940
vt 0.620440 0.450940
vt 0.596849 0.426517
vt 0.620440 0.426517
vt 0.596849 0.403758
vt 0.620440 0.403758
vt 0.596849 0.384214
vt 0.620440 0.384214
vt 0.648025 0.517665
vt 0.624434 0.517665
vt 0.624434 0.498122
vt 0.648025 0.498122
vt 0.624434 0.475363
vt 0.648025 0.475363
vt 0.624434 0.450940
vt 0.648025 0.450940
vt 0.624434 0.426517
vt 0.648025 0.426517
vt 0.624434 0.403758
vt 0.648025 0.403758
vt 0.624434 0.384214
vt 0.648025 0.384214
vt 0.675611 0.517665
vt 0.652020 0.517665
vt 0.652020 0.498122
vt 0.675611 0.498122
vt 0.652020 0.475363
vt 0.675611 0.475363
vt 0.652020 0.450940
vt 0.675611 0.450940
vt 0.652020 0.426517
vt 0.675611 0.426517
vt 0.652020 0.403758
vt 0.675611 0.403758
vt 0.652020 0.384214
vt 0.675611 0.384214
vt 0.592854 0.517665
vt 0.569263 0.517665
vt 0.569263 0.498122
vt 0.592854 0.498122
vt 0.575639 0.131666
vt 0.569263 0.107871
vt 0.569263 0.083237
vt 0.575639 0.059443
vt 0.587956 0.038109
vt 0.605375 0.020690
vt 0.626708 0.008373
vt 0.650503 0.001997
vt 0.675137 0.001997
vt 0.698932 0.008373
vt 0.720265 0.020690
vt 0.737684 0.038109
vt 0.750001 0.059443
vt 0.756377 0.083237
vt 0.756377 0.107871
vt 0.750001 0.131666
vt 0.737684 0.153000
vt 0.720265 0.170418
vt 0.698932 0.182735
vt 0.675137 0.189111
vt 0.650503 0.189111
vt 0.626708 0.182735
vt 0.605375 0.170418
vt 0.587956 0.153000
vt 0.569263 0.475363
vt 0.592854 0.475363
vt 0.569263 0.298980
vt 0.569263 0.274346
vt 0.575639 0.250551
vt 0.587956 0.229217
vt 0.605375 0.211799
vt 0.626708 0.199481
vt 0.650503 0.193106
vt 0.675137 0.193106
vt 0.698932 0.199481
vt 0.720265 0.211798
vt 0.737684 0.229217
vt 0.750001 0.250551
vt 0.756377 0.274346
vt 0.756377 0.298980
vt 0.750001 0.322774
vt 0.737684 0.344108
vt 0.720265 0.361527
vt 0.698932 0.373844
vt 0.675137 0.380220
vt 0.650503 0.380220
vt 0.626708 0.373844
vt 0.605375 0.361527
vt 0.587956 0.344108
vt 0.575639 0.322774
s 1
usemtl PvoBaked_base
f 1/1/1 2/2/2 4/3/3 3/4/4
f 3/5/4 4/6/3 6/7/5 5/8/6
f 5/8/6 6/7/5 8/9/7 7/10/8
f 7/11/8 8/12/7 10/13/9 9/14/10
f 9/14/10 10/13/9 12/15/11 11/16/12
f 11/17/12 12/18/11 14/19/13 13/20/14
f 4/21/3 2/22/2 16/23/15 14/24/13 12/25/11 10/26/9 8/27/7 6/28/5
f 13/20/14 14/19/13 16/29/15 15/30/16
f 15/31/16 16/32/15 2/2/2 1/1/1
f 1/33/1 3/34/4 5/35/6 7/36/8 9/37/10 11/38/12 13/39/14 15/40/16
f 17/41/17 18/42/18 20/43/19 19/44/20
f 19/44/20 20/43/19 22/45/21 21/46/22
f 21/46/22 22/45/21 24/47/23 23/48/24
f 23/48/24 24/47/23 26/49/25 25/50/26
f 25/51/26 26/52/25 28/53/27 27/54/28
f 27/54/28 28/53/27 30/55/29 29/56/30
f 29/56/30 30/55/29 32/57/31 31/58/32
f 31/58/32 32/57/31 34/59/33 33/60/34
f 33/60/34 34/59/33 36/61/35 35/62/36
f 35/62/36 36/61/35 38/63/37 37/64/38
f 37/64/38 38/63/37 40/65/39 39/66/40
f 39/67/40 40/68/39 42/69/41 41/70/42
f 41/70/42 42/69/41 44/71/43 43/72/44
f 43/72/44 44/71/43 46/73/45 45/74/46
f 45/74/46 46/73/45 48/75/47 47/76/48
f 47/76/48 48/75/47 50/77/49 49/78/50
f 49/78/50 50/77/49 52/79/51 51/80/52
f 51/81/52 52/82/51 54/83/53 53/84/54
f 53/84/54 54/83/53 56/85/55 55/86/56
f 55/86/56 56/85/55 58/87/57 57/88/58
f 57/88/58 58/87/57 60/89/59 59/90/60
f 59/90/60 60/89/59 62/91/61 61/92/62
f 61/92/62 62/91/61 64/93/63 63/94/64
f 63/94/64 64/93/63 66/95/65 65/96/66
f 65/97/66 66/98/65 68/99/67 67/100/68
f 67/100/68 68/99/67 70/101/69 69/102/70
f 20/103/19 18/104/18 72/105/71 70/106/69 68/107/67 66/108/65 64/109/63 62/110/61 60/111/59 58/112/57 56/113/55 54/114/53 52/115/51 50/116/49 48/117/47 46/118/45 44/119/43 42/120/41 40/121/39 38/122/37 36/123/35 34/124/33 32/125/31 30/126/29 28/127/27 26/128/25 24/129/23 22/130/21
f 69/102/70 70/101/69 72/131/71 71/132/72
f 71/132/72 72/131/71 18/42/18 17/41/17
f 17/133/17 19/134/20 21/135/22 23/136/24 25/137/26 27/138/28 29/139/30 31/140/32 33/141/34 35/142/36 37/143/38 39/144/40 41/145/42 43/146/44 45/147/46 47/148/48 49/149/50 51/150/52 53/151/54 55/152/56 57/153/58 59/154/60 61/155/62 63/156/64 65/157/66 67/158/68 69/159/70 71/160/72
f 73/161/17 74/162/18 76/163/19 75/164/20
f 75/164/20 76/163/19 78/165/21 77/166/22
f 77/166/22 78/165/21 80/167/23 79/168/24
f 79/168/24 80/167/23 82/169/25 81/170/26
f 81/171/26 82/172/25 84/173/27 83/174/28
f 83/174/28 84/173/27 86/175/29 85/176/30
f 85/176/30 86/175/29 88/177/31 87/178/32
f 87/178/32 88/177/31 90/179/33 89/180/34
f 89/180/34 90/179/33 92/181/35 91/182/36
f 91/182/36 92/181/35 94/183/37 93/184/38
f 93/185/38 94/186/37 96/187/39 95/188/40
f 95/188/40 96/187/39 98/189/41 97/190/42
f 97/190/42 98/189/41 100/191/43 99/192/44
f 99/192/44 100/191/43 102/193/45 101/194/46
f 101/194/46 102/193/45 104/195/47 103/196/48
f 103/196/48 104/195/47 106/197/49 105/198/50
f 105/198/50 106/197/49 108/199/51 107/200/52
f 107/201/52 108/202/51 110/203/53 109/204/54
f 109/204/54 110/203/53 112/205/55 111/206/56
f 111/206/56 112/205/55 114/207/57 113/208/58
f 113/208/58 114/207/57 116/209/59 115/210/60
f 115/210/60 116/209/59 118/211/61 117/212/62
f 117/212/62 118/211/61 120/213/63 119/214/64
f 119/214/64 120/213/63 122/215/65 121/216/66
f 121/216/66 122/215/65 124/217/67 123/218/68
f 123/219/68 124/220/67 126/221/69 125/222/70
f 76/223/19 74/224/18 128/225/71 126/226/69 124/227/67 122/228/65 120/229/63 118/230/61 116/231/59 114/232/57 112/233/55 110/234/53 108/235/51 106/236/49 104/237/47 102/238/45 100/239/43 98/240/41 96/241/39 94/242/37 92/243/35 90/244/33 88/245/31 86/246/29 84/247/27 82/248/25 80/249/23 78/250/21
f 125/222/70 126/221/69 128/251/71 127/252/72
f 127/252/72 128/251/71 74/162/18 73/161/17
f 73/253/17 75/254/20 77/255/22 79/256/24 81/257/26 83/258/28 85/259/30 87/260/32 89/261/34 91/262/36 93/263/38 95/264/40 97/265/42 99/266/44 101/267/46 103/268/48 105/269/50 107/270/52 109/271/54 111/272/56 113/273/58 115/274/60 117/275/62 119/276/64 121/277/66 123/278/68 125/279/70 127/280/72
f 129/281/73 130/282/74 132/283/75 131/284/76
f 131/285/76 132/286/75 134/287/77 133/288/78
f 133/288/78 134/287/77 136/289/79 135/290/80
f 135/290/80 136/289/79 138/291/81 137/292/82
f 137/293/82 138/294/81 140/295/83 139/296/84
f 139/296/84 140/295/83 142/297/85 141/298/86
f 141/299/86 142/300/85 144/301/87 143/302/88
f 143/302/88 144/301/87 146/303/89 145/304/90
f 132/305/75 130/306/74 148/307/91 146/308/89 144/309/87 142/310/85 140/311/83 138/312/81 136/313/79 134/314/77
f 145/304/90 146/303/89 148/315/91 147/316/92
f 147/317/92 148/318/91 130/282/74 129/281/73
f 129/319/73 131/320/76 133/321/78 135/322/80 137/323/82 139/324/84 141/325/86 143/326/88 145/327/90 147/328/92
f 149/329/73 150/330/74 152/331/75 151/332/76
f 151/333/76 152/334/75 154/335/77 153/336/78
f 153/336/78 154/335/77 156/337/79 155/338/80
f 155/338/80 156/337/79 158/339/81 157/340/82
f 157/341/82 158/342/81 160/343/83 159/344/84
f 159/344/84 160/343/83 162/345/85 161/346/86
f 161/347/86 162/348/85 164/349/87 163/350/88
f 163/350/88 164/349/87 166/351/89 165/352/90
f 152/353/75 150/354/74 168/355/91 166/356/89 164/357/87 162/358/85 160/359/83 158/360/81 156/361/79 154/362/77
f 165/352/90 166/351/89 168/363/91 167/364/92
f 167/365/92 168/366/91 150/330/74 149/329/73
f 149/367/73 151/368/76 153/369/78 155/370/80 157/371/82 159/372/84 161/373/86 163/374/88 165/375/90 167/376/92
f 169/377/73 170/378/74 172/379/75 171/380/76
f 171/381/76 172/382/75 174/383/77 173/384/78
f 173/384/78 174/383/77 176/385/79 175/386/80
f 175/386/80 176/385/79 178/387/81 177/388/82
f 177/389/82 178/390/81 180/391/83 179/392/84
f 179/392/84 180/391/83 182/393/85 181/394/86
f 181/395/86 182/396/85 184/397/87 183/398/88
f 183/398/88 184/397/87 186/399/89 185/400/90
f 172/401/75 170/402/74 188/403/91 186/404/89 184/405/87 182/406/85 180/407/83 178/408/81 176/409/79 174/410/77
f 185/400/90 186/399/89 188/411/91 187/412/92
f 187/413/92 188/414/91 170/378/74 169/377/73
f 169/415/73 171/416/76 173/417/78 175/418/80 177/419/82 179/420/84 181/421/86 183/422/88 185/423/90 187/424/92
f 189/425/73 190/426/74 192/427/75 191/428/76
f 191/429/76 192/430/75 194/431/77 193/432/78
f 193/432/78 194/431/77 196/433/79 195/434/80
f 195/434/80 196/433/79 198/435/81 197/436/82
f 197/437/82 198/438/81 200/439/83 199/440/84
f 199/440/84 200/439/83 202/441/85 201/442/86
f 201/443/86 202/444/85 204/445/87 203/446/88
f 203/446/88 204/445/87 206/447/89 205/448/90
f 192/449/75 190/450/74 208/451/91 206/452/89 204/453/87 202/454/85 200/455/83 198/456/81 196/457/79 194/458/77
f 205/448/90 206/447/89 208/459/91 207/460/92
f 207/461/92 208/462/91 190/426/74 189/425/73
f 189/463/73 191/464/76 193/465/78 195/466/80 197/467/82 199/468/84 201/469/86 203/470/88 205/471/90 207/472/92
f 209/473/73 210/474/74 212/475/75 211/476/76
f 211/477/76 212/478/75 214/479/77 213/480/78
f 213/480/78 214/479/77 216/481/79 215/482/80
f 215/482/80 216/481/79 218/483/81 217/484/82
f 217/485/82 218/486/81 220/487/83 219/488/84
f 219/488/84 220/487/83 222/489/85 221/490/86
f 221/491/86 222/492/85 224/493/87 223/494/88
f 223/494/88 224/493/87 226/495/89 225/496/90
f 212/497/75 210/498/74 228/499/91 226/500/89 224/501/87 222/502/85 220/503/83 218/504/81 216/505/79 214/506/77
f 225/496/90 226/495/89 228/507/91 227/508/92
f 227/509/92 228/510/91 210/474/74 209/473/73
f 209/511/73 211/512/76 213/513/78 215/514/80 217/515/82 219/516/84 221/517/86 223/518/88 225/519/90 227/520/92
f 229/521/73 230/522/74 232/523/75 231/524/76
f 231/525/76 232/526/75 234/527/77 233/528/78
f 233/528/78 234/527/77 236/529/79 235/530/80
f 235/530/80 236/529/79 238/531/81 237/532/82
f 237/533/82 238/534/81 240/535/83 239/536/84
f 239/536/84 240/535/83 242/537/85 241/538/86
f 241/539/86 242/540/85 244/541/87 243/542/88
f 243/542/88 244/541/87 246/543/89 245/544/90
f 232/545/75 230/546/74 248/547/91 246/548/89 244/549/87 242/550/85 240/551/83 238/552/81 236/553/79 234/554/77
f 245/544/90 246/543/89 248/555/91 247/556/92
f 247/557/92 248/558/91 230/522/74 229/521/73
f 229/559/73 231/560/76 233/561/78 235/562/80 237/563/82 239/564/84 241/565/86 243/566/88 245/567/90 247/568/92
f 249/569/73 250/570/74 252/571/75 251/572/76
f 251/573/76 252/574/75 254/575/77 253/576/78
f 253/576/78 254/575/77 256/577/79 255/578/80
f 255/578/80 256/577/79 258/579/81 257/580/82
f 257/581/82 258/582/81 260/583/83 259/584/84
f 259/584/84 260/583/83 262/585/85 261/586/86
f 261/587/86 262/588/85 264/589/87 263/590/88
f 263/590/88 264/589/87 266/591/89 265/592/90
f 252/593/75 250/594/74 268/595/91 266/596/89 264/597/87 262/598/85 260/599/83 258/600/81 256/601/79 254/602/77
f 265/592/90 266/591/89 268/603/91 267/604/92
f 267/605/92 268/606/91 250/570/74 249/569/73
f 249/607/73 251/608/76 253/609/78 255/610/80 257/611/82 259/612/84 261/613/86 263/614/88 265/615/90 267/616/92
f 269/617/73 270/618/74 272/619/75 271/620/76
f 271/621/76 272/622/75 274/623/77 273/624/78
f 273/624/78 274/623/77 276/625/79 275/626/80
f 275/626/80 276/625/79 278/627/81 277/628/82
f 277/629/82 278/630/81 280/631/83 279/632/84
f 279/632/84 280/631/83 282/633/85 281/634/86
f 281/635/86 282/636/85 284/637/87 283/638/88
f 283/638/88 284/637/87 286/639/89 285/640/90
f 272/641/75 270/642/74 288/643/91 286/644/89 284/645/87 282/646/85 280/647/83 278/648/81 276/649/79 274/650/77
f 285/640/90 286/639/89 288/651/91 287/652/92
f 287/653/92 288/654/91 270/618/74 269/617/73
f 269/655/73 271/656/76 273/657/78 275/658/80 277/659/82 279/660/84 281/661/86 283/662/88 285/663/90 287/664/92
f 289/665/73 290/666/74 292/667/75 291/668/76
f 291/669/76 292/670/75 294/671/77 293/672/78
f 293/672/78 294/671/77 296/673/79 295/674/80
f 295/674/80 296/673/79 298/675/81 297/676/82
f 297/677/82 298/678/81 300/679/83 299/680/84
f 299/680/84 300/679/83 302/681/85 301/682/86
f 301/683/86 302/684/85 304/685/87 303/686/88
f 303/686/88 304/685/87 306/687/89 305/688/90
f 292/689/75 290/690/74 308/691/91 306/692/89 304/693/87 302/694/85 300/695/83 298/696/81 296/697/79 294/698/77
f 305/688/90 306/687/89 308/699/91 307/700/92
f 307/701/92 308/702/91 290/666/74 289/665/73
f 289/703/73 291/704/76 293/705/78 295/706/80 297/707/82 299/708/84 301/709/86 303/710/88 305/711/90 307/712/92
f 309/713/73 310/714/74 312/715/75 311/716/76
f 311/717/76 312/718/75 314/719/77 313/720/78
f 313/720/78 314/719/77 316/721/79 315/722/80
f 315/722/80 316/721/79 318/723/81 317/724/82
f 317/725/82 318/726/81 320/727/83 319/728/84
f 319/728/84 320/727/83 322/729/85 321/730/86
f 321/731/86 322/732/85 324/733/87 323/734/88
f 323/734/88 324/733/87 326/735/89 325/736/90
f 312/737/75 310/738/74 328/739/91 326/740/89 324/741/87 322/742/85 320/743/83 318/744/81 316/745/79 314/746/77
f 325/736/90 326/735/89 328/747/91 327/748/92
f 327/749/92 328/750/91 310/714/74 309/713/73
f 309/751/73 311/752/76 313/753/78 315/754/80 317/755/82 319/756/84 321/757/86 323/758/88 325/759/90 327/760/92
s 0
f 329/761/93 330/762/93 332/763/93 331/764/93
f 331/765/94 332/766/94 336/767/94 335/768/94
f 335/769/95 336/770/95 334/771/95 333/772/95
f 333/773/96 334/774/96 330/775/96 329/776/96
f 331/777/97 335/778/97 333/779/97 329/780/97
f 336/781/98 332/782/98 330/783/98 334/784/98
f 337/785/93 338/786/93 340/787/93 339/788/93
f 339/789/94 340/790/94 344/791/94 343/792/94
f 343/793/95 344/794/95 342/795/95 341/796/95
f 341/797/96 342/798/96 338/799/96 337/800/96
f 339/801/97 343/802/97 341/803/97 337/804/97
f 344/805/98 340/806/98 338/807/98 342/808/98
f 345/809/93 346/810/93 348/811/93 347/812/93
f 347/813/94 348/814/94 352/815/94 351/816/94
f 351/817/95 352/818/95 350/819/95 349/820/95
f 349/821/96 350/822/96 346/823/96 345/824/96
f 347/825/97 351/826/97 349/827/97 345/828/97
f 352/829/98 348/830/98 346/831/98 350/832/98
f 353/833/93 354/834/93 356/835/93 355/836/93
f 355/837/94 356/838/94 360/839/94 359/840/94
f 359/841/95 360/842/95 358/843/95 357/844/95
f 357/845/96 358/846/96 354/847/96 353/848/96
f 355/849/97 359/850/97 357/851/97 353/852/97
f 360/853/98 356/854/98 354/855/98 358/856/98
f 361/857/93 362/858/93 364/859/93 363/860/93
f 363/861/94 364/862/94 368/863/94 367/864/94
f 367/865/95 368/866/95 366/867/95 365/868/95
f 365/869/96 366/870/96 362/871/96 361/872/96
f 363/873/97 367/874/97 365/875/97 361/876/97
f 368/877/98 364/878/98 362/879/98 366/880/98
f 369/881/99 370/882/99 372/883/99 371/884/99
f 371/885/94 372/886/94 376/887/94 375/888/94
f 375/889/100 376/890/100 374/891/100 373/892/100
f 373/893/96 374/894/96 370/895/96 369/896/96
f 371/897/101 375/898/101 373/899/101 369/900/101
f 376/901/102 372/902/102 370/903/102 374/904/102
f 377/905/103 378/906/103 380/907/103 379/908/103
f 379/909/94 380/910/94 384/911/94 383/912/94
f 383/913/104 384/914/104 382/915/104 381/916/104
f 381/917/96 382/918/96 378/919/96 377/920/96
f 379/921/105 383/922/105 381/923/105 377/924/105
f 384/925/106 380/926/106 378/927/106 382/928/106
f 385/929/99 386/930/99 388/931/99 387/932/99
f 387/933/94 388/934/94 392/935/94 391/936/94
f 391/937/100 392/938/100 390/939/100 389/940/100
f 389/941/96 390/942/96 386/943/96 385/944/96
f 387/945/101 391/946/101 389/947/101 385/948/101
f 392/949/102 388/950/102 386/951/102 390/952/102
f 393/953/103 394/954/103 396/955/103 395/956/103
f 395/957/94 396/958/94 400/959/94 399/960/94
f 399/961/104 400/962/104 398/963/104 397/964/104
f 397/965/96 398/966/96 394/967/96 393/968/96
f 395/969/105 399/970/105 397/971/105 393/972/105
f 400/973/106 396/974/106 394/975/106 398/976/106
s 1
f 401/977/1 402/978/2 404/979/3 403/980/4
f 403/981/4 404/982/3 406/983/5 405/984/6
f 405/984/6 406/983/5 408/985/7 407/986/8
f 407/987/8 408/988/7 410/989/9 409/990/10
f 409/990/10 410/989/9 412/991/11 411/992/12
f 411/993/12 412/994/11 414/995/13 413/996/14
f 404/997/3 402/998/2 416/999/15 414/1000/13 412/1001/11 410/1002/9 408/1003/7 406/1004/5
f 413/996/14 414/995/13 416/1005/15 415/1006/16
f 415/1007/16 416/1008/15 402/978/2 401/977/1
f 401/1009/1 403/1010/4 405/1011/6 407/1012/8 409/1013/10 411/1014/12 413/1015/14 415/1016/16
f 417/1017/1 418/1018/2 420/1019/3 419/1020/4
f 419/1021/4 420/1022/3 422/1023/5 421/1024/6
f 421/1024/6 422/1023/5 424/1025/7 423/1026/8
f 423/1027/8 424/1028/7 426/1029/9 425/1030/10
f 425/1030/10 426/1029/9 428/1031/11 427/1032/12
f 427/1033/12 428/1034/11 430/1035/13 429/1036/14
f 420/1037/3 418/1038/2 432/1039/15 430/1040/13 428/1041/11 426/1042/9 424/1043/7 422/1044/5
f 429/1036/14 430/1035/13 432/1045/15 431/1046/16
f 431/1047/16 432/1048/15 418/1018/2 417/1017/1
f 417/1049/1 419/1050/4 421/1051/6 423/1052/8 425/1053/10 427/1054/12 429/1055/14 431/1056/16
f 433/1057/1 434/1058/2 436/1059/3 435/1060/4
f 435/1061/4 436/1062/3 438/1063/5 437/1064/6
f 437/1064/6 438/1063/5 440/1065/7 439/1066/8
f 439/1067/8 440/1068/7 442/1069/9 441/1070/10
f 441/1070/10 442/1069/9 444/1071/11 443/1072/12
f 443/1073/12 444/1074/11 446/1075/13 445/1076/14
f 436/1077/3 434/1078/2 448/1079/15 446/1080/13 444/1081/11 442/1082/9 440/1083/7 438/1084/5
f 445/1076/14 446/1075/13 448/1085/15 447/1086/16
f 447/1087/16 448/1088/15 434/1058/2 433/1057/1
f 433/1089/1 435/1090/4 437/1091/6 439/1092/8 441/1093/10 443/1094/12 445/1095/14 447/1096/16
f 449/1097/107 450/1098/108 452/1099/109 451/1100/110
f 451/1100/110 452/1099/109 454/1101/111 453/1102/112
f 453/1102/112 454/1101/111 456/1103/113 455/1104/114
f 455/1105/114 456/1106/113 458/1107/115 457/1108/116
f 457/1108/116 458/1107/115 460/1109/117 459/1110/118
f 459/1110/118 460/1109/117 462/1111/119 461/1112/120
f 461/1112/120 462/1111/119 464/1113/121 463/1114/122
f 463/1114/122 464/1113/121 466/1115/123 465/1116/124
f 465/1116/124 466/1115/123 468/1117/125 467/1118/126
f 467/1119/126 468/1120/125 470/1121/127 469/1122/128
f 469/1122/128 470/1121/127 472/1123/129 471/1124/130
f 471/1124/130 472/1123/129 474/1125/131 473/1126/132
f 473/1126/132 474/1125/131 476/1127/133 475/1128/134
f 475/1128/134 476/1127/133 478/1129/135 477/1130/136
f 477/1130/136 478/1129/135 480/1131/137 479/1132/138
f 479/1133/138 480/1134/137 482/1135/139 481/1136/140
f 481/1136/140 482/1135/139 484/1137/141 483/1138/142
f 483/1138/142 484/1137/141 486/1139/143 485/1140/144
f 485/1140/144 486/1139/143 488/1141/145 487/1142/146
f 487/1142/146 488/1141/145 490/1143/147 489/1144/148
f 489/1144/148 490/1143/147 492/1145/149 491/1146/150
f 491/1147/150 492/1148/149 494/1149/151 493/1150/152
f 452/1151/109 450/1152/108 496/1153/153 494/1154/151 492/1155/149 490/1156/147 488/1157/145 486/1158/143 484/1159/141 482/1160/139 480/1161/137 478/1162/135 476/1163/133 474/1164/131 472/1165/129 470/1166/127 468/1167/125 466/1168/123 464/1169/121 462/1170/119 460/1171/117 458/1172/115 456/1173/113 454/1174/111
f 493/1150/152 494/1149/151 496/1175/153 495/1176/154
f 495/1176/154 496/1175/153 450/1098/108 449/1097/107
f 449/1177/107 451/1178/110 453/1179/112 455/1180/114 457/1181/116 459/1182/118 461/1183/120 463/1184/122 465/1185/124 467/1186/126 469/1187/128 471/1188/130 473/1189/132 475/1190/134 477/1191/136 479/1192/138 481/1193/140 483/1194/142 485/1195/144 487/1196/146 489/1197/148 491/1198/150 493/1199/152 495/1200/154
