# Blender 4.5.9 LTS
# www.blender.org
mtllib air_defense_barrels.mtl
o AirDefense_barrels
v 0.000000 1.250000 -0.200000
v 0.000000 1.250000 1.200000
v 0.386271 1.188821 -0.200000
v 0.386271 1.188821 1.200000
v 0.734732 1.011271 -0.200000
v 0.734732 1.011271 1.200000
v 1.011271 0.734732 -0.200000
v 1.011271 0.734732 1.200000
v 1.188821 0.386271 -0.200000
v 1.188821 0.386271 1.200000
v 1.250000 0.000000 -0.200000
v 1.250000 0.000000 1.200000
v 1.188821 -0.386271 -0.200000
v 1.188821 -0.386271 1.200000
v 1.011271 -0.734732 -0.200000
v 1.011271 -0.734732 1.200000
v 0.734732 -1.011271 -0.200000
v 0.734732 -1.011271 1.200000
v 0.386271 -1.188821 -0.200000
v 0.386271 -1.188821 1.200000
v 0.000000 -1.250000 -0.200000
v 0.000000 -1.250000 1.200000
v -0.386271 -1.188821 -0.200000
v -0.386271 -1.188821 1.200000
v -0.734732 -1.011271 -0.200000
v -0.734732 -1.011271 1.200000
v -1.011271 -0.734732 -0.200000
v -1.011271 -0.734732 1.200000
v -1.188821 -0.386271 -0.200000
v -1.188821 -0.386271 1.200000
v -1.250000 0.000000 -0.200000
v -1.250000 0.000000 1.200000
v -1.188821 0.386271 -0.200000
v -1.188821 0.386271 1.200000
v -1.011271 0.734732 -0.200000
v -1.011271 0.734732 1.200000
v -0.734732 1.011271 -0.200000
v -0.734732 1.011271 1.200000
v -0.386271 1.188821 -0.200000
v -0.386271 1.188821 1.200000
v 0.000000 0.450001 1.200000
v 0.000000 0.450000 6.800000
v 0.225000 0.389711 1.200000
v 0.225000 0.389711 6.800000
v 0.389711 0.225000 1.200000
v 0.389711 0.225000 6.800000
v 0.450000 0.000000 1.200000
v 0.450000 0.000000 6.800000
v 0.389711 -0.224999 1.200000
v 0.389711 -0.225000 6.800000
v 0.225000 -0.389711 1.200000
v 0.225000 -0.389711 6.800000
v 0.000000 -0.450000 1.200000
v 0.000000 -0.450000 6.800000
v -0.225000 -0.389711 1.200000
v -0.225000 -0.389711 6.800000
v -0.389711 -0.224999 1.200000
v -0.389711 -0.225000 6.800000
v -0.450000 0.000000 1.200000
v -0.450000 0.000000 6.800000
v -0.389711 0.225000 1.200000
v -0.389711 0.225000 6.800000
v -0.225000 0.389711 1.200000
v -0.225000 0.389711 6.800000
v 0.780000 0.270000 1.200000
v 0.780000 0.270000 7.800000
v 0.938702 0.218435 1.200000
v 0.938702 0.218434 7.800000
v 1.036785 0.083435 1.200000
v 1.036785 0.083435 7.800000
v 1.036785 -0.083434 1.200000
v 1.036785 -0.083434 7.800000
v 0.938702 -0.218434 1.200000
v 0.938702 -0.218434 7.800000
v 0.780000 -0.270000 1.200000
v 0.780000 -0.270000 7.800000
v 0.621298 -0.218434 1.200000
v 0.621298 -0.218434 7.800000
v 0.523215 -0.083434 1.200000
v 0.523215 -0.083434 7.800000
v 0.523215 0.083435 1.200000
v 0.523215 0.083435 7.800000
v 0.621298 0.218435 1.200000
v 0.621298 0.218434 7.800000
v 0.390000 0.945499 1.200001
v 0.390000 0.945499 7.800000
v 0.548702 0.893934 1.200001
v 0.548702 0.893933 7.800000
v 0.646785 0.758934 1.200001
v 0.646785 0.758934 7.800000
v 0.646785 0.592065 1.200000
v 0.646785 0.592065 7.800000
v 0.548702 0.457065 1.200000
v 0.548702 0.457065 7.800000
v 0.390000 0.405499 1.200000
v 0.390000 0.405499 7.800000
v 0.231298 0.457065 1.200000
v 0.231298 0.457065 7.800000
v 0.133215 0.592065 1.200000
v 0.133215 0.592065 7.800000
v 0.133215 0.758934 1.200001
v 0.133215 0.758934 7.800000
v 0.231298 0.893934 1.200001
v 0.231298 0.893933 7.800000
v -0.390000 0.945499 1.200001
v -0.390000 0.945499 7.800000
v -0.231298 0.893934 1.200001
v -0.231298 0.893933 7.800000
v -0.133215 0.758934 1.200001
v -0.133215 0.758934 7.800000
v -0.133215 0.592065 1.200000
v -0.133215 0.592065 7.800000
v -0.231298 0.457065 1.200000
v -0.231298 0.457065 7.800000
v -0.390000 0.405499 1.200000
v -0.390000 0.405499 7.800000
v -0.548702 0.457065 1.200000
v -0.548702 0.457065 7.800000
v -0.646785 0.592065 1.200000
v -0.646785 0.592065 7.800000
v -0.646785 0.758934 1.200001
v -0.646785 0.758934 7.800000
v -0.548702 0.893934 1.200001
v -0.548702 0.893933 7.800000
v -0.780000 0.270000 1.200000
v -0.780000 0.270000 7.800000
v -0.621298 0.218435 1.200000
v -0.621298 0.218434 7.800000
v -0.523215 0.083435 1.200000
v -0.523215 0.083435 7.800000
v -0.523215 -0.083434 1.200000
v -0.523215 -0.083434 7.800000
v -0.621298 -0.218434 1.200000
v -0.621298 -0.218434 7.800000
v -0.780000 -0.270000 1.200000
v -0.780000 -0.270000 7.800000
v -0.938702 -0.218434 1.200000
v -0.938702 -0.218434 7.800000
v -1.036785 -0.083434 1.200000
v -1.036785 -0.083434 7.800000
v -1.036785 0.083435 1.200000
v -1.036785 0.083435 7.800000
v -0.938702 0.218435 1.200000
v -0.938702 0.218434 7.800000
v -0.390000 -0.405500 1.200000
v -0.390000 -0.405500 7.800000
v -0.231298 -0.457066 1.200000
v -0.231298 -0.457066 7.800000
v -0.133215 -0.592065 1.200000
v -0.133215 -0.592066 7.800000
v -0.133215 -0.758934 1.200000
v -0.133215 -0.758935 7.800000
v -0.231298 -0.893935 1.200000
v -0.231298 -0.893935 7.800000
v -0.390000 -0.945500 1.200000
v -0.390000 -0.945500 7.800000
v -0.548702 -0.893935 1.200000
v -0.548702 -0.893935 7.800000
v -0.646785 -0.758934 1.200000
v -0.646785 -0.758935 7.800000
v -0.646785 -0.592065 1.200000
v -0.646785 -0.592066 7.800000
v -0.548702 -0.457066 1.200000
v -0.548702 -0.457066 7.800000
v 0.390000 -0.405500 1.200000
v 0.390000 -0.405500 7.800000
v 0.548702 -0.457066 1.200000
v 0.548702 -0.457066 7.800000
v 0.646785 -0.592065 1.200000
v 0.646785 -0.592066 7.800000
v 0.646785 -0.758934 1.200000
v 0.646785 -0.758935 7.800000
v 0.548702 -0.893935 1.200000
v 0.548702 -0.893935 7.800000
v 0.390000 -0.945500 1.200000
v 0.390000 -0.945500 7.800000
v 0.231298 -0.893935 1.200000
v 0.231298 -0.893935 7.800000
v 0.133215 -0.758934 1.200000
v 0.133215 -0.758935 7.800000
v 0.133215 -0.592065 1.200000
v 0.133215 -0.592066 7.800000
v 0.231298 -0.457066 1.200000
v 0.231298 -0.457066 7.800000
v 0.000000 1.180000 4.555001
v 0.000000 1.180000 5.105000
v 0.364640 1.122247 4.555001
v 0.364640 1.122247 5.105000
v 0.693587 0.954640 4.555001
v 0.693587 0.954640 5.105000
v 0.954640 0.693586 4.555001
v 0.954640 0.693586 5.105000
v 1.122247 0.364640 4.555001
v 1.122247 0.364640 5.105000
v 1.180000 0.000000 4.555001
v 1.180000 0.000000 5.105000
v 1.122247 -0.364640 4.555001
v 1.122247 -0.364640 5.105000
v 0.954640 -0.693586 4.555001
v 0.954640 -0.693586 5.105000
v 0.693587 -0.954640 4.555001
v 0.693587 -0.954640 5.105000
v 0.364640 -1.122246 4.555001
v 0.364640 -1.122247 5.105000
v 0.000000 -1.180000 4.555001
v 0.000000 -1.180000 5.105000
v -0.364640 -1.122246 4.555001
v -0.364640 -1.122247 5.105000
v -0.693587 -0.954640 4.555001
v -0.693587 -0.954640 5.105000
v -0.954640 -0.693586 4.555001
v -0.954640 -0.693586 5.105000
v -1.122247 -0.364640 4.555001
v -1.122247 -0.364640 5.105000
v -1.180000 0.000000 4.555001
v -1.180000 0.000000 5.105000
v -1.122247 0.364640 4.555001
v -1.122247 0.364640 5.105000
v -0.954640 0.693586 4.555001
v -0.954640 0.693586 5.105000
v -0.693587 0.954640 4.555001
v -0.693587 0.954640 5.105000
v -0.364640 1.122247 4.555001
v -0.364640 1.122247 5.105000
v 0.000000 1.080000 7.000000
v 0.000000 1.080000 8.000000
v 0.333738 1.027142 7.000000
v 0.333738 1.027142 8.000000
v 0.634808 0.873738 7.000000
v 0.634808 0.873738 8.000000
v 0.873738 0.634809 7.000000
v 0.873738 0.634809 8.000000
v 1.027141 0.333738 7.000000
v 1.027141 0.333738 8.000000
v 1.080000 0.000000 7.000000
v 1.080000 0.000000 8.000000
v 1.027141 -0.333738 7.000000
v 1.027141 -0.333738 8.000000
v 0.873738 -0.634808 7.000000
v 0.873738 -0.634808 8.000000
v 0.634808 -0.873738 7.000000
v 0.634808 -0.873738 8.000000
v 0.333738 -1.027141 7.000000
v 0.333738 -1.027141 8.000000
v 0.000000 -1.080000 7.000000
v 0.000000 -1.080000 8.000000
v -0.333738 -1.027141 7.000000
v -0.333738 -1.027141 8.000000
v -0.634808 -0.873738 7.000000
v -0.634808 -0.873738 8.000000
v -0.873738 -0.634808 7.000000
v -0.873738 -0.634808 8.000000
v -1.027141 -0.333738 7.000000
v -1.027141 -0.333738 8.000000
v -1.080000 0.000000 7.000000
v -1.080000 0.000000 8.000000
v -1.027141 0.333738 7.000000
v -1.027141 0.333738 8.000000
v -0.873738 0.634809 7.000000
v -0.873738 0.634809 8.000000
v -0.634808 0.873738 7.000000
v -0.634808 0.873738 8.000000
v -0.333738 1.027142 7.000000
v -0.333738 1.027142 8.000000
v 0.000000 0.620000 7.895000
v 0.000000 0.620000 8.145000
v 0.237264 0.572805 7.895000
v 0.237264 0.572805 8.145000
v 0.438406 0.438406 7.895000
v 0.438406 0.438406 8.145000
v 0.572805 0.237264 7.895000
v 0.572805 0.237264 8.145000
v 0.620000 0.000000 7.895000
v 0.620000 0.000000 8.145000
v 0.572805 -0.237264 7.895000
v 0.572805 -0.237264 8.145000
v 0.438406 -0.438406 7.895000
v 0.438406 -0.438406 8.145000
v 0.237264 -0.572805 7.895000
v 0.237264 -0.572805 8.145000
v 0.000000 -0.620000 7.895000
v 0.000000 -0.620000 8.145000
v -0.237264 -0.572805 7.895000
v -0.237264 -0.572805 8.145000
v -0.438406 -0.438406 7.895000
v -0.438406 -0.438406 8.145000
v -0.572805 -0.237264 7.895000
v -0.572805 -0.237264 8.145000
v -0.620000 0.000000 7.895000
v -0.620000 0.000000 8.145000
v -0.572805 0.237264 7.895000
v -0.572805 0.237264 8.145000
v -0.438406 0.438406 7.895000
v -0.438406 0.438406 8.145000
v -0.237264 0.572805 7.895000
v -0.237264 0.572805 8.145000
vn -0.0000 0.7392 -0.6735
vn -0.0000 0.7392 0.6735
vn 0.2284 0.7030 -0.6735
vn 0.2284 0.7030 0.6735
vn 0.4345 0.5980 -0.6735
vn 0.4345 0.5980 0.6735
vn 0.5980 0.4345 -0.6735
vn 0.5980 0.4345 0.6735
vn 0.7030 0.2284 -0.6735
vn 0.7030 0.2284 0.6735
vn 0.7392 -0.0000 -0.6735
vn 0.7392 -0.0000 0.6735
vn 0.7030 -0.2284 -0.6735
vn 0.7030 -0.2284 0.6735
vn 0.5980 -0.4345 -0.6735
vn 0.5980 -0.4345 0.6735
vn 0.4345 -0.5980 -0.6735
vn 0.4345 -0.5980 0.6735
vn 0.2284 -0.7030 -0.6735
vn 0.2284 -0.7030 0.6735
vn -0.0000 -0.7392 -0.6735
vn -0.0000 -0.7392 0.6735
vn -0.2284 -0.7030 -0.6735
vn -0.2284 -0.7030 0.6735
vn -0.4345 -0.5980 -0.6735
vn -0.4345 -0.5980 0.6735
vn -0.5980 -0.4345 -0.6735
vn -0.5980 -0.4345 0.6735
vn -0.7030 -0.2284 -0.6735
vn -0.7030 -0.2284 0.6735
vn -0.7392 -0.0000 -0.6735
vn -0.7392 -0.0000 0.6735
vn -0.7030 0.2284 -0.6735
vn -0.7030 0.2284 0.6735
vn -0.5980 0.4345 -0.6735
vn -0.5980 0.4345 0.6735
vn -0.4345 0.5980 -0.6735
vn -0.4345 0.5980 0.6735
vn -0.2284 0.7030 -0.6735
vn -0.2284 0.7030 0.6735
vn -0.0000 0.7572 -0.6532
vn -0.0000 0.7572 0.6532
vn 0.3786 0.6557 -0.6532
vn 0.3786 0.6557 0.6532
vn 0.6557 0.3786 -0.6532
vn 0.6557 0.3786 0.6532
vn 0.7572 -0.0000 -0.6532
vn 0.7572 -0.0000 0.6532
vn 0.6557 -0.3786 -0.6532
vn 0.6557 -0.3786 0.6532
vn 0.3786 -0.6557 -0.6532
vn 0.3786 -0.6557 0.6532
vn -0.0000 -0.7572 -0.6532
vn -0.0000 -0.7572 0.6532
vn -0.3786 -0.6557 -0.6532
vn -0.3786 -0.6557 0.6532
vn -0.6557 -0.3786 -0.6532
vn -0.6557 -0.3786 0.6532
vn -0.7572 -0.0000 -0.6532
vn -0.7572 -0.0000 0.6532
vn -0.6557 0.3786 -0.6532
vn -0.6557 0.3786 0.6532
vn -0.3786 0.6557 -0.6532
vn -0.3786 0.6557 0.6532
vn -0.0000 0.7653 -0.6437
vn -0.0000 0.7653 0.6437
vn 0.4498 0.6191 -0.6437
vn 0.4498 0.6191 0.6437
vn 0.7278 0.2365 -0.6437
vn 0.7278 0.2365 0.6437
vn 0.7278 -0.2365 -0.6437
vn 0.7278 -0.2365 0.6437
vn 0.4498 -0.6191 -0.6437
vn 0.4498 -0.6191 0.6437
vn -0.0000 -0.7653 -0.6437
vn -0.0000 -0.7653 0.6437
vn -0.4498 -0.6191 -0.6437
vn -0.4498 -0.6191 0.6437
vn -0.7278 -0.2365 -0.6437
vn -0.7278 -0.2365 0.6437
vn -0.7278 0.2365 -0.6437
vn -0.7278 0.2365 0.6437
vn -0.4498 0.6191 -0.6437
vn -0.4498 0.6191 0.6437
vn -0.0000 0.7462 -0.6657
vn -0.0000 0.7462 0.6657
vn 0.2856 0.6894 -0.6657
vn 0.2856 0.6894 0.6657
vn 0.5276 0.5276 -0.6657
vn 0.5276 0.5276 0.6657
vn 0.6894 0.2856 -0.6657
vn 0.6894 0.2856 0.6657
vn 0.7462 -0.0000 -0.6657
vn 0.7462 -0.0000 0.6657
vn 0.6894 -0.2856 -0.6657
vn 0.6894 -0.2856 0.6657
vn 0.5276 -0.5276 -0.6657
vn 0.5276 -0.5276 0.6657
vn 0.2856 -0.6894 -0.6657
vn 0.2856 -0.6894 0.6657
vn -0.0000 -0.7462 -0.6657
vn -0.0000 -0.7462 0.6657
vn -0.2856 -0.6894 -0.6657
vn -0.2856 -0.6894 0.6657
vn -0.5276 -0.5276 -0.6657
vn -0.5276 -0.5276 0.6657
vn -0.6894 -0.2856 -0.6657
vn -0.6894 -0.2856 0.6657
vn -0.7462 -0.0000 -0.6657
vn -0.7462 -0.0000 0.6657
vn -0.6894 0.2856 -0.6657
vn -0.6894 0.2856 0.6657
vn -0.5276 0.5276 -0.6657
vn -0.5276 0.5276 0.6657
vn -0.2856 0.6894 -0.6657
vn -0.2856 0.6894 0.6657
vt 0.465034 0.229178
vt 0.361921 0.229178
vt 0.361921 0.203245
vt 0.465034 0.203245
vt 0.361921 0.182455
vt 0.465034 0.182455
vt 0.361921 0.168844
vt 0.465034 0.168844
vt 0.361921 0.001675
vt 0.465034 0.001675
vt 0.465034 0.019850
vt 0.361921 0.019850
vt 0.465034 0.044041
vt 0.361921 0.044041
vt 0.465034 0.071880
vt 0.361921 0.071880
vt 0.465034 0.100642
vt 0.361921 0.100642
vt 0.465034 0.127511
vt 0.361921 0.127511
vt 0.465034 0.149858
vt 0.361921 0.149858
vt 0.465034 0.165494
vt 0.361921 0.165494
vt 0.571498 0.147319
vt 0.468384 0.147319
vt 0.468384 0.131683
vt 0.571498 0.131683
vt 0.468384 0.109336
vt 0.571498 0.109336
vt 0.468384 0.082467
vt 0.571498 0.082467
vt 0.468384 0.053705
vt 0.571498 0.053705
vt 0.468384 0.025866
vt 0.571498 0.025866
vt 0.468384 0.001675
vt 0.571498 0.001675
vt 0.465034 0.331388
vt 0.361921 0.331388
vt 0.361921 0.311451
vt 0.465034 0.311451
vt 0.361921 0.286065
vt 0.465034 0.286065
vt 0.174639 0.050810
vt 0.183540 0.078205
vt 0.183540 0.107010
vt 0.174639 0.134404
vt 0.157708 0.157708
vt 0.134404 0.174639
vt 0.107010 0.183540
vt 0.078205 0.183540
vt 0.050810 0.174639
vt 0.027507 0.157708
vt 0.010576 0.134404
vt 0.001675 0.107010
vt 0.001675 0.078205
vt 0.010576 0.050810
vt 0.027507 0.027507
vt 0.050810 0.010576
vt 0.078205 0.001675
vt 0.107010 0.001675
vt 0.134404 0.010576
vt 0.157708 0.027507
vt 0.361921 0.257716
vt 0.465034 0.257716
vt 0.183540 0.263420
vt 0.183540 0.292225
vt 0.174639 0.319619
vt 0.157708 0.342923
vt 0.134404 0.359854
vt 0.107010 0.368755
vt 0.078205 0.368755
vt 0.050810 0.359854
vt 0.027507 0.342923
vt 0.010576 0.319619
vt 0.001675 0.292225
vt 0.001675 0.263420
vt 0.010576 0.236025
vt 0.027507 0.212722
vt 0.050810 0.195791
vt 0.078205 0.186890
vt 0.107010 0.186890
vt 0.134404 0.195791
vt 0.157708 0.212722
vt 0.174639 0.236025
vt 0.660980 0.764191
vt 0.660980 0.351736
vt 0.675560 0.351736
vt 0.675560 0.764191
vt 0.683667 0.351736
vt 0.683667 0.764191
vt 0.507853 0.764191
vt 0.507853 0.351736
vt 0.521209 0.351736
vt 0.521209 0.764191
vt 0.538160 0.351736
vt 0.538160 0.764191
vt 0.554163 0.351736
vt 0.554163 0.764191
vt 0.564932 0.351736
vt 0.564932 0.764191
vt 0.568282 0.764191
vt 0.568282 0.351736
vt 0.579050 0.351736
vt 0.579050 0.764191
vt 0.595054 0.351736
vt 0.595054 0.764191
vt 0.612005 0.351736
vt 0.612005 0.764191
vt 0.625361 0.351736
vt 0.625361 0.764191
vt 0.677841 0.252172
vt 0.686419 0.267030
vt 0.686419 0.284186
vt 0.677841 0.299044
vt 0.662983 0.307622
vt 0.645826 0.307622
vt 0.630968 0.299044
vt 0.622390 0.284186
vt 0.622390 0.267030
vt 0.630968 0.252172
vt 0.645826 0.243594
vt 0.662983 0.243594
vt 0.628711 0.764191
vt 0.628711 0.351736
vt 0.643832 0.351736
vt 0.643832 0.764191
vt 0.448183 0.649982
vt 0.463041 0.641404
vt 0.480197 0.641404
vt 0.495055 0.649982
vt 0.503633 0.664840
vt 0.503633 0.681996
vt 0.495055 0.696854
vt 0.480197 0.705432
vt 0.463041 0.705432
vt 0.448183 0.696854
vt 0.439605 0.681996
vt 0.439605 0.664840
vt 0.105707 0.858212
vt 0.105707 0.372105
vt 0.115799 0.372105
vt 0.115799 0.858212
vt 0.080279 0.372105
vt 0.080279 0.858212
vt 0.074111 0.858212
vt 0.074111 0.372105
vt 0.062873 0.858212
vt 0.062873 0.372105
vt 0.050857 0.858212
vt 0.050857 0.372105
vt 0.042652 0.858212
vt 0.042652 0.372105
vt 0.291318 0.998325
vt 0.291318 0.512217
vt 0.299522 0.512217
vt 0.299522 0.998325
vt 0.311538 0.512217
vt 0.311538 0.998325
vt 0.322777 0.512217
vt 0.322777 0.998325
vt 0.730545 0.087920
vt 0.742234 0.091718
vt 0.749458 0.101661
vt 0.749458 0.113952
vt 0.742234 0.123895
vt 0.730545 0.127693
vt 0.718856 0.123895
vt 0.711632 0.113952
vt 0.711632 0.101661
vt 0.718856 0.091718
vt 0.083630 0.858212
vt 0.083630 0.372105
vt 0.093419 0.372105
vt 0.093419 0.858212
vt 0.487297 0.295559
vt 0.498986 0.299357
vt 0.506210 0.309300
vt 0.506210 0.321590
vt 0.498986 0.331533
vt 0.487297 0.335331
vt 0.475609 0.331533
vt 0.468384 0.321590
vt 0.468384 0.309300
vt 0.475609 0.299357
vt 0.873004 0.837843
vt 0.873004 0.351736
vt 0.883096 0.351736
vt 0.883096 0.837843
vt 0.806599 0.351736
vt 0.806599 0.837843
vt 0.800431 0.837843
vt 0.800431 0.351736
vt 0.789193 0.837843
vt 0.789193 0.351736
vt 0.777176 0.837843
vt 0.777176 0.351736
vt 0.768972 0.837844
vt 0.768972 0.351736
vt 0.256509 0.998325
vt 0.256509 0.512217
vt 0.264713 0.512217
vt 0.264713 0.998325
vt 0.276729 0.512217
vt 0.276729 0.998325
vt 0.287968 0.512217
vt 0.287968 0.998325
vt 0.771721 0.001675
vt 0.783410 0.005473
vt 0.790634 0.015416
vt 0.790634 0.027707
vt 0.783410 0.037650
vt 0.771721 0.041448
vt 0.760032 0.037650
vt 0.752808 0.027706
vt 0.752808 0.015416
vt 0.760032 0.005473
vt 0.850927 0.837843
vt 0.850927 0.351736
vt 0.860716 0.351736
vt 0.860716 0.837843
vt 0.528473 0.295559
vt 0.540162 0.299357
vt 0.547386 0.309300
vt 0.547386 0.321590
vt 0.540162 0.331533
vt 0.528473 0.335331
vt 0.516785 0.331533
vt 0.509561 0.321590
vt 0.509561 0.309300
vt 0.516785 0.299357
vt 0.967578 0.351736
vt 0.967578 0.837844
vt 0.957486 0.837844
vt 0.957486 0.351736
vt 0.847576 0.351736
vt 0.847576 0.837844
vt 0.841408 0.837844
vt 0.841408 0.351736
vt 0.830170 0.837844
vt 0.830170 0.351736
vt 0.818154 0.837844
vt 0.818154 0.351736
vt 0.809949 0.837844
vt 0.809949 0.351736
vt 0.221699 0.998325
vt 0.221699 0.512217
vt 0.229904 0.512217
vt 0.229904 0.998325
vt 0.241920 0.512217
vt 0.241920 0.998325
vt 0.253158 0.512217
vt 0.253158 0.998325
vt 0.752808 0.058539
vt 0.760032 0.048596
vt 0.771721 0.044798
vt 0.783410 0.048596
vt 0.790634 0.058539
vt 0.790634 0.070829
vt 0.783410 0.080772
vt 0.771721 0.084570
vt 0.760032 0.080772
vt 0.752808 0.070829
vt 0.989655 0.351736
vt 0.989655 0.837844
vt 0.979866 0.837844
vt 0.979866 0.351736
vt 0.569649 0.295559
vt 0.581338 0.299357
vt 0.588562 0.309300
vt 0.588562 0.321590
vt 0.581338 0.331533
vt 0.569649 0.335331
vt 0.557961 0.331533
vt 0.550737 0.321590
vt 0.550737 0.309300
vt 0.557961 0.299357
vt 0.141227 0.858212
vt 0.141227 0.372105
vt 0.151319 0.372105
vt 0.151319 0.858212
vt 0.039302 0.372105
vt 0.039302 0.858212
vt 0.033134 0.858212
vt 0.033134 0.372105
vt 0.021896 0.858212
vt 0.021896 0.372105
vt 0.009879 0.858212
vt 0.009879 0.372105
vt 0.001675 0.858212
vt 0.001675 0.372105
vt 0.186890 0.998325
vt 0.186890 0.512217
vt 0.195094 0.512217
vt 0.195094 0.998325
vt 0.207111 0.512217
vt 0.207111 0.998325
vt 0.218349 0.512217
vt 0.218349 0.998325
vt 0.752808 0.101661
vt 0.760032 0.091718
vt 0.771721 0.087920
vt 0.783410 0.091718
vt 0.790634 0.101661
vt 0.790634 0.113952
vt 0.783410 0.123895
vt 0.771721 0.127693
vt 0.760032 0.123895
vt 0.752808 0.113952
vt 0.119149 0.858212
vt 0.119149 0.372105
vt 0.128939 0.372105
vt 0.128939 0.858212
vt 0.593761 0.094600
vt 0.605450 0.098398
vt 0.612674 0.108341
vt 0.612674 0.120631
vt 0.605450 0.130574
vt 0.593761 0.134372
vt 0.582072 0.130574
vt 0.574848 0.120631
vt 0.574848 0.108341
vt 0.582072 0.098398
vt 0.908524 0.837843
vt 0.908524 0.351736
vt 0.918616 0.351736
vt 0.918616 0.837843
vt 0.687018 0.837843
vt 0.687018 0.351736
vt 0.693186 0.351736
vt 0.693186 0.837843
vt 0.704424 0.351736
vt 0.704424 0.837843
vt 0.716440 0.351736
vt 0.716440 0.837843
vt 0.724645 0.351736
vt 0.724645 0.837843
vt 0.326127 0.998325
vt 0.326127 0.512217
vt 0.334331 0.512217
vt 0.334331 0.998325
vt 0.346348 0.512217
vt 0.346348 0.998325
vt 0.357586 0.512217
vt 0.357586 0.998325
vt 0.623248 0.098398
vt 0.634937 0.094600
vt 0.646626 0.098398
vt 0.653850 0.108341
vt 0.653850 0.120631
vt 0.646626 0.130574
vt 0.634937 0.134372
vt 0.623248 0.130574
vt 0.616024 0.120631
vt 0.616024 0.108341
vt 0.886446 0.837843
vt 0.886446 0.351736
vt 0.896236 0.351736
vt 0.896236 0.837843
vt 0.458518 0.708783
vt 0.470206 0.712581
vt 0.477431 0.722524
vt 0.477431 0.734814
vt 0.470206 0.744757
vt 0.458518 0.748555
vt 0.446829 0.744757
vt 0.439605 0.734814
vt 0.439605 0.722524
vt 0.446829 0.712581
vt 0.932058 0.351736
vt 0.932058 0.837844
vt 0.921966 0.837844
vt 0.921966 0.351736
vt 0.727995 0.837843
vt 0.727995 0.351736
vt 0.734163 0.351736
vt 0.734163 0.837843
vt 0.745401 0.351736
vt 0.745401 0.837843
vt 0.757418 0.351736
vt 0.757418 0.837843
vt 0.765622 0.351736
vt 0.765622 0.837843
vt 0.392395 0.512217
vt 0.392395 0.998325
vt 0.384191 0.998325
vt 0.384191 0.512217
vt 0.372175 0.998325
vt 0.372175 0.512217
vt 0.360936 0.998325
vt 0.360936 0.512217
vt 0.718856 0.005473
vt 0.730545 0.001675
vt 0.742234 0.005473
vt 0.749458 0.015416
vt 0.749458 0.027706
vt 0.742234 0.037650
vt 0.730545 0.041448
vt 0.718856 0.037650
vt 0.711632 0.027706
vt 0.711632 0.015416
vt 0.954136 0.351736
vt 0.954136 0.837844
vt 0.944346 0.837844
vt 0.944346 0.351736
vt 0.730545 0.044798
vt 0.742234 0.048596
vt 0.749458 0.058539
vt 0.749458 0.070829
vt 0.742234 0.080772
vt 0.730545 0.084570
vt 0.718856 0.080772
vt 0.711632 0.070829
vt 0.711632 0.058539
vt 0.718856 0.048596
vt 0.436255 0.698359
vt 0.395746 0.698359
vt 0.395746 0.673878
vt 0.436255 0.673878
vt 0.395746 0.654253
vt 0.436255 0.654253
vt 0.395746 0.641404
vt 0.436255 0.641404
vt 0.715315 0.150669
vt 0.755824 0.150669
vt 0.755824 0.167826
vt 0.715315 0.167826
vt 0.755824 0.190663
vt 0.715315 0.190663
vt 0.755824 0.216943
vt 0.715315 0.216943
vt 0.755824 0.244094
vt 0.715315 0.244094
vt 0.755824 0.269458
vt 0.715315 0.269458
vt 0.755824 0.290553
vt 0.715315 0.290553
vt 0.755824 0.305314
vt 0.715315 0.305314
vt 0.708282 0.139163
vt 0.667773 0.139163
vt 0.667773 0.124402
vt 0.708282 0.124402
vt 0.667773 0.103307
vt 0.708282 0.103307
vt 0.667773 0.077943
vt 0.708282 0.077943
vt 0.667773 0.050791
vt 0.708282 0.050791
vt 0.667773 0.024511
vt 0.708282 0.024511
vt 0.667773 0.001675
vt 0.708282 0.001675
vt 0.436255 0.794845
vt 0.395746 0.794845
vt 0.395746 0.776025
vt 0.436255 0.776025
vt 0.395746 0.752060
vt 0.436255 0.752060
vt 0.312186 0.010078
vt 0.334185 0.026060
vt 0.350168 0.048059
vt 0.358570 0.073919
vt 0.358570 0.101111
vt 0.350168 0.126972
vt 0.334185 0.148970
vt 0.312187 0.164953
vt 0.286326 0.173355
vt 0.259135 0.173355
vt 0.233274 0.164953
vt 0.211275 0.148970
vt 0.195293 0.126972
vt 0.186890 0.101111
vt 0.186890 0.073920
vt 0.195293 0.048059
vt 0.211275 0.026061
vt 0.233274 0.010078
vt 0.259134 0.001675
vt 0.286326 0.001675
vt 0.395746 0.725298
vt 0.436255 0.725298
vt 0.358570 0.248950
vt 0.358570 0.276141
vt 0.350168 0.302002
vt 0.334185 0.324000
vt 0.312187 0.339983
vt 0.286326 0.348386
vt 0.259134 0.348386
vt 0.233274 0.339983
vt 0.211275 0.324000
vt 0.195293 0.302002
vt 0.186890 0.276141
vt 0.186890 0.248950
vt 0.195293 0.223089
vt 0.211275 0.201091
vt 0.233274 0.185108
vt 0.259134 0.176706
vt 0.286326 0.176706
vt 0.312186 0.185108
vt 0.334185 0.201091
vt 0.350168 0.223089
vt 0.619040 0.202797
vt 0.545387 0.202797
vt 0.545387 0.180391
vt 0.619040 0.180391
vt 0.545387 0.162429
vt 0.619040 0.162429
vt 0.545387 0.150669
vt 0.619040 0.150669
vt 0.468384 0.150669
vt 0.542037 0.150669
vt 0.542037 0.166372
vt 0.468384 0.166372
vt 0.542037 0.187273
vt 0.468384 0.187273
vt 0.542037 0.211326
vt 0.468384 0.211326
vt 0.542037 0.236177
vt 0.468384 0.236176
vt 0.542037 0.259391
vt 0.468384 0.259391
vt 0.542037 0.278699
vt 0.468384 0.278699
vt 0.542037 0.292208
vt 0.468384 0.292208
vt 0.469398 0.638054
vt 0.395746 0.638054
vt 0.395746 0.624544
vt 0.469398 0.624544
vt 0.395746 0.605236
vt 0.469398 0.605236
vt 0.395746 0.582022
vt 0.469398 0.582021
vt 0.395746 0.557171
vt 0.469398 0.557171
vt 0.395746 0.533118
vt 0.469398 0.533118
vt 0.395746 0.512217
vt 0.469398 0.512217
vt 0.619040 0.291107
vt 0.545387 0.291107
vt 0.545387 0.273881
vt 0.619040 0.273881
vt 0.545387 0.251948
vt 0.619040 0.251948
vt 0.253012 0.351736
vt 0.277899 0.351736
vt 0.301568 0.359427
vt 0.321702 0.374055
vt 0.336331 0.394189
vt 0.344021 0.417858
vt 0.344021 0.442745
vt 0.336331 0.466414
vt 0.321702 0.486548
vt 0.301568 0.501177
vt 0.277899 0.508867
vt 0.253012 0.508867
vt 0.229343 0.501177
vt 0.209209 0.486548
vt 0.194581 0.466414
vt 0.186890 0.442745
vt 0.186890 0.417858
vt 0.194581 0.394189
vt 0.209209 0.374055
vt 0.229343 0.359427
vt 0.545387 0.227454
vt 0.619040 0.227454
vt 0.438380 0.351736
vt 0.462050 0.359427
vt 0.482184 0.374055
vt 0.496812 0.394189
vt 0.504502 0.417858
vt 0.504502 0.442745
vt 0.496812 0.466414
vt 0.482184 0.486548
vt 0.462050 0.501177
vt 0.438380 0.508867
vt 0.413493 0.508867
vt 0.389824 0.501177
vt 0.369690 0.486548
vt 0.355062 0.466414
vt 0.347371 0.442745
vt 0.347371 0.417858
vt 0.355062 0.394189
vt 0.369690 0.374055
vt 0.389824 0.359427
vt 0.413493 0.351736
vt 0.173082 0.486853
vt 0.154669 0.486853
vt 0.154669 0.471129
vt 0.173082 0.471129
vt 0.154669 0.459808
vt 0.173082 0.459808
vt 0.154669 0.372105
vt 0.173082 0.372105
vt 0.173082 0.381645
vt 0.154669 0.381645
vt 0.173082 0.396217
vt 0.154669 0.396217
vt 0.173082 0.413604
vt 0.154669 0.413604
vt 0.173082 0.431157
vt 0.154669 0.431157
vt 0.173082 0.446206
vt 0.154669 0.446206
vt 0.173082 0.456458
vt 0.154669 0.456458
vt 0.491162 0.587030
vt 0.472748 0.587030
vt 0.472748 0.576778
vt 0.491162 0.576778
vt 0.472748 0.561730
vt 0.491162 0.561730
vt 0.472748 0.544176
vt 0.491162 0.544176
vt 0.472748 0.526790
vt 0.491162 0.526790
vt 0.472748 0.512217
vt 0.491162 0.512217
vt 0.173082 0.535389
vt 0.154669 0.535389
vt 0.154669 0.521631
vt 0.173082 0.521631
vt 0.628544 0.001675
vt 0.645005 0.008494
vt 0.657604 0.021092
vt 0.664423 0.037554
vt 0.664423 0.055371
vt 0.657604 0.071832
vt 0.645005 0.084431
vt 0.628544 0.091250
vt 0.610727 0.091250
vt 0.594266 0.084431
vt 0.581667 0.071832
vt 0.574848 0.055371
vt 0.574848 0.037554
vt 0.581667 0.021092
vt 0.594266 0.008494
vt 0.610727 0.001675
vt 0.154669 0.504587
vt 0.173082 0.504587
vt 0.692547 0.157487
vt 0.705146 0.170086
vt 0.711964 0.186547
vt 0.711964 0.204365
vt 0.705146 0.220826
vt 0.692547 0.233425
vt 0.676086 0.240243
vt 0.658269 0.240243
vt 0.641807 0.233425
vt 0.629209 0.220826
vt 0.622390 0.204365
vt 0.622390 0.186547
vt 0.629209 0.170086
vt 0.641807 0.157487
vt 0.658269 0.150669
vt 0.676086 0.150669
s 1
usemtl PvoBaked_barrels
f 1/1/1 2/2/2 4/3/4 3/4/3
f 3/4/3 4/3/4 6/5/6 5/6/5
f 5/6/5 6/5/6 8/7/8 7/8/7
f 7/9/7 8/10/8 10/11/10 9/12/9
f 9/12/9 10/11/10 12/13/12 11/14/11
f 11/14/11 12/13/12 14/15/14 13/16/13
f 13/16/13 14/15/14 16/17/16 15/18/15
f 15/18/15 16/17/16 18/19/18 17/20/17
f 17/20/17 18/19/18 20/21/20 19/22/19
f 19/22/19 20/21/20 22/23/22 21/24/21
f 21/25/21 22/26/22 24/27/24 23/28/23
f 23/28/23 24/27/24 26/29/26 25/30/25
f 25/30/25 26/29/26 28/31/28 27/32/27
f 27/32/27 28/31/28 30/33/30 29/34/29
f 29/34/29 30/33/30 32/35/32 31/36/31
f 31/36/31 32/35/32 34/37/34 33/38/33
f 33/39/33 34/40/34 36/41/36 35/42/35
f 35/42/35 36/41/36 38/43/38 37/44/37
f 4/45/4 2/46/2 40/47/40 38/48/38 36/49/36 34/50/34 32/51/32 30/52/30 28/53/28 26/54/26 24/55/24 22/56/22 20/57/20 18/58/18 16/59/16 14/60/14 12/61/12 10/62/10 8/63/8 6/64/6
f 37/44/37 38/43/38 40/65/40 39/66/39
f 39/66/39 40/65/40 2/2/2 1/1/1
f 1/67/1 3/68/3 5/69/5 7/70/7 9/71/9 11/72/11 13/73/13 15/74/15 17/75/17 19/76/19 21/77/21 23/78/23 25/79/25 27/80/27 29/81/29 31/82/31 33/83/33 35/84/35 37/85/37 39/86/39
f 41/87/41 42/88/42 44/89/44 43/90/43
f 43/90/43 44/89/44 46/91/46 45/92/45
f 45/93/45 46/94/46 48/95/48 47/96/47
f 47/96/47 48/95/48 50/97/50 49/98/49
f 49/98/49 50/97/50 52/99/52 51/100/51
f 51/100/51 52/99/52 54/101/54 53/102/53
f 53/103/53 54/104/54 56/105/56 55/106/55
f 55/106/55 56/105/56 58/107/58 57/108/57
f 57/108/57 58/107/58 60/109/60 59/110/59
f 59/110/59 60/109/60 62/111/62 61/112/61
f 44/113/44 42/114/42 64/115/64 62/116/62 60/117/60 58/118/58 56/119/56 54/120/54 52/121/52 50/122/50 48/123/48 46/124/46
f 61/125/61 62/126/62 64/127/64 63/128/63
f 63/128/63 64/127/64 42/88/42 41/87/41
f 41/129/41 43/130/43 45/131/45 47/132/47 49/133/49 51/134/51 53/135/53 55/136/55 57/137/57 59/138/59 61/139/61 63/140/63
f 65/141/65 66/142/66 68/143/68 67/144/67
f 67/145/67 68/146/68 70/147/70 69/148/69
f 69/148/69 70/147/70 72/149/72 71/150/71
f 71/150/71 72/149/72 74/151/74 73/152/73
f 73/152/73 74/151/74 76/153/76 75/154/75
f 75/155/75 76/156/76 78/157/78 77/158/77
f 77/158/77 78/157/78 80/159/80 79/160/79
f 79/160/79 80/159/80 82/161/82 81/162/81
f 68/163/68 66/164/66 84/165/84 82/166/82 80/167/80 78/168/78 76/169/76 74/170/74 72/171/72 70/172/70
f 81/173/81 82/174/82 84/175/84 83/176/83
f 83/176/83 84/175/84 66/142/66 65/141/65
f 65/177/65 67/178/67 69/179/69 71/180/71 73/181/73 75/182/75 77/183/77 79/184/79 81/185/81 83/186/83
f 85/187/65 86/188/66 88/189/68 87/190/67
f 87/191/67 88/192/68 90/193/70 89/194/69
f 89/194/69 90/193/70 92/195/72 91/196/71
f 91/196/71 92/195/72 94/197/74 93/198/73
f 93/198/73 94/197/74 96/199/76 95/200/75
f 95/201/75 96/202/76 98/203/78 97/204/77
f 97/204/77 98/203/78 100/205/80 99/206/79
f 99/206/79 100/205/80 102/207/82 101/208/81
f 88/209/68 86/210/66 104/211/84 102/212/82 100/213/80 98/214/78 96/215/76 94/216/74 92/217/72 90/218/70
f 101/219/81 102/220/82 104/221/84 103/222/83
f 103/222/83 104/221/84 86/188/66 85/187/65
f 85/223/65 87/224/67 89/225/69 91/226/71 93/227/73 95/228/75 97/229/77 99/230/79 101/231/81 103/232/83
f 105/233/65 106/234/66 108/235/68 107/236/67
f 107/237/67 108/238/68 110/239/70 109/240/69
f 109/240/69 110/239/70 112/241/72 111/242/71
f 111/242/71 112/241/72 114/243/74 113/244/73
f 113/244/73 114/243/74 116/245/76 115/246/75
f 115/247/75 116/248/76 118/249/78 117/250/77
f 117/250/77 118/249/78 120/251/80 119/252/79
f 119/252/79 120/251/80 122/253/82 121/254/81
f 108/255/68 106/256/66 124/257/84 122/258/82 120/259/80 118/260/78 116/261/76 114/262/74 112/263/72 110/264/70
f 121/265/81 122/266/82 124/267/84 123/268/83
f 123/268/83 124/267/84 106/234/66 105/233/65
f 105/269/65 107/270/67 109/271/69 111/272/71 113/273/73 115/274/75 117/275/77 119/276/79 121/277/81 123/278/83
f 125/279/65 126/280/66 128/281/68 127/282/67
f 127/283/67 128/284/68 130/285/70 129/286/69
f 129/286/69 130/285/70 132/287/72 131/288/71
f 131/288/71 132/287/72 134/289/74 133/290/73
f 133/290/73 134/289/74 136/291/76 135/292/75
f 135/293/75 136/294/76 138/295/78 137/296/77
f 137/296/77 138/295/78 140/297/80 139/298/79
f 139/298/79 140/297/80 142/299/82 141/300/81
f 128/301/68 126/302/66 144/303/84 142/304/82 140/305/80 138/306/78 136/307/76 134/308/74 132/309/72 130/310/70
f 141/311/81 142/312/82 144/313/84 143/314/83
f 143/314/83 144/313/84 126/280/66 125/279/65
f 125/315/65 127/316/67 129/317/69 131/318/71 133/319/73 135/320/75 137/321/77 139/322/79 141/323/81 143/324/83
f 145/325/65 146/326/66 148/327/68 147/328/67
f 147/329/67 148/330/68 150/331/70 149/332/69
f 149/332/69 150/331/70 152/333/72 151/334/71
f 151/334/71 152/333/72 154/335/74 153/336/73
f 153/336/73 154/335/74 156/337/76 155/338/75
f 155/339/75 156/340/76 158/341/78 157/342/77
f 157/342/77 158/341/78 160/343/80 159/344/79
f 159/344/79 160/343/80 162/345/82 161/346/81
f 148/347/68 146/348/66 164/349/84 162/350/82 160/351/80 158/352/78 156/353/76 154/354/74 152/355/72 150/356/70
f 161/357/81 162/358/82 164/359/84 163/360/83
f 163/360/83 164/359/84 146/326/66 145/325/65
f 145/361/65 147/362/67 149/363/69 151/364/71 153/365/73 155/366/75 157/367/77 159/368/79 161/369/81 163/370/83
f 165/371/65 166/372/66 168/373/68 167/374/67
f 167/375/67 168/376/68 170/377/70 169/378/69
f 169/378/69 170/377/70 172/379/72 171/380/71
f 171/380/71 172/379/72 174/381/74 173/382/73
f 173/382/73 174/381/74 176/383/76 175/384/75
f 175/385/75 176/386/76 178/387/78 177/388/77
f 177/388/77 178/387/78 180/389/80 179/390/79
f 179/390/79 180/389/80 182/391/82 181/392/81
f 168/393/68 166/394/66 184/395/84 182/396/82 180/397/80 178/398/78 176/399/76 174/400/74 172/401/72 170/402/70
f 181/403/81 182/404/82 184/405/84 183/406/83
f 183/406/83 184/405/84 166/372/66 165/371/65
f 165/407/65 167/408/67 169/409/69 171/410/71 173/411/73 175/412/75 177/413/77 179/414/79 181/415/81 183/416/83
f 185/417/1 186/418/2 188/419/4 187/420/3
f 187/420/3 188/419/4 190/421/6 189/422/5
f 189/422/5 190/421/6 192/423/8 191/424/7
f 191/425/7 192/426/8 194/427/10 193/428/9
f 193/428/9 194/427/10 196/429/12 195/430/11
f 195/430/11 196/429/12 198/431/14 197/432/13
f 197/432/13 198/431/14 200/433/16 199/434/15
f 199/434/15 200/433/16 202/435/18 201/436/17
f 201/436/17 202/435/18 204/437/20 203/438/19
f 203/438/19 204/437/20 206/439/22 205/440/21
f 205/441/21 206/442/22 208/443/24 207/444/23
f 207/444/23 208/443/24 210/445/26 209/446/25
f 209/446/25 210/445/26 212/447/28 211/448/27
f 211/448/27 212/447/28 214/449/30 213/450/29
f 213/450/29 214/449/30 216/451/32 215/452/31
f 215/452/31 216/451/32 218/453/34 217/454/33
f 217/455/33 218/456/34 220/457/36 219/458/35
f 219/458/35 220/457/36 222/459/38 221/460/37
f 188/461/4 186/462/2 224/463/40 222/464/38 220/465/36 218/466/34 216/467/32 214/468/30 212/469/28 210/470/26 208/471/24 206/472/22 204/473/20 202/474/18 200/475/16 198/476/14 196/477/12 194/478/10 192/479/8 190/480/6
f 221/460/37 222/459/38 224/481/40 223/482/39
f 223/482/39 224/481/40 186/418/2 185/417/1
f 185/483/1 187/484/3 189/485/5 191/486/7 193/487/9 195/488/11 197/489/13 199/490/15 201/491/17 203/492/19 205/493/21 207/494/23 209/495/25 211/496/27 213/497/29 215/498/31 217/499/33 219/500/35 221/501/37 223/502/39
f 225/503/1 226/504/2 228/505/4 227/506/3
f 227/506/3 228/505/4 230/507/6 229/508/5
f 229/508/5 230/507/6 232/509/8 231/510/7
f 231/511/7 232/512/8 234/513/10 233/514/9
f 233/514/9 234/513/10 236/515/12 235/516/11
f 235/516/11 236/515/12 238/517/14 237/518/13
f 237/518/13 238/517/14 240/519/16 239/520/15
f 239/520/15 240/519/16 242/521/18 241/522/17
f 241/522/17 242/521/18 244/523/20 243/524/19
f 243/524/19 244/523/20 246/525/22 245/526/21
f 245/527/21 246/528/22 248/529/24 247/530/23
f 247/530/23 248/529/24 250/531/26 249/532/25
f 249/532/25 250/531/26 252/533/28 251/534/27
f 251/534/27 252/533/28 254/535/30 253/536/29
f 253/536/29 254/535/30 256/537/32 255/538/31
f 255/538/31 256/537/32 258/539/34 257/540/33
f 257/541/33 258/542/34 260/543/36 259/544/35
f 259/544/35 260/543/36 262/545/38 261/546/37
f 228/547/4 226/548/2 264/549/40 262/550/38 260/551/36 258/552/34 256/553/32 254/554/30 252/555/28 250/556/26 248/557/24 246/558/22 244/559/20 242/560/18 240/561/16 238/562/14 236/563/12 234/564/10 232/565/8 230/566/6
f 261/546/37 262/545/38 264/567/40 263/568/39
f 263/568/39 264/567/40 226/504/2 225/503/1
f 225/569/1 227/570/3 229/571/5 231/572/7 233/573/9 235/574/11 237/575/13 239/576/15 241/577/17 243/578/19 245/579/21 247/580/23 249/581/25 251/582/27 253/583/29 255/584/31 257/585/33 259/586/35 261/587/37 263/588/39
f 265/589/85 266/590/86 268/591/88 267/592/87
f 267/592/87 268/591/88 270/593/90 269/594/89
f 269/595/89 270/596/90 272/597/92 271/598/91
f 271/598/91 272/597/92 274/599/94 273/600/93
f 273/600/93 274/599/94 276/601/96 275/602/95
f 275/602/95 276/601/96 278/603/98 277/604/97
f 277/604/97 278/603/98 280/605/100 279/606/99
f 279/606/99 280/605/100 282/607/102 281/608/101
f 281/609/101 282/610/102 284/611/104 283/612/103
f 283/612/103 284/611/104 286/613/106 285/614/105
f 285/614/105 286/613/106 288/615/108 287/616/107
f 287/616/107 288/615/108 290/617/110 289/618/109
f 289/618/109 290/617/110 292/619/112 291/620/111
f 291/621/111 292/622/112 294/623/114 293/624/113
f 268/625/88 266/626/86 296/627/116 294/628/114 292/629/112 290/630/110 288/631/108 286/632/106 284/633/104 282/634/102 280/635/100 278/636/98 276/637/96 274/638/94 272/639/92 270/640/90
f 293/624/113 294/623/114 296/641/116 295/642/115
f 295/642/115 296/641/116 266/590/86 265/589/85
f 265/643/85 267/644/87 269/645/89 271/646/91 273/647/93 275/648/95 277/649/97 279/650/99 281/651/101 283/652/103 285/653/105 287/654/107 289/655/109 291/656/111 293/657/113 295/658/115
