# Blender 4.5.9 LTS
# www.blender.org
mtllib air_defense_head.mtl
o AirDefense_head
v 3.050000 -1.350000 1.200000
v 3.050000 0.950000 1.200000
v 3.050000 -1.350000 -2.400000
v 3.050000 0.950000 -2.400000
v 4.750000 -1.350000 1.200000
v 4.750000 0.950000 1.200000
v 4.750000 -1.350000 -2.400000
v 4.750000 0.950000 -2.400000
v -3.200000 -1.600000 3.100000
v -3.200000 1.600000 3.100000
v -3.200000 -1.600000 -3.900000
v -3.200000 1.600000 -3.900000
v 3.200000 -1.600000 3.100000
v 3.200000 1.600000 3.100000
v 3.200000 -1.600000 -3.900000
v 3.200000 1.600000 -3.900000
v -3.370000 -1.000000 1.700000
v -3.370000 1.000000 1.700000
v -3.370000 -1.000000 -2.700000
v -3.370000 1.000000 -2.700000
v -3.190000 -1.000000 1.700000
v -3.190000 1.000000 1.700000
v -3.190000 -1.000000 -2.700000
v -3.190000 1.000000 -2.700000
v 3.190000 -1.000000 1.700000
v 3.190000 1.000000 1.700000
v 3.190000 -1.000000 -2.700000
v 3.190000 1.000000 -2.700000
v 3.370000 -1.000000 1.700000
v 3.370000 1.000000 1.700000
v 3.370000 -1.000000 -2.700000
v 3.370000 1.000000 -2.700000
v -2.200000 -0.900000 3.270000
v -2.200000 0.900000 3.270000
v -2.200000 -0.900000 3.090000
v -2.200000 0.900000 3.090000
v 2.200000 -0.900000 3.270000
v 2.200000 0.900000 3.270000
v 2.200000 -0.900000 3.090000
v 2.200000 0.900000 3.090000
v -1.000000 1.599999 0.700000
v -1.000000 1.879999 0.700000
v -0.706107 1.599999 0.795492
v -0.706107 1.879999 0.795492
v -0.524472 1.599999 1.045492
v -0.524472 1.879999 1.045492
v -0.524472 1.599999 1.354509
v -0.524472 1.879999 1.354509
v -0.706107 1.599999 1.604509
v -0.706107 1.879999 1.604509
v -1.000000 1.599999 1.700000
v -1.000000 1.879999 1.700000
v -1.293892 1.599999 1.604509
v -1.293892 1.879999 1.604509
v -1.475528 1.599999 1.354509
v -1.475528 1.879999 1.354509
v -1.475528 1.599999 1.045492
v -1.475528 1.879999 1.045492
v -1.293892 1.599999 0.795492
v -1.293892 1.879999 0.795492
v -1.000000 1.599999 -1.100000
v -1.000000 1.879999 -1.100000
v -0.706107 1.599999 -1.004509
v -0.706107 1.879999 -1.004509
v -0.524472 1.599999 -0.754509
v -0.524472 1.879999 -0.754509
v -0.524472 1.599999 -0.445492
v -0.524472 1.879999 -0.445492
v -0.706107 1.599999 -0.195492
v -0.706107 1.879999 -0.195492
v -1.000000 1.599999 -0.100000
v -1.000000 1.879999 -0.100000
v -1.293892 1.599999 -0.195492
v -1.293892 1.879999 -0.195492
v -1.475528 1.599999 -0.445492
v -1.475528 1.879999 -0.445492
v -1.475528 1.599999 -0.754509
v -1.475528 1.879999 -0.754509
v -1.293892 1.599999 -1.004509
v -1.293892 1.879999 -1.004509
v -1.000000 1.599999 -2.900000
v -1.000000 1.879999 -2.900000
v -0.706107 1.599999 -2.804509
v -0.706107 1.879999 -2.804509
v -0.524472 1.599999 -2.554509
v -0.524472 1.879999 -2.554509
v -0.524472 1.599999 -2.245492
v -0.524472 1.879999 -2.245492
v -0.706107 1.599999 -1.995492
v -0.706107 1.879999 -1.995492
v -1.000000 1.599999 -1.900000
v -1.000000 1.879999 -1.900000
v -1.293892 1.599999 -1.995492
v -1.293892 1.879999 -1.995492
v -1.475528 1.599999 -2.245492
v -1.475528 1.879999 -2.245492
v -1.475528 1.599999 -2.554509
v -1.475528 1.879999 -2.554509
v -1.293892 1.599999 -2.804509
v -1.293892 1.879999 -2.804509
v 1.000000 1.599999 0.700000
v 1.000000 1.879999 0.700000
v 1.293893 1.599999 0.795492
v 1.293893 1.879999 0.795492
v 1.475528 1.599999 1.045492
v 1.475528 1.879999 1.045492
v 1.475528 1.599999 1.354509
v 1.475528 1.879999 1.354509
v 1.293893 1.599999 1.604509
v 1.293893 1.879999 1.604509
v 1.000000 1.599999 1.700000
v 1.000000 1.879999 1.700000
v 0.706107 1.599999 1.604509
v 0.706107 1.879999 1.604509
v 0.524472 1.599999 1.354509
v 0.524472 1.879999 1.354509
v 0.524472 1.599999 1.045492
v 0.524472 1.879999 1.045492
v 0.706107 1.599999 0.795492
v 0.706107 1.879999 0.795492
v 1.000000 1.599999 -1.100000
v 1.000000 1.879999 -1.100000
v 1.293893 1.599999 -1.004509
v 1.293893 1.879999 -1.004509
v 1.475528 1.599999 -0.754509
v 1.475528 1.879999 -0.754509
v 1.475528 1.599999 -0.445492
v 1.475528 1.879999 -0.445492
v 1.293893 1.599999 -0.195492
v 1.293893 1.879999 -0.195492
v 1.000000 1.599999 -0.100000
v 1.000000 1.879999 -0.100000
v 0.706107 1.599999 -0.195492
v 0.706107 1.879999 -0.195492
v 0.524472 1.599999 -0.445492
v 0.524472 1.879999 -0.445492
v 0.524472 1.599999 -0.754509
v 0.524472 1.879999 -0.754509
v 0.706107 1.599999 -1.004509
v 0.706107 1.879999 -1.004509
v 1.000000 1.599999 -2.900000
v 1.000000 1.879999 -2.900000
v 1.293893 1.599999 -2.804509
v 1.293893 1.879999 -2.804509
v 1.475528 1.599999 -2.554509
v 1.475528 1.879999 -2.554509
v 1.475528 1.599999 -2.245492
v 1.475528 1.879999 -2.245492
v 1.293893 1.599999 -1.995492
v 1.293893 1.879999 -1.995492
v 1.000000 1.599999 -1.900000
v 1.000000 1.879999 -1.900000
v 0.706107 1.599999 -1.995492
v 0.706107 1.879999 -1.995492
v 0.524472 1.599999 -2.245492
v 0.524472 1.879999 -2.245492
v 0.524472 1.599999 -2.554509
v 0.524472 1.879999 -2.554509
v 0.706107 1.599999 -2.804509
v 0.706107 1.879999 -2.804509
v -3.100000 1.300000 3.350000
v -3.100000 1.700000 3.350000
v -3.100000 1.300000 2.850000
v -3.100000 1.700000 2.850000
v -1.500000 1.300000 3.350000
v -1.500000 1.700000 3.350000
v -1.500000 1.300000 2.850000
v -1.500000 1.700000 2.850000
v 1.500000 1.300000 3.350000
v 1.500000 1.700000 3.350000
v 1.500000 1.300000 2.850000
v 1.500000 1.700000 2.850000
v 3.100000 1.300000 3.350000
v 3.100000 1.700000 3.350000
v 3.100000 1.300000 2.850000
v 3.100000 1.700000 2.850000
v 3.000000 0.900000 1.250000
v 3.000000 1.199999 1.250000
v 3.000000 0.900000 -2.450000
v 3.000000 1.199999 -2.450000
v 4.800000 0.900000 1.250000
v 4.800000 1.199999 1.250000
v 4.800000 0.900000 -2.450000
v 4.800000 1.199999 -2.450000
v -2.300000 -1.110001 -3.825000
v -2.300000 -0.690001 -3.825000
v -2.300000 -1.110001 -4.075000
v -2.300000 -0.690001 -4.075000
v 2.300000 -1.110001 -3.825000
v 2.300000 -0.690001 -3.825000
v 2.300000 -1.110001 -4.075000
v 2.300000 -0.690001 -4.075000
v -2.300000 -0.260000 -3.825000
v -2.300000 0.160000 -3.825000
v -2.300000 -0.260000 -4.075000
v -2.300000 0.160000 -4.075000
v 2.300000 -0.260000 -3.825000
v 2.300000 0.160000 -3.825000
v 2.300000 -0.260000 -4.075000
v 2.300000 0.160000 -4.075000
v -2.300000 0.589999 -3.825000
v -2.300000 1.009999 -3.825000
v -2.300000 0.589999 -4.075000
v -2.300000 1.009999 -4.075000
v 2.300000 0.589999 -3.825000
v 2.300000 1.009999 -3.825000
v 2.300000 0.589999 -4.075000
v 2.300000 1.009999 -4.075000
v -3.500000 1.299999 -1.700000
v -3.500000 3.900000 -1.700000
v -3.429289 1.299999 -1.670711
v -3.429289 3.900000 -1.670711
v -3.400000 1.299999 -1.600000
v -3.400000 3.900000 -1.600000
v -3.429289 1.299999 -1.529289
v -3.429289 3.900000 -1.529289
v -3.500000 1.299999 -1.500000
v -3.500000 3.900000 -1.500000
v -3.570711 1.299999 -1.529289
v -3.570711 3.900000 -1.529289
v -3.600000 1.299999 -1.600000
v -3.600000 3.900000 -1.600000
v -3.570711 1.299999 -1.670711
v -3.570711 3.900000 -1.670711
v -3.423588 4.175167 -1.705172
v -3.367650 4.080000 -1.782164
v -3.347176 3.950000 -1.810344
v -3.367650 3.820000 -1.782164
v -3.423588 3.724833 -1.705172
v -3.376363 4.175167 -1.640172
v -3.285853 4.080000 -1.669580
v -3.252725 3.950000 -1.680344
v -3.285853 3.820000 -1.669580
v -3.376363 3.724833 -1.640172
v -3.376363 4.175167 -1.559828
v -3.285853 4.080000 -1.530420
v -3.252725 3.950000 -1.519656
v -3.285853 3.820000 -1.530420
v -3.376363 3.724833 -1.559828
v -3.423588 4.175167 -1.494828
v -3.367650 4.080000 -1.417836
v -3.347176 3.950000 -1.389656
v -3.367650 3.820000 -1.417836
v -3.423588 3.724833 -1.494828
v -3.500000 4.175167 -1.470000
v -3.500000 4.080000 -1.374833
v -3.500000 3.950000 -1.340000
v -3.500000 3.820000 -1.374833
v -3.500000 3.724833 -1.470000
v -3.576412 4.175167 -1.494828
v -3.632349 4.080000 -1.417836
v -3.652824 3.950000 -1.389656
v -3.632349 3.820000 -1.417836
v -3.576412 3.724833 -1.494828
v -3.623637 4.175167 -1.559828
v -3.714146 4.080000 -1.530420
v -3.747275 3.950000 -1.519656
v -3.714146 3.820000 -1.530420
v -3.623637 3.724833 -1.559828
v -3.500000 3.690001 -1.600000
v -3.500000 4.210000 -1.600000
v -3.623637 4.175167 -1.640172
v -3.714146 4.080000 -1.669580
v -3.747275 3.950000 -1.680344
v -3.714146 3.820000 -1.669580
v -3.623637 3.724833 -1.640172
v -3.576412 4.175167 -1.705172
v -3.632349 4.080000 -1.782164
v -3.652824 3.950000 -1.810344
v -3.632349 3.820000 -1.782164
v -3.576412 3.724833 -1.705172
v -3.500000 4.175167 -1.730000
v -3.500000 4.080000 -1.825167
v -3.500000 3.950000 -1.860000
v -3.500000 3.820000 -1.825167
v -3.500000 3.724833 -1.730000
v -1.300000 -1.100000 4.700000
v -1.300000 1.100000 4.700000
v -1.300000 -1.100000 3.100000
v -1.300000 1.100000 3.100000
v 1.300000 -1.100000 4.700000
v 1.300000 1.100000 4.700000
v 1.300000 -1.100000 3.100000
v 1.300000 1.100000 3.100000
vn -1.0000 -0.0000 -0.0000
vn -0.0000 -0.0000 -1.0000
vn 1.0000 -0.0000 -0.0000
vn -0.0000 -0.0000 1.0000
vn -0.0000 -1.0000 -0.0000
vn -0.0000 1.0000 -0.0000
vn -0.0000 -0.6437 -0.7653
vn -0.0000 0.6437 -0.7653
vn 0.4498 0.6437 -0.6191
vn 0.4498 -0.6437 -0.6191
vn 0.7278 0.6437 -0.2365
vn 0.7278 -0.6437 -0.2365
vn 0.7278 0.6437 0.2365
vn 0.7278 -0.6437 0.2365
vn 0.4498 0.6437 0.6191
vn 0.4498 -0.6437 0.6191
vn -0.0000 0.6437 0.7653
vn -0.0000 -0.6437 0.7653
vn -0.4498 0.6437 0.6191
vn -0.4498 -0.6437 0.6191
vn -0.7278 0.6437 0.2365
vn -0.7278 -0.6437 0.2365
vn -0.7278 0.6437 -0.2365
vn -0.7278 -0.6437 -0.2365
vn -0.4498 0.6437 -0.6191
vn -0.4498 -0.6437 -0.6191
vn -0.0000 -0.6303 -0.7764
vn -0.0000 0.6303 -0.7764
vn 0.5490 0.6303 -0.5490
vn 0.5490 -0.6303 -0.5490
vn 0.7764 0.6303 -0.0000
vn 0.7764 -0.6303 -0.0000
vn 0.5490 0.6303 0.5490
vn 0.5490 -0.6303 0.5490
vn -0.0000 0.6303 0.7764
vn -0.0000 -0.6303 0.7764
vn -0.5490 0.6303 0.5490
vn -0.5490 -0.6303 0.5490
vn -0.7764 0.6303 -0.0000
vn -0.7764 -0.6303 -0.0000
vn -0.5490 0.6303 -0.5490
vn -0.5490 -0.6303 -0.5490
vn -0.0000 -0.8438 -0.5367
vn 0.3155 -0.8438 -0.4342
vn -0.0000 -0.4791 -0.8778
vn 0.5878 -0.0000 -0.8090
vn 0.5159 -0.4791 -0.7101
vn -0.0000 0.4791 -0.8778
vn -0.0000 0.8438 -0.5367
vn 0.3155 0.8438 -0.4342
vn 0.5159 0.4791 -0.7101
vn 0.9511 -0.0000 -0.3090
vn 0.8348 -0.4791 -0.2712
vn 0.5104 0.8438 -0.1659
vn 0.8348 0.4791 -0.2712
vn 0.5104 -0.8438 -0.1659
vn 0.5104 0.8438 0.1659
vn 0.8348 0.4791 0.2712
vn 0.8348 -0.4791 0.2712
vn 0.5104 -0.8438 0.1659
vn 0.9511 -0.0000 0.3090
vn 0.5159 -0.4791 0.7101
vn 0.3155 -0.8438 0.4342
vn 0.5159 0.4791 0.7101
vn 0.5878 -0.0000 0.8090
vn 0.3155 0.8438 0.4342
vn -0.0000 -0.4791 0.8778
vn -0.0000 -0.8438 0.5367
vn -0.0000 0.4791 0.8778
vn -0.0000 0.8438 0.5367
vn -0.5159 -0.4791 0.7101
vn -0.3155 -0.8438 0.4342
vn -0.5159 0.4791 0.7101
vn -0.5878 -0.0000 0.8090
vn -0.3155 0.8438 0.4342
vn -0.8348 -0.4791 0.2712
vn -0.5104 -0.8438 0.1659
vn -0.8348 0.4791 0.2712
vn -0.9511 -0.0000 0.3090
vn -0.5104 0.8438 0.1659
vn -0.8348 0.4791 -0.2712
vn -0.9511 -0.0000 -0.3090
vn -0.5104 0.8438 -0.1659
vn -0.5104 -0.8438 -0.1659
vn -0.8348 -0.4791 -0.2712
vn -0.3155 0.8438 -0.4342
vn -0.3155 -0.8438 -0.4342
vn -0.5878 -0.0000 -0.8090
vn -0.5159 -0.4791 -0.7101
vn -0.5159 0.4791 -0.7101
vt 0.436402 0.842449
vt 0.323884 0.842449
vt 0.323884 0.666332
vt 0.436403 0.666332
vt 0.724461 0.334245
vt 0.724461 0.221726
vt 0.807627 0.221726
vt 0.807627 0.334245
vt 0.553236 0.842449
vt 0.440718 0.842449
vt 0.440718 0.666332
vt 0.553236 0.666332
vt 0.636980 0.334245
vt 0.636980 0.221726
vt 0.720146 0.221726
vt 0.720146 0.334245
vt 0.640718 0.842449
vt 0.557551 0.842449
vt 0.557551 0.666332
vt 0.640718 0.666332
vt 0.270070 0.871801
vt 0.186904 0.871801
vt 0.186904 0.695685
vt 0.270070 0.695685
vt 0.158706 0.691370
vt 0.002158 0.691370
vt 0.002158 0.348921
vt 0.158706 0.348921
vt 0.480432 0.662017
vt 0.323884 0.662017
vt 0.323884 0.348921
vt 0.480432 0.348921
vt 0.319569 0.691370
vt 0.163021 0.691370
vt 0.163021 0.348921
vt 0.319569 0.348921
vt 0.641295 0.662017
vt 0.484747 0.662017
vt 0.484747 0.348921
vt 0.641295 0.348921
vt 0.315253 0.344606
vt 0.002158 0.344606
vt 0.002158 0.002158
vt 0.315253 0.002158
vt 0.632664 0.344606
vt 0.319568 0.344606
vt 0.319568 0.002158
vt 0.632664 0.002158
vt 0.734822 0.217411
vt 0.636980 0.217411
vt 0.636980 0.002158
vt 0.734822 0.002158
vt 0.977258 0.885901
vt 0.977258 0.788058
vt 0.986064 0.788058
vt 0.986064 0.885901
vt 0.743452 0.564175
vt 0.645610 0.564175
vt 0.645610 0.348921
vt 0.743452 0.348921
vt 0.398609 0.997842
vt 0.398609 0.900000
vt 0.407415 0.900000
vt 0.407415 0.997842
vt 0.888083 0.217411
vt 0.879277 0.217411
vt 0.879277 0.002158
vt 0.888083 0.002158
vt 0.972943 0.564175
vt 0.964137 0.564175
vt 0.964137 0.348921
vt 0.972943 0.348921
vt 0.743452 0.783743
vt 0.645610 0.783743
vt 0.645610 0.568490
vt 0.743452 0.568490
vt 0.411730 0.997842
vt 0.411730 0.900000
vt 0.420536 0.900000
vt 0.420536 0.997842
vt 0.836979 0.217411
vt 0.739137 0.217411
vt 0.739137 0.002158
vt 0.836979 0.002158
vt 0.425567 0.997842
vt 0.425567 0.900000
vt 0.434373 0.900000
vt 0.434373 0.997842
vt 0.986064 0.783743
vt 0.977258 0.783743
vt 0.977258 0.568490
vt 0.986064 0.568490
vt 0.986152 0.319569
vt 0.977346 0.319569
vt 0.977346 0.104315
vt 0.986152 0.104315
vt 0.438688 0.988058
vt 0.438688 0.900000
vt 0.447494 0.900000
vt 0.447494 0.988058
vt 0.835825 0.564175
vt 0.747767 0.564175
vt 0.747767 0.348921
vt 0.835826 0.348921
vt 0.451809 0.988058
vt 0.451809 0.900000
vt 0.460615 0.900000
vt 0.460615 0.988058
vt 0.835826 0.783743
vt 0.747767 0.783743
vt 0.747767 0.568490
vt 0.835826 0.568490
vt 0.972943 0.568490
vt 0.972943 0.783743
vt 0.964137 0.783743
vt 0.964137 0.568490
vt 0.986064 0.348921
vt 0.986064 0.564175
vt 0.977258 0.564175
vt 0.977258 0.348921
vt 0.051881 0.948622
vt 0.038184 0.948622
vt 0.038184 0.934245
vt 0.051881 0.934245
vt 0.568693 0.939578
vt 0.554995 0.939578
vt 0.554995 0.927348
vt 0.568693 0.927348
vt 0.554995 0.912230
vt 0.568693 0.912230
vt 0.554995 0.900000
vt 0.568693 0.900000
vt 0.069894 0.963000
vt 0.056197 0.963000
vt 0.056197 0.948622
vt 0.069894 0.948622
vt 0.056197 0.934245
vt 0.069894 0.934245
vt 0.586706 0.939578
vt 0.573008 0.939578
vt 0.573008 0.927348
vt 0.586706 0.927348
vt 0.573008 0.912230
vt 0.586706 0.912230
vt 0.332770 0.891013
vt 0.323884 0.878783
vt 0.323884 0.863666
vt 0.332770 0.851435
vt 0.347147 0.846764
vt 0.361525 0.851435
vt 0.370411 0.863666
vt 0.370411 0.878783
vt 0.361525 0.891013
vt 0.347147 0.895685
vt 0.573008 0.900000
vt 0.586706 0.900000
vt 0.051881 0.963000
vt 0.038184 0.963000
vt 0.499673 0.895685
vt 0.485295 0.891013
vt 0.476409 0.878783
vt 0.476409 0.863666
vt 0.485295 0.851435
vt 0.499673 0.846764
vt 0.514050 0.851435
vt 0.522936 0.863666
vt 0.522936 0.878783
vt 0.514050 0.891013
vt 0.200602 0.943730
vt 0.186904 0.943730
vt 0.186904 0.929353
vt 0.200602 0.929353
vt 0.853839 0.763462
vt 0.840141 0.763462
vt 0.840141 0.751231
vt 0.853839 0.751231
vt 0.840141 0.736114
vt 0.853839 0.736114
vt 0.840141 0.723884
vt 0.853839 0.723884
vt 0.218615 0.958108
vt 0.204917 0.958108
vt 0.204917 0.943730
vt 0.218615 0.943730
vt 0.204917 0.929353
vt 0.218615 0.929353
vt 0.478628 0.939578
vt 0.464930 0.939578
vt 0.464930 0.927348
vt 0.478628 0.927348
vt 0.464930 0.912230
vt 0.478628 0.912230
vt 0.383611 0.891013
vt 0.374726 0.878783
vt 0.374726 0.863666
vt 0.383611 0.851435
vt 0.397989 0.846764
vt 0.412367 0.851435
vt 0.421252 0.863666
vt 0.421252 0.878783
vt 0.412367 0.891013
vt 0.397989 0.895685
vt 0.464930 0.900000
vt 0.478628 0.900000
vt 0.200602 0.958108
vt 0.186904 0.958108
vt 0.425568 0.878783
vt 0.425568 0.863666
vt 0.434453 0.851435
vt 0.448831 0.846764
vt 0.463209 0.851435
vt 0.472094 0.863666
vt 0.472094 0.878783
vt 0.463209 0.891013
vt 0.448831 0.895685
vt 0.434453 0.891013
vt 0.015855 0.948622
vt 0.002158 0.948622
vt 0.002158 0.934245
vt 0.015855 0.934245
vt 0.532667 0.939578
vt 0.518969 0.939578
vt 0.518969 0.927348
vt 0.532667 0.927348
vt 0.518969 0.912230
vt 0.532667 0.912230
vt 0.518969 0.900000
vt 0.532667 0.900000
vt 0.033868 0.963000
vt 0.020171 0.963000
vt 0.020171 0.948622
vt 0.033868 0.948622
vt 0.020171 0.934245
vt 0.033868 0.934245
vt 0.906096 0.094972
vt 0.892399 0.094972
vt 0.892399 0.082742
vt 0.906096 0.082742
vt 0.892399 0.067624
vt 0.906096 0.067624
vt 0.224545 0.920366
vt 0.210168 0.925038
vt 0.195790 0.920366
vt 0.186904 0.908136
vt 0.186904 0.893018
vt 0.195790 0.880788
vt 0.210168 0.876116
vt 0.224545 0.880788
vt 0.233431 0.893018
vt 0.233431 0.908136
vt 0.892399 0.055394
vt 0.906096 0.055394
vt 0.015855 0.963000
vt 0.002158 0.963000
vt 0.025421 0.929930
vt 0.011043 0.925258
vt 0.002158 0.913028
vt 0.002158 0.897910
vt 0.011043 0.885680
vt 0.025421 0.881009
vt 0.039799 0.885680
vt 0.048684 0.897910
vt 0.048684 0.913028
vt 0.039799 0.925258
vt 0.805834 0.933946
vt 0.792136 0.933946
vt 0.792136 0.919569
vt 0.805834 0.919569
vt 0.604719 0.939578
vt 0.591021 0.939578
vt 0.591021 0.927348
vt 0.604719 0.927348
vt 0.591021 0.912230
vt 0.604719 0.912230
vt 0.591021 0.900000
vt 0.604719 0.900000
vt 0.823847 0.948324
vt 0.810149 0.948324
vt 0.810149 0.933946
vt 0.823847 0.933946
vt 0.810149 0.919569
vt 0.823847 0.919569
vt 0.622732 0.939578
vt 0.609034 0.939578
vt 0.609034 0.927348
vt 0.622732 0.927348
vt 0.609034 0.912230
vt 0.622732 0.912230
vt 0.099526 0.897910
vt 0.099526 0.913028
vt 0.090641 0.925258
vt 0.076263 0.929930
vt 0.061885 0.925258
vt 0.052999 0.913028
vt 0.052999 0.897910
vt 0.061885 0.885680
vt 0.076263 0.881009
vt 0.090640 0.885680
vt 0.609034 0.900000
vt 0.622732 0.900000
vt 0.805834 0.948324
vt 0.792136 0.948324
vt 0.103841 0.913028
vt 0.103841 0.897910
vt 0.112727 0.885680
vt 0.127105 0.881009
vt 0.141482 0.885680
vt 0.150368 0.897910
vt 0.150368 0.913028
vt 0.141482 0.925258
vt 0.127105 0.929930
vt 0.112727 0.925258
vt 0.306096 0.939415
vt 0.292398 0.939415
vt 0.292398 0.925038
vt 0.306096 0.925038
vt 0.496641 0.939578
vt 0.482943 0.939578
vt 0.482943 0.927348
vt 0.496641 0.927348
vt 0.482943 0.912230
vt 0.496641 0.912230
vt 0.482943 0.900000
vt 0.496641 0.900000
vt 0.841860 0.948324
vt 0.828162 0.948324
vt 0.828162 0.933946
vt 0.841860 0.933946
vt 0.828162 0.919569
vt 0.841860 0.919569
vt 0.514654 0.939578
vt 0.500956 0.939578
vt 0.500956 0.927348
vt 0.514654 0.927348
vt 0.500956 0.912230
vt 0.514654 0.912230
vt 0.536137 0.891013
vt 0.527251 0.878783
vt 0.527251 0.863666
vt 0.536137 0.851435
vt 0.550515 0.846764
vt 0.564892 0.851435
vt 0.573778 0.863666
vt 0.573778 0.878783
vt 0.564892 0.891013
vt 0.550515 0.895685
vt 0.500956 0.900000
vt 0.514654 0.900000
vt 0.306096 0.953793
vt 0.292398 0.953793
vt 0.624620 0.878783
vt 0.615734 0.891013
vt 0.601357 0.895685
vt 0.586979 0.891013
vt 0.578093 0.878783
vt 0.578093 0.863666
vt 0.586979 0.851435
vt 0.601357 0.846764
vt 0.615734 0.851435
vt 0.624620 0.863666
vt 0.859873 0.933946
vt 0.846175 0.933946
vt 0.846175 0.919569
vt 0.859873 0.919569
vt 0.550680 0.939578
vt 0.536982 0.939578
vt 0.536982 0.927348
vt 0.550680 0.927348
vt 0.536982 0.912230
vt 0.550680 0.912230
vt 0.536982 0.900000
vt 0.550680 0.900000
vt 0.288083 0.953793
vt 0.274385 0.953793
vt 0.274385 0.939415
vt 0.288083 0.939415
vt 0.274385 0.925038
vt 0.288083 0.925038
vt 0.924109 0.094972
vt 0.910412 0.094972
vt 0.910412 0.082742
vt 0.924109 0.082742
vt 0.910412 0.067624
vt 0.924109 0.067624
vt 0.930039 0.046407
vt 0.915662 0.051079
vt 0.901284 0.046407
vt 0.892398 0.034177
vt 0.892398 0.019059
vt 0.901284 0.006829
vt 0.915662 0.002158
vt 0.930039 0.006829
vt 0.938925 0.019059
vt 0.938925 0.034177
vt 0.910412 0.055394
vt 0.924109 0.055394
vt 0.859873 0.948324
vt 0.846175 0.948324
vt 0.347147 0.948921
vt 0.332769 0.944250
vt 0.323884 0.932019
vt 0.323884 0.916902
vt 0.332769 0.904672
vt 0.347147 0.900000
vt 0.361525 0.904672
vt 0.370411 0.916902
vt 0.370411 0.932019
vt 0.361525 0.944250
vt 0.860863 0.211942
vt 0.841295 0.211942
vt 0.841295 0.187481
vt 0.860863 0.187481
vt 0.942298 0.968490
vt 0.922730 0.968490
vt 0.922730 0.890216
vt 0.942298 0.890216
vt 0.665178 0.944029
vt 0.645610 0.944029
vt 0.645610 0.919569
vt 0.665178 0.919569
vt 0.966182 0.968490
vt 0.946613 0.968490
vt 0.946613 0.890216
vt 0.966182 0.890216
vt 0.947190 0.807627
vt 0.947190 0.885901
vt 0.922730 0.885901
vt 0.922730 0.807627
vt 0.262207 0.876117
vt 0.262207 0.954391
vt 0.237746 0.954391
vt 0.237746 0.876117
vt 0.689062 0.944029
vt 0.669493 0.944029
vt 0.669493 0.919569
vt 0.689062 0.919569
vt 0.394294 0.978274
vt 0.374726 0.978274
vt 0.374726 0.900000
vt 0.394294 0.900000
vt 0.712945 0.944029
vt 0.693377 0.944029
vt 0.693377 0.919569
vt 0.712945 0.919569
vt 0.971074 0.885901
vt 0.951505 0.885901
vt 0.951505 0.807627
vt 0.971074 0.807627
vt 0.179144 0.881009
vt 0.179144 0.959283
vt 0.154683 0.959283
vt 0.154683 0.881009
vt 0.967701 0.002158
vt 0.967701 0.080432
vt 0.943240 0.080432
vt 0.943240 0.002158
vt 0.874962 0.183166
vt 0.860286 0.183166
vt 0.860286 0.002158
vt 0.874962 0.002158
vt 0.986692 0.090216
vt 0.972016 0.090216
vt 0.972016 0.002158
vt 0.986692 0.002158
vt 0.855971 0.183166
vt 0.841295 0.183166
vt 0.841295 0.002158
vt 0.855971 0.002158
vt 0.985173 0.978274
vt 0.970497 0.978274
vt 0.970497 0.890216
vt 0.985173 0.890216
vt 0.090216 0.876693
vt 0.002158 0.876693
vt 0.002158 0.695685
vt 0.090216 0.695685
vt 0.182589 0.876693
vt 0.094531 0.876693
vt 0.094531 0.695685
vt 0.182589 0.695685
vt 0.134884 0.954792
vt 0.134884 0.934245
vt 0.147114 0.934245
vt 0.147114 0.954792
vt 0.939940 0.329353
vt 0.919393 0.329353
vt 0.919393 0.104315
vt 0.939940 0.104315
vt 0.464930 0.964440
vt 0.464930 0.943893
vt 0.477161 0.943893
vt 0.477161 0.964440
vt 0.943277 0.573959
vt 0.922730 0.573959
vt 0.922730 0.348921
vt 0.943277 0.348921
vt 0.311478 0.695685
vt 0.311478 0.920723
vt 0.299247 0.920723
vt 0.299247 0.695685
vt 0.893552 0.723884
vt 0.893552 0.948921
vt 0.881322 0.948921
vt 0.881322 0.723884
vt 0.482943 0.964440
vt 0.482943 0.943893
vt 0.495174 0.943893
vt 0.495174 0.964440
vt 0.915078 0.329353
vt 0.894531 0.329353
vt 0.894531 0.104315
vt 0.915078 0.104315
vt 0.500956 0.964440
vt 0.500956 0.943893
vt 0.513187 0.943893
vt 0.513187 0.964440
vt 0.294932 0.920723
vt 0.274385 0.920723
vt 0.274385 0.695685
vt 0.294932 0.695685
vt 0.956485 0.104315
vt 0.956485 0.329353
vt 0.944255 0.329353
vt 0.944255 0.104315
vt 0.959822 0.348921
vt 0.959822 0.573959
vt 0.947592 0.573959
vt 0.947592 0.348921
vt 0.517502 0.964440
vt 0.517502 0.943893
vt 0.529732 0.943893
vt 0.529732 0.964440
vt 0.943277 0.803312
vt 0.922730 0.803312
vt 0.922730 0.578274
vt 0.943277 0.578274
vt 0.536982 0.964440
vt 0.536982 0.943893
vt 0.549213 0.943893
vt 0.549213 0.964440
vt 0.918415 0.948921
vt 0.897868 0.948921
vt 0.897868 0.723884
vt 0.918415 0.723884
vt 0.959822 0.578274
vt 0.959822 0.803312
vt 0.947592 0.803312
vt 0.947592 0.578274
vt 0.973031 0.104315
vt 0.973031 0.329353
vt 0.960800 0.329353
vt 0.960800 0.104315
vt 0.873548 0.851079
vt 0.873548 0.723884
vt 0.877007 0.723884
vt 0.877007 0.851079
vt 0.870089 0.982589
vt 0.870089 0.855394
vt 0.873548 0.855394
vt 0.873548 0.982589
vt 0.877007 0.855394
vt 0.877007 0.982589
vt 0.628935 0.973959
vt 0.628935 0.846764
vt 0.632394 0.846764
vt 0.632394 0.973959
vt 0.635854 0.846764
vt 0.635854 0.973959
vt 0.990379 0.476116
vt 0.990379 0.348921
vt 0.993838 0.348921
vt 0.993838 0.476116
vt 0.814589 0.342707
vt 0.811942 0.340060
vt 0.811942 0.336315
vt 0.814589 0.333668
vt 0.818334 0.333668
vt 0.820981 0.336315
vt 0.820981 0.340060
vt 0.818334 0.342707
vt 0.997298 0.348921
vt 0.997298 0.476116
vt 0.870089 0.851079
vt 0.870089 0.723884
vt 0.834336 0.340060
vt 0.831688 0.342707
vt 0.827944 0.342707
vt 0.825296 0.340060
vt 0.825296 0.336315
vt 0.827944 0.333668
vt 0.831688 0.333668
vt 0.834336 0.336315
vt 0.727737 0.930584
vt 0.723998 0.935729
vt 0.721688 0.932549
vt 0.103824 0.951620
vt 0.103824 0.945260
vt 0.111301 0.945260
vt 0.110299 0.951620
vt 0.103824 0.938901
vt 0.103824 0.934245
vt 0.107562 0.934245
vt 0.110299 0.938901
vt 0.721262 0.939496
vt 0.717260 0.933988
vt 0.089481 0.944721
vt 0.083121 0.944721
vt 0.088266 0.940983
vt 0.742528 0.926650
vt 0.747043 0.921964
vt 0.750584 0.927247
vt 0.745594 0.931225
vt 0.092033 0.938246
vt 0.085087 0.938673
vt 0.086525 0.934245
vt 0.717260 0.927180
vt 0.721688 0.928619
vt 0.753094 0.919569
vt 0.756160 0.924144
vt 0.760829 0.922747
vt 0.763017 0.926012
vt 0.759951 0.929799
vt 0.742528 0.935012
vt 0.749385 0.936881
vt 0.744716 0.938277
vt 0.754961 0.933777
vt 0.081156 0.938673
vt 0.723998 0.925439
vt 0.721262 0.921672
vt 0.727737 0.919569
vt 0.727737 0.924224
vt 0.763017 0.934374
vt 0.758502 0.939060
vt 0.077976 0.940983
vt 0.752451 0.941456
vt 0.079717 0.934245
vt 0.074210 0.938246
vt 0.734211 0.921672
vt 0.731475 0.925439
vt 0.115616 0.945260
vt 0.116617 0.938901
vt 0.123092 0.938901
vt 0.123092 0.945260
vt 0.076761 0.944721
vt 0.116617 0.951620
vt 0.123092 0.951620
vt 0.119354 0.934245
vt 0.123092 0.934245
vt 0.738213 0.927180
vt 0.733785 0.928619
vt 0.129567 0.938901
vt 0.130568 0.945260
vt 0.077976 0.948459
vt 0.129567 0.951620
vt 0.126830 0.934245
vt 0.738213 0.933988
vt 0.733785 0.932549
vt 0.771848 0.939060
vt 0.767332 0.934374
vt 0.770399 0.929799
vt 0.775388 0.933777
vt 0.081156 0.950770
vt 0.777898 0.941456
vt 0.780964 0.936881
vt 0.074210 0.951196
vt 0.079717 0.955197
vt 0.774189 0.924144
vt 0.779765 0.927247
vt 0.085087 0.950770
vt 0.731475 0.935729
vt 0.784755 0.931225
vt 0.767332 0.926012
vt 0.769520 0.922747
vt 0.785633 0.938277
vt 0.787821 0.935012
vt 0.088266 0.948459
vt 0.727737 0.936944
vt 0.783306 0.921964
vt 0.787821 0.926650
vt 0.086525 0.955197
vt 0.092033 0.951196
vt 0.734211 0.939496
vt 0.727737 0.941599
vt 0.777255 0.919569
vt 0.097350 0.951620
vt 0.096348 0.945260
vt 0.097350 0.938901
vt 0.100086 0.934245
vt 0.811942 0.329353
vt 0.811942 0.221726
vt 0.890216 0.221726
vt 0.890216 0.329353
vt 0.753236 0.915253
vt 0.645610 0.915253
vt 0.645610 0.788058
vt 0.753236 0.788058
vt 0.840141 0.719569
vt 0.840141 0.611942
vt 0.918415 0.611942
vt 0.918415 0.719569
vt 0.865178 0.915253
vt 0.757552 0.915253
vt 0.757552 0.788058
vt 0.865178 0.788058
vt 0.918415 0.348921
vt 0.918415 0.476116
vt 0.840141 0.476116
vt 0.840141 0.348921
vt 0.918415 0.480432
vt 0.918415 0.607627
vt 0.840141 0.607627
vt 0.840141 0.480432
s 0
usemtl PvoBaked_head
f 1/1/1 2/2/1 4/3/1 3/4/1
f 3/5/2 4/6/2 8/7/2 7/8/2
f 7/9/3 8/10/3 6/11/3 5/12/3
f 5/13/4 6/14/4 2/15/4 1/16/4
f 3/17/5 7/18/5 5/19/5 1/20/5
f 8/21/6 4/22/6 2/23/6 6/24/6
f 9/25/1 10/26/1 12/27/1 11/28/1
f 11/29/2 12/30/2 16/31/2 15/32/2
f 15/33/3 16/34/3 14/35/3 13/36/3
f 13/37/4 14/38/4 10/39/4 9/40/4
f 11/41/5 15/42/5 13/43/5 9/44/5
f 16/45/6 12/46/6 10/47/6 14/48/6
f 17/49/1 18/50/1 20/51/1 19/52/1
f 19/53/2 20/54/2 24/55/2 23/56/2
f 23/57/3 24/58/3 22/59/3 21/60/3
f 21/61/4 22/62/4 18/63/4 17/64/4
f 19/65/5 23/66/5 21/67/5 17/68/5
f 24/69/6 20/70/6 18/71/6 22/72/6
f 25/73/1 26/74/1 28/75/1 27/76/1
f 27/77/2 28/78/2 32/79/2 31/80/2
f 31/81/3 32/82/3 30/83/3 29/84/3
f 29/85/4 30/86/4 26/87/4 25/88/4
f 27/89/5 31/90/5 29/91/5 25/92/5
f 32/93/6 28/94/6 26/95/6 30/96/6
f 33/97/1 34/98/1 36/99/1 35/100/1
f 35/101/2 36/102/2 40/103/2 39/104/2
f 39/105/3 40/106/3 38/107/3 37/108/3
f 37/109/4 38/110/4 34/111/4 33/112/4
f 35/113/5 39/114/5 37/115/5 33/116/5
f 40/117/6 36/118/6 34/119/6 38/120/6
s 1
f 41/121/7 42/122/8 44/123/9 43/124/10
f 43/125/10 44/126/9 46/127/11 45/128/12
f 45/128/12 46/127/11 48/129/13 47/130/14
f 47/130/14 48/129/13 50/131/15 49/132/16
f 49/133/16 50/134/15 52/135/17 51/136/18
f 51/136/18 52/135/17 54/137/19 53/138/20
f 53/139/20 54/140/19 56/141/21 55/142/22
f 55/142/22 56/141/21 58/143/23 57/144/24
f 44/145/9 42/146/8 60/147/25 58/148/23 56/149/21 54/150/19 52/151/17 50/152/15 48/153/13 46/154/11
f 57/144/24 58/143/23 60/155/25 59/156/26
f 59/157/26 60/158/25 42/122/8 41/121/7
f 41/159/7 43/160/10 45/161/12 47/162/14 49/163/16 51/164/18 53/165/20 55/166/22 57/167/24 59/168/26
f 61/169/7 62/170/8 64/171/9 63/172/10
f 63/173/10 64/174/9 66/175/11 65/176/12
f 65/176/12 66/175/11 68/177/13 67/178/14
f 67/178/14 68/177/13 70/179/15 69/180/16
f 69/181/16 70/182/15 72/183/17 71/184/18
f 71/184/18 72/183/17 74/185/19 73/186/20
f 73/187/20 74/188/19 76/189/21 75/190/22
f 75/190/22 76/189/21 78/191/23 77/192/24
f 64/193/9 62/194/8 80/195/25 78/196/23 76/197/21 74/198/19 72/199/17 70/200/15 68/201/13 66/202/11
f 77/192/24 78/191/23 80/203/25 79/204/26
f 79/205/26 80/206/25 62/170/8 61/169/7
f 61/207/7 63/208/10 65/209/12 67/210/14 69/211/16 71/212/18 73/213/20 75/214/22 77/215/24 79/216/26
f 81/217/7 82/218/8 84/219/9 83/220/10
f 83/221/10 84/222/9 86/223/11 85/224/12
f 85/224/12 86/223/11 88/225/13 87/226/14
f 87/226/14 88/225/13 90/227/15 89/228/16
f 89/229/16 90/230/15 92/231/17 91/232/18
f 91/232/18 92/231/17 94/233/19 93/234/20
f 93/235/20 94/236/19 96/237/21 95/238/22
f 95/238/22 96/237/21 98/239/23 97/240/24
f 84/241/9 82/242/8 100/243/25 98/244/23 96/245/21 94/246/19 92/247/17 90/248/15 88/249/13 86/250/11
f 97/240/24 98/239/23 100/251/25 99/252/26
f 99/253/26 100/254/25 82/218/8 81/217/7
f 81/255/7 83/256/10 85/257/12 87/258/14 89/259/16 91/260/18 93/261/20 95/262/22 97/263/24 99/264/26
f 101/265/7 102/266/8 104/267/9 103/268/10
f 103/269/10 104/270/9 106/271/11 105/272/12
f 105/272/12 106/271/11 108/273/13 107/274/14
f 107/274/14 108/273/13 110/275/15 109/276/16
f 109/277/16 110/278/15 112/279/17 111/280/18
f 111/280/18 112/279/17 114/281/19 113/282/20
f 113/283/20 114/284/19 116/285/21 115/286/22
f 115/286/22 116/285/21 118/287/23 117/288/24
f 104/289/9 102/290/8 120/291/25 118/292/23 116/293/21 114/294/19 112/295/17 110/296/15 108/297/13 106/298/11
f 117/288/24 118/287/23 120/299/25 119/300/26
f 119/301/26 120/302/25 102/266/8 101/265/7
f 101/303/7 103/304/10 105/305/12 107/306/14 109/307/16 111/308/18 113/309/20 115/310/22 117/311/24 119/312/26
f 121/313/7 122/314/8 124/315/9 123/316/10
f 123/317/10 124/318/9 126/319/11 125/320/12
f 125/320/12 126/319/11 128/321/13 127/322/14
f 127/322/14 128/321/13 130/323/15 129/324/16
f 129/325/16 130/326/15 132/327/17 131/328/18
f 131/328/18 132/327/17 134/329/19 133/330/20
f 133/331/20 134/332/19 136/333/21 135/334/22
f 135/334/22 136/333/21 138/335/23 137/336/24
f 124/337/9 122/338/8 140/339/25 138/340/23 136/341/21 134/342/19 132/343/17 130/344/15 128/345/13 126/346/11
f 137/336/24 138/335/23 140/347/25 139/348/26
f 139/349/26 140/350/25 122/314/8 121/313/7
f 121/351/7 123/352/10 125/353/12 127/354/14 129/355/16 131/356/18 133/357/20 135/358/22 137/359/24 139/360/26
f 141/361/7 142/362/8 144/363/9 143/364/10
f 143/365/10 144/366/9 146/367/11 145/368/12
f 145/368/12 146/367/11 148/369/13 147/370/14
f 147/370/14 148/369/13 150/371/15 149/372/16
f 149/373/16 150/374/15 152/375/17 151/376/18
f 151/376/18 152/375/17 154/377/19 153/378/20
f 153/379/20 154/380/19 156/381/21 155/382/22
f 155/382/22 156/381/21 158/383/23 157/384/24
f 144/385/9 142/386/8 160/387/25 158/388/23 156/389/21 154/390/19 152/391/17 150/392/15 148/393/13 146/394/11
f 157/384/24 158/383/23 160/395/25 159/396/26
f 159/397/26 160/398/25 142/362/8 141/361/7
f 141/399/7 143/400/10 145/401/12 147/402/14 149/403/16 151/404/18 153/405/20 155/406/22 157/407/24 159/408/26
s 0
f 161/409/1 162/410/1 164/411/1 163/412/1
f 163/413/2 164/414/2 168/415/2 167/416/2
f 167/417/3 168/418/3 166/419/3 165/420/3
f 165/421/4 166/422/4 162/423/4 161/424/4
f 163/425/5 167/426/5 165/427/5 161/428/5
f 168/429/6 164/430/6 162/431/6 166/432/6
f 169/433/1 170/434/1 172/435/1 171/436/1
f 171/437/2 172/438/2 176/439/2 175/440/2
f 175/441/3 176/442/3 174/443/3 173/444/3
f 173/445/4 174/446/4 170/447/4 169/448/4
f 171/449/5 175/450/5 173/451/5 169/452/5
f 176/453/6 172/454/6 170/455/6 174/456/6
f 177/457/1 178/458/1 180/459/1 179/460/1
f 179/461/2 180/462/2 184/463/2 183/464/2
f 183/465/3 184/466/3 182/467/3 181/468/3
f 181/469/4 182/470/4 178/471/4 177/472/4
f 179/473/5 183/474/5 181/475/5 177/476/5
f 184/477/6 180/478/6 178/479/6 182/480/6
f 185/481/1 186/482/1 188/483/1 187/484/1
f 187/485/2 188/486/2 192/487/2 191/488/2
f 191/489/3 192/490/3 190/491/3 189/492/3
f 189/493/4 190/494/4 186/495/4 185/496/4
f 187/497/5 191/498/5 189/499/5 185/500/5
f 192/501/6 188/502/6 186/503/6 190/504/6
f 193/505/1 194/506/1 196/507/1 195/508/1
f 195/509/2 196/510/2 200/511/2 199/512/2
f 199/513/3 200/514/3 198/515/3 197/516/3
f 197/517/4 198/518/4 194/519/4 193/520/4
f 195/521/5 199/522/5 197/523/5 193/524/5
f 200/525/6 196/526/6 194/527/6 198/528/6
f 201/529/1 202/530/1 204/531/1 203/532/1
f 203/533/2 204/534/2 208/535/2 207/536/2
f 207/537/3 208/538/3 206/539/3 205/540/3
f 205/541/4 206/542/4 202/543/4 201/544/4
f 203/545/5 207/546/5 205/547/5 201/548/5
f 208/549/6 204/550/6 202/551/6 206/552/6
s 1
f 209/553/27 210/554/28 212/555/29 211/556/30
f 211/557/30 212/558/29 214/559/31 213/560/32
f 213/560/32 214/559/31 216/561/33 215/562/34
f 215/563/34 216/564/33 218/565/35 217/566/36
f 217/566/36 218/565/35 220/567/37 219/568/38
f 219/569/38 220/570/37 222/571/39 221/572/40
f 212/573/29 210/574/28 224/575/41 222/576/39 220/577/37 218/578/35 216/579/33 214/580/31
f 221/572/40 222/571/39 224/581/41 223/582/42
f 223/583/42 224/584/41 210/554/28 209/553/27
f 209/585/27 211/586/30 213/587/32 215/588/34 217/589/36 219/590/38 221/591/40 223/592/42
f 260/593/5 276/594/43 229/595/44
f 275/596/45 274/597/2 227/598/46 228/599/47
f 273/600/48 272/601/49 225/602/50 226/603/51
f 276/594/43 275/604/45 228/605/47 229/595/44
f 274/597/2 273/600/48 226/603/51 227/598/46
f 272/606/49 261/607/6 225/608/50
f 228/609/47 227/610/46 232/611/52 233/612/53
f 226/613/51 225/608/50 230/614/54 231/615/55
f 229/595/44 228/605/47 233/616/53 234/617/56
f 227/610/46 226/618/51 231/619/55 232/611/52
f 225/608/50 261/607/6 230/614/54
f 260/593/5 229/595/44 234/617/56
f 231/619/55 230/620/54 235/621/57 236/622/58
f 234/623/56 233/612/53 238/624/59 239/625/60
f 232/611/52 231/619/55 236/622/58 237/626/61
f 230/614/54 261/607/6 235/627/57
f 260/593/5 234/617/56 239/628/60
f 233/612/53 232/611/52 237/626/61 238/624/59
f 239/628/60 238/629/59 243/630/62 244/631/63
f 237/626/61 236/622/58 241/632/64 242/633/65
f 235/627/57 261/607/6 240/634/66
f 260/593/5 239/628/60 244/631/63
f 238/624/59 237/626/61 242/633/65 243/635/62
f 236/636/58 235/627/57 240/634/66 241/637/64
f 244/631/63 243/630/62 248/638/67 249/639/68
f 242/640/65 241/641/64 246/642/69 247/643/4
f 240/634/66 261/607/6 245/644/70
f 260/593/5 244/631/63 249/639/68
f 243/645/62 242/640/65 247/643/4 248/646/67
f 241/641/64 240/647/66 245/648/70 246/642/69
f 249/639/68 248/638/67 253/649/71 254/650/72
f 247/643/4 246/642/69 251/651/73 252/652/74
f 245/644/70 261/607/6 250/653/75
f 260/593/5 249/639/68 254/650/72
f 248/646/67 247/643/4 252/652/74 253/654/71
f 246/642/69 245/648/70 250/655/75 251/651/73
f 254/650/72 253/649/71 258/656/76 259/657/77
f 252/658/74 251/659/73 256/660/78 257/661/79
f 250/653/75 261/607/6 255/662/80
f 260/593/5 254/650/72 259/657/77
f 253/663/71 252/658/74 257/661/79 258/664/76
f 251/665/73 250/653/75 255/662/80 256/666/78
f 257/661/79 256/660/78 263/667/81 264/668/82
f 255/662/80 261/607/6 262/669/83
f 260/593/5 259/657/77 266/670/84
f 258/664/76 257/661/79 264/668/82 265/671/85
f 256/660/78 255/672/80 262/673/83 263/667/81
f 259/674/77 258/664/76 265/671/85 266/675/84
f 262/669/83 261/607/6 267/676/86
f 260/593/5 266/670/84 271/677/87
f 265/671/85 264/668/82 269/678/88 270/679/89
f 263/680/81 262/669/83 267/676/86 268/681/90
f 266/670/84 265/682/85 270/683/89 271/677/87
f 264/668/82 263/667/81 268/684/90 269/678/88
f 260/593/5 271/677/87 276/594/43
f 270/685/89 269/686/88 274/597/2 275/596/45
f 268/687/90 267/688/86 272/601/49 273/600/48
f 271/677/87 270/683/89 275/604/45 276/594/43
f 269/686/88 268/687/90 273/600/48 274/597/2
f 267/676/86 261/607/6 272/606/49
s 0
f 277/689/1 278/690/1 280/691/1 279/692/1
f 279/693/2 280/694/2 284/695/2 283/696/2
f 283/697/3 284/698/3 282/699/3 281/700/3
f 281/701/4 282/702/4 278/703/4 277/704/4
f 279/705/5 283/706/5 281/707/5 277/708/5
f 284/709/6 280/710/6 278/711/6 282/712/6
