# Blender 4.2.3 LTS
# www.blender.org
mtllib bullet.mtl
o bullet
v 0.000000 0.060000 -0.158000
v 0.000000 0.150000 -0.158000
v 0.060464 0.060000 -0.145973
v 0.060464 0.150000 -0.145973
v 0.111723 0.060000 -0.111723
v 0.111723 0.150000 -0.111723
v 0.145973 0.060000 -0.060464
v 0.145973 0.150000 -0.060464
v 0.158000 0.060000 0.000000
v 0.158000 0.150000 0.000000
v 0.145973 0.060000 0.060464
v 0.145973 0.150000 0.060464
v 0.111723 0.060000 0.111723
v 0.111723 0.150000 0.111723
v 0.060464 0.060000 0.145973
v 0.060464 0.150000 0.145973
v 0.000000 0.060000 0.158000
v 0.000000 0.150000 0.158000
v -0.060464 0.060000 0.145973
v -0.060464 0.150000 0.145973
v -0.111723 0.060000 0.111723
v -0.111723 0.150000 0.111723
v -0.145973 0.060000 0.060464
v -0.145973 0.150000 0.060464
v -0.158000 0.060000 0.000000
v -0.158000 0.150000 0.000000
v -0.145973 0.060000 -0.060464
v -0.145973 0.150000 -0.060464
v -0.111723 0.060000 -0.111723
v -0.111723 0.150000 -0.111723
v -0.060464 0.060000 -0.145973
v -0.060464 0.150000 -0.145973
v 0.000000 0.000000 -0.140000
v 0.000000 0.550000 -0.140000
v 0.053576 0.000000 -0.129343
v 0.053576 0.550000 -0.129343
v 0.098995 0.000000 -0.098995
v 0.098995 0.550000 -0.098995
v 0.129343 0.000000 -0.053576
v 0.129343 0.550000 -0.053576
v 0.140000 0.000000 0.000000
v 0.140000 0.550000 0.000000
v 0.129343 0.000000 0.053576
v 0.129343 0.550000 0.053576
v 0.098995 0.000000 0.098995
v 0.098995 0.550000 0.098995
v 0.053576 0.000000 0.129343
v 0.053576 0.550000 0.129343
v 0.000000 0.000000 0.140000
v 0.000000 0.550000 0.140000
v -0.053576 0.000000 0.129343
v -0.053576 0.550000 0.129343
v -0.098995 0.000000 0.098995
v -0.098995 0.550000 0.098995
v -0.129343 0.000000 0.053576
v -0.129343 0.550000 0.053576
v -0.140000 0.000000 0.000000
v -0.140000 0.550000 0.000000
v -0.129343 0.000000 -0.053576
v -0.129343 0.550000 -0.053576
v -0.098995 0.000000 -0.098995
v -0.098995 0.550000 -0.098995
v -0.053576 0.000000 -0.129343
v -0.053576 0.550000 -0.129343
v 0.000000 0.550000 -0.140000
v 0.000000 0.970000 -0.030000
v 0.053576 0.550000 -0.129343
v 0.011481 0.970000 -0.027716
v 0.098995 0.550000 -0.098995
v 0.021213 0.970000 -0.021213
v 0.129343 0.550000 -0.053576
v 0.027716 0.970000 -0.011481
v 0.140000 0.550000 0.000000
v 0.030000 0.970000 0.000000
v 0.129343 0.550000 0.053576
v 0.027716 0.970000 0.011481
v 0.098995 0.550000 0.098995
v 0.021213 0.970000 0.021213
v 0.053576 0.550000 0.129343
v 0.011481 0.970000 0.027716
v 0.000000 0.550000 0.140000
v 0.000000 0.970000 0.030000
v -0.053576 0.550000 0.129343
v -0.011481 0.970000 0.027716
v -0.098995 0.550000 0.098995
v -0.021213 0.970000 0.021213
v -0.129343 0.550000 0.053576
v -0.027716 0.970000 0.011481
v -0.140000 0.550000 0.000000
v -0.030000 0.970000 0.000000
v -0.129343 0.550000 -0.053576
v -0.027716 0.970000 -0.011481
v -0.098995 0.550000 -0.098995
v -0.021213 0.970000 -0.021213
v -0.053576 0.550000 -0.129343
v -0.011481 0.970000 -0.027716
v 0.000000 0.992221 -0.041575
v 0.000000 0.957779 -0.041575
v 0.000000 0.933425 -0.017221
v 0.006590 1.016575 -0.015910
v 0.012177 1.006820 -0.029398
v 0.015910 0.992221 -0.038410
v 0.017221 0.975000 -0.041575
v 0.015910 0.957779 -0.038410
v 0.012177 0.943180 -0.029398
v 0.006590 0.933425 -0.015910
v 0.012177 1.016575 -0.012177
v 0.022500 1.006820 -0.022500
v 0.029398 0.992221 -0.029398
v 0.031820 0.975000 -0.031820
v 0.029398 0.957779 -0.029398
v 0.022500 0.943180 -0.022500
v 0.012177 0.933425 -0.012177
v 0.015910 1.016575 -0.006590
v 0.029398 1.006820 -0.012177
v 0.038410 0.992221 -0.015910
v 0.041575 0.975000 -0.017221
v 0.038410 0.957779 -0.015910
v 0.029398 0.943180 -0.012177
v 0.015910 0.933425 -0.006590
v 0.017221 1.016575 0.000000
v 0.031820 1.006820 0.000000
v 0.041575 0.992221 0.000000
v 0.045000 0.975000 0.000000
v 0.041575 0.957779 0.000000
v 0.031820 0.943180 0.000000
v 0.017221 0.933425 0.000000
v 0.015910 1.016575 0.006590
v 0.029398 1.006820 0.012177
v 0.038410 0.992221 0.015910
v 0.041575 0.975000 0.017221
v 0.038410 0.957779 0.015910
v 0.029398 0.943180 0.012177
v 0.015910 0.933425 0.006590
v 0.012177 1.016575 0.012177
v 0.022500 1.006820 0.022500
v 0.029398 0.992221 0.029398
v 0.031820 0.975000 0.031820
v 0.029398 0.957779 0.029398
v 0.022500 0.943180 0.022500
v 0.012177 0.933425 0.012177
v 0.006590 1.016575 0.015910
v 0.012177 1.006820 0.029398
v 0.015910 0.992221 0.038410
v 0.017221 0.975000 0.041575
v 0.015910 0.957779 0.038410
v 0.012177 0.943180 0.029398
v 0.006590 0.933425 0.015910
v -0.000000 1.016575 0.017221
v -0.000000 1.006820 0.031820
v -0.000000 0.992221 0.041575
v -0.000000 0.975000 0.045000
v -0.000000 0.957779 0.041575
v -0.000000 0.943180 0.031820
v -0.000000 0.933425 0.017221
v 0.000000 0.930000 0.000000
v 0.000000 1.020000 0.000000
v -0.006590 1.016575 0.015910
v -0.012177 1.006820 0.029398
v -0.015910 0.992221 0.038410
v -0.017221 0.975000 0.041575
v -0.015910 0.957779 0.038410
v -0.012177 0.943180 0.029398
v -0.006590 0.933425 0.015910
v -0.012177 1.016575 0.012177
v -0.022500 1.006820 0.022500
v -0.029398 0.992221 0.029398
v -0.031820 0.975000 0.031820
v -0.029398 0.957779 0.029398
v -0.022500 0.943180 0.022500
v -0.012177 0.933425 0.012177
v -0.015910 1.016575 0.006590
v -0.029398 1.006820 0.012177
v -0.038410 0.992221 0.015910
v -0.041575 0.975000 0.017221
v -0.038410 0.957779 0.015910
v -0.029398 0.943180 0.012177
v -0.015910 0.933425 0.006590
v -0.017221 1.016575 -0.000000
v -0.031820 1.006820 -0.000000
v -0.041575 0.992221 -0.000000
v -0.045000 0.975000 -0.000000
v -0.041575 0.957779 -0.000000
v -0.031820 0.943180 -0.000000
v -0.017221 0.933425 -0.000000
v -0.015910 1.016575 -0.006590
v -0.029398 1.006820 -0.012177
v -0.038410 0.992221 -0.015910
v -0.041575 0.975000 -0.017221
v -0.038410 0.957779 -0.015910
v -0.029398 0.943180 -0.012177
v -0.015910 0.933425 -0.006590
v -0.012177 1.016575 -0.012177
v -0.022500 1.006820 -0.022500
v -0.029398 0.992221 -0.029398
v -0.031820 0.975000 -0.031820
v -0.029398 0.957779 -0.029398
v -0.022500 0.943180 -0.022500
v -0.012177 0.933425 -0.012177
v -0.006590 1.016575 -0.015910
v -0.012177 1.006820 -0.029398
v -0.015910 0.992221 -0.038410
v -0.017221 0.975000 -0.041575
v -0.015910 0.957779 -0.038410
v -0.012177 0.943180 -0.029398
v -0.006590 0.933425 -0.015910
v 0.000000 1.016575 -0.017221
v 0.000000 1.006820 -0.031820
v 0.000000 0.975000 -0.045000
v 0.000000 0.943180 -0.031820
vn 0.1951 -0.0000 -0.9808
vn 0.5556 -0.0000 -0.8315
vn 0.8315 -0.0000 -0.5556
vn 0.9808 -0.0000 -0.1951
vn 0.9808 -0.0000 0.1951
vn 0.8315 -0.0000 0.5556
vn 0.5556 -0.0000 0.8315
vn 0.1951 -0.0000 0.9808
vn -0.1951 -0.0000 0.9808
vn -0.5556 -0.0000 0.8315
vn -0.8315 -0.0000 0.5556
vn -0.9808 -0.0000 0.1951
vn -0.9808 -0.0000 -0.1951
vn -0.8315 -0.0000 -0.5556
vn -0.0000 1.0000 -0.0000
vn -0.5556 -0.0000 -0.8315
vn -0.1951 -0.0000 -0.9808
vn -0.0000 -1.0000 -0.0000
vn 0.1890 0.2488 -0.9499
vn 0.5381 0.2488 -0.8053
vn 0.8053 0.2488 -0.5381
vn 0.9499 0.2488 -0.1890
vn 0.9499 0.2488 0.1890
vn 0.8053 0.2488 0.5381
vn 0.5381 0.2488 0.8053
vn 0.1890 0.2488 0.9499
vn -0.1890 0.2488 0.9499
vn -0.5381 0.2488 0.8053
vn -0.8053 0.2488 0.5381
vn -0.9499 0.2488 0.1890
vn -0.9499 0.2488 -0.1890
vn -0.8053 0.2488 -0.5381
vn -0.5381 0.2488 -0.8053
vn -0.1890 0.2488 -0.9499
vn 0.1915 0.1915 -0.9626
vn 0.1098 0.8264 -0.5522
vn 0.1098 -0.8264 -0.5522
vn 0.1915 -0.1915 -0.9626
vn 0.1632 0.5481 -0.8203
vn 0.0388 0.9800 -0.1949
vn 0.0388 -0.9800 -0.1949
vn 0.1632 -0.5481 -0.8203
vn 0.3128 -0.8264 -0.4681
vn 0.5453 -0.1915 -0.8161
vn 0.4647 0.5481 -0.6954
vn 0.1104 0.9800 -0.1653
vn 0.1104 -0.9800 -0.1653
vn 0.4647 -0.5481 -0.6954
vn 0.5453 0.1915 -0.8161
vn 0.3128 0.8264 -0.4681
vn 0.1653 0.9800 -0.1104
vn 0.1653 -0.9800 -0.1104
vn 0.6954 -0.5481 -0.4647
vn 0.8161 0.1915 -0.5453
vn 0.4681 0.8264 -0.3128
vn 0.4681 -0.8264 -0.3128
vn 0.8161 -0.1915 -0.5453
vn 0.6954 0.5481 -0.4647
vn 0.8203 -0.5481 -0.1632
vn 0.9626 0.1915 -0.1915
vn 0.5522 0.8264 -0.1098
vn 0.5522 -0.8264 -0.1098
vn 0.9626 -0.1915 -0.1915
vn 0.8203 0.5481 -0.1632
vn 0.1949 0.9800 -0.0388
vn 0.1949 -0.9801 -0.0388
vn 0.5522 -0.8264 0.1098
vn 0.9626 -0.1915 0.1915
vn 0.8203 0.5481 0.1632
vn 0.1949 0.9800 0.0388
vn 0.1949 -0.9800 0.0388
vn 0.8203 -0.5481 0.1632
vn 0.9626 0.1915 0.1915
vn 0.5522 0.8264 0.1098
vn 0.8161 -0.1915 0.5453
vn 0.6954 0.5481 0.4647
vn 0.1653 0.9800 0.1104
vn 0.1653 -0.9800 0.1104
vn 0.6954 -0.5481 0.4647
vn 0.8161 0.1915 0.5453
vn 0.4681 0.8264 0.3128
vn 0.4681 -0.8264 0.3128
vn 0.1104 -0.9800 0.1653
vn 0.4647 -0.5481 0.6954
vn 0.5453 0.1915 0.8161
vn 0.3128 0.8264 0.4681
vn 0.3128 -0.8264 0.4681
vn 0.5453 -0.1915 0.8161
vn 0.4647 0.5481 0.6954
vn 0.1104 0.9800 0.1653
vn 0.1915 0.1915 0.9626
vn 0.1098 0.8264 0.5522
vn 0.1098 -0.8264 0.5522
vn 0.1915 -0.1915 0.9626
vn 0.1632 0.5481 0.8203
vn 0.0388 0.9800 0.1949
vn 0.0388 -0.9800 0.1949
vn 0.1632 -0.5481 0.8203
vn -0.1098 -0.8264 0.5522
vn -0.1915 -0.1915 0.9626
vn -0.1632 0.5481 0.8203
vn -0.0388 0.9800 0.1949
vn -0.0388 -0.9800 0.1949
vn -0.1632 -0.5481 0.8203
vn -0.1915 0.1915 0.9626
vn -0.1098 0.8264 0.5522
vn -0.4647 0.5481 0.6954
vn -0.1104 0.9800 0.1653
vn -0.1104 -0.9800 0.1653
vn -0.4647 -0.5481 0.6954
vn -0.5453 0.1915 0.8161
vn -0.3128 0.8264 0.4681
vn -0.3128 -0.8264 0.4681
vn -0.5453 -0.1915 0.8161
vn -0.1653 -0.9800 0.1104
vn -0.6954 -0.5481 0.4647
vn -0.8161 0.1915 0.5453
vn -0.4681 0.8264 0.3128
vn -0.4681 -0.8264 0.3128
vn -0.8161 -0.1915 0.5453
vn -0.6954 0.5481 0.4647
vn -0.1653 0.9800 0.1104
vn -0.5522 0.8264 0.1098
vn -0.5522 -0.8264 0.1098
vn -0.9626 -0.1915 0.1915
vn -0.8203 0.5481 0.1632
vn -0.1949 0.9800 0.0388
vn -0.1949 -0.9800 0.0388
vn -0.8203 -0.5481 0.1632
vn -0.9626 0.1915 0.1915
vn -0.5522 -0.8264 -0.1098
vn -0.9626 -0.1915 -0.1915
vn -0.8203 0.5481 -0.1632
vn -0.1949 0.9800 -0.0388
vn -0.1949 -0.9800 -0.0388
vn -0.8203 -0.5481 -0.1632
vn -0.9626 0.1915 -0.1915
vn -0.5522 0.8264 -0.1098
vn -0.1653 0.9800 -0.1104
vn -0.1653 -0.9800 -0.1104
vn -0.6954 -0.5481 -0.4647
vn -0.8161 0.1915 -0.5453
vn -0.4681 0.8264 -0.3128
vn -0.4681 -0.8264 -0.3128
vn -0.8161 -0.1915 -0.5453
vn -0.6954 0.5481 -0.4647
vn -0.4647 -0.5481 -0.6954
vn -0.5453 0.1915 -0.8161
vn -0.3128 0.8264 -0.4681
vn -0.3128 -0.8264 -0.4681
vn -0.5453 -0.1915 -0.8161
vn -0.4647 0.5481 -0.6954
vn -0.1104 0.9800 -0.1653
vn -0.1104 -0.9800 -0.1653
vn -0.1098 -0.8264 -0.5522
vn -0.1915 -0.1915 -0.9626
vn -0.1632 0.5481 -0.8203
vn -0.0388 0.9800 -0.1949
vn -0.0388 -0.9800 -0.1949
vn -0.1632 -0.5481 -0.8203
vn -0.1915 0.1915 -0.9626
vn -0.1098 0.8264 -0.5522
vt 1.000000 0.500000
vt 1.000000 1.000000
vt 0.937500 1.000000
vt 0.937500 0.500000
vt 0.875000 1.000000
vt 0.875000 0.500000
vt 0.812500 1.000000
vt 0.812500 0.500000
vt 0.750000 1.000000
vt 0.750000 0.500000
vt 0.687500 1.000000
vt 0.687500 0.500000
vt 0.625000 1.000000
vt 0.625000 0.500000
vt 0.562500 1.000000
vt 0.562500 0.500000
vt 0.500000 1.000000
vt 0.500000 0.500000
vt 0.437500 1.000000
vt 0.437500 0.500000
vt 0.375000 1.000000
vt 0.375000 0.500000
vt 0.312500 1.000000
vt 0.312500 0.500000
vt 0.250000 1.000000
vt 0.250000 0.500000
vt 0.187500 1.000000
vt 0.187500 0.500000
vt 0.125000 1.000000
vt 0.125000 0.500000
vt 0.341844 0.471731
vt 0.250000 0.490000
vt 0.158156 0.471731
vt 0.080294 0.419706
vt 0.028269 0.341844
vt 0.010000 0.250000
vt 0.028269 0.158156
vt 0.080294 0.080294
vt 0.158156 0.028269
vt 0.250000 0.010000
vt 0.341844 0.028269
vt 0.419706 0.080294
vt 0.471731 0.158156
vt 0.490000 0.250000
vt 0.471731 0.341844
vt 0.419706 0.419706
vt 0.062500 1.000000
vt 0.062500 0.500000
vt 0.000000 1.000000
vt 0.000000 0.500000
vt 0.750000 0.490000
vt 0.841844 0.471731
vt 0.919706 0.419706
vt 0.971731 0.341844
vt 0.990000 0.250000
vt 0.971731 0.158156
vt 0.919706 0.080294
vt 0.841844 0.028269
vt 0.750000 0.010000
vt 0.658156 0.028269
vt 0.580294 0.080294
vt 0.528269 0.158156
vt 0.510000 0.250000
vt 0.528269 0.341844
vt 0.580294 0.419706
vt 0.658156 0.471731
vt 0.028269 0.341844
vt 0.028269 0.158156
vt 0.158156 0.028269
vt 0.341844 0.028269
vt 0.841844 0.028269
vt 0.658156 0.028269
vt 0.250000 0.490000
vt 0.010000 0.250000
vt 0.250000 0.010000
vt 0.490000 0.250000
vt 0.750000 0.500000
vt 0.750000 0.625000
vt 0.687500 0.625000
vt 0.750000 0.750000
vt 0.750000 0.875000
vt 0.687500 0.875000
vt 0.687500 0.750000
vt 0.750000 0.125000
vt 0.750000 0.250000
vt 0.687500 0.250000
vt 0.687500 0.125000
vt 0.750000 0.375000
vt 0.687500 0.375000
vt 0.718750 1.000000
vt 0.718750 0.000000
vt 0.625000 0.250000
vt 0.625000 0.125000
vt 0.625000 0.375000
vt 0.625000 0.750000
vt 0.625000 0.625000
vt 0.656250 1.000000
vt 0.625000 0.875000
vt 0.656250 0.000000
vt 0.593750 1.000000
vt 0.562500 0.875000
vt 0.593750 0.000000
vt 0.562500 0.125000
vt 0.562500 0.375000
vt 0.562500 0.250000
vt 0.562500 0.625000
vt 0.562500 0.750000
vt 0.500000 0.375000
vt 0.500000 0.250000
vt 0.500000 0.625000
vt 0.500000 0.875000
vt 0.500000 0.750000
vt 0.500000 0.125000
vt 0.531250 1.000000
vt 0.531250 0.000000
vt 0.437500 0.250000
vt 0.437500 0.125000
vt 0.437500 0.500000
vt 0.437500 0.375000
vt 0.437500 0.750000
vt 0.437500 0.625000
vt 0.468750 1.000000
vt 0.437500 0.875000
vt 0.468750 0.000000
vt 0.375000 0.500000
vt 0.375000 0.375000
vt 0.375000 0.750000
vt 0.375000 0.625000
vt 0.406250 1.000000
vt 0.375000 0.875000
vt 0.406250 0.000000
vt 0.375000 0.125000
vt 0.375000 0.250000
vt 0.343750 0.000000
vt 0.312500 0.125000
vt 0.312500 0.375000
vt 0.312500 0.250000
vt 0.312500 0.625000
vt 0.312500 0.500000
vt 0.312500 0.875000
vt 0.312500 0.750000
vt 0.343750 1.000000
vt 0.250000 0.625000
vt 0.250000 0.500000
vt 0.250000 0.875000
vt 0.250000 0.750000
vt 0.250000 0.250000
vt 0.250000 0.125000
vt 0.250000 0.375000
vt 0.281250 1.000000
vt 0.281250 0.000000
vt 0.187500 0.250000
vt 0.187500 0.125000
vt 0.187500 0.500000
vt 0.187500 0.375000
vt 0.187500 0.750000
vt 0.187500 0.625000
vt 0.218750 1.000000
vt 0.187500 0.875000
vt 0.218750 0.000000
vt 0.125000 0.750000
vt 0.125000 0.625000
vt 0.156250 1.000000
vt 0.125000 0.875000
vt 0.156250 0.000000
vt 0.125000 0.125000
vt 0.125000 0.375000
vt 0.125000 0.250000
vt 0.125000 0.500000
vt 0.093750 0.000000
vt 0.062500 0.125000
vt 0.062500 0.375000
vt 0.062500 0.250000
vt 0.062500 0.625000
vt 0.062500 0.500000
vt 0.062500 0.875000
vt 0.062500 0.750000
vt 0.093750 1.000000
vt 0.000000 0.875000
vt 0.000000 0.750000
vt 0.000000 0.250000
vt 0.000000 0.125000
vt 0.000000 0.375000
vt 0.000000 0.625000
vt 0.031250 1.000000
vt 0.031250 0.000000
vt 1.000000 0.125000
vt 1.000000 0.250000
vt 0.937500 0.250000
vt 0.937500 0.125000
vt 1.000000 0.375000
vt 0.937500 0.500000
vt 0.937500 0.375000
vt 1.000000 0.625000
vt 1.000000 0.750000
vt 0.937500 0.750000
vt 0.937500 0.625000
vt 1.000000 0.875000
vt 0.968750 1.000000
vt 0.937500 0.875000
vt 0.968750 0.000000
vt 0.906250 1.000000
vt 0.875000 0.875000
vt 0.906250 0.000000
vt 0.875000 0.125000
vt 0.875000 0.375000
vt 0.875000 0.250000
vt 0.875000 0.625000
vt 0.875000 0.500000
vt 0.875000 0.750000
vt 0.812500 0.375000
vt 0.812500 0.250000
vt 0.812500 0.625000
vt 0.812500 0.500000
vt 0.812500 0.875000
vt 0.812500 0.750000
vt 0.812500 0.125000
vt 0.843750 1.000000
vt 0.843750 0.000000
vt 0.781250 1.000000
vt 0.781250 0.000000
s 0
usemtl M_tracer
f 1/1/1 2/2/1 4/3/1 3/4/1
f 3/4/2 4/3/2 6/5/2 5/6/2
f 5/6/3 6/5/3 8/7/3 7/8/3
f 7/8/4 8/7/4 10/9/4 9/10/4
f 9/10/5 10/9/5 12/11/5 11/12/5
f 11/12/6 12/11/6 14/13/6 13/14/6
f 13/14/7 14/13/7 16/15/7 15/16/7
f 15/16/8 16/15/8 18/17/8 17/18/8
f 17/18/9 18/17/9 20/19/9 19/20/9
f 19/20/10 20/19/10 22/21/10 21/22/10
f 21/22/11 22/21/11 24/23/11 23/24/11
f 23/24/12 24/23/12 26/25/12 25/26/12
f 25/26/13 26/25/13 28/27/13 27/28/13
f 27/28/14 28/27/14 30/29/14 29/30/14
f 4/31/15 2/32/15 32/33/15 30/34/15 28/35/15 26/36/15 24/37/15 22/38/15 20/39/15 18/40/15 16/41/15 14/42/15 12/43/15 10/44/15 8/45/15 6/46/15
f 29/30/16 30/29/16 32/47/16 31/48/16
f 31/48/17 32/47/17 2/49/17 1/50/17
f 1/51/18 3/52/18 5/53/18 7/54/18 9/55/18 11/56/18 13/57/18 15/58/18 17/59/18 19/60/18 21/61/18 23/62/18 25/63/18 27/64/18 29/65/18 31/66/18
f 33/1/1 34/2/1 36/3/1 35/4/1
f 35/4/2 36/3/2 38/5/2 37/6/2
f 37/6/3 38/5/3 40/7/3 39/8/3
f 39/8/4 40/7/4 42/9/4 41/10/4
f 41/10/5 42/9/5 44/11/5 43/12/5
f 43/12/6 44/11/6 46/13/6 45/14/6
f 45/14/7 46/13/7 48/15/7 47/16/7
f 47/16/8 48/15/8 50/17/8 49/18/8
f 49/18/9 50/17/9 52/19/9 51/20/9
f 51/20/10 52/19/10 54/21/10 53/22/10
f 53/22/11 54/21/11 56/23/11 55/24/11
f 55/24/12 56/23/12 58/25/12 57/26/12
f 57/26/13 58/25/13 60/27/13 59/28/13
f 59/28/14 60/27/14 62/29/14 61/30/14
f 36/31/15 34/32/15 64/33/15 62/34/15 60/67/15 58/36/15 56/68/15 54/38/15 52/69/15 50/40/15 48/70/15 46/42/15 44/43/15 42/44/15 40/45/15 38/46/15
f 61/30/16 62/29/16 64/47/16 63/48/16
f 63/48/17 64/47/17 34/49/17 33/50/17
f 33/51/18 35/52/18 37/53/18 39/54/18 41/55/18 43/56/18 45/57/18 47/71/18 49/59/18 51/72/18 53/61/18 55/62/18 57/63/18 59/64/18 61/65/18 63/66/18
f 65/1/19 66/2/19 68/3/19 67/4/19
f 67/4/20 68/3/20 70/5/20 69/6/20
f 69/6/21 70/5/21 72/7/21 71/8/21
f 71/8/22 72/7/22 74/9/22 73/10/22
f 73/10/23 74/9/23 76/11/23 75/12/23
f 75/12/24 76/11/24 78/13/24 77/14/24
f 77/14/25 78/13/25 80/15/25 79/16/25
f 79/16/26 80/15/26 82/17/26 81/18/26
f 81/18/27 82/17/27 84/19/27 83/20/27
f 83/20/28 84/19/28 86/21/28 85/22/28
f 85/22/29 86/21/29 88/23/29 87/24/29
f 87/24/30 88/23/30 90/25/30 89/26/30
f 89/26/31 90/25/31 92/27/31 91/28/31
f 91/28/32 92/27/32 94/29/32 93/30/32
f 68/31/15 66/73/15 96/33/15 94/34/15 92/67/15 90/74/15 88/68/15 86/38/15 84/69/15 82/75/15 80/70/15 78/42/15 76/43/15 74/76/15 72/45/15 70/46/15
f 93/30/33 94/29/33 96/47/33 95/48/33
f 95/48/34 96/47/34 66/49/34 65/50/34
f 65/51/18 67/52/18 69/53/18 71/54/18 73/55/18 75/56/18 77/57/18 79/71/18 81/59/18 83/72/18 85/61/18 87/62/18 89/63/18 91/64/18 93/65/18 95/66/18
f 209/77/35 97/78/35 102/79/35 103/12/35
f 208/80/36 207/81/36 100/82/36 101/83/36
f 99/84/37 210/85/37 105/86/37 106/87/37
f 98/88/38 209/77/38 103/12/38 104/89/38
f 97/78/39 208/80/39 101/83/39 102/79/39
f 207/81/40 157/90/40 100/82/40
f 156/91/41 99/84/41 106/87/41
f 210/85/42 98/88/42 104/89/42 105/86/42
f 106/87/43 105/86/43 112/92/43 113/93/43
f 104/89/44 103/12/44 110/14/44 111/94/44
f 102/79/45 101/83/45 108/95/45 109/96/45
f 100/82/46 157/97/46 107/98/46
f 156/99/47 106/87/47 113/93/47
f 105/86/48 104/89/48 111/94/48 112/92/48
f 103/12/49 102/79/49 109/96/49 110/14/49
f 101/83/50 100/82/50 107/98/50 108/95/50
f 107/98/51 157/100/51 114/101/51
f 156/102/52 113/93/52 120/103/52
f 112/92/53 111/94/53 118/104/53 119/105/53
f 110/14/54 109/96/54 116/106/54 117/16/54
f 108/95/55 107/98/55 114/101/55 115/107/55
f 113/93/56 112/92/56 119/105/56 120/103/56
f 111/94/57 110/14/57 117/16/57 118/104/57
f 109/96/58 108/95/58 115/107/58 116/106/58
f 119/105/59 118/104/59 125/108/59 126/109/59
f 117/16/60 116/106/60 123/110/60 124/18/60
f 115/107/61 114/101/61 121/111/61 122/112/61
f 120/103/62 119/105/62 126/109/62 127/113/62
f 118/104/63 117/16/63 124/18/63 125/108/63
f 116/106/64 115/107/64 122/112/64 123/110/64
f 114/101/65 157/114/65 121/111/65
f 156/115/66 120/103/66 127/113/66
f 127/113/67 126/109/67 133/116/67 134/117/67
f 125/108/68 124/18/68 131/118/68 132/119/68
f 123/110/69 122/112/69 129/120/69 130/121/69
f 121/111/70 157/122/70 128/123/70
f 156/124/71 127/113/71 134/117/71
f 126/109/72 125/108/72 132/119/72 133/116/72
f 124/18/73 123/110/73 130/121/73 131/118/73
f 122/112/74 121/111/74 128/123/74 129/120/74
f 132/119/75 131/118/75 138/125/75 139/126/75
f 130/121/76 129/120/76 136/127/76 137/128/76
f 128/123/77 157/129/77 135/130/77
f 156/131/78 134/117/78 141/132/78
f 133/116/79 132/119/79 139/126/79 140/133/79
f 131/118/80 130/121/80 137/128/80 138/125/80
f 129/120/81 128/123/81 135/130/81 136/127/81
f 134/117/82 133/116/82 140/133/82 141/132/82
f 156/134/83 141/132/83 148/135/83
f 140/133/84 139/126/84 146/136/84 147/137/84
f 138/125/85 137/128/85 144/138/85 145/139/85
f 136/127/86 135/130/86 142/140/86 143/141/86
f 141/132/87 140/133/87 147/137/87 148/135/87
f 139/126/88 138/125/88 145/139/88 146/136/88
f 137/128/89 136/127/89 143/141/89 144/138/89
f 135/130/90 157/142/90 142/140/90
f 145/139/91 144/138/91 151/143/91 152/144/91
f 143/141/92 142/140/92 149/145/92 150/146/92
f 148/135/93 147/137/93 154/147/93 155/148/93
f 146/136/94 145/139/94 152/144/94 153/149/94
f 144/138/95 143/141/95 150/146/95 151/143/95
f 142/140/96 157/150/96 149/145/96
f 156/151/97 148/135/97 155/148/97
f 147/137/98 146/136/98 153/149/98 154/147/98
f 155/148/99 154/147/99 163/152/99 164/153/99
f 153/149/100 152/144/100 161/154/100 162/155/100
f 151/143/101 150/146/101 159/156/101 160/157/101
f 149/145/102 157/158/102 158/159/102
f 156/160/103 155/148/103 164/153/103
f 154/147/104 153/149/104 162/155/104 163/152/104
f 152/144/105 151/143/105 160/157/105 161/154/105
f 150/146/106 149/145/106 158/159/106 159/156/106
f 160/157/107 159/156/107 166/161/107 167/162/107
f 158/159/108 157/163/108 165/164/108
f 156/165/109 164/153/109 171/166/109
f 163/152/110 162/155/110 169/167/110 170/168/110
f 161/154/111 160/157/111 167/162/111 168/169/111
f 159/156/112 158/159/112 165/164/112 166/161/112
f 164/153/113 163/152/113 170/168/113 171/166/113
f 162/155/114 161/154/114 168/169/114 169/167/114
f 156/170/115 171/166/115 178/171/115
f 170/168/116 169/167/116 176/172/116 177/173/116
f 168/169/117 167/162/117 174/174/117 175/175/117
f 166/161/118 165/164/118 172/176/118 173/177/118
f 171/166/119 170/168/119 177/173/119 178/171/119
f 169/167/120 168/169/120 175/175/120 176/172/120
f 167/162/121 166/161/121 173/177/121 174/174/121
f 165/164/122 157/178/122 172/176/122
f 173/177/123 172/176/123 179/179/123 180/180/123
f 178/171/124 177/173/124 184/181/124 185/182/124
f 176/172/125 175/175/125 182/50/125 183/183/125
f 174/174/126 173/177/126 180/180/126 181/184/126
f 172/176/127 157/185/127 179/179/127
f 156/186/128 178/171/128 185/182/128
f 177/173/129 176/172/129 183/183/129 184/181/129
f 175/175/130 174/174/130 181/184/130 182/50/130
f 185/187/131 184/188/131 191/189/131 192/190/131
f 183/191/132 182/1/132 189/192/132 190/193/132
f 181/194/133 180/195/133 187/196/133 188/197/133
f 179/198/134 157/199/134 186/200/134
f 156/201/135 185/187/135 192/190/135
f 184/188/136 183/191/136 190/193/136 191/189/136
f 182/1/137 181/194/137 188/197/137 189/192/137
f 180/195/138 179/198/138 186/200/138 187/196/138
f 186/200/139 157/202/139 193/203/139
f 156/204/140 192/190/140 199/205/140
f 191/189/141 190/193/141 197/206/141 198/207/141
f 189/192/142 188/197/142 195/208/142 196/209/142
f 187/196/143 186/200/143 193/203/143 194/210/143
f 192/190/144 191/189/144 198/207/144 199/205/144
f 190/193/145 189/192/145 196/209/145 197/206/145
f 188/197/146 187/196/146 194/210/146 195/208/146
f 198/207/147 197/206/147 204/211/147 205/212/147
f 196/209/148 195/208/148 202/213/148 203/214/148
f 194/210/149 193/203/149 200/215/149 201/216/149
f 199/205/150 198/207/150 205/212/150 206/217/150
f 197/206/151 196/209/151 203/214/151 204/211/151
f 195/208/152 194/210/152 201/216/152 202/213/152
f 193/203/153 157/218/153 200/215/153
f 156/219/154 199/205/154 206/217/154
f 206/217/155 205/212/155 210/85/155 99/84/155
f 204/211/156 203/214/156 209/77/156 98/88/156
f 202/213/157 201/216/157 208/80/157 97/78/157
f 200/215/158 157/220/158 207/81/158
f 156/221/159 206/217/159 99/84/159
f 205/212/160 204/211/160 98/88/160 210/85/160
f 203/214/161 202/213/161 97/78/161 209/77/161
f 201/216/162 200/215/162 207/81/162 208/80/162
